%TF.GenerationSoftware,KiCad,Pcbnew,7.0.6-0*%
%TF.CreationDate,2023-12-09T22:08:43-05:00*%
%TF.ProjectId,bitcrane,62697463-7261-46e6-952e-6b696361645f,rev?*%
%TF.SameCoordinates,Original*%
%TF.FileFunction,Paste,Top*%
%TF.FilePolarity,Positive*%
%FSLAX46Y46*%
G04 Gerber Fmt 4.6, Leading zero omitted, Abs format (unit mm)*
G04 Created by KiCad (PCBNEW 7.0.6-0) date 2023-12-09 22:08:43*
%MOMM*%
%LPD*%
G01*
G04 APERTURE LIST*
G04 Aperture macros list*
%AMRoundRect*
0 Rectangle with rounded corners*
0 $1 Rounding radius*
0 $2 $3 $4 $5 $6 $7 $8 $9 X,Y pos of 4 corners*
0 Add a 4 corners polygon primitive as box body*
4,1,4,$2,$3,$4,$5,$6,$7,$8,$9,$2,$3,0*
0 Add four circle primitives for the rounded corners*
1,1,$1+$1,$2,$3*
1,1,$1+$1,$4,$5*
1,1,$1+$1,$6,$7*
1,1,$1+$1,$8,$9*
0 Add four rect primitives between the rounded corners*
20,1,$1+$1,$2,$3,$4,$5,0*
20,1,$1+$1,$4,$5,$6,$7,0*
20,1,$1+$1,$6,$7,$8,$9,0*
20,1,$1+$1,$8,$9,$2,$3,0*%
G04 Aperture macros list end*
%ADD10C,0.010000*%
%ADD11R,0.600000X1.000000*%
%ADD12R,0.700000X0.420000*%
%ADD13R,0.800000X0.900000*%
%ADD14R,1.473200X0.355600*%
%ADD15RoundRect,0.050000X-0.102500X-0.325000X0.102500X-0.325000X0.102500X0.325000X-0.102500X0.325000X0*%
%ADD16RoundRect,0.050000X-0.325000X0.102500X-0.325000X-0.102500X0.325000X-0.102500X0.325000X0.102500X0*%
%ADD17RoundRect,0.250000X-0.450000X0.262500X-0.450000X-0.262500X0.450000X-0.262500X0.450000X0.262500X0*%
%ADD18RoundRect,0.250000X0.262500X0.450000X-0.262500X0.450000X-0.262500X-0.450000X0.262500X-0.450000X0*%
%ADD19RoundRect,0.250000X-0.262500X-0.450000X0.262500X-0.450000X0.262500X0.450000X-0.262500X0.450000X0*%
%ADD20RoundRect,0.250000X0.475000X-0.250000X0.475000X0.250000X-0.475000X0.250000X-0.475000X-0.250000X0*%
%ADD21RoundRect,0.250000X-0.475000X0.250000X-0.475000X-0.250000X0.475000X-0.250000X0.475000X0.250000X0*%
%ADD22RoundRect,0.250000X0.250000X0.475000X-0.250000X0.475000X-0.250000X-0.475000X0.250000X-0.475000X0*%
%ADD23R,0.304800X0.711200*%
%ADD24R,0.711200X0.304800*%
%ADD25RoundRect,0.250000X0.450000X-0.262500X0.450000X0.262500X-0.450000X0.262500X-0.450000X-0.262500X0*%
%ADD26RoundRect,0.250000X-0.250000X-0.475000X0.250000X-0.475000X0.250000X0.475000X-0.250000X0.475000X0*%
%ADD27R,0.952500X0.558800*%
%ADD28R,0.600000X1.150000*%
%ADD29R,0.300000X1.150000*%
%ADD30O,1.000000X2.100000*%
%ADD31O,1.000000X1.800000*%
%ADD32RoundRect,0.250000X-1.050000X-0.550000X1.050000X-0.550000X1.050000X0.550000X-1.050000X0.550000X0*%
%ADD33RoundRect,0.250000X1.050000X0.550000X-1.050000X0.550000X-1.050000X-0.550000X1.050000X-0.550000X0*%
%ADD34RoundRect,0.200000X0.200000X0.275000X-0.200000X0.275000X-0.200000X-0.275000X0.200000X-0.275000X0*%
%ADD35R,1.200000X1.800000*%
%ADD36RoundRect,0.018900X0.116100X-0.391100X0.116100X0.391100X-0.116100X0.391100X-0.116100X-0.391100X0*%
%ADD37RoundRect,0.018900X0.391100X0.116100X-0.391100X0.116100X-0.391100X-0.116100X0.391100X-0.116100X0*%
%ADD38RoundRect,0.018900X-0.116100X0.391100X-0.116100X-0.391100X0.116100X-0.391100X0.116100X0.391100X0*%
%ADD39RoundRect,0.018900X-0.391100X-0.116100X0.391100X-0.116100X0.391100X0.116100X-0.391100X0.116100X0*%
%ADD40RoundRect,0.200000X-0.200000X-0.275000X0.200000X-0.275000X0.200000X0.275000X-0.200000X0.275000X0*%
G04 APERTURE END LIST*
%TO.C,U5*%
G36*
X80345000Y-94705000D02*
G01*
X79515000Y-94705000D01*
X79515000Y-95535000D01*
X80345000Y-95535000D01*
X80345000Y-94705000D01*
G37*
G36*
X79205000Y-94710000D02*
G01*
X78375000Y-94710000D01*
X78375000Y-95540000D01*
X79205000Y-95540000D01*
X79205000Y-94710000D01*
G37*
G36*
X80345000Y-95850000D02*
G01*
X79515000Y-95850000D01*
X79515000Y-96680000D01*
X80345000Y-96680000D01*
X80345000Y-95850000D01*
G37*
G36*
X79205000Y-95850000D02*
G01*
X78375000Y-95850000D01*
X78375000Y-96680000D01*
X79205000Y-96680000D01*
X79205000Y-95850000D01*
G37*
%TO.C,U4*%
G36*
X132556200Y-66446200D02*
G01*
X131410000Y-66446200D01*
X131410000Y-65300000D01*
X132556200Y-65300000D01*
X132556200Y-66446200D01*
G37*
G36*
X132556200Y-65100000D02*
G01*
X131410000Y-65100000D01*
X131410000Y-63953800D01*
X132556200Y-63953800D01*
X132556200Y-65100000D01*
G37*
G36*
X131210000Y-66446200D02*
G01*
X130063800Y-66446200D01*
X130063800Y-65300000D01*
X131210000Y-65300000D01*
X131210000Y-66446200D01*
G37*
G36*
X131210000Y-65100000D02*
G01*
X130063800Y-65100000D01*
X130063800Y-63953800D01*
X131210000Y-63953800D01*
X131210000Y-65100000D01*
G37*
%TO.C,U1*%
D10*
X115815000Y-99030000D02*
X114275000Y-99030000D01*
X114275000Y-97490000D01*
X115815000Y-97490000D01*
X115815000Y-99030000D01*
G36*
X115815000Y-99030000D02*
G01*
X114275000Y-99030000D01*
X114275000Y-97490000D01*
X115815000Y-97490000D01*
X115815000Y-99030000D01*
G37*
X117995000Y-99030000D02*
X116455000Y-99030000D01*
X116455000Y-97490000D01*
X117995000Y-97490000D01*
X117995000Y-99030000D01*
G36*
X117995000Y-99030000D02*
G01*
X116455000Y-99030000D01*
X116455000Y-97490000D01*
X117995000Y-97490000D01*
X117995000Y-99030000D01*
G37*
X115815000Y-96850000D02*
X114275000Y-96850000D01*
X114275000Y-95310000D01*
X115815000Y-95310000D01*
X115815000Y-96850000D01*
G36*
X115815000Y-96850000D02*
G01*
X114275000Y-96850000D01*
X114275000Y-95310000D01*
X115815000Y-95310000D01*
X115815000Y-96850000D01*
G37*
X117995000Y-96850000D02*
X116455000Y-96850000D01*
X116455000Y-95310000D01*
X117995000Y-95310000D01*
X117995000Y-96850000D01*
G36*
X117995000Y-96850000D02*
G01*
X116455000Y-96850000D01*
X116455000Y-95310000D01*
X117995000Y-95310000D01*
X117995000Y-96850000D01*
G37*
%TD*%
D11*
%TO.C,Q1*%
X149910000Y-60350000D03*
X149910000Y-61480000D03*
X150620000Y-60350000D03*
X150620000Y-61480000D03*
D12*
X151390000Y-59940000D03*
X151390000Y-60590000D03*
X151390000Y-61240000D03*
X151390000Y-61890000D03*
X148390000Y-59940000D03*
X148390000Y-60590000D03*
X148390000Y-61240000D03*
X148390000Y-61890000D03*
%TD*%
D13*
%TO.C,D1*%
X143430000Y-63660000D03*
X145330000Y-63660000D03*
X144380000Y-61660000D03*
%TD*%
D14*
%TO.C,U3*%
X98740000Y-100580000D03*
X98740000Y-99930002D03*
X98740000Y-99280000D03*
X98740000Y-98630002D03*
X92847200Y-98630002D03*
X92847200Y-99280000D03*
X92847200Y-99930002D03*
X92847200Y-100580000D03*
%TD*%
D15*
%TO.C,U5*%
X80330000Y-93870000D03*
X79680000Y-93870000D03*
X79030000Y-93870000D03*
X78380000Y-93870000D03*
D16*
X77530000Y-94720000D03*
X77530000Y-95370000D03*
X77530000Y-96020000D03*
X77530000Y-96670000D03*
D15*
X78380000Y-97520000D03*
X79030000Y-97520000D03*
X79680000Y-97520000D03*
X80330000Y-97520000D03*
D16*
X81180000Y-96670000D03*
X81180000Y-96020000D03*
X81180000Y-95370000D03*
X81180000Y-94720000D03*
%TD*%
D17*
%TO.C,R46*%
X161890000Y-92117500D03*
X161890000Y-93942500D03*
%TD*%
%TO.C,R45*%
X159810000Y-92097500D03*
X159810000Y-93922500D03*
%TD*%
%TO.C,R44*%
X85890000Y-63130000D03*
X85890000Y-64955000D03*
%TD*%
%TO.C,R43*%
X87980000Y-63127500D03*
X87980000Y-64952500D03*
%TD*%
%TO.C,R42*%
X97560000Y-52422500D03*
X97560000Y-54247500D03*
%TD*%
%TO.C,R41*%
X99480000Y-52420000D03*
X99480000Y-54245000D03*
%TD*%
%TO.C,R40*%
X85830000Y-52420000D03*
X85830000Y-54245000D03*
%TD*%
%TO.C,R39*%
X87890000Y-52407500D03*
X87890000Y-54232500D03*
%TD*%
D18*
%TO.C,R38*%
X78682500Y-49650000D03*
X76857500Y-49650000D03*
%TD*%
%TO.C,R37*%
X100252500Y-35500000D03*
X98427500Y-35500000D03*
%TD*%
%TO.C,R36*%
X79195000Y-35500000D03*
X77370000Y-35500000D03*
%TD*%
D19*
%TO.C,R35*%
X65567500Y-35500000D03*
X67392500Y-35500000D03*
%TD*%
%TO.C,R34*%
X86970000Y-35500000D03*
X88795000Y-35500000D03*
%TD*%
%TO.C,R33*%
X65600000Y-49690000D03*
X67425000Y-49690000D03*
%TD*%
%TO.C,R32*%
X71297500Y-61020000D03*
X73122500Y-61020000D03*
%TD*%
D18*
%TO.C,R31*%
X98255000Y-46800000D03*
X96430000Y-46800000D03*
%TD*%
%TO.C,R30*%
X76702500Y-46830000D03*
X74877500Y-46830000D03*
%TD*%
%TO.C,R29*%
X75102500Y-49650000D03*
X73277500Y-49650000D03*
%TD*%
D19*
%TO.C,R28*%
X69090000Y-49650000D03*
X70915000Y-49650000D03*
%TD*%
D18*
%TO.C,R27*%
X76702500Y-61020000D03*
X74877500Y-61020000D03*
%TD*%
%TO.C,R26*%
X96592500Y-35500000D03*
X94767500Y-35500000D03*
%TD*%
D19*
%TO.C,R25*%
X90670000Y-35500000D03*
X92495000Y-35500000D03*
%TD*%
%TO.C,R24*%
X92880000Y-46830000D03*
X94705000Y-46830000D03*
%TD*%
D20*
%TO.C,C21*%
X85120000Y-94610000D03*
X85120000Y-92710000D03*
%TD*%
D19*
%TO.C,R16*%
X120752500Y-57170000D03*
X118927500Y-57170000D03*
%TD*%
D21*
%TO.C,C4*%
X141060000Y-63600000D03*
X141060000Y-61700000D03*
%TD*%
%TO.C,C3*%
X153190000Y-64140000D03*
X153190000Y-62240000D03*
%TD*%
D22*
%TO.C,C20*%
X124920000Y-66140000D03*
X126820000Y-66140000D03*
%TD*%
D17*
%TO.C,R10*%
X147130000Y-65492500D03*
X147130000Y-63667500D03*
%TD*%
D19*
%TO.C,R15*%
X107412500Y-57170000D03*
X105587500Y-57170000D03*
%TD*%
%TO.C,R13*%
X142512500Y-57270000D03*
X140687500Y-57270000D03*
%TD*%
%TO.C,R14*%
X132042500Y-57180000D03*
X130217500Y-57180000D03*
%TD*%
D21*
%TO.C,C5*%
X138530000Y-61680000D03*
X138530000Y-63580000D03*
%TD*%
D23*
%TO.C,U4*%
X130335001Y-63250799D03*
X130984999Y-63250799D03*
X131635001Y-63250799D03*
X132284999Y-63250799D03*
D24*
X133259201Y-64225001D03*
X133259201Y-64874999D03*
X133259201Y-65525001D03*
X133259201Y-66174999D03*
D23*
X132284999Y-67149201D03*
X131635001Y-67149201D03*
X130984999Y-67149201D03*
X130335001Y-67149201D03*
D24*
X129360799Y-66174999D03*
X129360799Y-65525001D03*
X129360799Y-64874999D03*
X129360799Y-64225001D03*
%TD*%
D17*
%TO.C,R5*%
X118360000Y-127837500D03*
X118360000Y-129662500D03*
%TD*%
D19*
%TO.C,R21*%
X128585000Y-106060000D03*
X126760000Y-106060000D03*
%TD*%
%TO.C,R20*%
X128602500Y-108120000D03*
X126777500Y-108120000D03*
%TD*%
%TO.C,R19*%
X130607500Y-91170000D03*
X132432500Y-91170000D03*
%TD*%
D18*
%TO.C,R18*%
X119957500Y-69500000D03*
X121782500Y-69500000D03*
%TD*%
%TO.C,R17*%
X121782500Y-67310000D03*
X119957500Y-67310000D03*
%TD*%
D25*
%TO.C,R12*%
X114370000Y-106842500D03*
X114370000Y-105017500D03*
%TD*%
%TO.C,R11*%
X120670000Y-106502500D03*
X120670000Y-104677500D03*
%TD*%
%TO.C,R9*%
X101219000Y-96491500D03*
X101219000Y-94666500D03*
%TD*%
%TO.C,R8*%
X98276000Y-96508500D03*
X98276000Y-94683500D03*
%TD*%
%TO.C,R7*%
X95180000Y-96508500D03*
X95180000Y-94683500D03*
%TD*%
D18*
%TO.C,R6*%
X102892500Y-98230000D03*
X101067500Y-98230000D03*
%TD*%
D17*
%TO.C,R4*%
X103570000Y-127817500D03*
X103570000Y-129642500D03*
%TD*%
D18*
%TO.C,R3*%
X75785000Y-35500000D03*
X73960000Y-35500000D03*
%TD*%
D19*
%TO.C,R2*%
X69047500Y-35500000D03*
X70872500Y-35500000D03*
%TD*%
%TO.C,R1*%
X71297500Y-46830000D03*
X73122500Y-46830000D03*
%TD*%
D26*
%TO.C,C17*%
X119240000Y-114670000D03*
X121140000Y-114670000D03*
%TD*%
D22*
%TO.C,C16*%
X111960000Y-114780000D03*
X110060000Y-114780000D03*
%TD*%
D26*
%TO.C,C15*%
X124786000Y-99424000D03*
X126686000Y-99424000D03*
%TD*%
D20*
%TO.C,C14*%
X114080000Y-89730000D03*
X114080000Y-87830000D03*
%TD*%
D22*
%TO.C,C13*%
X109540000Y-98330000D03*
X107640000Y-98330000D03*
%TD*%
%TO.C,C12*%
X105990000Y-93590000D03*
X107890000Y-93590000D03*
%TD*%
D26*
%TO.C,C11*%
X119780000Y-89840000D03*
X121680000Y-89840000D03*
%TD*%
D21*
%TO.C,C10*%
X117640000Y-105780000D03*
X117640000Y-107680000D03*
%TD*%
D22*
%TO.C,C9*%
X108850000Y-101720000D03*
X106950000Y-101720000D03*
%TD*%
D21*
%TO.C,C8*%
X97750000Y-123810000D03*
X97750000Y-125710000D03*
%TD*%
%TO.C,C7*%
X104280000Y-124270000D03*
X104280000Y-126170000D03*
%TD*%
D20*
%TO.C,C2*%
X111000000Y-107840000D03*
X111000000Y-109740000D03*
%TD*%
D21*
%TO.C,C1*%
X104080000Y-109610000D03*
X104080000Y-107710000D03*
%TD*%
D27*
%TO.C,U2*%
X102418950Y-123724800D03*
X102418950Y-122785000D03*
X102418950Y-121845200D03*
X99663050Y-121845200D03*
X99663050Y-123724800D03*
%TD*%
D28*
%TO.C,J8*%
X107900000Y-127155000D03*
X108700000Y-127155000D03*
D29*
X109850000Y-127155000D03*
X110850000Y-127155000D03*
X111350000Y-127155000D03*
X112350000Y-127155000D03*
D28*
X113500000Y-127155000D03*
X114300000Y-127155000D03*
X114300000Y-127155000D03*
X113500000Y-127155000D03*
D29*
X112850000Y-127155000D03*
X111850000Y-127155000D03*
X110350000Y-127155000D03*
X109350000Y-127155000D03*
D28*
X108700000Y-127155000D03*
X107900000Y-127155000D03*
D30*
X106780000Y-127730000D03*
D31*
X106780000Y-131910000D03*
D30*
X115420000Y-127730000D03*
D31*
X115420000Y-131910000D03*
%TD*%
D32*
%TO.C,C19*%
X120110000Y-118760000D03*
X123710000Y-118760000D03*
%TD*%
D33*
%TO.C,C18*%
X111398000Y-118784000D03*
X107798000Y-118784000D03*
%TD*%
D22*
%TO.C,C6*%
X108940000Y-91200000D03*
X107040000Y-91200000D03*
%TD*%
D34*
%TO.C,FB1*%
X120945000Y-112730000D03*
X119295000Y-112730000D03*
%TD*%
D35*
%TO.C,Y1*%
X109030000Y-106910000D03*
X109030000Y-110910000D03*
X106630000Y-110910000D03*
X106630000Y-106910000D03*
%TD*%
D36*
%TO.C,U1*%
X112385000Y-101615000D03*
X112885000Y-101615000D03*
X113385000Y-101615000D03*
X113885000Y-101615000D03*
X114385000Y-101615000D03*
X114885000Y-101615000D03*
X115385000Y-101615000D03*
X115885000Y-101615000D03*
X116385000Y-101615000D03*
X116885000Y-101615000D03*
X117385000Y-101615000D03*
X117885000Y-101615000D03*
X118385000Y-101615000D03*
X118885000Y-101615000D03*
X119385000Y-101615000D03*
X119885000Y-101615000D03*
D37*
X120580000Y-100920000D03*
X120580000Y-100420000D03*
X120580000Y-99920000D03*
X120580000Y-99420000D03*
X120580000Y-98920000D03*
X120580000Y-98420000D03*
X120580000Y-97920000D03*
X120580000Y-97420000D03*
X120580000Y-96920000D03*
X120580000Y-96420000D03*
X120580000Y-95920000D03*
X120580000Y-95420000D03*
X120580000Y-94920000D03*
X120580000Y-94420000D03*
X120580000Y-93920000D03*
X120580000Y-93420000D03*
D38*
X119885000Y-92725000D03*
X119385000Y-92725000D03*
X118885000Y-92725000D03*
X118385000Y-92725000D03*
X117885000Y-92725000D03*
X117385000Y-92725000D03*
X116885000Y-92725000D03*
X116385000Y-92725000D03*
X115885000Y-92725000D03*
X115385000Y-92725000D03*
X114885000Y-92725000D03*
X114385000Y-92725000D03*
X113885000Y-92725000D03*
X113385000Y-92725000D03*
X112885000Y-92725000D03*
X112385000Y-92725000D03*
D39*
X111690000Y-93420000D03*
X111690000Y-93920000D03*
X111690000Y-94420000D03*
X111690000Y-94920000D03*
X111690000Y-95420000D03*
X111690000Y-95920000D03*
X111690000Y-96420000D03*
X111690000Y-96920000D03*
X111690000Y-97420000D03*
X111690000Y-97920000D03*
X111690000Y-98420000D03*
X111690000Y-98920000D03*
X111690000Y-99420000D03*
X111690000Y-99920000D03*
X111690000Y-100420000D03*
X111690000Y-100920000D03*
%TD*%
D40*
%TO.C,FB2*%
X110105000Y-112810000D03*
X111755000Y-112810000D03*
%TD*%
M02*
