%TF.GenerationSoftware,KiCad,Pcbnew,7.0.6-0*%
%TF.CreationDate,2023-12-09T22:08:43-05:00*%
%TF.ProjectId,bitcrane,62697463-7261-46e6-952e-6b696361645f,rev?*%
%TF.SameCoordinates,Original*%
%TF.FileFunction,Legend,Bot*%
%TF.FilePolarity,Positive*%
%FSLAX46Y46*%
G04 Gerber Fmt 4.6, Leading zero omitted, Abs format (unit mm)*
G04 Created by KiCad (PCBNEW 7.0.6-0) date 2023-12-09 22:08:43*
%MOMM*%
%LPD*%
G01*
G04 APERTURE LIST*
%ADD10C,0.010000*%
%ADD11C,1.226200*%
%ADD12C,1.400000*%
%ADD13C,1.300000*%
%ADD14C,1.549400*%
%ADD15C,0.500000*%
%ADD16C,4.000000*%
%ADD17C,2.775000*%
%ADD18C,3.050000*%
%ADD19C,0.650000*%
%ADD20O,1.000000X2.100000*%
%ADD21O,1.000000X1.800000*%
G04 APERTURE END LIST*
%LPC*%
%TO.C,J14*%
D10*
X143106200Y-50046200D02*
X140653800Y-50046200D01*
X140653800Y-47593800D01*
X143106200Y-47593800D01*
X143106200Y-50046200D01*
G36*
X143106200Y-50046200D02*
G01*
X140653800Y-50046200D01*
X140653800Y-47593800D01*
X143106200Y-47593800D01*
X143106200Y-50046200D01*
G37*
D11*
X142493100Y-54320000D02*
G75*
G03*
X142493100Y-54320000I-613100J0D01*
G01*
X146693100Y-48820000D02*
G75*
G03*
X146693100Y-48820000I-613100J0D01*
G01*
X146693100Y-54320000D02*
G75*
G03*
X146693100Y-54320000I-613100J0D01*
G01*
%TO.C,J15*%
D10*
X132086200Y-50046200D02*
X129633800Y-50046200D01*
X129633800Y-47593800D01*
X132086200Y-47593800D01*
X132086200Y-50046200D01*
G36*
X132086200Y-50046200D02*
G01*
X129633800Y-50046200D01*
X129633800Y-47593800D01*
X132086200Y-47593800D01*
X132086200Y-50046200D01*
G37*
D11*
X131473100Y-54320000D02*
G75*
G03*
X131473100Y-54320000I-613100J0D01*
G01*
X135673100Y-48820000D02*
G75*
G03*
X135673100Y-48820000I-613100J0D01*
G01*
X135673100Y-54320000D02*
G75*
G03*
X135673100Y-54320000I-613100J0D01*
G01*
%TO.C,J17*%
D10*
X121046200Y-50046200D02*
X118593800Y-50046200D01*
X118593800Y-47593800D01*
X121046200Y-47593800D01*
X121046200Y-50046200D01*
G36*
X121046200Y-50046200D02*
G01*
X118593800Y-50046200D01*
X118593800Y-47593800D01*
X121046200Y-47593800D01*
X121046200Y-50046200D01*
G37*
D11*
X120433100Y-54320000D02*
G75*
G03*
X120433100Y-54320000I-613100J0D01*
G01*
X124633100Y-48820000D02*
G75*
G03*
X124633100Y-48820000I-613100J0D01*
G01*
X124633100Y-54320000D02*
G75*
G03*
X124633100Y-54320000I-613100J0D01*
G01*
%TO.C,J16*%
D10*
X109906200Y-50046200D02*
X107453800Y-50046200D01*
X107453800Y-47593800D01*
X109906200Y-47593800D01*
X109906200Y-50046200D01*
G36*
X109906200Y-50046200D02*
G01*
X107453800Y-50046200D01*
X107453800Y-47593800D01*
X109906200Y-47593800D01*
X109906200Y-50046200D01*
G37*
D11*
X109293100Y-54320000D02*
G75*
G03*
X109293100Y-54320000I-613100J0D01*
G01*
X113493100Y-48820000D02*
G75*
G03*
X113493100Y-48820000I-613100J0D01*
G01*
X113493100Y-54320000D02*
G75*
G03*
X113493100Y-54320000I-613100J0D01*
G01*
%TD*%
D12*
%TO.C,J1*%
X160210000Y-78245000D03*
X160210000Y-80245000D03*
X160210000Y-82245000D03*
X158210000Y-78245000D03*
X158210000Y-80245000D03*
X158210000Y-82245000D03*
%TD*%
D13*
%TO.C,J2*%
X80080000Y-42980000D03*
X80080000Y-40980000D03*
X78080000Y-42980000D03*
X78080000Y-40980000D03*
X76080000Y-42980000D03*
X76080000Y-40980000D03*
X74080000Y-42980000D03*
X74080000Y-40980000D03*
X72080000Y-42980000D03*
X72080000Y-40980000D03*
X70080000Y-42980000D03*
X70080000Y-40980000D03*
X68080000Y-42980000D03*
X68080000Y-40980000D03*
X66080000Y-42980000D03*
X66080000Y-40980000D03*
X64080000Y-42980000D03*
X64080000Y-40980000D03*
%TD*%
%TO.C,J10*%
X80080000Y-57010000D03*
X80080000Y-55010000D03*
X78080000Y-57010000D03*
X78080000Y-55010000D03*
X76080000Y-57010000D03*
X76080000Y-55010000D03*
X74080000Y-57010000D03*
X74080000Y-55010000D03*
X72080000Y-57010000D03*
X72080000Y-55010000D03*
X70080000Y-57010000D03*
X70080000Y-55010000D03*
X68080000Y-57010000D03*
X68080000Y-55010000D03*
X66080000Y-57010000D03*
X66080000Y-55010000D03*
X64080000Y-57010000D03*
X64080000Y-55010000D03*
%TD*%
%TO.C,J9*%
X101510000Y-42980000D03*
X101510000Y-40980000D03*
X99510000Y-42980000D03*
X99510000Y-40980000D03*
X97510000Y-42980000D03*
X97510000Y-40980000D03*
X95510000Y-42980000D03*
X95510000Y-40980000D03*
X93510000Y-42980000D03*
X93510000Y-40980000D03*
X91510000Y-42980000D03*
X91510000Y-40980000D03*
X89510000Y-42980000D03*
X89510000Y-40980000D03*
X87510000Y-42980000D03*
X87510000Y-40980000D03*
X85510000Y-42980000D03*
X85510000Y-40980000D03*
%TD*%
D14*
%TO.C,J5*%
X136530000Y-51870750D03*
X133990000Y-51870750D03*
X131450000Y-51870750D03*
X128910000Y-51870750D03*
%TD*%
D15*
%TO.C,U5*%
X79355000Y-94975000D03*
X80075000Y-95695000D03*
X79355000Y-95695000D03*
X78635000Y-95695000D03*
X79355000Y-96415000D03*
%TD*%
D16*
%TO.C,H4*%
X63160000Y-127445000D03*
%TD*%
%TO.C,H3*%
X63160000Y-80245000D03*
%TD*%
%TO.C,H2*%
X163360000Y-128245000D03*
%TD*%
%TO.C,H1*%
X163360000Y-67365000D03*
%TD*%
D14*
%TO.C,J4*%
X147580000Y-51870750D03*
X145040000Y-51870750D03*
X142500000Y-51870750D03*
X139960000Y-51870750D03*
%TD*%
%TO.C,J7*%
X117890000Y-51870750D03*
X120430000Y-51870750D03*
X122970000Y-51870750D03*
X125510000Y-51870750D03*
%TD*%
%TO.C,J6*%
X106780000Y-51870750D03*
X109320000Y-51870750D03*
X111860000Y-51870750D03*
X114400000Y-51870750D03*
%TD*%
D17*
%TO.C,J3*%
X161360000Y-54740000D03*
X157160000Y-54740000D03*
X152960000Y-54740000D03*
X161360000Y-50540000D03*
X157160000Y-50540000D03*
X152960000Y-50540000D03*
D18*
X161360000Y-43240000D03*
X152960000Y-43240000D03*
%TD*%
D19*
%TO.C,J8*%
X108210000Y-128230000D03*
X113990000Y-128230000D03*
D20*
X106780000Y-127730000D03*
D21*
X106780000Y-131910000D03*
D20*
X115420000Y-127730000D03*
D21*
X115420000Y-131910000D03*
%TD*%
G36*
X61243442Y-34264685D02*
G01*
X61289197Y-34317489D01*
X61300403Y-34368977D01*
X61303463Y-50535750D01*
X61283791Y-50602793D01*
X61230996Y-50648558D01*
X61161839Y-50658514D01*
X61103973Y-50634146D01*
X61009981Y-50562018D01*
X61009978Y-50562016D01*
X60889399Y-50512057D01*
X60760006Y-50495000D01*
X58764063Y-50495000D01*
X58755972Y-50494470D01*
X58646770Y-50480112D01*
X58615494Y-50471736D01*
X58525067Y-50434291D01*
X58497025Y-50418103D01*
X58419372Y-50358522D01*
X58396477Y-50335627D01*
X58336896Y-50257974D01*
X58320708Y-50229932D01*
X58283263Y-50139505D01*
X58274887Y-50108228D01*
X58260530Y-49999027D01*
X58260000Y-49990936D01*
X58260000Y-34749066D01*
X58260531Y-34740964D01*
X58274906Y-34631776D01*
X58283284Y-34600508D01*
X58320740Y-34510081D01*
X58336925Y-34482048D01*
X58396508Y-34404398D01*
X58419398Y-34381508D01*
X58497048Y-34321925D01*
X58525081Y-34305740D01*
X58615508Y-34268284D01*
X58646776Y-34259906D01*
X58755966Y-34245531D01*
X58764067Y-34245000D01*
X61176403Y-34245000D01*
X61243442Y-34264685D01*
G37*
G36*
X61238559Y-55544001D02*
G01*
X61288549Y-55592814D01*
X61304432Y-55653510D01*
X61318335Y-129097162D01*
X61298663Y-129164205D01*
X61245868Y-129209970D01*
X61176711Y-129219926D01*
X61118845Y-129195558D01*
X61009982Y-129112018D01*
X61009978Y-129112016D01*
X60889399Y-129062057D01*
X60760006Y-129045000D01*
X58764063Y-129045000D01*
X58755972Y-129044470D01*
X58646770Y-129030112D01*
X58615494Y-129021736D01*
X58525067Y-128984291D01*
X58497025Y-128968103D01*
X58419372Y-128908522D01*
X58396477Y-128885627D01*
X58336896Y-128807974D01*
X58320708Y-128779932D01*
X58283263Y-128689505D01*
X58274887Y-128658228D01*
X58260530Y-128549027D01*
X58260000Y-128540936D01*
X58260000Y-56199066D01*
X58260531Y-56190964D01*
X58274906Y-56081776D01*
X58283284Y-56050508D01*
X58320740Y-55960081D01*
X58336925Y-55932048D01*
X58396508Y-55854398D01*
X58419398Y-55831508D01*
X58497048Y-55771925D01*
X58525081Y-55755740D01*
X58615508Y-55718284D01*
X58646776Y-55709906D01*
X58755966Y-55695531D01*
X58764067Y-55695000D01*
X60759993Y-55695000D01*
X60760009Y-55694998D01*
X60889408Y-55677963D01*
X60889413Y-55677961D01*
X61009995Y-55628015D01*
X61010001Y-55628012D01*
X61104945Y-55555158D01*
X61170114Y-55529963D01*
X61238559Y-55544001D01*
G37*
G36*
X167764041Y-34245532D02*
G01*
X167873215Y-34259923D01*
X167904474Y-34268304D01*
X167994902Y-34305771D01*
X168022928Y-34321954D01*
X168100576Y-34381540D01*
X168123459Y-34404423D01*
X168183045Y-34482071D01*
X168199228Y-34510097D01*
X168236695Y-34600525D01*
X168245075Y-34631783D01*
X168259468Y-34740957D01*
X168260000Y-34749069D01*
X168260000Y-49990934D01*
X168259469Y-49999035D01*
X168245093Y-50108224D01*
X168236715Y-50139491D01*
X168199259Y-50229918D01*
X168183074Y-50257951D01*
X168123491Y-50335601D01*
X168100601Y-50358491D01*
X168022951Y-50418074D01*
X167994918Y-50434259D01*
X167904491Y-50471715D01*
X167873224Y-50480093D01*
X167764035Y-50494469D01*
X167755934Y-50495000D01*
X165760007Y-50495000D01*
X165759990Y-50495001D01*
X165630591Y-50512036D01*
X165630586Y-50512038D01*
X165510004Y-50561984D01*
X165510003Y-50561984D01*
X165406447Y-50641447D01*
X165326984Y-50745003D01*
X165324138Y-50749934D01*
X165273568Y-50798147D01*
X165204960Y-50811366D01*
X165140097Y-50785395D01*
X165099572Y-50728478D01*
X165092754Y-50687811D01*
X165108101Y-34368883D01*
X165127849Y-34301862D01*
X165180696Y-34256157D01*
X165232101Y-34245000D01*
X167755929Y-34245000D01*
X167764041Y-34245532D01*
G37*
G36*
X165293526Y-55398450D02*
G01*
X165322260Y-55438340D01*
X165322890Y-55437977D01*
X165326484Y-55444203D01*
X165326799Y-55444640D01*
X165326956Y-55445020D01*
X165406416Y-55548583D01*
X165509979Y-55628043D01*
X165630581Y-55677983D01*
X165760000Y-55694999D01*
X165760005Y-55695000D01*
X167755929Y-55695000D01*
X167764041Y-55695532D01*
X167873215Y-55709923D01*
X167904474Y-55718304D01*
X167994902Y-55755771D01*
X168022928Y-55771954D01*
X168100576Y-55831540D01*
X168123459Y-55854423D01*
X168183045Y-55932071D01*
X168199228Y-55960097D01*
X168236695Y-56050525D01*
X168245075Y-56081783D01*
X168259468Y-56190957D01*
X168260000Y-56199069D01*
X168260000Y-128540934D01*
X168259469Y-128549035D01*
X168245093Y-128658224D01*
X168236715Y-128689491D01*
X168199259Y-128779918D01*
X168183074Y-128807951D01*
X168123491Y-128885601D01*
X168100601Y-128908491D01*
X168022951Y-128968074D01*
X167994918Y-128984259D01*
X167904491Y-129021715D01*
X167873224Y-129030093D01*
X167764035Y-129044469D01*
X167755934Y-129045000D01*
X165760007Y-129045000D01*
X165759990Y-129045001D01*
X165630591Y-129062036D01*
X165630586Y-129062038D01*
X165510004Y-129111984D01*
X165510003Y-129111984D01*
X165406447Y-129191447D01*
X165326984Y-129295003D01*
X165326984Y-129295004D01*
X165277038Y-129415586D01*
X165277037Y-129415591D01*
X165265585Y-129502574D01*
X165237318Y-129566470D01*
X165178993Y-129604941D01*
X165109129Y-129605772D01*
X165049905Y-129568700D01*
X165020127Y-129505494D01*
X165018646Y-129486271D01*
X165088235Y-55491970D01*
X165107983Y-55424949D01*
X165160830Y-55379244D01*
X165229997Y-55369366D01*
X165293526Y-55398450D01*
G37*
%LPD*%
M02*
