%TF.GenerationSoftware,KiCad,Pcbnew,7.0.6-0*%
%TF.CreationDate,2023-12-09T22:08:43-05:00*%
%TF.ProjectId,bitcrane,62697463-7261-46e6-952e-6b696361645f,rev?*%
%TF.SameCoordinates,Original*%
%TF.FileFunction,Copper,L1,Top*%
%TF.FilePolarity,Positive*%
%FSLAX46Y46*%
G04 Gerber Fmt 4.6, Leading zero omitted, Abs format (unit mm)*
G04 Created by KiCad (PCBNEW 7.0.6-0) date 2023-12-09 22:08:43*
%MOMM*%
%LPD*%
G01*
G04 APERTURE LIST*
G04 Aperture macros list*
%AMRoundRect*
0 Rectangle with rounded corners*
0 $1 Rounding radius*
0 $2 $3 $4 $5 $6 $7 $8 $9 X,Y pos of 4 corners*
0 Add a 4 corners polygon primitive as box body*
4,1,4,$2,$3,$4,$5,$6,$7,$8,$9,$2,$3,0*
0 Add four circle primitives for the rounded corners*
1,1,$1+$1,$2,$3*
1,1,$1+$1,$4,$5*
1,1,$1+$1,$6,$7*
1,1,$1+$1,$8,$9*
0 Add four rect primitives between the rounded corners*
20,1,$1+$1,$2,$3,$4,$5,0*
20,1,$1+$1,$4,$5,$6,$7,0*
20,1,$1+$1,$6,$7,$8,$9,0*
20,1,$1+$1,$8,$9,$2,$3,0*%
%AMFreePoly0*
4,1,17,1.395000,0.765000,0.855000,0.765000,0.855000,0.535000,1.395000,0.535000,1.395000,0.115000,0.855000,0.115000,0.855000,-0.115000,1.395000,-0.115000,1.395000,-0.535000,0.855000,-0.535000,0.855000,-0.765000,1.395000,-0.765000,1.395000,-1.185000,-0.855000,-1.185000,-0.855000,1.185000,1.395000,1.185000,1.395000,0.765000,1.395000,0.765000,$1*%
G04 Aperture macros list end*
%TA.AperFunction,SMDPad,CuDef*%
%ADD10R,0.700000X0.420000*%
%TD*%
%TA.AperFunction,SMDPad,CuDef*%
%ADD11FreePoly0,0.000000*%
%TD*%
%TA.AperFunction,ComponentPad*%
%ADD12C,1.400000*%
%TD*%
%TA.AperFunction,ComponentPad*%
%ADD13C,1.300000*%
%TD*%
%TA.AperFunction,ComponentPad*%
%ADD14C,2.300000*%
%TD*%
%TA.AperFunction,ComponentPad*%
%ADD15C,1.549400*%
%TD*%
%TA.AperFunction,SMDPad,CuDef*%
%ADD16R,0.800000X0.900000*%
%TD*%
%TA.AperFunction,SMDPad,CuDef*%
%ADD17R,1.473200X0.355600*%
%TD*%
%TA.AperFunction,SMDPad,CuDef*%
%ADD18RoundRect,0.050000X-0.102500X-0.325000X0.102500X-0.325000X0.102500X0.325000X-0.102500X0.325000X0*%
%TD*%
%TA.AperFunction,SMDPad,CuDef*%
%ADD19RoundRect,0.050000X-0.325000X0.102500X-0.325000X-0.102500X0.325000X-0.102500X0.325000X0.102500X0*%
%TD*%
%TA.AperFunction,ComponentPad*%
%ADD20C,0.500000*%
%TD*%
%TA.AperFunction,SMDPad,CuDef*%
%ADD21R,2.160000X2.160000*%
%TD*%
%TA.AperFunction,SMDPad,CuDef*%
%ADD22C,1.500000*%
%TD*%
%TA.AperFunction,SMDPad,CuDef*%
%ADD23RoundRect,0.250000X-0.450000X0.262500X-0.450000X-0.262500X0.450000X-0.262500X0.450000X0.262500X0*%
%TD*%
%TA.AperFunction,SMDPad,CuDef*%
%ADD24RoundRect,0.250000X0.262500X0.450000X-0.262500X0.450000X-0.262500X-0.450000X0.262500X-0.450000X0*%
%TD*%
%TA.AperFunction,SMDPad,CuDef*%
%ADD25RoundRect,0.250000X-0.262500X-0.450000X0.262500X-0.450000X0.262500X0.450000X-0.262500X0.450000X0*%
%TD*%
%TA.AperFunction,SMDPad,CuDef*%
%ADD26RoundRect,0.250000X0.475000X-0.250000X0.475000X0.250000X-0.475000X0.250000X-0.475000X-0.250000X0*%
%TD*%
%TA.AperFunction,ComponentPad*%
%ADD27C,4.000000*%
%TD*%
%TA.AperFunction,SMDPad,CuDef*%
%ADD28RoundRect,0.250000X-0.475000X0.250000X-0.475000X-0.250000X0.475000X-0.250000X0.475000X0.250000X0*%
%TD*%
%TA.AperFunction,SMDPad,CuDef*%
%ADD29RoundRect,0.250000X0.250000X0.475000X-0.250000X0.475000X-0.250000X-0.475000X0.250000X-0.475000X0*%
%TD*%
%TA.AperFunction,SMDPad,CuDef*%
%ADD30R,2.692400X2.692400*%
%TD*%
%TA.AperFunction,SMDPad,CuDef*%
%ADD31R,0.304800X0.711200*%
%TD*%
%TA.AperFunction,SMDPad,CuDef*%
%ADD32R,0.711200X0.304800*%
%TD*%
%TA.AperFunction,SMDPad,CuDef*%
%ADD33RoundRect,0.250000X0.450000X-0.262500X0.450000X0.262500X-0.450000X0.262500X-0.450000X-0.262500X0*%
%TD*%
%TA.AperFunction,SMDPad,CuDef*%
%ADD34RoundRect,0.250000X-0.250000X-0.475000X0.250000X-0.475000X0.250000X0.475000X-0.250000X0.475000X0*%
%TD*%
%TA.AperFunction,SMDPad,CuDef*%
%ADD35R,0.952500X0.558800*%
%TD*%
%TA.AperFunction,ComponentPad*%
%ADD36C,2.775000*%
%TD*%
%TA.AperFunction,SMDPad,CuDef*%
%ADD37R,0.600000X1.150000*%
%TD*%
%TA.AperFunction,SMDPad,CuDef*%
%ADD38R,0.300000X1.150000*%
%TD*%
%TA.AperFunction,ComponentPad*%
%ADD39O,1.000000X2.100000*%
%TD*%
%TA.AperFunction,ComponentPad*%
%ADD40O,1.000000X1.800000*%
%TD*%
%TA.AperFunction,SMDPad,CuDef*%
%ADD41RoundRect,0.250000X-1.050000X-0.550000X1.050000X-0.550000X1.050000X0.550000X-1.050000X0.550000X0*%
%TD*%
%TA.AperFunction,SMDPad,CuDef*%
%ADD42RoundRect,0.250000X1.050000X0.550000X-1.050000X0.550000X-1.050000X-0.550000X1.050000X-0.550000X0*%
%TD*%
%TA.AperFunction,SMDPad,CuDef*%
%ADD43RoundRect,0.200000X0.200000X0.275000X-0.200000X0.275000X-0.200000X-0.275000X0.200000X-0.275000X0*%
%TD*%
%TA.AperFunction,SMDPad,CuDef*%
%ADD44R,1.200000X1.800000*%
%TD*%
%TA.AperFunction,SMDPad,CuDef*%
%ADD45RoundRect,0.018900X0.116100X-0.391100X0.116100X0.391100X-0.116100X0.391100X-0.116100X-0.391100X0*%
%TD*%
%TA.AperFunction,SMDPad,CuDef*%
%ADD46RoundRect,0.018900X0.391100X0.116100X-0.391100X0.116100X-0.391100X-0.116100X0.391100X-0.116100X0*%
%TD*%
%TA.AperFunction,SMDPad,CuDef*%
%ADD47RoundRect,0.018900X-0.116100X0.391100X-0.116100X-0.391100X0.116100X-0.391100X0.116100X0.391100X0*%
%TD*%
%TA.AperFunction,SMDPad,CuDef*%
%ADD48RoundRect,0.018900X-0.391100X-0.116100X0.391100X-0.116100X0.391100X0.116100X-0.391100X0.116100X0*%
%TD*%
%TA.AperFunction,SMDPad,CuDef*%
%ADD49R,4.350000X4.350000*%
%TD*%
%TA.AperFunction,SMDPad,CuDef*%
%ADD50RoundRect,0.200000X-0.200000X-0.275000X0.200000X-0.275000X0.200000X0.275000X-0.200000X0.275000X0*%
%TD*%
%TA.AperFunction,ViaPad*%
%ADD51C,0.800000*%
%TD*%
%TA.AperFunction,Conductor*%
%ADD52C,0.250000*%
%TD*%
%TA.AperFunction,Conductor*%
%ADD53C,0.500000*%
%TD*%
G04 APERTURE END LIST*
D10*
%TO.P,Q1,1,S*%
%TO.N,/12V*%
X148390000Y-59940000D03*
%TO.P,Q1,2,S*%
X148390000Y-60590000D03*
%TO.P,Q1,3,S*%
X148390000Y-61240000D03*
%TO.P,Q1,4,G*%
%TO.N,Net-(D1-A)*%
X148390000Y-61890000D03*
D11*
%TO.P,Q1,5,D*%
%TO.N,Net-(Q1-D)*%
X150345000Y-60915000D03*
%TD*%
D12*
%TO.P,J1,1,Pin_1*%
%TO.N,unconnected-(J1-Pin_1-Pad1)*%
X160210000Y-78245000D03*
%TO.P,J1,2,Pin_2*%
%TO.N,GND*%
X160210000Y-80245000D03*
%TO.P,J1,3,Pin_3*%
%TO.N,/SDA3*%
X160210000Y-82245000D03*
%TO.P,J1,4,Pin_4*%
%TO.N,unconnected-(J1-Pin_4-Pad4)*%
X158210000Y-78245000D03*
%TO.P,J1,5,Pin_5*%
%TO.N,/PSU_EN*%
X158210000Y-80245000D03*
%TO.P,J1,6,Pin_6*%
%TO.N,/SCL3*%
X158210000Y-82245000D03*
%TD*%
D13*
%TO.P,J2,1,Pin_1*%
%TO.N,GND*%
X80080000Y-42980000D03*
%TO.P,J2,2,Pin_2*%
X80080000Y-40980000D03*
%TO.P,J2,3,Pin_3*%
%TO.N,/SDA0*%
X78080000Y-42980000D03*
%TO.P,J2,4,Pin_4*%
%TO.N,/SCL0*%
X78080000Y-40980000D03*
%TO.P,J2,5,Pin_5*%
%TO.N,/PLUG0*%
X76080000Y-42980000D03*
%TO.P,J2,6,Pin_6*%
%TO.N,/A20*%
X76080000Y-40980000D03*
%TO.P,J2,7,Pin_7*%
%TO.N,/A10*%
X74080000Y-42980000D03*
%TO.P,J2,8,Pin_8*%
%TO.N,/A00*%
X74080000Y-40980000D03*
%TO.P,J2,9,Pin_9*%
%TO.N,GND*%
X72080000Y-42980000D03*
%TO.P,J2,10,Pin_10*%
X72080000Y-40980000D03*
%TO.P,J2,11,Pin_11*%
%TO.N,/TXD0*%
X70080000Y-42980000D03*
%TO.P,J2,12,Pin_12*%
%TO.N,/RXD0*%
X70080000Y-40980000D03*
%TO.P,J2,13,Pin_13*%
%TO.N,GND*%
X68080000Y-42980000D03*
%TO.P,J2,14,Pin_14*%
X68080000Y-40980000D03*
%TO.P,J2,15,Pin_15*%
%TO.N,/RST0*%
X66080000Y-42980000D03*
%TO.P,J2,16,Pin_16*%
%TO.N,VCCIO*%
X66080000Y-40980000D03*
%TO.P,J2,17,Pin_17*%
%TO.N,unconnected-(J2-Pin_17-Pad17)*%
X64080000Y-42980000D03*
%TO.P,J2,18,Pin_18*%
%TO.N,unconnected-(J2-Pin_18-Pad18)*%
X64080000Y-40980000D03*
%TD*%
%TO.P,J10,1,Pin_1*%
%TO.N,GND*%
X80080000Y-57010000D03*
%TO.P,J10,2,Pin_2*%
X80080000Y-55010000D03*
%TO.P,J10,3,Pin_3*%
%TO.N,/SDA2*%
X78080000Y-57010000D03*
%TO.P,J10,4,Pin_4*%
%TO.N,/SCL2*%
X78080000Y-55010000D03*
%TO.P,J10,5,Pin_5*%
%TO.N,/PLUG2*%
X76080000Y-57010000D03*
%TO.P,J10,6,Pin_6*%
%TO.N,/A22*%
X76080000Y-55010000D03*
%TO.P,J10,7,Pin_7*%
%TO.N,/A12*%
X74080000Y-57010000D03*
%TO.P,J10,8,Pin_8*%
%TO.N,/A02*%
X74080000Y-55010000D03*
%TO.P,J10,9,Pin_9*%
%TO.N,GND*%
X72080000Y-57010000D03*
%TO.P,J10,10,Pin_10*%
X72080000Y-55010000D03*
%TO.P,J10,11,Pin_11*%
%TO.N,/TXD2*%
X70080000Y-57010000D03*
%TO.P,J10,12,Pin_12*%
%TO.N,/RXD2*%
X70080000Y-55010000D03*
%TO.P,J10,13,Pin_13*%
%TO.N,GND*%
X68080000Y-57010000D03*
%TO.P,J10,14,Pin_14*%
X68080000Y-55010000D03*
%TO.P,J10,15,Pin_15*%
%TO.N,/RST2*%
X66080000Y-57010000D03*
%TO.P,J10,16,Pin_16*%
%TO.N,VCCIO*%
X66080000Y-55010000D03*
%TO.P,J10,17,Pin_17*%
%TO.N,unconnected-(J10-Pin_17-Pad17)*%
X64080000Y-57010000D03*
%TO.P,J10,18,Pin_18*%
%TO.N,unconnected-(J10-Pin_18-Pad18)*%
X64080000Y-55010000D03*
%TD*%
%TO.P,J9,1,Pin_1*%
%TO.N,GND*%
X101510000Y-42980000D03*
%TO.P,J9,2,Pin_2*%
X101510000Y-40980000D03*
%TO.P,J9,3,Pin_3*%
%TO.N,/SDA1*%
X99510000Y-42980000D03*
%TO.P,J9,4,Pin_4*%
%TO.N,/SCL1*%
X99510000Y-40980000D03*
%TO.P,J9,5,Pin_5*%
%TO.N,/PLUG1*%
X97510000Y-42980000D03*
%TO.P,J9,6,Pin_6*%
%TO.N,/A21*%
X97510000Y-40980000D03*
%TO.P,J9,7,Pin_7*%
%TO.N,/A11*%
X95510000Y-42980000D03*
%TO.P,J9,8,Pin_8*%
%TO.N,/A01*%
X95510000Y-40980000D03*
%TO.P,J9,9,Pin_9*%
%TO.N,GND*%
X93510000Y-42980000D03*
%TO.P,J9,10,Pin_10*%
X93510000Y-40980000D03*
%TO.P,J9,11,Pin_11*%
%TO.N,/TXD1*%
X91510000Y-42980000D03*
%TO.P,J9,12,Pin_12*%
%TO.N,/RXD1*%
X91510000Y-40980000D03*
%TO.P,J9,13,Pin_13*%
%TO.N,GND*%
X89510000Y-42980000D03*
%TO.P,J9,14,Pin_14*%
X89510000Y-40980000D03*
%TO.P,J9,15,Pin_15*%
%TO.N,/RST1*%
X87510000Y-42980000D03*
%TO.P,J9,16,Pin_16*%
%TO.N,VCCIO*%
X87510000Y-40980000D03*
%TO.P,J9,17,Pin_17*%
%TO.N,unconnected-(J9-Pin_17-Pad17)*%
X85510000Y-42980000D03*
%TO.P,J9,18,Pin_18*%
%TO.N,unconnected-(J9-Pin_18-Pad18)*%
X85510000Y-40980000D03*
%TD*%
D14*
%TO.P,J14,4,Pin_4*%
%TO.N,Net-(J14-Pin_4)*%
X141880000Y-48820000D03*
%TO.P,J14,3,Pin_3*%
%TO.N,Net-(J14-Pin_3)*%
X141880000Y-54320000D03*
%TO.P,J14,2,Pin_2*%
%TO.N,/12V*%
X146080000Y-54320000D03*
%TO.P,J14,1,Pin_1*%
%TO.N,GND*%
X146080000Y-48820000D03*
%TD*%
%TO.P,J15,4,Pin_4*%
%TO.N,Net-(J15-Pin_4)*%
X130860000Y-48820000D03*
%TO.P,J15,3,Pin_3*%
%TO.N,Net-(J15-Pin_3)*%
X130860000Y-54320000D03*
%TO.P,J15,2,Pin_2*%
%TO.N,/12V*%
X135060000Y-54320000D03*
%TO.P,J15,1,Pin_1*%
%TO.N,GND*%
X135060000Y-48820000D03*
%TD*%
%TO.P,J17,4,Pin_4*%
%TO.N,Net-(J17-Pin_4)*%
X119820000Y-48820000D03*
%TO.P,J17,3,Pin_3*%
%TO.N,Net-(J17-Pin_3)*%
X119820000Y-54320000D03*
%TO.P,J17,2,Pin_2*%
%TO.N,/12V*%
X124020000Y-54320000D03*
%TO.P,J17,1,Pin_1*%
%TO.N,GND*%
X124020000Y-48820000D03*
%TD*%
%TO.P,J16,4,Pin_4*%
%TO.N,Net-(J16-Pin_4)*%
X108680000Y-48820000D03*
%TO.P,J16,3,Pin_3*%
%TO.N,Net-(J16-Pin_3)*%
X108680000Y-54320000D03*
%TO.P,J16,2,Pin_2*%
%TO.N,/12V*%
X112880000Y-54320000D03*
%TO.P,J16,1,Pin_1*%
%TO.N,GND*%
X112880000Y-48820000D03*
%TD*%
D15*
%TO.P,J5,1,Pin_1*%
%TO.N,GND*%
X136530000Y-51870750D03*
%TO.P,J5,2,Pin_2*%
%TO.N,/12V*%
X133990000Y-51870750D03*
%TO.P,J5,3,Pin_3*%
%TO.N,Net-(J15-Pin_3)*%
X131450000Y-51870750D03*
%TO.P,J5,4,Pin_4*%
%TO.N,Net-(J15-Pin_4)*%
X128910000Y-51870750D03*
%TD*%
D16*
%TO.P,D1,1,A*%
%TO.N,Net-(D1-A)*%
X143430000Y-63660000D03*
%TO.P,D1,2,NC*%
%TO.N,unconnected-(D1-NC-Pad2)*%
X145330000Y-63660000D03*
%TO.P,D1,3,K*%
%TO.N,/12V*%
X144380000Y-61660000D03*
%TD*%
D17*
%TO.P,U3,1,CS*%
%TO.N,Net-(U1-EECS)*%
X98740000Y-100580000D03*
%TO.P,U3,2,CLK*%
%TO.N,Net-(U1-EECLK)*%
X98740000Y-99930002D03*
%TO.P,U3,3,D*%
%TO.N,Net-(U1-EEDATA)*%
X98740000Y-99280000D03*
%TO.P,U3,4,Q*%
%TO.N,Net-(U3-Q)*%
X98740000Y-98630002D03*
%TO.P,U3,5,VSS*%
%TO.N,GND*%
X92847200Y-98630002D03*
%TO.P,U3,6,ORG*%
%TO.N,VCCIO*%
X92847200Y-99280000D03*
%TO.P,U3,7,DU*%
%TO.N,GND*%
X92847200Y-99930002D03*
%TO.P,U3,8,VCC*%
%TO.N,VCCIO*%
X92847200Y-100580000D03*
%TD*%
D18*
%TO.P,U5,1,\u002ARESET*%
%TO.N,/RESET*%
X80330000Y-93870000D03*
%TO.P,U5,2,SD0*%
%TO.N,/SDA0*%
X79680000Y-93870000D03*
%TO.P,U5,3,SC0*%
%TO.N,/SCL0*%
X79030000Y-93870000D03*
%TO.P,U5,4,SD1*%
%TO.N,/SDA1*%
X78380000Y-93870000D03*
D19*
%TO.P,U5,5,SC1*%
%TO.N,/SCL1*%
X77530000Y-94720000D03*
%TO.P,U5,6,GND*%
%TO.N,GND*%
X77530000Y-95370000D03*
%TO.P,U5,7,SD2*%
%TO.N,/SDA2*%
X77530000Y-96020000D03*
%TO.P,U5,8,SC2*%
%TO.N,/SCL2*%
X77530000Y-96670000D03*
D18*
%TO.P,U5,9,SD3*%
%TO.N,/SDA3*%
X78380000Y-97520000D03*
%TO.P,U5,10,SC3*%
%TO.N,/SCL3*%
X79030000Y-97520000D03*
%TO.P,U5,11,A2*%
%TO.N,GND*%
X79680000Y-97520000D03*
%TO.P,U5,12,SCL*%
%TO.N,/SCL*%
X80330000Y-97520000D03*
D19*
%TO.P,U5,13,SDA*%
%TO.N,/SDA*%
X81180000Y-96670000D03*
%TO.P,U5,14,VCC*%
%TO.N,VCCIO*%
X81180000Y-96020000D03*
%TO.P,U5,15,A0*%
%TO.N,GND*%
X81180000Y-95370000D03*
%TO.P,U5,16,A1*%
X81180000Y-94720000D03*
D20*
%TO.P,U5,17,EPAD*%
X79355000Y-94975000D03*
X80075000Y-95695000D03*
X79355000Y-95695000D03*
D21*
X79355000Y-95695000D03*
D20*
X78635000Y-95695000D03*
X79355000Y-96415000D03*
%TD*%
D22*
%TO.P,TP25,1,1*%
%TO.N,/RESET*%
X83020000Y-91390000D03*
%TD*%
%TO.P,TP24,1,1*%
%TO.N,/RST2*%
X103900000Y-95890000D03*
%TD*%
%TO.P,TP23,1,1*%
%TO.N,/PLUG2*%
X99530000Y-87340000D03*
%TD*%
%TO.P,TP22,1,1*%
%TO.N,/RST1*%
X115050000Y-85190000D03*
%TD*%
%TO.P,TP21,1,1*%
%TO.N,/PLUG1*%
X114740000Y-82070000D03*
%TD*%
%TO.P,TP13,1,1*%
%TO.N,/RXD2*%
X100010000Y-90880000D03*
%TD*%
%TO.P,TP12,1,1*%
%TO.N,/TXD2*%
X105050000Y-87650000D03*
%TD*%
%TO.P,TP6,1,1*%
%TO.N,/RXD0*%
X128680000Y-95070000D03*
%TD*%
%TO.P,TP5,1,1*%
%TO.N,/TXD0*%
X126010000Y-96710000D03*
%TD*%
D23*
%TO.P,R46,1*%
%TO.N,/SDA3*%
X161890000Y-92117500D03*
%TO.P,R46,2*%
%TO.N,VCCIO*%
X161890000Y-93942500D03*
%TD*%
%TO.P,R45,1*%
%TO.N,/SCL3*%
X159810000Y-92097500D03*
%TO.P,R45,2*%
%TO.N,VCCIO*%
X159810000Y-93922500D03*
%TD*%
%TO.P,R44,1*%
%TO.N,/SDA2*%
X85890000Y-63130000D03*
%TO.P,R44,2*%
%TO.N,VCCIO*%
X85890000Y-64955000D03*
%TD*%
%TO.P,R43,1*%
%TO.N,/SCL2*%
X87980000Y-63127500D03*
%TO.P,R43,2*%
%TO.N,VCCIO*%
X87980000Y-64952500D03*
%TD*%
%TO.P,R42,1*%
%TO.N,/SDA1*%
X97560000Y-52422500D03*
%TO.P,R42,2*%
%TO.N,VCCIO*%
X97560000Y-54247500D03*
%TD*%
%TO.P,R41,1*%
%TO.N,/SCL1*%
X99480000Y-52420000D03*
%TO.P,R41,2*%
%TO.N,VCCIO*%
X99480000Y-54245000D03*
%TD*%
%TO.P,R40,1*%
%TO.N,/SDA0*%
X85830000Y-52420000D03*
%TO.P,R40,2*%
%TO.N,VCCIO*%
X85830000Y-54245000D03*
%TD*%
%TO.P,R39,1*%
%TO.N,/SCL0*%
X87890000Y-52407500D03*
%TO.P,R39,2*%
%TO.N,VCCIO*%
X87890000Y-54232500D03*
%TD*%
D24*
%TO.P,R38,1*%
%TO.N,VCCIO*%
X78682500Y-49650000D03*
%TO.P,R38,2*%
%TO.N,/A22*%
X76857500Y-49650000D03*
%TD*%
%TO.P,R37,1*%
%TO.N,VCCIO*%
X100252500Y-35500000D03*
%TO.P,R37,2*%
%TO.N,/A21*%
X98427500Y-35500000D03*
%TD*%
%TO.P,R36,1*%
%TO.N,VCCIO*%
X79195000Y-35500000D03*
%TO.P,R36,2*%
%TO.N,/A20*%
X77370000Y-35500000D03*
%TD*%
D25*
%TO.P,R35,1*%
%TO.N,VCCIO*%
X65567500Y-35500000D03*
%TO.P,R35,2*%
%TO.N,/A00*%
X67392500Y-35500000D03*
%TD*%
%TO.P,R34,1*%
%TO.N,VCCIO*%
X86970000Y-35500000D03*
%TO.P,R34,2*%
%TO.N,/A01*%
X88795000Y-35500000D03*
%TD*%
%TO.P,R33,1*%
%TO.N,VCCIO*%
X65600000Y-49690000D03*
%TO.P,R33,2*%
%TO.N,/A02*%
X67425000Y-49690000D03*
%TD*%
%TO.P,R32,1*%
%TO.N,VCCIO*%
X71297500Y-61020000D03*
%TO.P,R32,2*%
%TO.N,/A12*%
X73122500Y-61020000D03*
%TD*%
D24*
%TO.P,R31,1*%
%TO.N,VCCIO*%
X98255000Y-46800000D03*
%TO.P,R31,2*%
%TO.N,/A11*%
X96430000Y-46800000D03*
%TD*%
%TO.P,R30,1*%
%TO.N,VCCIO*%
X76702500Y-46830000D03*
%TO.P,R30,2*%
%TO.N,/A10*%
X74877500Y-46830000D03*
%TD*%
%TO.P,R29,1*%
%TO.N,/A22*%
X75102500Y-49650000D03*
%TO.P,R29,2*%
%TO.N,GND*%
X73277500Y-49650000D03*
%TD*%
D25*
%TO.P,R28,1*%
%TO.N,/A02*%
X69090000Y-49650000D03*
%TO.P,R28,2*%
%TO.N,GND*%
X70915000Y-49650000D03*
%TD*%
D24*
%TO.P,R27,1*%
%TO.N,GND*%
X76702500Y-61020000D03*
%TO.P,R27,2*%
%TO.N,/A12*%
X74877500Y-61020000D03*
%TD*%
%TO.P,R26,1*%
%TO.N,/A21*%
X96592500Y-35500000D03*
%TO.P,R26,2*%
%TO.N,GND*%
X94767500Y-35500000D03*
%TD*%
D25*
%TO.P,R25,1*%
%TO.N,/A01*%
X90670000Y-35500000D03*
%TO.P,R25,2*%
%TO.N,GND*%
X92495000Y-35500000D03*
%TD*%
%TO.P,R24,1*%
%TO.N,GND*%
X92880000Y-46830000D03*
%TO.P,R24,2*%
%TO.N,/A11*%
X94705000Y-46830000D03*
%TD*%
D26*
%TO.P,C21,1*%
%TO.N,VCCIO*%
X85120000Y-94610000D03*
%TO.P,C21,2*%
%TO.N,GND*%
X85120000Y-92710000D03*
%TD*%
D27*
%TO.P,H4,1,1*%
%TO.N,GND*%
X63160000Y-127445000D03*
%TD*%
%TO.P,H3,1,1*%
%TO.N,GND*%
X63160000Y-80245000D03*
%TD*%
%TO.P,H2,1,1*%
%TO.N,GND*%
X163360000Y-128245000D03*
%TD*%
%TO.P,H1,1,1*%
%TO.N,GND*%
X163360000Y-67365000D03*
%TD*%
D25*
%TO.P,R16,2*%
%TO.N,Net-(J17-Pin_3)*%
X120752500Y-57170000D03*
%TO.P,R16,1*%
%TO.N,VCCIO*%
X118927500Y-57170000D03*
%TD*%
D28*
%TO.P,C4,2*%
%TO.N,Net-(D1-A)*%
X141060000Y-63600000D03*
%TO.P,C4,1*%
%TO.N,/12V*%
X141060000Y-61700000D03*
%TD*%
%TO.P,C3,2*%
%TO.N,GND*%
X153190000Y-64140000D03*
%TO.P,C3,1*%
%TO.N,Net-(Q1-D)*%
X153190000Y-62240000D03*
%TD*%
D29*
%TO.P,C20,2*%
%TO.N,GND*%
X124920000Y-66140000D03*
%TO.P,C20,1*%
%TO.N,VCCIO*%
X126820000Y-66140000D03*
%TD*%
D23*
%TO.P,R10,2*%
%TO.N,GND*%
X147130000Y-65492500D03*
%TO.P,R10,1*%
%TO.N,Net-(D1-A)*%
X147130000Y-63667500D03*
%TD*%
D25*
%TO.P,R15,2*%
%TO.N,Net-(J16-Pin_3)*%
X107412500Y-57170000D03*
%TO.P,R15,1*%
%TO.N,VCCIO*%
X105587500Y-57170000D03*
%TD*%
%TO.P,R13,2*%
%TO.N,Net-(J14-Pin_3)*%
X142512500Y-57270000D03*
%TO.P,R13,1*%
%TO.N,VCCIO*%
X140687500Y-57270000D03*
%TD*%
%TO.P,R14,2*%
%TO.N,Net-(J15-Pin_3)*%
X132042500Y-57180000D03*
%TO.P,R14,1*%
%TO.N,VCCIO*%
X130217500Y-57180000D03*
%TD*%
D22*
%TO.P,TP1,1,1*%
%TO.N,/12V*%
X137930000Y-59300000D03*
%TD*%
D15*
%TO.P,J4,1,Pin_1*%
%TO.N,GND*%
X147580000Y-51870750D03*
%TO.P,J4,2,Pin_2*%
%TO.N,/12V*%
X145040000Y-51870750D03*
%TO.P,J4,3,Pin_3*%
%TO.N,Net-(J14-Pin_3)*%
X142500000Y-51870750D03*
%TO.P,J4,4,Pin_4*%
%TO.N,Net-(J14-Pin_4)*%
X139960000Y-51870750D03*
%TD*%
D28*
%TO.P,C5,1*%
%TO.N,/12V*%
X138530000Y-61680000D03*
%TO.P,C5,2*%
%TO.N,GND*%
X138530000Y-63580000D03*
%TD*%
D30*
%TO.P,U4,17,GND*%
%TO.N,GND*%
X131310000Y-65200000D03*
D31*
%TO.P,U4,16,TACH5*%
%TO.N,unconnected-(U4-TACH5-Pad16)*%
X130335001Y-63250799D03*
%TO.P,U4,15,PWM5*%
%TO.N,unconnected-(U4-PWM5-Pad15)*%
X130984999Y-63250799D03*
%TO.P,U4,14,TACH4*%
%TO.N,Net-(J17-Pin_3)*%
X131635001Y-63250799D03*
%TO.P,U4,13,PWM4*%
%TO.N,Net-(J17-Pin_4)*%
X132284999Y-63250799D03*
D32*
%TO.P,U4,12,~{ALERT}*%
%TO.N,/FAN_ALERT*%
X133259201Y-64225001D03*
%TO.P,U4,11,CLK*%
%TO.N,Net-(U4-CLK)*%
X133259201Y-64874999D03*
%TO.P,U4,10,TACH3*%
%TO.N,Net-(J16-Pin_3)*%
X133259201Y-65525001D03*
%TO.P,U4,9,PWM3*%
%TO.N,Net-(J16-Pin_4)*%
X133259201Y-66174999D03*
D31*
%TO.P,U4,8,TACH2*%
%TO.N,Net-(J15-Pin_3)*%
X132284999Y-67149201D03*
%TO.P,U4,7,PWM2*%
%TO.N,Net-(J15-Pin_4)*%
X131635001Y-67149201D03*
%TO.P,U4,6,TACH1*%
%TO.N,Net-(J14-Pin_3)*%
X130984999Y-67149201D03*
%TO.P,U4,5,PWM1*%
%TO.N,Net-(J14-Pin_4)*%
X130335001Y-67149201D03*
D32*
%TO.P,U4,4,ADDR_SEL*%
%TO.N,Net-(U4-ADDR_SEL)*%
X129360799Y-66174999D03*
%TO.P,U4,3,VDD*%
%TO.N,VCCIO*%
X129360799Y-65525001D03*
%TO.P,U4,2,SMCLK*%
%TO.N,/SDA3*%
X129360799Y-64874999D03*
%TO.P,U4,1,SMDATA*%
%TO.N,/SCL3*%
X129360799Y-64225001D03*
%TD*%
D15*
%TO.P,J7,4,Pin_4*%
%TO.N,Net-(J17-Pin_4)*%
X117890000Y-51870750D03*
%TO.P,J7,3,Pin_3*%
%TO.N,Net-(J17-Pin_3)*%
X120430000Y-51870750D03*
%TO.P,J7,2,Pin_2*%
%TO.N,/12V*%
X122970000Y-51870750D03*
%TO.P,J7,1,Pin_1*%
%TO.N,GND*%
X125510000Y-51870750D03*
%TD*%
%TO.P,J6,4,Pin_4*%
%TO.N,Net-(J16-Pin_4)*%
X106780000Y-51870750D03*
%TO.P,J6,3,Pin_3*%
%TO.N,Net-(J16-Pin_3)*%
X109320000Y-51870750D03*
%TO.P,J6,2,Pin_2*%
%TO.N,/12V*%
X111860000Y-51870750D03*
%TO.P,J6,1,Pin_1*%
%TO.N,GND*%
X114400000Y-51870750D03*
%TD*%
D23*
%TO.P,R5,1*%
%TO.N,GND*%
X118360000Y-127837500D03*
%TO.P,R5,2*%
%TO.N,Net-(J8-CC2)*%
X118360000Y-129662500D03*
%TD*%
D25*
%TO.P,R21,2*%
%TO.N,VCCIO*%
X128585000Y-106060000D03*
%TO.P,R21,1*%
%TO.N,/SDA*%
X126760000Y-106060000D03*
%TD*%
%TO.P,R20,2*%
%TO.N,VCCIO*%
X128602500Y-108120000D03*
%TO.P,R20,1*%
%TO.N,/SCL*%
X126777500Y-108120000D03*
%TD*%
%TO.P,R19,1*%
%TO.N,/FAN_ALERT*%
X130607500Y-91170000D03*
%TO.P,R19,2*%
%TO.N,VCCIO*%
X132432500Y-91170000D03*
%TD*%
D24*
%TO.P,R18,2*%
%TO.N,VCCIO*%
X119957500Y-69500000D03*
%TO.P,R18,1*%
%TO.N,Net-(U4-CLK)*%
X121782500Y-69500000D03*
%TD*%
%TO.P,R17,1*%
%TO.N,Net-(U4-ADDR_SEL)*%
X121782500Y-67310000D03*
%TO.P,R17,2*%
%TO.N,VCCIO*%
X119957500Y-67310000D03*
%TD*%
D33*
%TO.P,R12,1*%
%TO.N,GND*%
X114370000Y-106842500D03*
%TO.P,R12,2*%
%TO.N,Net-(U1-REF)*%
X114370000Y-105017500D03*
%TD*%
%TO.P,R11,1*%
%TO.N,VCCIO*%
X120670000Y-106502500D03*
%TO.P,R11,2*%
%TO.N,Net-(U1-RESET#)*%
X120670000Y-104677500D03*
%TD*%
%TO.P,R9,1*%
%TO.N,Net-(U3-Q)*%
X101219000Y-96491500D03*
%TO.P,R9,2*%
%TO.N,VCCIO*%
X101219000Y-94666500D03*
%TD*%
%TO.P,R8,1*%
%TO.N,Net-(U1-EECLK)*%
X98276000Y-96508500D03*
%TO.P,R8,2*%
%TO.N,VCCIO*%
X98276000Y-94683500D03*
%TD*%
%TO.P,R7,1*%
%TO.N,Net-(U1-EECS)*%
X95180000Y-96508500D03*
%TO.P,R7,2*%
%TO.N,VCCIO*%
X95180000Y-94683500D03*
%TD*%
D24*
%TO.P,R6,1*%
%TO.N,Net-(U1-EEDATA)*%
X102892500Y-98230000D03*
%TO.P,R6,2*%
%TO.N,Net-(U3-Q)*%
X101067500Y-98230000D03*
%TD*%
D23*
%TO.P,R4,1*%
%TO.N,GND*%
X103570000Y-127817500D03*
%TO.P,R4,2*%
%TO.N,Net-(J8-CC1)*%
X103570000Y-129642500D03*
%TD*%
D24*
%TO.P,R3,1*%
%TO.N,/A20*%
X75785000Y-35500000D03*
%TO.P,R3,2*%
%TO.N,GND*%
X73960000Y-35500000D03*
%TD*%
D25*
%TO.P,R2,1*%
%TO.N,/A00*%
X69047500Y-35500000D03*
%TO.P,R2,2*%
%TO.N,GND*%
X70872500Y-35500000D03*
%TD*%
%TO.P,R1,1*%
%TO.N,GND*%
X71297500Y-46830000D03*
%TO.P,R1,2*%
%TO.N,/A10*%
X73122500Y-46830000D03*
%TD*%
D34*
%TO.P,C17,1*%
%TO.N,Net-(U1-VPLL)*%
X119240000Y-114670000D03*
%TO.P,C17,2*%
%TO.N,GND*%
X121140000Y-114670000D03*
%TD*%
D29*
%TO.P,C16,1*%
%TO.N,Net-(U1-VPHY)*%
X111960000Y-114780000D03*
%TO.P,C16,2*%
%TO.N,GND*%
X110060000Y-114780000D03*
%TD*%
D34*
%TO.P,C15,1*%
%TO.N,VCCIO*%
X124786000Y-99424000D03*
%TO.P,C15,2*%
%TO.N,GND*%
X126686000Y-99424000D03*
%TD*%
D26*
%TO.P,C14,1*%
%TO.N,VCCIO*%
X114080000Y-89730000D03*
%TO.P,C14,2*%
%TO.N,GND*%
X114080000Y-87830000D03*
%TD*%
D29*
%TO.P,C13,1*%
%TO.N,VCCIO*%
X109540000Y-98330000D03*
%TO.P,C13,2*%
%TO.N,GND*%
X107640000Y-98330000D03*
%TD*%
%TO.P,C12,2*%
%TO.N,GND*%
X105990000Y-93590000D03*
%TO.P,C12,1*%
%TO.N,VCCIO*%
X107890000Y-93590000D03*
%TD*%
D34*
%TO.P,C11,1*%
%TO.N,VCORE*%
X119780000Y-89840000D03*
%TO.P,C11,2*%
%TO.N,GND*%
X121680000Y-89840000D03*
%TD*%
D28*
%TO.P,C10,1*%
%TO.N,VCORE*%
X117640000Y-105780000D03*
%TO.P,C10,2*%
%TO.N,GND*%
X117640000Y-107680000D03*
%TD*%
D29*
%TO.P,C9,1*%
%TO.N,VCORE*%
X108850000Y-101720000D03*
%TO.P,C9,2*%
%TO.N,GND*%
X106950000Y-101720000D03*
%TD*%
D28*
%TO.P,C8,1*%
%TO.N,VCCIO*%
X97750000Y-123810000D03*
%TO.P,C8,2*%
%TO.N,GND*%
X97750000Y-125710000D03*
%TD*%
%TO.P,C7,1*%
%TO.N,/5V*%
X104280000Y-124270000D03*
%TO.P,C7,2*%
%TO.N,GND*%
X104280000Y-126170000D03*
%TD*%
D26*
%TO.P,C2,2*%
%TO.N,GND*%
X111000000Y-107840000D03*
%TO.P,C2,1*%
%TO.N,Net-(U1-OSCO)*%
X111000000Y-109740000D03*
%TD*%
D28*
%TO.P,C1,2*%
%TO.N,GND*%
X104080000Y-109610000D03*
%TO.P,C1,1*%
%TO.N,Net-(U1-OSCI)*%
X104080000Y-107710000D03*
%TD*%
D22*
%TO.P,TP7,1,1*%
%TO.N,/PLUG0*%
X125540000Y-93470000D03*
%TD*%
%TO.P,TP2,1,1*%
%TO.N,VCORE*%
X106000000Y-103960000D03*
%TD*%
D35*
%TO.P,U2,1,VIN*%
%TO.N,/5V*%
X102418950Y-123724800D03*
%TO.P,U2,2,GND*%
%TO.N,GND*%
X102418950Y-122785000D03*
%TO.P,U2,3,EN*%
%TO.N,/5V*%
X102418950Y-121845200D03*
%TO.P,U2,4,NC*%
%TO.N,unconnected-(U2-NC-Pad4)*%
X99663050Y-121845200D03*
%TO.P,U2,5,VOUT*%
%TO.N,VCCIO*%
X99663050Y-123724800D03*
%TD*%
D22*
%TO.P,TP9,1,1*%
%TO.N,/SCL*%
X126570000Y-110480000D03*
%TD*%
D36*
%TO.P,J3,6,6*%
%TO.N,GND*%
X161360000Y-54740000D03*
%TO.P,J3,5,5*%
X157160000Y-54740000D03*
%TO.P,J3,4,4*%
X152960000Y-54740000D03*
%TO.P,J3,3,3*%
%TO.N,Net-(Q1-D)*%
X161360000Y-50540000D03*
%TO.P,J3,2,2*%
X157160000Y-50540000D03*
%TO.P,J3,1,1*%
X152960000Y-50540000D03*
%TD*%
D22*
%TO.P,TP8,1,1*%
%TO.N,/RST0*%
X123650000Y-91570000D03*
%TD*%
%TO.P,TP19,1,1*%
%TO.N,Net-(U1-EECLK)*%
X97060000Y-92110000D03*
%TD*%
D37*
%TO.P,J8,A1,GND*%
%TO.N,GND*%
X107900000Y-127155000D03*
%TO.P,J8,A4,VBUS*%
%TO.N,/5V*%
X108700000Y-127155000D03*
D38*
%TO.P,J8,A5,CC1*%
%TO.N,Net-(J8-CC1)*%
X109850000Y-127155000D03*
%TO.P,J8,A6,D+*%
%TO.N,Net-(U1-DP)*%
X110850000Y-127155000D03*
%TO.P,J8,A7,D-*%
%TO.N,Net-(U1-DM)*%
X111350000Y-127155000D03*
%TO.P,J8,A8,SBU1*%
%TO.N,unconnected-(J8-SBU1-PadA8)*%
X112350000Y-127155000D03*
D37*
%TO.P,J8,A9,VBUS*%
%TO.N,/5V*%
X113500000Y-127155000D03*
%TO.P,J8,A12,GND*%
%TO.N,GND*%
X114300000Y-127155000D03*
%TO.P,J8,B1,GND*%
X114300000Y-127155000D03*
%TO.P,J8,B4,VBUS*%
%TO.N,/5V*%
X113500000Y-127155000D03*
D38*
%TO.P,J8,B5,CC2*%
%TO.N,Net-(J8-CC2)*%
X112850000Y-127155000D03*
%TO.P,J8,B6,D+*%
%TO.N,Net-(U1-DP)*%
X111850000Y-127155000D03*
%TO.P,J8,B7,D-*%
%TO.N,Net-(U1-DM)*%
X110350000Y-127155000D03*
%TO.P,J8,B8,SBU2*%
%TO.N,unconnected-(J8-SBU2-PadB8)*%
X109350000Y-127155000D03*
D37*
%TO.P,J8,B9,VBUS*%
%TO.N,/5V*%
X108700000Y-127155000D03*
%TO.P,J8,B12,GND*%
%TO.N,GND*%
X107900000Y-127155000D03*
D39*
%TO.P,J8,S1,SHIELD*%
X106780000Y-127730000D03*
D40*
X106780000Y-131910000D03*
D39*
X115420000Y-127730000D03*
D40*
X115420000Y-131910000D03*
%TD*%
D41*
%TO.P,C19,1*%
%TO.N,Net-(U1-VPLL)*%
X120110000Y-118760000D03*
%TO.P,C19,2*%
%TO.N,GND*%
X123710000Y-118760000D03*
%TD*%
D42*
%TO.P,C18,1*%
%TO.N,Net-(U1-VPHY)*%
X111398000Y-118784000D03*
%TO.P,C18,2*%
%TO.N,GND*%
X107798000Y-118784000D03*
%TD*%
D22*
%TO.P,TP17,1,1*%
%TO.N,Net-(U1-REF)*%
X114310000Y-110360000D03*
%TD*%
D29*
%TO.P,C6,1*%
%TO.N,VCORE*%
X108940000Y-91200000D03*
%TO.P,C6,2*%
%TO.N,GND*%
X107040000Y-91200000D03*
%TD*%
D22*
%TO.P,TP14,1,1*%
%TO.N,/FAN_ALERT*%
X132090000Y-93940000D03*
%TD*%
D43*
%TO.P,FB1,1*%
%TO.N,VCCIO*%
X120945000Y-112730000D03*
%TO.P,FB1,2*%
%TO.N,Net-(U1-VPLL)*%
X119295000Y-112730000D03*
%TD*%
D44*
%TO.P,Y1,4,GND__1*%
%TO.N,GND*%
X109030000Y-106910000D03*
%TO.P,Y1,3*%
%TO.N,Net-(U1-OSCO)*%
X109030000Y-110910000D03*
%TO.P,Y1,2,GND*%
%TO.N,GND*%
X106630000Y-110910000D03*
%TO.P,Y1,1*%
%TO.N,Net-(U1-OSCI)*%
X106630000Y-106910000D03*
%TD*%
D22*
%TO.P,TP10,1,1*%
%TO.N,/SDA*%
X126830000Y-103540000D03*
%TD*%
%TO.P,TP18,1,1*%
%TO.N,Net-(U1-EECS)*%
X102780000Y-101890000D03*
%TD*%
D45*
%TO.P,U1,1,GND*%
%TO.N,GND*%
X112385000Y-101615000D03*
%TO.P,U1,2,OSCI*%
%TO.N,Net-(U1-OSCI)*%
X112885000Y-101615000D03*
%TO.P,U1,3,OSCO*%
%TO.N,Net-(U1-OSCO)*%
X113385000Y-101615000D03*
%TO.P,U1,4,VPHY*%
%TO.N,Net-(U1-VPHY)*%
X113885000Y-101615000D03*
%TO.P,U1,5,GND*%
%TO.N,GND*%
X114385000Y-101615000D03*
%TO.P,U1,6,REF*%
%TO.N,Net-(U1-REF)*%
X114885000Y-101615000D03*
%TO.P,U1,7,DM*%
%TO.N,Net-(U1-DM)*%
X115385000Y-101615000D03*
%TO.P,U1,8,DP*%
%TO.N,Net-(U1-DP)*%
X115885000Y-101615000D03*
%TO.P,U1,9,VPLL*%
%TO.N,Net-(U1-VPLL)*%
X116385000Y-101615000D03*
%TO.P,U1,10,AGND*%
%TO.N,GND*%
X116885000Y-101615000D03*
%TO.P,U1,11,GND*%
X117385000Y-101615000D03*
%TO.P,U1,12,VCORE*%
%TO.N,VCORE*%
X117885000Y-101615000D03*
%TO.P,U1,13,TEST*%
%TO.N,GND*%
X118385000Y-101615000D03*
%TO.P,U1,14,RESET#*%
%TO.N,Net-(U1-RESET#)*%
X118885000Y-101615000D03*
%TO.P,U1,15,GND*%
%TO.N,GND*%
X119385000Y-101615000D03*
%TO.P,U1,16,ADBUS0*%
%TO.N,/SCL*%
X119885000Y-101615000D03*
D46*
%TO.P,U1,17,ADBUS1*%
%TO.N,/SDA*%
X120580000Y-100920000D03*
%TO.P,U1,18,ADBUS2*%
X120580000Y-100420000D03*
%TO.P,U1,19,ADBUS3*%
%TO.N,/FAN_ALERT*%
X120580000Y-99920000D03*
%TO.P,U1,20,VCCIO*%
%TO.N,VCCIO*%
X120580000Y-99420000D03*
%TO.P,U1,21,ADBUS4*%
%TO.N,/PSU_EN*%
X120580000Y-98920000D03*
%TO.P,U1,22,ADBUS5*%
%TO.N,/RESET*%
X120580000Y-98420000D03*
%TO.P,U1,23,ADBUS6*%
%TO.N,unconnected-(U1-ADBUS6-Pad23)*%
X120580000Y-97920000D03*
%TO.P,U1,24,ADBUS7*%
%TO.N,unconnected-(U1-ADBUS7-Pad24)*%
X120580000Y-97420000D03*
%TO.P,U1,25,GND*%
%TO.N,GND*%
X120580000Y-96920000D03*
%TO.P,U1,26,BDBUS0*%
%TO.N,/TXD0*%
X120580000Y-96420000D03*
%TO.P,U1,27,BDBUS1*%
%TO.N,/RXD0*%
X120580000Y-95920000D03*
%TO.P,U1,28,BDBUS2*%
%TO.N,/PLUG0*%
X120580000Y-95420000D03*
%TO.P,U1,29,BDBUS3*%
%TO.N,/RST0*%
X120580000Y-94920000D03*
%TO.P,U1,30,BDBUS4*%
%TO.N,unconnected-(U1-BDBUS4-Pad30)*%
X120580000Y-94420000D03*
%TO.P,U1,31,VCCIO*%
%TO.N,VCCIO*%
X120580000Y-93920000D03*
%TO.P,U1,32,BDBUS5*%
%TO.N,unconnected-(U1-BDBUS5-Pad32)*%
X120580000Y-93420000D03*
D47*
%TO.P,U1,33,BDBUS6*%
%TO.N,unconnected-(U1-BDBUS6-Pad33)*%
X119885000Y-92725000D03*
%TO.P,U1,34,BDBUS7*%
%TO.N,unconnected-(U1-BDBUS7-Pad34)*%
X119385000Y-92725000D03*
%TO.P,U1,35,GND*%
%TO.N,GND*%
X118885000Y-92725000D03*
%TO.P,U1,36,SUSPEND_#*%
%TO.N,unconnected-(U1-SUSPEND_#-Pad36)*%
X118385000Y-92725000D03*
%TO.P,U1,37,VCORE*%
%TO.N,VCORE*%
X117885000Y-92725000D03*
%TO.P,U1,38,CDBUS0*%
%TO.N,/TXD1*%
X117385000Y-92725000D03*
%TO.P,U1,39,CDBUS1*%
%TO.N,/RXD1*%
X116885000Y-92725000D03*
%TO.P,U1,40,CDBUS2*%
%TO.N,/PLUG1*%
X116385000Y-92725000D03*
%TO.P,U1,41,CDBUS3*%
%TO.N,/RST1*%
X115885000Y-92725000D03*
%TO.P,U1,42,VCCIO*%
%TO.N,VCCIO*%
X115385000Y-92725000D03*
%TO.P,U1,43,CDBUS4*%
%TO.N,unconnected-(U1-CDBUS4-Pad43)*%
X114885000Y-92725000D03*
%TO.P,U1,44,CDBUS5*%
%TO.N,unconnected-(U1-CDBUS5-Pad44)*%
X114385000Y-92725000D03*
%TO.P,U1,45,CDBUS6*%
%TO.N,unconnected-(U1-CDBUS6-Pad45)*%
X113885000Y-92725000D03*
%TO.P,U1,46,CDBUS7*%
%TO.N,unconnected-(U1-CDBUS7-Pad46)*%
X113385000Y-92725000D03*
%TO.P,U1,47,GND*%
%TO.N,GND*%
X112885000Y-92725000D03*
%TO.P,U1,48,DDBUS0*%
%TO.N,/TXD2*%
X112385000Y-92725000D03*
D48*
%TO.P,U1,49,VREGOUT*%
%TO.N,VCORE*%
X111690000Y-93420000D03*
%TO.P,U1,50,VREGIN*%
%TO.N,VCCIO*%
X111690000Y-93920000D03*
%TO.P,U1,51,GND*%
%TO.N,GND*%
X111690000Y-94420000D03*
%TO.P,U1,52,DDBUS1*%
%TO.N,/RXD2*%
X111690000Y-94920000D03*
%TO.P,U1,53,DDBUS2*%
%TO.N,/PLUG2*%
X111690000Y-95420000D03*
%TO.P,U1,54,DDBUS3*%
%TO.N,/RST2*%
X111690000Y-95920000D03*
%TO.P,U1,55,DDBUS4*%
%TO.N,unconnected-(U1-DDBUS4-Pad55)*%
X111690000Y-96420000D03*
%TO.P,U1,56,VCCIO*%
%TO.N,VCCIO*%
X111690000Y-96920000D03*
%TO.P,U1,57,DDBUS5*%
%TO.N,unconnected-(U1-DDBUS5-Pad57)*%
X111690000Y-97420000D03*
%TO.P,U1,58,DDBUS6*%
%TO.N,unconnected-(U1-DDBUS6-Pad58)*%
X111690000Y-97920000D03*
%TO.P,U1,59,DDBUS7*%
%TO.N,unconnected-(U1-DDBUS7-Pad59)*%
X111690000Y-98420000D03*
%TO.P,U1,60,PWREN#*%
%TO.N,unconnected-(U1-PWREN#-Pad60)*%
X111690000Y-98920000D03*
%TO.P,U1,61,EEDATA*%
%TO.N,Net-(U1-EEDATA)*%
X111690000Y-99420000D03*
%TO.P,U1,62,EECLK*%
%TO.N,Net-(U1-EECLK)*%
X111690000Y-99920000D03*
%TO.P,U1,63,EECS*%
%TO.N,Net-(U1-EECS)*%
X111690000Y-100420000D03*
%TO.P,U1,64,VCORE*%
%TO.N,VCORE*%
X111690000Y-100920000D03*
D49*
%TO.P,U1,65,EPAD*%
%TO.N,GND*%
X116135000Y-97170000D03*
%TD*%
D22*
%TO.P,TP15,1,1*%
%TO.N,VCCIO*%
X131860000Y-101300000D03*
%TD*%
%TO.P,TP3,1,1*%
%TO.N,/TXD1*%
X123980000Y-87450000D03*
%TD*%
%TO.P,TP16,1,1*%
%TO.N,/5V*%
X116220000Y-124710000D03*
%TD*%
%TO.P,TP20,1,1*%
%TO.N,Net-(U1-EEDATA)*%
X90710000Y-93670000D03*
%TD*%
%TO.P,TP4,1,1*%
%TO.N,/RXD1*%
X125270000Y-84960000D03*
%TD*%
%TO.P,TP11,1,1*%
%TO.N,/PSU_EN*%
X139400000Y-88730000D03*
%TD*%
D50*
%TO.P,FB2,1*%
%TO.N,VCCIO*%
X110105000Y-112810000D03*
%TO.P,FB2,2*%
%TO.N,Net-(U1-VPHY)*%
X111755000Y-112810000D03*
%TD*%
D51*
%TO.N,VCCIO*%
X157690000Y-93900000D03*
X95800000Y-54150000D03*
X89780000Y-54270000D03*
X89750000Y-64890000D03*
%TO.N,/SCL2*%
X85595047Y-60212616D03*
%TO.N,/SDA2*%
X85530000Y-61210000D03*
%TO.N,/SCL0*%
X82640000Y-46440000D03*
%TO.N,/SDA1*%
X100360000Y-48290000D03*
%TO.N,/SCL1*%
X100430000Y-49420000D03*
%TO.N,VCCIO*%
X130060000Y-101270000D03*
%TO.N,/SDA3*%
X111603198Y-69233198D03*
%TO.N,/SCL3*%
X111660000Y-67890000D03*
%TO.N,VCCIO*%
X65600000Y-37050000D03*
X79160000Y-37150000D03*
X87010000Y-37180000D03*
X100250000Y-37020000D03*
%TO.N,GND*%
X85420000Y-91050000D03*
%TO.N,/PLUG2*%
X101250000Y-88310000D03*
%TO.N,Net-(U1-EEDATA)*%
X92150000Y-95060000D03*
X104060000Y-98780000D03*
%TO.N,/RXD2*%
X101290000Y-91720000D03*
%TO.N,/SCL1*%
X85210000Y-86370000D03*
X81950000Y-86980000D03*
%TO.N,/SDA1*%
X85620000Y-87340000D03*
X82151850Y-87961851D03*
%TO.N,/RST2*%
X106210000Y-96240000D03*
%TO.N,VCCIO*%
X107780000Y-97005500D03*
%TO.N,/PLUG2*%
X109170000Y-95708541D03*
%TO.N,/TXD2*%
X102370000Y-89060000D03*
%TO.N,/RST1*%
X116016246Y-86716246D03*
%TO.N,/PLUG1*%
X118480000Y-85210000D03*
%TO.N,/RST0*%
X123570000Y-93680000D03*
%TO.N,/PLUG0*%
X122583623Y-95145346D03*
%TO.N,/RXD0*%
X123393538Y-95869846D03*
%TO.N,/TXD0*%
X124390000Y-96710000D03*
%TO.N,VCCIO*%
X71290000Y-62730000D03*
%TO.N,GND*%
X76760000Y-62760000D03*
X71900000Y-48360000D03*
%TO.N,VCCIO*%
X65580000Y-47980000D03*
X78250000Y-48190000D03*
X98260000Y-48510000D03*
%TO.N,GND*%
X92930000Y-48510000D03*
X72340000Y-36420000D03*
X93690000Y-36620000D03*
X80310000Y-98950000D03*
X76020000Y-94790000D03*
%TO.N,VCCIO*%
X84060000Y-95830000D03*
X128650000Y-110410000D03*
%TO.N,/RESET*%
X80710000Y-92090000D03*
X121947684Y-98195500D03*
%TO.N,/SCL*%
X85752701Y-98137299D03*
X122021610Y-102478636D03*
%TO.N,/SDA*%
X85810000Y-96950000D03*
X121980000Y-101480000D03*
%TO.N,/RXD2*%
X107340000Y-94924125D03*
%TO.N,/FAN_ALERT*%
X127040000Y-101720000D03*
X127175500Y-92409860D03*
%TO.N,VCCIO*%
X118490000Y-68930000D03*
X122190000Y-93100000D03*
X134220000Y-91190000D03*
%TO.N,GND*%
X120170000Y-103220000D03*
%TO.N,Net-(J14-Pin_4)*%
X129950000Y-69130000D03*
%TO.N,VCCIO*%
X116990000Y-55590000D03*
X104090000Y-56380000D03*
X127980000Y-65540000D03*
X128760000Y-55900000D03*
X139160000Y-56860000D03*
%TO.N,GND*%
X130720000Y-64570000D03*
X138560000Y-65110000D03*
X123680000Y-66160000D03*
X153200000Y-65340000D03*
X147110000Y-67290000D03*
X131880000Y-65700000D03*
%TO.N,Net-(J14-Pin_3)*%
X131200000Y-70450000D03*
%TO.N,Net-(J15-Pin_3)*%
X132580000Y-68380000D03*
%TO.N,Net-(J15-Pin_4)*%
X131490000Y-68600000D03*
%TO.N,Net-(J16-Pin_3)*%
X134690000Y-65420000D03*
%TO.N,Net-(J16-Pin_4)*%
X134614981Y-66416683D03*
%TO.N,Net-(J17-Pin_3)*%
X131640000Y-62090000D03*
%TO.N,Net-(J17-Pin_4)*%
X132700000Y-62190000D03*
%TO.N,/TXD1*%
X117884423Y-87922572D03*
%TO.N,/RXD1*%
X116885000Y-87910000D03*
%TO.N,/5V*%
X113454000Y-123936000D03*
X107543800Y-123724800D03*
%TO.N,VCORE*%
X117862354Y-104176740D03*
X110810000Y-102190000D03*
X110547000Y-92259000D03*
X118264799Y-91560799D03*
%TO.N,VCCIO*%
X109090000Y-92670000D03*
X108750000Y-112800000D03*
X91007000Y-98936000D03*
X123400000Y-99420000D03*
X98310000Y-93120000D03*
X95160000Y-93080000D03*
X120660000Y-107890000D03*
X101220000Y-93110000D03*
X91064000Y-100921000D03*
X122090000Y-112720000D03*
X96100000Y-123710000D03*
X114900000Y-90800000D03*
%TO.N,GND*%
X117750000Y-109160000D03*
X59820000Y-82940904D03*
X166670000Y-101257274D03*
X59820000Y-122543623D03*
X166670000Y-104303637D03*
X122700000Y-97320000D03*
X59820000Y-67709089D03*
X96150000Y-125690000D03*
X166670000Y-82979096D03*
X59710000Y-48120000D03*
X117420000Y-98410000D03*
X59820000Y-119497260D03*
X59820000Y-116450897D03*
X105420000Y-118710000D03*
X166670000Y-76886370D03*
X166670000Y-98210911D03*
X166670000Y-67747281D03*
X104390000Y-93680000D03*
X117430000Y-95900000D03*
X111410000Y-106310000D03*
X59820000Y-58570000D03*
X105730000Y-102310000D03*
X166770000Y-42860000D03*
X166670000Y-116489089D03*
X59820000Y-73801815D03*
X59820000Y-110358171D03*
X166670000Y-58608192D03*
X166670000Y-86025459D03*
X102720000Y-126130000D03*
X166670000Y-79932733D03*
X89750000Y-99920000D03*
X112340000Y-87800000D03*
X126360000Y-118740000D03*
X117160500Y-103190000D03*
X122370000Y-114580000D03*
X91125000Y-97515000D03*
X59820000Y-76848178D03*
X166670000Y-122581815D03*
X59820000Y-113404534D03*
X166670000Y-113442726D03*
X59820000Y-85987267D03*
X104328000Y-110913000D03*
X166670000Y-107350000D03*
X59710000Y-39015000D03*
X119700000Y-91536000D03*
X105250000Y-91160000D03*
X59820000Y-125590000D03*
X166670000Y-70793644D03*
X59820000Y-98172719D03*
X128340000Y-99450000D03*
X114160500Y-103302000D03*
X109255765Y-94259041D03*
X114380000Y-108310000D03*
X59820000Y-79894541D03*
X166670000Y-125628192D03*
X166770000Y-39825000D03*
X59820000Y-101219082D03*
X59820000Y-64662726D03*
X59820000Y-104265445D03*
X114820000Y-95860000D03*
X166670000Y-110396363D03*
X59710000Y-42050000D03*
X108720000Y-114790000D03*
X166770000Y-36790000D03*
X110390000Y-103550000D03*
X166770000Y-45895000D03*
X166670000Y-95164548D03*
X59820000Y-89033630D03*
X116135000Y-97170000D03*
X59820000Y-107311808D03*
X166670000Y-64700918D03*
X114740000Y-98510000D03*
X113040000Y-91493000D03*
X166770000Y-48930000D03*
X59820000Y-61616363D03*
X59820000Y-95126356D03*
X59710000Y-35980000D03*
X166670000Y-61654555D03*
X166670000Y-73840007D03*
X103872000Y-122806000D03*
X59820000Y-92079993D03*
X59710000Y-45085000D03*
X166670000Y-119535452D03*
X166670000Y-92118185D03*
X166670000Y-89071822D03*
X59820000Y-70755452D03*
X106250000Y-98350000D03*
%TD*%
D52*
%TO.N,VCCIO*%
X121370000Y-93920000D02*
X120580000Y-93920000D01*
X122190000Y-93100000D02*
X121370000Y-93920000D01*
%TO.N,GND*%
X110390000Y-103550000D02*
X110732000Y-103550000D01*
X112385000Y-101897000D02*
X112385000Y-101615000D01*
X110732000Y-103550000D02*
X112385000Y-101897000D01*
%TO.N,VCCIO*%
X109090000Y-92670000D02*
X108810000Y-92670000D01*
X108810000Y-92670000D02*
X107890000Y-93590000D01*
X109090000Y-92670000D02*
X110340000Y-93920000D01*
X110340000Y-93920000D02*
X111690000Y-93920000D01*
%TO.N,/SCL2*%
X77530000Y-96670000D02*
X75970000Y-96670000D01*
X75970000Y-96670000D02*
X74740000Y-95440000D01*
X74740000Y-95440000D02*
X74740000Y-85363604D01*
X77105000Y-57413859D02*
X77105000Y-55985000D01*
X77105000Y-55985000D02*
X78080000Y-55010000D01*
X74740000Y-85363604D02*
X78680000Y-81423604D01*
X78680000Y-81423604D02*
X78680000Y-58988859D01*
X78680000Y-58988859D02*
X77105000Y-57413859D01*
%TO.N,/SDA2*%
X77530000Y-96020000D02*
X77465000Y-96085000D01*
X77465000Y-96085000D02*
X76065000Y-96085000D01*
X76065000Y-96085000D02*
X75190000Y-95210000D01*
X75190000Y-95210000D02*
X75190000Y-85550000D01*
X75190000Y-85550000D02*
X79130000Y-81610000D01*
X79130000Y-81610000D02*
X79130000Y-58060000D01*
X79130000Y-58060000D02*
X78080000Y-57010000D01*
%TO.N,GND*%
X76020000Y-94790000D02*
X76600000Y-95370000D01*
X76600000Y-95370000D02*
X77530000Y-95370000D01*
%TO.N,/SCL1*%
X77530000Y-94720000D02*
X77060000Y-94720000D01*
X76710000Y-94370000D02*
X76710000Y-92220000D01*
X77060000Y-94720000D02*
X76710000Y-94370000D01*
X76710000Y-92220000D02*
X81950000Y-86980000D01*
%TO.N,/SDA3*%
X78380000Y-97520000D02*
X78380000Y-98880000D01*
X78380000Y-98880000D02*
X79765000Y-100265000D01*
X79765000Y-100265000D02*
X87295000Y-100265000D01*
X87295000Y-100265000D02*
X89250000Y-98310000D01*
X89250000Y-98310000D02*
X89250000Y-91586396D01*
X89250000Y-91586396D02*
X111603198Y-69233198D01*
%TO.N,/SCL3*%
X79030000Y-97520000D02*
X79030000Y-98810000D01*
X79030000Y-98810000D02*
X80035000Y-99815000D01*
X87108604Y-99815000D02*
X88800000Y-98123604D01*
X88800000Y-98123604D02*
X88800000Y-90750000D01*
X80035000Y-99815000D02*
X87108604Y-99815000D01*
X88800000Y-90750000D02*
X111660000Y-67890000D01*
%TO.N,GND*%
X79680000Y-98320000D02*
X80310000Y-98950000D01*
X79680000Y-97520000D02*
X79680000Y-98320000D01*
%TO.N,/PSU_EN*%
X127885000Y-98125000D02*
X131385000Y-98125000D01*
X131385000Y-98125000D02*
X139380000Y-90130000D01*
X139380000Y-90130000D02*
X147750000Y-90130000D01*
X147750000Y-90130000D02*
X157635000Y-80245000D01*
X157635000Y-80245000D02*
X158210000Y-80245000D01*
%TO.N,Net-(J14-Pin_3)*%
X141880000Y-54420000D02*
X142560000Y-55100000D01*
%TO.N,/RESET*%
X80710000Y-92090000D02*
X80940000Y-91860000D01*
X80940000Y-91860000D02*
X82550000Y-91860000D01*
X82550000Y-91860000D02*
X83020000Y-91390000D01*
%TO.N,VCCIO*%
X128760000Y-55900000D02*
X128760000Y-56270000D01*
X128760000Y-56270000D02*
X129650000Y-57160000D01*
X129650000Y-57160000D02*
X130197500Y-57160000D01*
X130197500Y-57160000D02*
X130217500Y-57180000D01*
%TO.N,Net-(J15-Pin_3)*%
X132052500Y-55532500D02*
X132052500Y-57170000D01*
X132052500Y-57170000D02*
X132042500Y-57180000D01*
%TO.N,VCCIO*%
X139160000Y-56860000D02*
X139580000Y-57280000D01*
X140677500Y-57280000D02*
X140687500Y-57270000D01*
X139580000Y-57280000D02*
X140677500Y-57280000D01*
%TO.N,Net-(J14-Pin_3)*%
X142512500Y-57270000D02*
X142560000Y-57222500D01*
X142560000Y-57222500D02*
X142560000Y-55100000D01*
%TO.N,Net-(J16-Pin_3)*%
X107425000Y-55575000D02*
X107425000Y-57157500D01*
X107425000Y-57157500D02*
X107412500Y-57170000D01*
%TO.N,VCCIO*%
X105587500Y-57170000D02*
X104880000Y-57170000D01*
X104880000Y-57170000D02*
X104090000Y-56380000D01*
%TO.N,Net-(J17-Pin_3)*%
X119820000Y-54320000D02*
X120820000Y-55320000D01*
X120820000Y-57102500D02*
X120752500Y-57170000D01*
X120820000Y-55320000D02*
X120820000Y-57102500D01*
%TO.N,VCCIO*%
X116990000Y-55590000D02*
X116990000Y-55860000D01*
X116990000Y-55860000D02*
X118300000Y-57170000D01*
X118300000Y-57170000D02*
X118927500Y-57170000D01*
%TO.N,/RST2*%
X103900000Y-95890000D02*
X105860000Y-95890000D01*
X105860000Y-95890000D02*
X106210000Y-96240000D01*
%TO.N,Net-(U1-EECLK)*%
X97060000Y-92110000D02*
X97060000Y-96500000D01*
X97060000Y-96500000D02*
X97060000Y-99371000D01*
X98276000Y-96508500D02*
X97068500Y-96508500D01*
X97068500Y-96508500D02*
X97060000Y-96500000D01*
X97060000Y-99371000D02*
X97619002Y-99930002D01*
X97619002Y-99930002D02*
X98740000Y-99930002D01*
%TO.N,GND*%
X122700000Y-97320000D02*
X121962604Y-97320000D01*
X121562604Y-96920000D02*
X120580000Y-96920000D01*
X121962604Y-97320000D02*
X121562604Y-96920000D01*
%TO.N,/TXD0*%
X124390000Y-96710000D02*
X126010000Y-96710000D01*
X124390000Y-96710000D02*
X123208387Y-96710000D01*
X123208387Y-96710000D02*
X122918387Y-96420000D01*
X122918387Y-96420000D02*
X120580000Y-96420000D01*
%TO.N,/PLUG1*%
X116110000Y-88350000D02*
X116385000Y-88625000D01*
X118480000Y-85210000D02*
X117880000Y-85210000D01*
X118480000Y-85210000D02*
X118480000Y-85277797D01*
X118480000Y-85277797D02*
X116110000Y-87647797D01*
X117880000Y-85210000D02*
X114740000Y-82070000D01*
X116110000Y-87647797D02*
X116110000Y-88350000D01*
X116385000Y-88625000D02*
X116385000Y-92725000D01*
%TO.N,VCCIO*%
X157712500Y-93922500D02*
X157690000Y-93900000D01*
X159810000Y-93922500D02*
X157712500Y-93922500D01*
X161890000Y-93942500D02*
X159830000Y-93942500D01*
X159830000Y-93942500D02*
X159810000Y-93922500D01*
%TO.N,/SCL3*%
X159810000Y-92097500D02*
X159810000Y-84410000D01*
X159810000Y-84410000D02*
X158210000Y-82810000D01*
X158210000Y-82810000D02*
X158210000Y-82245000D01*
%TO.N,/SDA3*%
X161890000Y-92117500D02*
X161890000Y-83925000D01*
X161890000Y-83925000D02*
X160210000Y-82245000D01*
%TO.N,VCCIO*%
X95897500Y-54247500D02*
X95800000Y-54150000D01*
X97560000Y-54247500D02*
X95897500Y-54247500D01*
X99480000Y-54245000D02*
X97562500Y-54245000D01*
X97562500Y-54245000D02*
X97560000Y-54247500D01*
X89742500Y-54232500D02*
X89780000Y-54270000D01*
X87890000Y-54232500D02*
X89742500Y-54232500D01*
X85830000Y-54245000D02*
X87877500Y-54245000D01*
X87877500Y-54245000D02*
X87890000Y-54232500D01*
X89687500Y-64952500D02*
X89750000Y-64890000D01*
X87980000Y-64952500D02*
X89687500Y-64952500D01*
X85890000Y-64955000D02*
X87977500Y-64955000D01*
X87977500Y-64955000D02*
X87980000Y-64952500D01*
%TO.N,/SCL2*%
X87980000Y-62597569D02*
X85595047Y-60212616D01*
X87980000Y-63127500D02*
X87980000Y-62597569D01*
%TO.N,/SDA2*%
X85890000Y-61570000D02*
X85530000Y-61210000D01*
X85890000Y-63130000D02*
X85890000Y-61570000D01*
%TO.N,/SDA0*%
X85830000Y-52420000D02*
X83860000Y-52420000D01*
X83860000Y-52420000D02*
X83780000Y-52340000D01*
%TO.N,/SCL0*%
X87890000Y-51690000D02*
X82640000Y-46440000D01*
X87890000Y-52407500D02*
X87890000Y-51690000D01*
%TO.N,/SDA0*%
X83780000Y-87994695D02*
X83780000Y-52340000D01*
X83780000Y-52340000D02*
X83780000Y-48680000D01*
%TO.N,/SDA1*%
X97560000Y-52422500D02*
X97560000Y-51090000D01*
X97560000Y-51090000D02*
X100360000Y-48290000D01*
%TO.N,/SCL1*%
X99480000Y-50370000D02*
X100430000Y-49420000D01*
X99480000Y-52420000D02*
X99480000Y-50370000D01*
%TO.N,VCCIO*%
X130090000Y-101300000D02*
X130060000Y-101270000D01*
X131860000Y-101300000D02*
X130090000Y-101300000D01*
%TO.N,/SDA3*%
X111603198Y-69233198D02*
X116106396Y-64730000D01*
%TO.N,/SCL3*%
X111660000Y-67890000D02*
X115324999Y-64225001D01*
X115324999Y-64225001D02*
X129360799Y-64225001D01*
%TO.N,VCCIO*%
X65567500Y-37017500D02*
X65600000Y-37050000D01*
X65567500Y-35500000D02*
X65567500Y-37017500D01*
%TO.N,/A20*%
X76080000Y-40980000D02*
X76080000Y-35795000D01*
X76080000Y-35795000D02*
X75785000Y-35500000D01*
X77370000Y-35500000D02*
X75785000Y-35500000D01*
%TO.N,VCCIO*%
X79195000Y-37115000D02*
X79160000Y-37150000D01*
X79195000Y-35500000D02*
X79195000Y-37115000D01*
X86970000Y-37140000D02*
X87010000Y-37180000D01*
X86970000Y-35500000D02*
X86970000Y-37140000D01*
X100252500Y-37017500D02*
X100250000Y-37020000D01*
X100252500Y-35500000D02*
X100252500Y-37017500D01*
%TO.N,GND*%
X85120000Y-91350000D02*
X85420000Y-91050000D01*
X85120000Y-92710000D02*
X85120000Y-91350000D01*
%TO.N,VCCIO*%
X85120000Y-94610000D02*
X85120000Y-94770000D01*
X85120000Y-94770000D02*
X84060000Y-95830000D01*
%TO.N,/PLUG2*%
X99530000Y-87340000D02*
X100280000Y-87340000D01*
X100280000Y-87340000D02*
X101250000Y-88310000D01*
%TO.N,Net-(U1-EEDATA)*%
X90710000Y-93670000D02*
X90760000Y-93670000D01*
X90760000Y-93670000D02*
X92150000Y-95060000D01*
X102892500Y-98230000D02*
X103510000Y-98230000D01*
X103510000Y-98230000D02*
X104060000Y-98780000D01*
%TO.N,Net-(U3-Q)*%
X98740000Y-98630002D02*
X100667498Y-98630002D01*
%TO.N,/RST1*%
X115050000Y-85190000D02*
X115050000Y-85750000D01*
X115050000Y-85750000D02*
X116016246Y-86716246D01*
%TO.N,/RXD2*%
X100450000Y-90880000D02*
X101290000Y-91720000D01*
X100010000Y-90880000D02*
X100450000Y-90880000D01*
%TO.N,/TXD2*%
X105050000Y-87650000D02*
X103780000Y-87650000D01*
X103780000Y-87650000D02*
X102370000Y-89060000D01*
%TO.N,/RST0*%
X123570000Y-93680000D02*
X123570000Y-91650000D01*
X123570000Y-91650000D02*
X123650000Y-91570000D01*
%TO.N,/PLUG0*%
X122583623Y-95145346D02*
X122741050Y-95145346D01*
X122741050Y-95145346D02*
X123476396Y-94410000D01*
X123476396Y-94410000D02*
X124600000Y-94410000D01*
X124600000Y-94410000D02*
X125540000Y-93470000D01*
%TO.N,/RXD0*%
X123393538Y-95869846D02*
X124193384Y-95070000D01*
X124193384Y-95070000D02*
X128680000Y-95070000D01*
%TO.N,/SCL1*%
X85210000Y-86370000D02*
X85953604Y-86370000D01*
X101780000Y-46628859D02*
X98535000Y-43383859D01*
X98535000Y-41955000D02*
X99510000Y-40980000D01*
X101780000Y-70543604D02*
X101780000Y-46628859D01*
X85953604Y-86370000D02*
X101780000Y-70543604D01*
X98535000Y-43383859D02*
X98535000Y-41955000D01*
%TO.N,/SDA1*%
X85620000Y-87340000D02*
X102230000Y-70730000D01*
X102230000Y-70730000D02*
X102230000Y-45700000D01*
X102230000Y-45700000D02*
X99510000Y-42980000D01*
X78380000Y-93870000D02*
X78380000Y-91733701D01*
X78380000Y-91733701D02*
X82151850Y-87961851D01*
%TO.N,/SDA3*%
X128195305Y-64730000D02*
X128340304Y-64874999D01*
X116106396Y-64730000D02*
X128195305Y-64730000D01*
X128340304Y-64874999D02*
X129360799Y-64874999D01*
%TO.N,/SCL0*%
X79030000Y-92108299D02*
X83264150Y-87874149D01*
X79030000Y-93870000D02*
X79030000Y-92108299D01*
X83264150Y-87874149D02*
X83264150Y-49543009D01*
X77105000Y-43383859D02*
X77105000Y-41955000D01*
X83264150Y-49543009D02*
X77105000Y-43383859D01*
X77105000Y-41955000D02*
X78080000Y-40980000D01*
%TO.N,/SDA0*%
X79680000Y-93870000D02*
X79680000Y-92094695D01*
X79680000Y-92094695D02*
X83780000Y-87994695D01*
X83780000Y-48680000D02*
X78080000Y-42980000D01*
%TO.N,/RST2*%
X111690000Y-95920000D02*
X111196452Y-95920000D01*
X111196452Y-95920000D02*
X110682911Y-96433541D01*
X110682911Y-96433541D02*
X108683541Y-96433541D01*
X108683541Y-96433541D02*
X108490000Y-96240000D01*
X108490000Y-96240000D02*
X106210000Y-96240000D01*
%TO.N,VCCIO*%
X107780000Y-97005500D02*
X107884500Y-97110000D01*
X110260000Y-97110000D02*
X110510000Y-97360000D01*
X107884500Y-97110000D02*
X110260000Y-97110000D01*
%TO.N,GND*%
X107640000Y-98330000D02*
X106270000Y-98330000D01*
X106270000Y-98330000D02*
X106250000Y-98350000D01*
%TO.N,VCCIO*%
X110950000Y-96920000D02*
X110510000Y-97360000D01*
X110510000Y-97360000D02*
X109540000Y-98330000D01*
X111690000Y-96920000D02*
X110950000Y-96920000D01*
%TO.N,/TXD2*%
X112315000Y-91793305D02*
X112385000Y-91863305D01*
X112385000Y-91863305D02*
X112385000Y-92725000D01*
X102370000Y-89060000D02*
X111660000Y-89060000D01*
X111660000Y-89060000D02*
X112315000Y-89715000D01*
X112315000Y-89715000D02*
X112315000Y-91793305D01*
%TO.N,/PLUG2*%
X111675959Y-95434041D02*
X109444500Y-95434041D01*
X109444500Y-95434041D02*
X109170000Y-95708541D01*
X111690000Y-95420000D02*
X111675959Y-95434041D01*
%TO.N,/RXD2*%
X107340000Y-94924125D02*
X107399916Y-94984041D01*
X107399916Y-94984041D02*
X110152355Y-94984041D01*
X110216396Y-94920000D02*
X111690000Y-94920000D01*
X110152355Y-94984041D02*
X110216396Y-94920000D01*
%TO.N,GND*%
X109913604Y-94420000D02*
X111690000Y-94420000D01*
X109255765Y-94259041D02*
X109752645Y-94259041D01*
X109752645Y-94259041D02*
X109913604Y-94420000D01*
%TO.N,/RST1*%
X115885000Y-92725000D02*
X115885000Y-88761396D01*
X115885000Y-88761396D02*
X115660000Y-88536396D01*
X115660000Y-88536396D02*
X115660000Y-87072492D01*
X115660000Y-87072492D02*
X116016246Y-86716246D01*
%TO.N,GND*%
X112340000Y-87800000D02*
X114050000Y-87800000D01*
X114050000Y-87800000D02*
X114080000Y-87830000D01*
%TO.N,VCCIO*%
X114900000Y-90800000D02*
X114900000Y-90550000D01*
X114900000Y-90550000D02*
X114080000Y-89730000D01*
%TO.N,/RXD1*%
X116885000Y-87910000D02*
X116885000Y-87896690D01*
X116885000Y-87896690D02*
X119821690Y-84960000D01*
X119821690Y-84960000D02*
X125270000Y-84960000D01*
%TO.N,/TXD1*%
X117884423Y-87922572D02*
X117884423Y-88025577D01*
X117884423Y-88025577D02*
X117385000Y-88525000D01*
X117385000Y-88525000D02*
X117385000Y-92725000D01*
X117884423Y-87922572D02*
X118356995Y-87450000D01*
X118356995Y-87450000D02*
X123980000Y-87450000D01*
%TO.N,/RXD1*%
X116885000Y-87910000D02*
X116885000Y-92725000D01*
%TO.N,VCCIO*%
X115385000Y-91285000D02*
X115385000Y-92725000D01*
X114900000Y-90800000D02*
X115385000Y-91285000D01*
%TO.N,/FAN_ALERT*%
X127309860Y-92409860D02*
X128744860Y-90974860D01*
X127175500Y-92409860D02*
X127309860Y-92409860D01*
X122874695Y-99920000D02*
X120580000Y-99920000D01*
X127040000Y-101720000D02*
X124674695Y-101720000D01*
X124674695Y-101720000D02*
X122874695Y-99920000D01*
%TO.N,/RST0*%
X122303664Y-94400000D02*
X122850000Y-94400000D01*
X120580000Y-94920000D02*
X121783664Y-94920000D01*
X122850000Y-94400000D02*
X123570000Y-93680000D01*
X121783664Y-94920000D02*
X122303664Y-94400000D01*
%TO.N,/PLUG0*%
X120580000Y-95420000D02*
X122308969Y-95420000D01*
X122308969Y-95420000D02*
X122583623Y-95145346D01*
%TO.N,/RXD0*%
X123343384Y-95920000D02*
X123393538Y-95869846D01*
X120580000Y-95920000D02*
X123343384Y-95920000D01*
%TO.N,VCCIO*%
X71297500Y-62722500D02*
X71290000Y-62730000D01*
X71297500Y-61020000D02*
X71297500Y-62722500D01*
%TO.N,GND*%
X76702500Y-62702500D02*
X76760000Y-62760000D01*
X76702500Y-61020000D02*
X76702500Y-62702500D01*
X71297500Y-46830000D02*
X71297500Y-47757500D01*
X71297500Y-47757500D02*
X71900000Y-48360000D01*
X72100000Y-48560000D02*
X71900000Y-48360000D01*
X73277500Y-49650000D02*
X72100000Y-49650000D01*
X72100000Y-49650000D02*
X72100000Y-48560000D01*
X72100000Y-49650000D02*
X70915000Y-49650000D01*
%TO.N,VCCIO*%
X65600000Y-48000000D02*
X65580000Y-47980000D01*
X65600000Y-49690000D02*
X65600000Y-48000000D01*
X78682500Y-49650000D02*
X78682500Y-48622500D01*
X78682500Y-48622500D02*
X78250000Y-48190000D01*
X76890000Y-46830000D02*
X78250000Y-48190000D01*
X76702500Y-46830000D02*
X76890000Y-46830000D01*
X98255000Y-48505000D02*
X98260000Y-48510000D01*
X98255000Y-46800000D02*
X98255000Y-48505000D01*
%TO.N,GND*%
X92880000Y-48460000D02*
X92930000Y-48510000D01*
X92880000Y-46830000D02*
X92880000Y-48460000D01*
X72390000Y-36370000D02*
X72340000Y-36420000D01*
X72390000Y-35500000D02*
X72390000Y-36370000D01*
X73960000Y-35500000D02*
X72390000Y-35500000D01*
X72390000Y-35500000D02*
X70872500Y-35500000D01*
X93660000Y-36590000D02*
X93690000Y-36620000D01*
X93660000Y-35500000D02*
X93660000Y-36590000D01*
X93660000Y-35500000D02*
X94767500Y-35500000D01*
X92495000Y-35500000D02*
X93660000Y-35500000D01*
%TO.N,/A12*%
X74877500Y-61020000D02*
X74050000Y-61020000D01*
X74080000Y-57010000D02*
X74080000Y-60990000D01*
X74050000Y-61020000D02*
X73122500Y-61020000D01*
X74080000Y-60990000D02*
X74050000Y-61020000D01*
%TO.N,/A02*%
X74080000Y-55010000D02*
X68900000Y-49830000D01*
X68900000Y-49830000D02*
X69080000Y-49650000D01*
X69080000Y-49650000D02*
X69090000Y-49650000D01*
X69090000Y-49650000D02*
X67465000Y-49650000D01*
X67465000Y-49650000D02*
X67425000Y-49690000D01*
%TO.N,/A22*%
X75102500Y-49650000D02*
X75980000Y-49650000D01*
X75980000Y-49650000D02*
X76857500Y-49650000D01*
X76080000Y-55010000D02*
X76080000Y-49750000D01*
X76080000Y-49750000D02*
X75980000Y-49650000D01*
%TO.N,/A10*%
X73122500Y-46830000D02*
X73970000Y-46830000D01*
X73970000Y-46830000D02*
X74877500Y-46830000D01*
X74080000Y-42980000D02*
X74080000Y-46720000D01*
X74080000Y-46720000D02*
X73970000Y-46830000D01*
%TO.N,/A11*%
X96430000Y-46800000D02*
X95550000Y-46800000D01*
X95550000Y-46800000D02*
X94735000Y-46800000D01*
X95510000Y-42980000D02*
X95510000Y-46760000D01*
X95510000Y-46760000D02*
X95550000Y-46800000D01*
X94735000Y-46800000D02*
X94705000Y-46830000D01*
%TO.N,/A21*%
X97510000Y-40980000D02*
X97510000Y-36417500D01*
X97510000Y-36417500D02*
X98427500Y-35500000D01*
X96592500Y-35500000D02*
X98427500Y-35500000D01*
%TO.N,/A01*%
X95510000Y-40980000D02*
X90670000Y-36140000D01*
X90670000Y-36140000D02*
X90670000Y-35500000D01*
X88795000Y-35500000D02*
X90670000Y-35500000D01*
%TO.N,/A00*%
X67392500Y-35500000D02*
X68230000Y-35500000D01*
X68230000Y-35500000D02*
X69047500Y-35500000D01*
X68600000Y-35500000D02*
X68230000Y-35500000D01*
X74080000Y-40980000D02*
X68600000Y-35500000D01*
%TO.N,GND*%
X81180000Y-94720000D02*
X80330000Y-94720000D01*
X80330000Y-94720000D02*
X80075000Y-94975000D01*
X81180000Y-95370000D02*
X80400000Y-95370000D01*
X80400000Y-95370000D02*
X80075000Y-95695000D01*
%TO.N,VCCIO*%
X83870000Y-96020000D02*
X84060000Y-95830000D01*
X81180000Y-96020000D02*
X83870000Y-96020000D01*
%TO.N,/SDA*%
X126760000Y-106060000D02*
X126830000Y-105990000D01*
X126830000Y-105990000D02*
X126830000Y-103540000D01*
%TO.N,VCCIO*%
X128602500Y-110362500D02*
X128650000Y-110410000D01*
X128602500Y-108120000D02*
X128602500Y-110362500D01*
X128585000Y-106060000D02*
X128585000Y-108102500D01*
X128585000Y-108102500D02*
X128602500Y-108120000D01*
%TO.N,/SCL*%
X126777500Y-108120000D02*
X126777500Y-110272500D01*
X126777500Y-110272500D02*
X126570000Y-110480000D01*
X126777500Y-108120000D02*
X122021610Y-103364110D01*
X122021610Y-103364110D02*
X122021610Y-102478636D01*
%TO.N,/SDA*%
X126760000Y-106060000D02*
X122180000Y-101480000D01*
X122180000Y-101480000D02*
X121980000Y-101480000D01*
X85810000Y-96950000D02*
X85530000Y-96670000D01*
X85530000Y-96670000D02*
X81180000Y-96670000D01*
%TO.N,/SCL*%
X85752701Y-98137299D02*
X80477299Y-98137299D01*
X80477299Y-98137299D02*
X80330000Y-97990000D01*
X80330000Y-97990000D02*
X80330000Y-97520000D01*
%TO.N,GND*%
X105730000Y-102310000D02*
X106320000Y-101720000D01*
X106320000Y-101720000D02*
X106950000Y-101720000D01*
%TO.N,VCORE*%
X110810000Y-101800000D02*
X111690000Y-100920000D01*
X110340000Y-101720000D02*
X108850000Y-101720000D01*
X110810000Y-102190000D02*
X110340000Y-101720000D01*
X110810000Y-102190000D02*
X110810000Y-101800000D01*
%TO.N,/RESET*%
X80710000Y-92090000D02*
X80330000Y-92470000D01*
X80330000Y-92470000D02*
X80330000Y-93870000D01*
X120580000Y-98420000D02*
X121723184Y-98420000D01*
X121723184Y-98420000D02*
X121947684Y-98195500D01*
%TO.N,/SCL*%
X121081364Y-102478636D02*
X121065000Y-102495000D01*
X120195000Y-102495000D02*
X119885000Y-102185000D01*
X122021610Y-102478636D02*
X121081364Y-102478636D01*
X121065000Y-102495000D02*
X120195000Y-102495000D01*
X119885000Y-102185000D02*
X119885000Y-101615000D01*
%TO.N,/SDA*%
X121980000Y-101480000D02*
X121800000Y-101480000D01*
X121800000Y-101480000D02*
X121660000Y-101340000D01*
X121470000Y-100420000D02*
X121630000Y-100580000D01*
X120580000Y-100420000D02*
X121470000Y-100420000D01*
X121240000Y-100920000D02*
X121660000Y-101340000D01*
X121630000Y-100580000D02*
X121630000Y-101310000D01*
X121630000Y-101310000D02*
X121660000Y-101340000D01*
X120580000Y-100920000D02*
X121240000Y-100920000D01*
%TO.N,VCORE*%
X117862354Y-104176740D02*
X117640000Y-104399094D01*
X117862354Y-104176740D02*
X117885000Y-104154094D01*
X117640000Y-104399094D02*
X117640000Y-105780000D01*
X117885000Y-104154094D02*
X117885000Y-101615000D01*
%TO.N,/PSU_EN*%
X120580000Y-98920000D02*
X122390000Y-98920000D01*
X122390000Y-98920000D02*
X123190000Y-98120000D01*
X126439695Y-98125000D02*
X127885000Y-98125000D01*
X123190000Y-98120000D02*
X126434695Y-98120000D01*
X126434695Y-98120000D02*
X126439695Y-98125000D01*
X139400000Y-88730000D02*
X139400000Y-90110000D01*
X139400000Y-90110000D02*
X139380000Y-90130000D01*
%TO.N,VCCIO*%
X119060000Y-69500000D02*
X118490000Y-68930000D01*
X119957500Y-69500000D02*
X119060000Y-69500000D01*
X119957500Y-67310000D02*
X119957500Y-69500000D01*
X134200000Y-91170000D02*
X134220000Y-91190000D01*
X132432500Y-91170000D02*
X134200000Y-91170000D01*
%TO.N,/FAN_ALERT*%
X132090000Y-93940000D02*
X130607500Y-92457500D01*
X130607500Y-92457500D02*
X130607500Y-91170000D01*
X128744860Y-90974860D02*
X136370000Y-83349720D01*
X130607500Y-91170000D02*
X128940000Y-91170000D01*
X128940000Y-91170000D02*
X128744860Y-90974860D01*
%TO.N,GND*%
X126686000Y-99424000D02*
X128314000Y-99424000D01*
X128314000Y-99424000D02*
X128340000Y-99450000D01*
%TO.N,VCCIO*%
X124786000Y-99424000D02*
X123404000Y-99424000D01*
X123404000Y-99424000D02*
X123400000Y-99420000D01*
%TO.N,GND*%
X105990000Y-93590000D02*
X104480000Y-93590000D01*
X104480000Y-93590000D02*
X104390000Y-93680000D01*
X107040000Y-91200000D02*
X105290000Y-91200000D01*
X105290000Y-91200000D02*
X105250000Y-91160000D01*
%TO.N,VCORE*%
X108940000Y-91200000D02*
X109488000Y-91200000D01*
X109488000Y-91200000D02*
X110547000Y-92259000D01*
%TO.N,Net-(U1-EEDATA)*%
X103360000Y-99420000D02*
X102870000Y-99420000D01*
X102892500Y-99397500D02*
X102870000Y-99420000D01*
X102870000Y-99420000D02*
X100140000Y-99420000D01*
X102892500Y-98230000D02*
X102892500Y-99397500D01*
%TO.N,Net-(U3-Q)*%
X101067500Y-98230000D02*
X101067500Y-96643000D01*
X101067500Y-96643000D02*
X101219000Y-96491500D01*
X100667498Y-98630002D02*
X101067500Y-98230000D01*
%TO.N,VCCIO*%
X101219000Y-94666500D02*
X101219000Y-93111000D01*
X101219000Y-93111000D02*
X101220000Y-93110000D01*
X98276000Y-94683500D02*
X98276000Y-93154000D01*
X98276000Y-93154000D02*
X98310000Y-93120000D01*
X95180000Y-94683500D02*
X95180000Y-93100000D01*
X95180000Y-93100000D02*
X95160000Y-93080000D01*
%TO.N,VCORE*%
X108850000Y-101720000D02*
X108850000Y-102910000D01*
X108850000Y-102910000D02*
X107800000Y-103960000D01*
X107800000Y-103960000D02*
X106000000Y-103960000D01*
%TO.N,VCCIO*%
X120670000Y-106502500D02*
X120670000Y-107880000D01*
X120670000Y-107880000D02*
X120660000Y-107890000D01*
%TO.N,GND*%
X119385000Y-101615000D02*
X119385000Y-102435000D01*
X119385000Y-102435000D02*
X120170000Y-103220000D01*
%TO.N,Net-(U1-RESET#)*%
X118885000Y-101615000D02*
X118885000Y-103231000D01*
X120331500Y-104677500D02*
X120670000Y-104677500D01*
X118885000Y-103231000D02*
X120331500Y-104677500D01*
%TO.N,Net-(U1-REF)*%
X114310000Y-110360000D02*
X113160000Y-109210000D01*
X113160000Y-105520000D02*
X113662500Y-105017500D01*
X113160000Y-109210000D02*
X113160000Y-105520000D01*
X113662500Y-105017500D02*
X114370000Y-105017500D01*
%TO.N,Net-(U1-VPHY)*%
X113885000Y-101615000D02*
X113885000Y-102552195D01*
X113885000Y-102552195D02*
X112620000Y-103817195D01*
X112620000Y-103817195D02*
X112620000Y-112141000D01*
X112620000Y-112141000D02*
X111733000Y-113028000D01*
%TO.N,Net-(U1-OSCO)*%
X113385000Y-101615000D02*
X113385000Y-102283396D01*
X113385000Y-102283396D02*
X112170000Y-103498396D01*
X112170000Y-110675000D02*
X111940000Y-110905000D01*
X112170000Y-103498396D02*
X112170000Y-110675000D01*
X111940000Y-110905000D02*
X111150000Y-110905000D01*
X111150000Y-110905000D02*
X111155000Y-110910000D01*
%TO.N,GND*%
X114180000Y-106822500D02*
X114180000Y-108110000D01*
X114180000Y-108110000D02*
X114380000Y-108310000D01*
%TO.N,Net-(U1-REF)*%
X114180000Y-104997500D02*
X114885000Y-104292500D01*
X114885000Y-104292500D02*
X114885000Y-101615000D01*
%TO.N,GND*%
X117640000Y-107680000D02*
X117640000Y-109050000D01*
X117640000Y-109050000D02*
X117750000Y-109160000D01*
X117750000Y-109160000D02*
X118370000Y-109160000D01*
X118370000Y-109160000D02*
X119030000Y-108500000D01*
X119030000Y-108500000D02*
X119030000Y-104320000D01*
X118385000Y-103675000D02*
X118385000Y-101615000D01*
X119030000Y-104320000D02*
X118385000Y-103675000D01*
X121404000Y-91536000D02*
X121680000Y-91260000D01*
X119700000Y-91536000D02*
X121404000Y-91536000D01*
X121680000Y-91260000D02*
X121680000Y-89840000D01*
%TO.N,VCORE*%
X118264799Y-91560799D02*
X118264799Y-91355201D01*
X118264799Y-91355201D02*
X119780000Y-89840000D01*
%TO.N,Net-(U4-ADDR_SEL)*%
X129360799Y-66174999D02*
X128225798Y-67310000D01*
X128225798Y-67310000D02*
X121782500Y-67310000D01*
%TO.N,Net-(U4-CLK)*%
X133259201Y-64874999D02*
X134209696Y-64874999D01*
X134209696Y-64874999D02*
X134389695Y-64695000D01*
X135415000Y-65075000D02*
X135415000Y-67305000D01*
X124030000Y-69520000D02*
X121890000Y-69520000D01*
X134389695Y-64695000D02*
X135035000Y-64695000D01*
X135035000Y-64695000D02*
X135415000Y-65075000D01*
X135415000Y-67305000D02*
X131545000Y-71175000D01*
X131545000Y-71175000D02*
X125685000Y-71175000D01*
X125685000Y-71175000D02*
X124030000Y-69520000D01*
%TO.N,/FAN_ALERT*%
X136370000Y-83349720D02*
X136370000Y-65180000D01*
X136370000Y-65180000D02*
X135415001Y-64225001D01*
X135415001Y-64225001D02*
X133259201Y-64225001D01*
%TO.N,Net-(J14-Pin_4)*%
X129950000Y-67534202D02*
X129950000Y-69130000D01*
X130335001Y-67149201D02*
X129950000Y-67534202D01*
%TO.N,Net-(J16-Pin_4)*%
X106780000Y-51830750D02*
X106780000Y-50720000D01*
X106780000Y-50720000D02*
X108680000Y-48820000D01*
%TO.N,Net-(J17-Pin_4)*%
X117890000Y-51830750D02*
X119820000Y-49900750D01*
%TO.N,Net-(J16-Pin_3)*%
X107425000Y-55575000D02*
X108680000Y-54320000D01*
%TO.N,Net-(J17-Pin_4)*%
X119820000Y-49900750D02*
X119820000Y-48820000D01*
%TO.N,Net-(J15-Pin_3)*%
X132052500Y-55532500D02*
X130860000Y-54340000D01*
%TO.N,GND*%
X153190000Y-65330000D02*
X153200000Y-65340000D01*
X153190000Y-64140000D02*
X153190000Y-65330000D01*
X124920000Y-66140000D02*
X123700000Y-66140000D01*
X147130000Y-67270000D02*
X147110000Y-67290000D01*
X147130000Y-65492500D02*
X147130000Y-67270000D01*
%TO.N,Net-(D1-A)*%
X141060000Y-63600000D02*
X143370000Y-63600000D01*
X143370000Y-63600000D02*
X143430000Y-63660000D01*
X144590000Y-62500000D02*
X147150000Y-62500000D01*
X147150000Y-62500000D02*
X147200000Y-62500000D01*
X147130000Y-62520000D02*
X147150000Y-62500000D01*
X147130000Y-63667500D02*
X147130000Y-62520000D01*
%TO.N,VCCIO*%
X126820000Y-66140000D02*
X127380000Y-66140000D01*
X127380000Y-66140000D02*
X127980000Y-65540000D01*
X129360799Y-65525001D02*
X127994999Y-65525001D01*
D53*
%TO.N,GND*%
X138530000Y-65080000D02*
X138560000Y-65110000D01*
X138530000Y-63580000D02*
X138530000Y-65080000D01*
D52*
%TO.N,Net-(D1-A)*%
X143430000Y-63660000D02*
X144590000Y-62500000D01*
X148390000Y-62360000D02*
X148390000Y-61890000D01*
X148250000Y-62500000D02*
X148390000Y-62360000D01*
X147200000Y-62500000D02*
X148250000Y-62500000D01*
%TO.N,Net-(J14-Pin_3)*%
X130765000Y-67877202D02*
X130984999Y-67657203D01*
X131200000Y-70450000D02*
X130765000Y-70015000D01*
X130765000Y-70015000D02*
X130765000Y-67877202D01*
X130984999Y-67657203D02*
X130984999Y-67149201D01*
%TO.N,Net-(J15-Pin_3)*%
X132284999Y-67149201D02*
X132284999Y-68084999D01*
X132284999Y-68084999D02*
X132580000Y-68380000D01*
%TO.N,Net-(J15-Pin_4)*%
X131635001Y-67149201D02*
X131635001Y-68454999D01*
X131635001Y-68454999D02*
X131490000Y-68600000D01*
%TO.N,Net-(J16-Pin_3)*%
X134584999Y-65525001D02*
X134690000Y-65420000D01*
X133259201Y-65525001D02*
X134584999Y-65525001D01*
X109320000Y-51830750D02*
X109320000Y-54260000D01*
%TO.N,Net-(J16-Pin_4)*%
X133259201Y-66174999D02*
X134373297Y-66174999D01*
X134373297Y-66174999D02*
X134614981Y-66416683D01*
%TO.N,Net-(J17-Pin_3)*%
X120430000Y-53130000D02*
X120430000Y-51830750D01*
X131635001Y-62094999D02*
X131640000Y-62090000D01*
X119300000Y-54260000D02*
X120430000Y-53130000D01*
X131635001Y-63250799D02*
X131635001Y-62094999D01*
%TO.N,Net-(J17-Pin_4)*%
X132284999Y-62605001D02*
X132700000Y-62190000D01*
X132284999Y-63250799D02*
X132284999Y-62605001D01*
D53*
%TO.N,GND*%
X102720000Y-126130000D02*
X104240000Y-126130000D01*
X104240000Y-126130000D02*
X104280000Y-126170000D01*
%TO.N,VCCIO*%
X97750000Y-123810000D02*
X96200000Y-123810000D01*
X96200000Y-123810000D02*
X96100000Y-123710000D01*
D52*
%TO.N,GND*%
X97750000Y-125710000D02*
X96170000Y-125710000D01*
X96170000Y-125710000D02*
X96150000Y-125690000D01*
D53*
%TO.N,VCCIO*%
X97315200Y-123724800D02*
X99663050Y-123724800D01*
D52*
%TO.N,Net-(J8-CC2)*%
X112850000Y-127155000D02*
X112850000Y-128677000D01*
X118168500Y-129854000D02*
X118360000Y-129662500D01*
X112850000Y-128677000D02*
X114027000Y-129854000D01*
X114027000Y-129854000D02*
X118168500Y-129854000D01*
%TO.N,GND*%
X115420000Y-127730000D02*
X118252500Y-127730000D01*
X118252500Y-127730000D02*
X118360000Y-127837500D01*
X106780000Y-127730000D02*
X103657500Y-127730000D01*
X103657500Y-127730000D02*
X103570000Y-127817500D01*
%TO.N,Net-(J8-CC1)*%
X109850000Y-127155000D02*
X109850000Y-128413000D01*
X108801000Y-129462000D02*
X103750500Y-129462000D01*
X103750500Y-129462000D02*
X103570000Y-129642500D01*
X109850000Y-128413000D02*
X108801000Y-129462000D01*
%TO.N,Net-(U1-VPHY)*%
X111398000Y-118784000D02*
X111960000Y-118222000D01*
X111960000Y-118222000D02*
X111960000Y-114780000D01*
%TO.N,Net-(U1-VPLL)*%
X119240000Y-114670000D02*
X119240000Y-117890000D01*
X119240000Y-117890000D02*
X120110000Y-118760000D01*
%TO.N,GND*%
X122370000Y-114580000D02*
X121230000Y-114580000D01*
X121230000Y-114580000D02*
X121140000Y-114670000D01*
%TO.N,Net-(U1-VPLL)*%
X119240000Y-114670000D02*
X119240000Y-112785000D01*
X119240000Y-112785000D02*
X119295000Y-112730000D01*
%TO.N,Net-(U1-VPHY)*%
X111960000Y-114780000D02*
X111960000Y-113015000D01*
X111960000Y-113015000D02*
X111755000Y-112810000D01*
%TO.N,GND*%
X108720000Y-114790000D02*
X110050000Y-114790000D01*
X110050000Y-114790000D02*
X110060000Y-114780000D01*
%TO.N,Net-(U1-OSCI)*%
X106630000Y-106910000D02*
X106630000Y-105378000D01*
X106630000Y-105378000D02*
X106970000Y-105038000D01*
X106970000Y-105038000D02*
X109994000Y-105038000D01*
X112885000Y-102147000D02*
X112885000Y-101615000D01*
X109994000Y-105038000D02*
X112885000Y-102147000D01*
%TO.N,GND*%
X104080000Y-109610000D02*
X104080000Y-110665000D01*
X104080000Y-110665000D02*
X104328000Y-110913000D01*
%TO.N,Net-(U1-OSCI)*%
X106630000Y-106910000D02*
X104880000Y-106910000D01*
X104880000Y-106910000D02*
X104080000Y-107710000D01*
%TO.N,Net-(U1-OSCO)*%
X111410000Y-109750000D02*
X111410000Y-110655000D01*
X111410000Y-110655000D02*
X111155000Y-110910000D01*
%TO.N,GND*%
X111410000Y-107850000D02*
X111410000Y-106310000D01*
X111410000Y-106310000D02*
X110750000Y-106310000D01*
X110150000Y-106910000D02*
X109030000Y-106910000D01*
X110750000Y-106310000D02*
X110150000Y-106910000D01*
%TO.N,VCCIO*%
X123400000Y-99420000D02*
X120580000Y-99420000D01*
%TO.N,Net-(U1-OSCO)*%
X111155000Y-110910000D02*
X109030000Y-110910000D01*
D53*
%TO.N,/5V*%
X108700000Y-124881000D02*
X107543800Y-123724800D01*
X113500000Y-123982000D02*
X113454000Y-123936000D01*
X104932000Y-123724800D02*
X102418950Y-123724800D01*
D52*
X104991000Y-122688000D02*
X104991000Y-123665800D01*
X104991000Y-123665800D02*
X104932000Y-123724800D01*
X116220000Y-124710000D02*
X114228000Y-124710000D01*
X104148200Y-121845200D02*
X104991000Y-122688000D01*
D53*
X108700000Y-127155000D02*
X108700000Y-124881000D01*
X107543800Y-123724800D02*
X104932000Y-123724800D01*
D52*
X114228000Y-124710000D02*
X113454000Y-123936000D01*
X102418950Y-121845200D02*
X104148200Y-121845200D01*
D53*
X113500000Y-127155000D02*
X113500000Y-123982000D01*
D52*
%TO.N,VCORE*%
X117885000Y-91940598D02*
X118264799Y-91560799D01*
X110547000Y-93124000D02*
X110845000Y-93422000D01*
X110847000Y-93420000D02*
X111690000Y-93420000D01*
X110547000Y-92259000D02*
X110547000Y-93124000D01*
X117885000Y-92725000D02*
X117885000Y-91940598D01*
X110845000Y-93422000D02*
X110847000Y-93420000D01*
%TO.N,VCCIO*%
X92847200Y-99280000D02*
X91351000Y-99280000D01*
X91351000Y-99280000D02*
X91007000Y-98936000D01*
X91405000Y-100580000D02*
X91064000Y-100921000D01*
X120955000Y-112720000D02*
X120945000Y-112730000D01*
X122090000Y-112720000D02*
X120955000Y-112720000D01*
X108760000Y-112810000D02*
X108750000Y-112800000D01*
X92847200Y-100580000D02*
X91405000Y-100580000D01*
X110105000Y-112810000D02*
X108760000Y-112810000D01*
%TO.N,GND*%
X106630000Y-110910000D02*
X104331000Y-110910000D01*
X114160500Y-103302000D02*
X114385000Y-103077500D01*
X91880002Y-98630002D02*
X92847200Y-98630002D01*
X91680000Y-98070000D02*
X91680000Y-98430000D01*
X89760002Y-99930002D02*
X92847200Y-99930002D01*
X114300000Y-127155000D02*
X114845000Y-127155000D01*
X119304000Y-91536000D02*
X118885000Y-91955000D01*
X116885000Y-101615000D02*
X116885000Y-102574000D01*
D53*
X102418950Y-122785000D02*
X103851000Y-122785000D01*
D52*
X89750000Y-99920000D02*
X89760002Y-99930002D01*
X104331000Y-110910000D02*
X104328000Y-110913000D01*
X117385000Y-102365000D02*
X117176000Y-102574000D01*
X112885000Y-92725000D02*
X112885000Y-91648000D01*
X114845000Y-127155000D02*
X115420000Y-127730000D01*
X117385000Y-101615000D02*
X117385000Y-102365000D01*
X107900000Y-127155000D02*
X107355000Y-127155000D01*
X126340000Y-118760000D02*
X126360000Y-118740000D01*
X116885000Y-102914500D02*
X116885000Y-102574000D01*
X91680000Y-98430000D02*
X91880002Y-98630002D01*
X112885000Y-91648000D02*
X113040000Y-91493000D01*
X114385000Y-103077500D02*
X114385000Y-101615000D01*
X117160500Y-103190000D02*
X116885000Y-102914500D01*
X119700000Y-91536000D02*
X119304000Y-91536000D01*
X107355000Y-127155000D02*
X106780000Y-127730000D01*
X117176000Y-102574000D02*
X116885000Y-102574000D01*
X105494000Y-118784000D02*
X105420000Y-118710000D01*
X107798000Y-118784000D02*
X105494000Y-118784000D01*
D53*
X103851000Y-122785000D02*
X103872000Y-122806000D01*
D52*
X118885000Y-91955000D02*
X118885000Y-92725000D01*
X91125000Y-97515000D02*
X91680000Y-98070000D01*
X123710000Y-118760000D02*
X126340000Y-118760000D01*
%TO.N,Net-(U1-VPHY)*%
X111976000Y-118206000D02*
X111398000Y-118784000D01*
%TO.N,Net-(U1-VPLL)*%
X116385000Y-101615000D02*
X116385000Y-109665000D01*
X119205000Y-112485000D02*
X119205000Y-112870000D01*
X116385000Y-109665000D02*
X119205000Y-112485000D01*
%TO.N,Net-(U1-DP)*%
X111850000Y-128240000D02*
X111570000Y-128520000D01*
X111110000Y-128520000D02*
X110850000Y-128260000D01*
X110850000Y-128260000D02*
X110850000Y-127155000D01*
X111850000Y-123620000D02*
X115885000Y-119585000D01*
X111850000Y-127155000D02*
X111850000Y-123620000D01*
X111850000Y-127155000D02*
X111850000Y-128240000D01*
X115885000Y-119585000D02*
X115885000Y-101615000D01*
X111570000Y-128520000D02*
X111110000Y-128520000D01*
%TO.N,Net-(U1-DM)*%
X111350000Y-123400000D02*
X115410000Y-119340000D01*
X111350000Y-125560000D02*
X111350000Y-123400000D01*
X111350000Y-127155000D02*
X111350000Y-125560000D01*
X110810000Y-125560000D02*
X111350000Y-125560000D01*
X110350000Y-127155000D02*
X110350000Y-126020000D01*
X110350000Y-126020000D02*
X110810000Y-125560000D01*
X115410000Y-119340000D02*
X115410000Y-101640000D01*
X115410000Y-101640000D02*
X115385000Y-101615000D01*
%TO.N,Net-(U1-EEDATA)*%
X111690000Y-99420000D02*
X103360000Y-99420000D01*
X100140000Y-99420000D02*
X100000000Y-99280000D01*
X100000000Y-99280000D02*
X98740000Y-99280000D01*
%TO.N,Net-(U1-EECS)*%
X111690000Y-100420000D02*
X102820000Y-100420000D01*
X102780000Y-101890000D02*
X102780000Y-100460000D01*
X102780000Y-100460000D02*
X102820000Y-100420000D01*
X95180000Y-98127396D02*
X95180000Y-96106000D01*
X97632604Y-100580000D02*
X95180000Y-98127396D01*
X98740000Y-100580000D02*
X97632604Y-100580000D01*
X100280000Y-100420000D02*
X100110000Y-100590000D01*
X102820000Y-100420000D02*
X100280000Y-100420000D01*
X100110000Y-100590000D02*
X100100000Y-100580000D01*
X100100000Y-100580000D02*
X98740000Y-100580000D01*
%TO.N,Net-(U1-EECLK)*%
X111690000Y-99920000D02*
X99910000Y-99920000D01*
X99899998Y-99930002D02*
X98740000Y-99930002D01*
X99910000Y-99920000D02*
X99899998Y-99930002D01*
%TD*%
%TA.AperFunction,Conductor*%
%TO.N,GND*%
G36*
X61264718Y-55584230D02*
G01*
X61297471Y-55645946D01*
X61300000Y-55670862D01*
X61300000Y-129069208D01*
X61280315Y-129136247D01*
X61227511Y-129182002D01*
X61158353Y-129191946D01*
X61094797Y-129162921D01*
X61091263Y-129159171D01*
X61083792Y-129158142D01*
X61057320Y-129141990D01*
X61027948Y-129118565D01*
X61027947Y-129118564D01*
X61027945Y-129118563D01*
X61014128Y-129111907D01*
X60992455Y-129098568D01*
X60981471Y-129090139D01*
X60979649Y-129090334D01*
X60947969Y-129080040D01*
X60926343Y-129069623D01*
X60926340Y-129069622D01*
X60926338Y-129069621D01*
X60906804Y-129065159D01*
X60894898Y-129062440D01*
X60875046Y-129056109D01*
X60857854Y-129048986D01*
X60824052Y-129046259D01*
X60816394Y-129044510D01*
X60816395Y-129044510D01*
X60816390Y-129044509D01*
X60816387Y-129044508D01*
X60816382Y-129044508D01*
X60760271Y-129044499D01*
X60752170Y-129043967D01*
X60713504Y-129038869D01*
X60677078Y-129044500D01*
X58763477Y-129044500D01*
X58756546Y-129044111D01*
X58743237Y-129042614D01*
X58733656Y-129041536D01*
X58654158Y-129031083D01*
X58629382Y-129025187D01*
X58595274Y-129013257D01*
X58592022Y-129012016D01*
X58537798Y-128989561D01*
X58519274Y-128979993D01*
X58484465Y-128958124D01*
X58479705Y-128954813D01*
X58431773Y-128918038D01*
X58425674Y-128912690D01*
X58392307Y-128879323D01*
X58386964Y-128873230D01*
X58375148Y-128857829D01*
X58350185Y-128825293D01*
X58346874Y-128820533D01*
X58325005Y-128785724D01*
X58315437Y-128767200D01*
X58292982Y-128712976D01*
X58291755Y-128709762D01*
X58279809Y-128675610D01*
X58273916Y-128650845D01*
X58263468Y-128571387D01*
X58260889Y-128548455D01*
X58260500Y-128541520D01*
X58260500Y-56198486D01*
X58260890Y-56191540D01*
X58261285Y-56188029D01*
X58263472Y-56168619D01*
X58273933Y-56089163D01*
X58279830Y-56064399D01*
X58291775Y-56030262D01*
X58293001Y-56027047D01*
X58315474Y-55972794D01*
X58325021Y-55954313D01*
X58346922Y-55919459D01*
X58350197Y-55914752D01*
X58387003Y-55866786D01*
X58392323Y-55860718D01*
X58425718Y-55827323D01*
X58431786Y-55822003D01*
X58479752Y-55785197D01*
X58484459Y-55781922D01*
X58519313Y-55760021D01*
X58537794Y-55750474D01*
X58592047Y-55728001D01*
X58595253Y-55726778D01*
X58629402Y-55714829D01*
X58654163Y-55708933D01*
X58701565Y-55702693D01*
X58733646Y-55698470D01*
X58742632Y-55697456D01*
X58756545Y-55695889D01*
X58763481Y-55695500D01*
X60677062Y-55695500D01*
X60701558Y-55702693D01*
X60752162Y-55696031D01*
X60760263Y-55695500D01*
X60816391Y-55695500D01*
X60816393Y-55695500D01*
X60824060Y-55693750D01*
X60847782Y-55695202D01*
X60875048Y-55683909D01*
X60894904Y-55677580D01*
X60926351Y-55670403D01*
X60947986Y-55659983D01*
X60973890Y-55655717D01*
X60992465Y-55641465D01*
X61014152Y-55628120D01*
X61027967Y-55621467D01*
X61057348Y-55598035D01*
X61095074Y-55582632D01*
X61134051Y-55554173D01*
X61203797Y-55550018D01*
X61264718Y-55584230D01*
G37*
%TD.AperFunction*%
%TA.AperFunction,Conductor*%
G36*
X61243039Y-34265185D02*
G01*
X61288794Y-34317989D01*
X61300000Y-34369500D01*
X61300000Y-50519208D01*
X61280315Y-50586247D01*
X61227511Y-50632002D01*
X61158353Y-50641946D01*
X61094797Y-50612921D01*
X61091263Y-50609171D01*
X61083792Y-50608142D01*
X61057320Y-50591990D01*
X61027948Y-50568565D01*
X61027947Y-50568564D01*
X61027945Y-50568563D01*
X61014128Y-50561907D01*
X60992455Y-50548568D01*
X60981471Y-50540139D01*
X60979649Y-50540334D01*
X60947969Y-50530040D01*
X60926343Y-50519623D01*
X60926340Y-50519622D01*
X60926338Y-50519621D01*
X60906804Y-50515159D01*
X60894898Y-50512440D01*
X60875046Y-50506109D01*
X60857854Y-50498986D01*
X60824052Y-50496259D01*
X60816394Y-50494510D01*
X60816395Y-50494510D01*
X60816390Y-50494509D01*
X60816387Y-50494508D01*
X60816382Y-50494508D01*
X60760271Y-50494499D01*
X60752170Y-50493967D01*
X60713504Y-50488869D01*
X60677078Y-50494500D01*
X58763477Y-50494500D01*
X58756546Y-50494111D01*
X58743237Y-50492614D01*
X58733656Y-50491536D01*
X58654158Y-50481083D01*
X58629382Y-50475187D01*
X58595274Y-50463257D01*
X58592022Y-50462016D01*
X58537798Y-50439561D01*
X58519274Y-50429993D01*
X58484465Y-50408124D01*
X58479705Y-50404813D01*
X58431773Y-50368038D01*
X58425674Y-50362690D01*
X58392307Y-50329323D01*
X58386964Y-50323230D01*
X58375148Y-50307829D01*
X58350185Y-50275293D01*
X58346874Y-50270533D01*
X58325005Y-50235724D01*
X58315437Y-50217200D01*
X58292982Y-50162976D01*
X58291755Y-50159762D01*
X58279809Y-50125610D01*
X58273916Y-50100845D01*
X58263466Y-50021367D01*
X58260886Y-49998437D01*
X58260500Y-49991539D01*
X58260499Y-34748480D01*
X58260889Y-34741546D01*
X58263470Y-34718645D01*
X58266944Y-34692248D01*
X58273933Y-34639163D01*
X58279830Y-34614399D01*
X58291775Y-34580262D01*
X58293001Y-34577047D01*
X58315474Y-34522794D01*
X58325021Y-34504313D01*
X58346922Y-34469459D01*
X58350197Y-34464752D01*
X58387003Y-34416786D01*
X58392323Y-34410718D01*
X58425718Y-34377323D01*
X58431786Y-34372003D01*
X58479752Y-34335197D01*
X58484459Y-34331922D01*
X58519313Y-34310021D01*
X58537794Y-34300474D01*
X58592047Y-34278001D01*
X58595253Y-34276778D01*
X58629402Y-34264829D01*
X58654163Y-34258933D01*
X58701020Y-34252764D01*
X58733646Y-34248470D01*
X58742632Y-34247456D01*
X58756545Y-34245889D01*
X58763481Y-34245500D01*
X61176000Y-34245500D01*
X61243039Y-34265185D01*
G37*
%TD.AperFunction*%
%TD*%
%TA.AperFunction,Conductor*%
%TO.N,GND*%
G36*
X165231032Y-55247643D02*
G01*
X165264378Y-55293902D01*
X165271079Y-55310085D01*
X165277407Y-55329947D01*
X165284573Y-55361363D01*
X165294996Y-55383011D01*
X165299259Y-55408920D01*
X165313511Y-55427495D01*
X165326855Y-55449183D01*
X165333503Y-55462989D01*
X165356944Y-55492385D01*
X165367785Y-55518943D01*
X165382393Y-55530151D01*
X165398848Y-55546300D01*
X165398899Y-55546250D01*
X165408750Y-55556101D01*
X165408699Y-55556151D01*
X165424848Y-55572606D01*
X165431490Y-55581263D01*
X165436141Y-55581904D01*
X165462613Y-55598054D01*
X165492011Y-55621497D01*
X165505816Y-55628143D01*
X165527502Y-55641487D01*
X165538478Y-55649908D01*
X165540301Y-55649714D01*
X165571986Y-55660002D01*
X165593637Y-55670427D01*
X165614497Y-55675184D01*
X165625050Y-55677592D01*
X165644918Y-55683921D01*
X165662108Y-55691039D01*
X165695922Y-55693756D01*
X165703604Y-55695509D01*
X165759748Y-55695500D01*
X165767835Y-55696029D01*
X165806602Y-55701126D01*
X165842969Y-55695500D01*
X167756511Y-55695500D01*
X167763460Y-55695890D01*
X167786358Y-55698474D01*
X167865841Y-55708952D01*
X167890582Y-55714847D01*
X167924739Y-55726803D01*
X167927919Y-55728017D01*
X167982169Y-55750494D01*
X168000667Y-55760051D01*
X168035493Y-55781937D01*
X168040240Y-55785239D01*
X168088175Y-55822024D01*
X168094268Y-55827367D01*
X168127630Y-55860729D01*
X168132974Y-55866823D01*
X168169759Y-55914758D01*
X168173070Y-55919518D01*
X168194942Y-55954323D01*
X168204506Y-55972834D01*
X168226963Y-56027033D01*
X168228203Y-56030282D01*
X168240149Y-56064409D01*
X168246048Y-56089170D01*
X168256526Y-56168651D01*
X168259109Y-56191535D01*
X168259500Y-56198494D01*
X168259500Y-128541514D01*
X168259110Y-128548462D01*
X168256530Y-128571351D01*
X168246066Y-128650829D01*
X168240169Y-128675597D01*
X168228223Y-128709735D01*
X168226983Y-128712984D01*
X168204536Y-128767180D01*
X168194967Y-128785702D01*
X168173097Y-128820508D01*
X168169786Y-128825267D01*
X168133005Y-128873200D01*
X168127653Y-128879304D01*
X168094304Y-128912653D01*
X168088200Y-128918005D01*
X168040267Y-128954786D01*
X168035508Y-128958097D01*
X168000702Y-128979967D01*
X167982180Y-128989536D01*
X167927984Y-129011983D01*
X167924735Y-129013223D01*
X167890597Y-129025169D01*
X167865829Y-129031066D01*
X167786351Y-129041530D01*
X167765688Y-129043859D01*
X167763460Y-129044110D01*
X167756514Y-129044500D01*
X165842936Y-129044500D01*
X165818437Y-129037306D01*
X165767830Y-129043969D01*
X165759728Y-129044500D01*
X165703604Y-129044500D01*
X165695930Y-129046252D01*
X165672208Y-129044797D01*
X165644941Y-129056092D01*
X165625085Y-129062420D01*
X165593650Y-129069595D01*
X165593647Y-129069596D01*
X165572006Y-129080018D01*
X165546104Y-129084282D01*
X165527526Y-129098538D01*
X165505844Y-129111881D01*
X165492034Y-129118531D01*
X165492027Y-129118536D01*
X165462644Y-129141968D01*
X165436094Y-129152806D01*
X165424878Y-129167424D01*
X165408728Y-129183880D01*
X165408778Y-129183930D01*
X165398930Y-129193778D01*
X165398880Y-129193728D01*
X165382424Y-129209878D01*
X165373757Y-129216527D01*
X165373118Y-129221173D01*
X165356968Y-129247644D01*
X165333536Y-129277027D01*
X165333531Y-129277034D01*
X165326881Y-129290844D01*
X165313538Y-129312526D01*
X165305113Y-129323504D01*
X165305308Y-129325325D01*
X165295018Y-129357006D01*
X165284596Y-129378647D01*
X165284595Y-129378650D01*
X165277420Y-129410085D01*
X165271091Y-129429942D01*
X165250293Y-129480154D01*
X165206453Y-129534558D01*
X165140159Y-129556623D01*
X165072459Y-129539344D01*
X165024849Y-129488207D01*
X165011733Y-129432684D01*
X165025811Y-55341315D01*
X165045508Y-55274282D01*
X165098321Y-55228537D01*
X165167481Y-55218606D01*
X165231032Y-55247643D01*
G37*
%TD.AperFunction*%
%TA.AperFunction,Conductor*%
G36*
X167763460Y-34245890D02*
G01*
X167786358Y-34248474D01*
X167865841Y-34258952D01*
X167890582Y-34264847D01*
X167924739Y-34276803D01*
X167927919Y-34278017D01*
X167982169Y-34300494D01*
X168000667Y-34310051D01*
X168035493Y-34331937D01*
X168040240Y-34335239D01*
X168088175Y-34372024D01*
X168094268Y-34377367D01*
X168127630Y-34410729D01*
X168132974Y-34416823D01*
X168169759Y-34464758D01*
X168173070Y-34469518D01*
X168194942Y-34504323D01*
X168204506Y-34522834D01*
X168226963Y-34577033D01*
X168228203Y-34580282D01*
X168240149Y-34614409D01*
X168246048Y-34639170D01*
X168256526Y-34718651D01*
X168259109Y-34741535D01*
X168259500Y-34748494D01*
X168259500Y-49991514D01*
X168259110Y-49998462D01*
X168256530Y-50021351D01*
X168246066Y-50100829D01*
X168240169Y-50125597D01*
X168228223Y-50159735D01*
X168226983Y-50162984D01*
X168204536Y-50217180D01*
X168194967Y-50235702D01*
X168173097Y-50270508D01*
X168169786Y-50275267D01*
X168133005Y-50323200D01*
X168127653Y-50329304D01*
X168094304Y-50362653D01*
X168088200Y-50368005D01*
X168040267Y-50404786D01*
X168035508Y-50408097D01*
X168000702Y-50429967D01*
X167982180Y-50439536D01*
X167927984Y-50461983D01*
X167924735Y-50463223D01*
X167890597Y-50475169D01*
X167865829Y-50481066D01*
X167786351Y-50491530D01*
X167765688Y-50493859D01*
X167763460Y-50494110D01*
X167756514Y-50494500D01*
X165842936Y-50494500D01*
X165818437Y-50487306D01*
X165767830Y-50493969D01*
X165759728Y-50494500D01*
X165703604Y-50494500D01*
X165695930Y-50496252D01*
X165672208Y-50494797D01*
X165644941Y-50506092D01*
X165625085Y-50512420D01*
X165593650Y-50519595D01*
X165593647Y-50519596D01*
X165572006Y-50530018D01*
X165546104Y-50534282D01*
X165527526Y-50548538D01*
X165505844Y-50561881D01*
X165492034Y-50568531D01*
X165492027Y-50568536D01*
X165462644Y-50591968D01*
X165436094Y-50602806D01*
X165424878Y-50617424D01*
X165408728Y-50633880D01*
X165408778Y-50633930D01*
X165398930Y-50643778D01*
X165398880Y-50643728D01*
X165382424Y-50659878D01*
X165373757Y-50666527D01*
X165373118Y-50671173D01*
X165356968Y-50697644D01*
X165333536Y-50727027D01*
X165333531Y-50727034D01*
X165326881Y-50740844D01*
X165313538Y-50762526D01*
X165305113Y-50773504D01*
X165305308Y-50775325D01*
X165295018Y-50807006D01*
X165284596Y-50828647D01*
X165284595Y-50828650D01*
X165277420Y-50860085D01*
X165271093Y-50879938D01*
X165265228Y-50894099D01*
X165221389Y-50948504D01*
X165155096Y-50970572D01*
X165087396Y-50953295D01*
X165039783Y-50902160D01*
X165026665Y-50846629D01*
X165029796Y-34369474D01*
X165049493Y-34302441D01*
X165102306Y-34256696D01*
X165153796Y-34245500D01*
X167756511Y-34245500D01*
X167763460Y-34245890D01*
G37*
%TD.AperFunction*%
%TD*%
%TA.AperFunction,Conductor*%
%TO.N,Net-(Q1-D)*%
G36*
X164103099Y-48649803D02*
G01*
X164148963Y-48702512D01*
X164160276Y-48753981D01*
X164189723Y-61966066D01*
X164170188Y-62033149D01*
X164117486Y-62079021D01*
X164066065Y-62090342D01*
X149824342Y-62129656D01*
X149757249Y-62110156D01*
X149711348Y-62057479D01*
X149700000Y-62005656D01*
X149700000Y-54740001D01*
X151067177Y-54740001D01*
X151086443Y-55009382D01*
X151143848Y-55273263D01*
X151143850Y-55273270D01*
X151202448Y-55430377D01*
X151238228Y-55526308D01*
X151238230Y-55526312D01*
X151367652Y-55763331D01*
X151367657Y-55763339D01*
X151529493Y-55979527D01*
X151529509Y-55979545D01*
X151720454Y-56170490D01*
X151720472Y-56170506D01*
X151936660Y-56332342D01*
X151936668Y-56332347D01*
X152173687Y-56461769D01*
X152173691Y-56461771D01*
X152173693Y-56461772D01*
X152426730Y-56556150D01*
X152558676Y-56584853D01*
X152690617Y-56613556D01*
X152690619Y-56613556D01*
X152690623Y-56613557D01*
X152930007Y-56630677D01*
X152959999Y-56632823D01*
X152960000Y-56632823D01*
X152960001Y-56632823D01*
X152986987Y-56630892D01*
X153229377Y-56613557D01*
X153493270Y-56556150D01*
X153746307Y-56461772D01*
X153983337Y-56332344D01*
X154199535Y-56170500D01*
X154390500Y-55979535D01*
X154552344Y-55763337D01*
X154681772Y-55526307D01*
X154776150Y-55273270D01*
X154833557Y-55009377D01*
X154852823Y-54740001D01*
X155267177Y-54740001D01*
X155286443Y-55009382D01*
X155343848Y-55273263D01*
X155343850Y-55273270D01*
X155402448Y-55430377D01*
X155438228Y-55526308D01*
X155438230Y-55526312D01*
X155567652Y-55763331D01*
X155567657Y-55763339D01*
X155729493Y-55979527D01*
X155729509Y-55979545D01*
X155920454Y-56170490D01*
X155920472Y-56170506D01*
X156136660Y-56332342D01*
X156136668Y-56332347D01*
X156373687Y-56461769D01*
X156373691Y-56461771D01*
X156373693Y-56461772D01*
X156626730Y-56556150D01*
X156758676Y-56584853D01*
X156890617Y-56613556D01*
X156890619Y-56613556D01*
X156890623Y-56613557D01*
X157130007Y-56630677D01*
X157159999Y-56632823D01*
X157160000Y-56632823D01*
X157160001Y-56632823D01*
X157186987Y-56630892D01*
X157429377Y-56613557D01*
X157693270Y-56556150D01*
X157946307Y-56461772D01*
X158183337Y-56332344D01*
X158399535Y-56170500D01*
X158590500Y-55979535D01*
X158752344Y-55763337D01*
X158881772Y-55526307D01*
X158976150Y-55273270D01*
X159033557Y-55009377D01*
X159052823Y-54740001D01*
X159467177Y-54740001D01*
X159486443Y-55009382D01*
X159543848Y-55273263D01*
X159543850Y-55273270D01*
X159602448Y-55430377D01*
X159638228Y-55526308D01*
X159638230Y-55526312D01*
X159767652Y-55763331D01*
X159767657Y-55763339D01*
X159929493Y-55979527D01*
X159929509Y-55979545D01*
X160120454Y-56170490D01*
X160120472Y-56170506D01*
X160336660Y-56332342D01*
X160336668Y-56332347D01*
X160573687Y-56461769D01*
X160573691Y-56461771D01*
X160573693Y-56461772D01*
X160826730Y-56556150D01*
X160958676Y-56584853D01*
X161090617Y-56613556D01*
X161090619Y-56613556D01*
X161090623Y-56613557D01*
X161330007Y-56630677D01*
X161359999Y-56632823D01*
X161360000Y-56632823D01*
X161360001Y-56632823D01*
X161386987Y-56630892D01*
X161629377Y-56613557D01*
X161893270Y-56556150D01*
X162146307Y-56461772D01*
X162383337Y-56332344D01*
X162599535Y-56170500D01*
X162790500Y-55979535D01*
X162952344Y-55763337D01*
X163081772Y-55526307D01*
X163176150Y-55273270D01*
X163233557Y-55009377D01*
X163252823Y-54740000D01*
X163233557Y-54470623D01*
X163176150Y-54206730D01*
X163081772Y-53953693D01*
X162952344Y-53716663D01*
X162952342Y-53716660D01*
X162790506Y-53500472D01*
X162790490Y-53500454D01*
X162599545Y-53309509D01*
X162599527Y-53309493D01*
X162383339Y-53147657D01*
X162383331Y-53147652D01*
X162146312Y-53018230D01*
X162146308Y-53018228D01*
X162050377Y-52982448D01*
X161893270Y-52923850D01*
X161893266Y-52923849D01*
X161893263Y-52923848D01*
X161629382Y-52866443D01*
X161360001Y-52847177D01*
X161359999Y-52847177D01*
X161090617Y-52866443D01*
X160826736Y-52923848D01*
X160826731Y-52923849D01*
X160826730Y-52923850D01*
X160765551Y-52946668D01*
X160573691Y-53018228D01*
X160573687Y-53018230D01*
X160336668Y-53147652D01*
X160336660Y-53147657D01*
X160120472Y-53309493D01*
X160120454Y-53309509D01*
X159929509Y-53500454D01*
X159929493Y-53500472D01*
X159767657Y-53716660D01*
X159767652Y-53716668D01*
X159638230Y-53953687D01*
X159638228Y-53953691D01*
X159543848Y-54206736D01*
X159486443Y-54470617D01*
X159467177Y-54739998D01*
X159467177Y-54740001D01*
X159052823Y-54740001D01*
X159052823Y-54740000D01*
X159033557Y-54470623D01*
X158976150Y-54206730D01*
X158881772Y-53953693D01*
X158752344Y-53716663D01*
X158752342Y-53716660D01*
X158590506Y-53500472D01*
X158590490Y-53500454D01*
X158399545Y-53309509D01*
X158399527Y-53309493D01*
X158183339Y-53147657D01*
X158183331Y-53147652D01*
X157946312Y-53018230D01*
X157946308Y-53018228D01*
X157850377Y-52982448D01*
X157693270Y-52923850D01*
X157693266Y-52923849D01*
X157693263Y-52923848D01*
X157429382Y-52866443D01*
X157160001Y-52847177D01*
X157159999Y-52847177D01*
X156890617Y-52866443D01*
X156626736Y-52923848D01*
X156626731Y-52923849D01*
X156626730Y-52923850D01*
X156565551Y-52946668D01*
X156373691Y-53018228D01*
X156373687Y-53018230D01*
X156136668Y-53147652D01*
X156136660Y-53147657D01*
X155920472Y-53309493D01*
X155920454Y-53309509D01*
X155729509Y-53500454D01*
X155729493Y-53500472D01*
X155567657Y-53716660D01*
X155567652Y-53716668D01*
X155438230Y-53953687D01*
X155438228Y-53953691D01*
X155343848Y-54206736D01*
X155286443Y-54470617D01*
X155267177Y-54739998D01*
X155267177Y-54740001D01*
X154852823Y-54740001D01*
X154852823Y-54740000D01*
X154833557Y-54470623D01*
X154776150Y-54206730D01*
X154681772Y-53953693D01*
X154552344Y-53716663D01*
X154552342Y-53716660D01*
X154390506Y-53500472D01*
X154390490Y-53500454D01*
X154199545Y-53309509D01*
X154199527Y-53309493D01*
X153983339Y-53147657D01*
X153983331Y-53147652D01*
X153746312Y-53018230D01*
X153746308Y-53018228D01*
X153650377Y-52982448D01*
X153493270Y-52923850D01*
X153493266Y-52923849D01*
X153493263Y-52923848D01*
X153229382Y-52866443D01*
X152960001Y-52847177D01*
X152959999Y-52847177D01*
X152690617Y-52866443D01*
X152426736Y-52923848D01*
X152426731Y-52923849D01*
X152426730Y-52923850D01*
X152365551Y-52946668D01*
X152173691Y-53018228D01*
X152173687Y-53018230D01*
X151936668Y-53147652D01*
X151936660Y-53147657D01*
X151720472Y-53309493D01*
X151720454Y-53309509D01*
X151529509Y-53500454D01*
X151529493Y-53500472D01*
X151367657Y-53716660D01*
X151367652Y-53716668D01*
X151238230Y-53953687D01*
X151238228Y-53953691D01*
X151143848Y-54206736D01*
X151086443Y-54470617D01*
X151067177Y-54739998D01*
X151067177Y-54740001D01*
X149700000Y-54740001D01*
X149700000Y-48783743D01*
X149719685Y-48716704D01*
X149772489Y-48670949D01*
X149823741Y-48659743D01*
X164036019Y-48630257D01*
X164103099Y-48649803D01*
G37*
%TD.AperFunction*%
%TD*%
%TA.AperFunction,Conductor*%
%TO.N,/12V*%
G36*
X113191111Y-50550113D02*
G01*
X113237249Y-50602583D01*
X113248827Y-50656066D01*
X113248120Y-50732057D01*
X113230000Y-52680000D01*
X118030000Y-58140000D01*
X121720000Y-58140000D01*
X121712612Y-50664062D01*
X121732230Y-50597006D01*
X121784989Y-50551199D01*
X121836552Y-50539942D01*
X124211040Y-50538840D01*
X124278089Y-50558493D01*
X124323868Y-50611276D01*
X124335051Y-50659418D01*
X124387071Y-52543897D01*
X124390000Y-52650000D01*
X129370000Y-58030000D01*
X129733526Y-58036410D01*
X129772282Y-58043348D01*
X129870301Y-58077646D01*
X129870308Y-58077646D01*
X129870310Y-58077647D01*
X129900730Y-58080500D01*
X129900734Y-58080500D01*
X130534270Y-58080500D01*
X130564690Y-58077647D01*
X130564690Y-58077646D01*
X130564699Y-58077646D01*
X130616070Y-58059670D01*
X130659196Y-58052733D01*
X131655372Y-58070299D01*
X131687911Y-58076124D01*
X131687931Y-58076036D01*
X131690263Y-58076545D01*
X131694137Y-58077239D01*
X131695298Y-58077645D01*
X131695305Y-58077647D01*
X131725730Y-58080500D01*
X132233855Y-58080500D01*
X132750256Y-58089606D01*
X132748432Y-57748043D01*
X132751288Y-57720917D01*
X132752646Y-57714698D01*
X132755500Y-57684269D01*
X132755500Y-56675730D01*
X132752647Y-56645305D01*
X132752646Y-56645301D01*
X132749232Y-56635547D01*
X132742277Y-56595262D01*
X132718244Y-52094200D01*
X132710666Y-50674662D01*
X132729992Y-50607518D01*
X132782551Y-50561482D01*
X132834664Y-50550000D01*
X134578652Y-50550000D01*
X134645691Y-50569685D01*
X134691446Y-50622489D01*
X134692395Y-50624618D01*
X135700097Y-52945704D01*
X135700098Y-52945705D01*
X137369174Y-52949710D01*
X137436166Y-52969556D01*
X137481794Y-53022469D01*
X137492842Y-53070793D01*
X137609999Y-58049999D01*
X137610000Y-58050000D01*
X140089220Y-58061768D01*
X140156161Y-58081770D01*
X140162237Y-58085979D01*
X140212118Y-58122793D01*
X140254845Y-58137744D01*
X140340299Y-58167646D01*
X140370730Y-58170500D01*
X140370734Y-58170500D01*
X141004270Y-58170500D01*
X141034699Y-58167646D01*
X141034701Y-58167646D01*
X141120154Y-58137744D01*
X141162882Y-58122793D01*
X141205085Y-58091645D01*
X141270711Y-58067675D01*
X141279288Y-58067417D01*
X141926033Y-58070487D01*
X141992974Y-58090489D01*
X141999064Y-58094708D01*
X142037118Y-58122793D01*
X142079845Y-58137744D01*
X142165299Y-58167646D01*
X142195730Y-58170500D01*
X142195734Y-58170500D01*
X142829270Y-58170500D01*
X142859699Y-58167646D01*
X142859701Y-58167646D01*
X142945154Y-58137744D01*
X142987882Y-58122793D01*
X143018422Y-58100253D01*
X143084047Y-58076282D01*
X143092609Y-58076025D01*
X143930000Y-58080000D01*
X143900509Y-50756458D01*
X143919923Y-50689341D01*
X143972543Y-50643374D01*
X144026441Y-50631975D01*
X145741053Y-50658766D01*
X145807776Y-50679496D01*
X145852278Y-50732056D01*
X146810000Y-52870000D01*
X148728149Y-52907610D01*
X148794788Y-52928605D01*
X148839498Y-52982296D01*
X148849716Y-53031874D01*
X148830358Y-61355788D01*
X148810517Y-61422782D01*
X148757607Y-61468414D01*
X148706358Y-61479500D01*
X148020249Y-61479500D01*
X147961769Y-61491132D01*
X147950486Y-61495806D01*
X147949719Y-61493956D01*
X147897756Y-61510222D01*
X147895586Y-61510242D01*
X131844325Y-61514427D01*
X131804746Y-61506560D01*
X131804613Y-61507060D01*
X131797015Y-61505024D01*
X131796848Y-61504991D01*
X131796768Y-61504958D01*
X131796760Y-61504955D01*
X131640001Y-61484318D01*
X131639999Y-61484318D01*
X131483239Y-61504955D01*
X131483230Y-61504958D01*
X131482891Y-61505099D01*
X131482169Y-61505242D01*
X131475386Y-61507060D01*
X131475267Y-61506616D01*
X131435480Y-61514534D01*
X110594372Y-61519967D01*
X110527328Y-61500300D01*
X110481559Y-61447508D01*
X110470340Y-61395628D01*
X110479367Y-58094715D01*
X110499664Y-50672764D01*
X110519532Y-50605780D01*
X110572461Y-50560169D01*
X110622761Y-50549107D01*
X113123932Y-50530916D01*
X113191111Y-50550113D01*
G37*
%TD.AperFunction*%
%TD*%
M02*
