%TF.GenerationSoftware,KiCad,Pcbnew,8.0.2*%
%TF.CreationDate,2024-05-06T18:59:47-04:00*%
%TF.ProjectId,bitcrane,62697463-7261-46e6-952e-6b696361645f,rev?*%
%TF.SameCoordinates,Original*%
%TF.FileFunction,Soldermask,Top*%
%TF.FilePolarity,Negative*%
%FSLAX46Y46*%
G04 Gerber Fmt 4.6, Leading zero omitted, Abs format (unit mm)*
G04 Created by KiCad (PCBNEW 8.0.2) date 2024-05-06 18:59:47*
%MOMM*%
%LPD*%
G01*
G04 APERTURE LIST*
G04 Aperture macros list*
%AMRoundRect*
0 Rectangle with rounded corners*
0 $1 Rounding radius*
0 $2 $3 $4 $5 $6 $7 $8 $9 X,Y pos of 4 corners*
0 Add a 4 corners polygon primitive as box body*
4,1,4,$2,$3,$4,$5,$6,$7,$8,$9,$2,$3,0*
0 Add four circle primitives for the rounded corners*
1,1,$1+$1,$2,$3*
1,1,$1+$1,$4,$5*
1,1,$1+$1,$6,$7*
1,1,$1+$1,$8,$9*
0 Add four rect primitives between the rounded corners*
20,1,$1+$1,$2,$3,$4,$5,0*
20,1,$1+$1,$4,$5,$6,$7,0*
20,1,$1+$1,$6,$7,$8,$9,0*
20,1,$1+$1,$8,$9,$2,$3,0*%
G04 Aperture macros list end*
%ADD10R,0.700000X0.450000*%
%ADD11R,2.200000X2.600000*%
%ADD12R,0.600000X1.070000*%
%ADD13R,1.050000X0.530000*%
%ADD14O,1.450000X0.350000*%
%ADD15C,0.650000*%
%ADD16O,1.000000X2.100000*%
%ADD17O,1.000000X1.800000*%
%ADD18R,0.600000X1.240000*%
%ADD19R,0.300000X1.240000*%
%ADD20C,1.500000*%
%ADD21RoundRect,0.250000X-0.450000X0.262500X-0.450000X-0.262500X0.450000X-0.262500X0.450000X0.262500X0*%
%ADD22RoundRect,0.250000X-0.262500X-0.450000X0.262500X-0.450000X0.262500X0.450000X-0.262500X0.450000X0*%
%ADD23RoundRect,0.250000X0.262500X0.450000X-0.262500X0.450000X-0.262500X-0.450000X0.262500X-0.450000X0*%
%ADD24RoundRect,0.250000X-0.475000X0.250000X-0.475000X-0.250000X0.475000X-0.250000X0.475000X0.250000X0*%
%ADD25C,1.800000*%
%ADD26RoundRect,0.250000X-0.250000X-0.475000X0.250000X-0.475000X0.250000X0.475000X-0.250000X0.475000X0*%
%ADD27C,1.300000*%
%ADD28C,3.000000*%
%ADD29C,2.500000*%
%ADD30RoundRect,0.250000X0.250000X0.475000X-0.250000X0.475000X-0.250000X-0.475000X0.250000X-0.475000X0*%
%ADD31RoundRect,0.250000X0.450000X-0.262500X0.450000X0.262500X-0.450000X0.262500X-0.450000X-0.262500X0*%
%ADD32RoundRect,0.250000X0.475000X-0.250000X0.475000X0.250000X-0.475000X0.250000X-0.475000X-0.250000X0*%
%ADD33C,4.000000*%
%ADD34RoundRect,0.200000X0.200000X0.275000X-0.200000X0.275000X-0.200000X-0.275000X0.200000X-0.275000X0*%
%ADD35R,1.200000X1.400000*%
%ADD36C,1.400000*%
%ADD37RoundRect,0.033180X0.203820X-0.478820X0.203820X0.478820X-0.203820X0.478820X-0.203820X-0.478820X0*%
%ADD38RoundRect,0.033180X0.478820X0.203820X-0.478820X0.203820X-0.478820X-0.203820X0.478820X-0.203820X0*%
%ADD39RoundRect,0.033180X-0.203820X0.478820X-0.203820X-0.478820X0.203820X-0.478820X0.203820X0.478820X0*%
%ADD40RoundRect,0.033180X-0.478820X-0.203820X0.478820X-0.203820X0.478820X0.203820X-0.478820X0.203820X0*%
%ADD41RoundRect,0.102000X2.175000X-2.175000X2.175000X2.175000X-2.175000X2.175000X-2.175000X-2.175000X0*%
%ADD42RoundRect,0.200000X-0.200000X-0.275000X0.200000X-0.275000X0.200000X0.275000X-0.200000X0.275000X0*%
%ADD43R,0.711200X0.304800*%
%ADD44R,0.304800X0.711200*%
%ADD45R,2.692400X2.692400*%
G04 APERTURE END LIST*
D10*
%TO.C,Q1*%
X148560000Y-59945000D03*
X148560000Y-60595000D03*
X148560000Y-61235000D03*
X148560000Y-61885000D03*
X151560000Y-61885000D03*
X151560000Y-61235000D03*
X151560000Y-60595000D03*
X151560000Y-59945000D03*
D11*
X150460000Y-60915000D03*
%TD*%
D12*
%TO.C,D1*%
X143430000Y-63900000D03*
X145330000Y-63900000D03*
X144380000Y-61420000D03*
%TD*%
D13*
%TO.C,U2*%
X102170000Y-123740000D03*
X102170000Y-122790000D03*
X102170000Y-121840000D03*
X99870000Y-121840000D03*
X99870000Y-123740000D03*
%TD*%
D14*
%TO.C,U3*%
X98723600Y-100585001D03*
X98723600Y-99925001D03*
X98723600Y-99275001D03*
X98723600Y-98625001D03*
X92863600Y-98625001D03*
X92863600Y-99275001D03*
X92863600Y-99925001D03*
X92863600Y-100585001D03*
%TD*%
D15*
%TO.C,J11*%
X108190000Y-128130000D03*
X113980000Y-128130000D03*
D16*
X106770000Y-127630000D03*
X115410000Y-127630000D03*
D17*
X115410000Y-131810000D03*
X106770000Y-131810000D03*
D18*
X107890000Y-127010000D03*
X108690000Y-127010000D03*
D19*
X109840000Y-127010000D03*
X110840000Y-127010000D03*
X111340000Y-127010000D03*
X112340000Y-127010000D03*
D18*
X114290000Y-127010000D03*
X113490000Y-127010000D03*
D19*
X112840000Y-127010000D03*
X111840000Y-127010000D03*
X110340000Y-127010000D03*
X109340000Y-127010000D03*
%TD*%
D20*
%TO.C,TP7*%
X125540000Y-93470000D03*
%TD*%
D21*
%TO.C,R20*%
X98860000Y-53227500D03*
X98860000Y-55052500D03*
%TD*%
D22*
%TO.C,R1*%
X71297500Y-46830000D03*
X73122500Y-46830000D03*
%TD*%
D21*
%TO.C,R21*%
X101720000Y-53227500D03*
X101720000Y-55052500D03*
%TD*%
D22*
%TO.C,R16*%
X107777500Y-57170000D03*
X109602500Y-57170000D03*
%TD*%
%TO.C,R28*%
X69090000Y-49650000D03*
X70915000Y-49650000D03*
%TD*%
D23*
%TO.C,R26*%
X96592500Y-35500000D03*
X94767500Y-35500000D03*
%TD*%
%TO.C,R31*%
X98255000Y-46800000D03*
X96430000Y-46800000D03*
%TD*%
D24*
%TO.C,C10*%
X117640000Y-105780000D03*
X117640000Y-107680000D03*
%TD*%
D20*
%TO.C,TP2*%
X106000000Y-103960000D03*
%TD*%
%TO.C,TP24*%
X105280000Y-96880000D03*
%TD*%
D25*
%TO.C,J5*%
X136630000Y-51902500D03*
X134090000Y-51902500D03*
X131550000Y-51902500D03*
X129010000Y-51902500D03*
%TD*%
D23*
%TO.C,R37*%
X100252500Y-35500000D03*
X98427500Y-35500000D03*
%TD*%
%TO.C,R29*%
X75102500Y-49650000D03*
X73277500Y-49650000D03*
%TD*%
D20*
%TO.C,TP9*%
X99380000Y-50430000D03*
%TD*%
D26*
%TO.C,C11*%
X119780000Y-89840000D03*
X121680000Y-89840000D03*
%TD*%
D27*
%TO.C,J2*%
X80080000Y-42980000D03*
X80080000Y-40980000D03*
X78080000Y-42980000D03*
X78080000Y-40980000D03*
X76080000Y-42980000D03*
X76080000Y-40980000D03*
X74080000Y-42980000D03*
X74080000Y-40980000D03*
X72080000Y-42980000D03*
X72080000Y-40980000D03*
X70080000Y-42980000D03*
X70080000Y-40980000D03*
X68080000Y-42980000D03*
X68080000Y-40980000D03*
X66080000Y-42980000D03*
X66080000Y-40980000D03*
X64080000Y-42980000D03*
X64080000Y-40980000D03*
%TD*%
D28*
%TO.C,J3*%
X161400000Y-41990000D03*
X153000000Y-41990000D03*
D29*
X153000000Y-49290000D03*
X157200000Y-49290000D03*
X161400000Y-49290000D03*
X153000000Y-54790000D03*
X157200000Y-54790000D03*
X161400000Y-54790000D03*
%TD*%
%TO.C,J14*%
X145870000Y-49082500D03*
X145870000Y-54582500D03*
X141670000Y-54582500D03*
X141670000Y-49082500D03*
%TD*%
D22*
%TO.C,R32*%
X71297500Y-61020000D03*
X73122500Y-61020000D03*
%TD*%
D23*
%TO.C,R27*%
X76702500Y-61020000D03*
X74877500Y-61020000D03*
%TD*%
D30*
%TO.C,C13*%
X109540000Y-98330000D03*
X107640000Y-98330000D03*
%TD*%
D31*
%TO.C,R11*%
X120670000Y-106502500D03*
X120670000Y-104677500D03*
%TD*%
D32*
%TO.C,C2*%
X111000000Y-109740000D03*
X111000000Y-107840000D03*
%TD*%
D31*
%TO.C,R8*%
X98276000Y-96508500D03*
X98276000Y-94683500D03*
%TD*%
D30*
%TO.C,C18*%
X111920000Y-116930000D03*
X110020000Y-116930000D03*
%TD*%
D20*
%TO.C,TP1*%
X137930000Y-59300000D03*
%TD*%
D23*
%TO.C,R18*%
X121782500Y-69500000D03*
X119957500Y-69500000D03*
%TD*%
D20*
%TO.C,TP21*%
X114970000Y-85410000D03*
%TD*%
D30*
%TO.C,C9*%
X108850000Y-101720000D03*
X106950000Y-101720000D03*
%TD*%
D20*
%TO.C,TP8*%
X123650000Y-91570000D03*
%TD*%
%TO.C,TP19*%
X97060000Y-92110000D03*
%TD*%
%TO.C,TP23*%
X99530000Y-87340000D03*
%TD*%
D33*
%TO.C,H4*%
X63160000Y-127445000D03*
%TD*%
D24*
%TO.C,C8*%
X97750000Y-123810000D03*
X97750000Y-125710000D03*
%TD*%
D22*
%TO.C,R2*%
X69047500Y-35500000D03*
X70872500Y-35500000D03*
%TD*%
%TO.C,R33*%
X65600000Y-49690000D03*
X67425000Y-49690000D03*
%TD*%
D25*
%TO.C,J6*%
X125550000Y-51902500D03*
X123010000Y-51902500D03*
X120470000Y-51902500D03*
X117930000Y-51902500D03*
%TD*%
D20*
%TO.C,TP12*%
X105850000Y-88430000D03*
%TD*%
%TO.C,TP6*%
X128680000Y-95070000D03*
%TD*%
%TO.C,TP34*%
X155570000Y-67140000D03*
%TD*%
D25*
%TO.C,J7*%
X114400000Y-51902500D03*
X111860000Y-51902500D03*
X109320000Y-51902500D03*
X106780000Y-51902500D03*
%TD*%
D26*
%TO.C,C21*%
X119250000Y-117090000D03*
X121150000Y-117090000D03*
%TD*%
D20*
%TO.C,TP17*%
X114310000Y-110360000D03*
%TD*%
D31*
%TO.C,R12*%
X114370000Y-106842500D03*
X114370000Y-105017500D03*
%TD*%
D30*
%TO.C,C6*%
X108940000Y-91200000D03*
X107040000Y-91200000D03*
%TD*%
D26*
%TO.C,C17*%
X119240000Y-114670000D03*
X121140000Y-114670000D03*
%TD*%
D21*
%TO.C,R10*%
X147130000Y-63667500D03*
X147130000Y-65492500D03*
%TD*%
D22*
%TO.C,R22*%
X139717500Y-68860000D03*
X141542500Y-68860000D03*
%TD*%
D30*
%TO.C,C16*%
X111960000Y-114780000D03*
X110060000Y-114780000D03*
%TD*%
D22*
%TO.C,R25*%
X90670000Y-35500000D03*
X92495000Y-35500000D03*
%TD*%
D20*
%TO.C,TP14*%
X129900000Y-88910000D03*
%TD*%
D34*
%TO.C,FB1*%
X120945000Y-112730000D03*
X119295000Y-112730000D03*
%TD*%
D32*
%TO.C,C14*%
X114080000Y-89730000D03*
X114080000Y-87830000D03*
%TD*%
D22*
%TO.C,R15*%
X118787500Y-56960000D03*
X120612500Y-56960000D03*
%TD*%
D23*
%TO.C,R47*%
X113232500Y-63210000D03*
X111407500Y-63210000D03*
%TD*%
D24*
%TO.C,C7*%
X104280000Y-124270000D03*
X104280000Y-126170000D03*
%TD*%
D33*
%TO.C,H3*%
X63160000Y-80245000D03*
%TD*%
D23*
%TO.C,R36*%
X79195000Y-35500000D03*
X77370000Y-35500000D03*
%TD*%
D22*
%TO.C,R35*%
X65567500Y-35500000D03*
X67392500Y-35500000D03*
%TD*%
D35*
%TO.C,Y1*%
X106980000Y-107810000D03*
X106980000Y-110010000D03*
X108680000Y-110010000D03*
X108680000Y-107810000D03*
%TD*%
D33*
%TO.C,H2*%
X163360000Y-128245000D03*
%TD*%
D25*
%TO.C,J4*%
X147680000Y-51902500D03*
X145140000Y-51902500D03*
X142600000Y-51902500D03*
X140060000Y-51902500D03*
%TD*%
D20*
%TO.C,TP13*%
X101800000Y-91180000D03*
%TD*%
D24*
%TO.C,C1*%
X104080000Y-107710000D03*
X104080000Y-109610000D03*
%TD*%
D33*
%TO.C,H1*%
X163360000Y-67365000D03*
%TD*%
D29*
%TO.C,J15*%
X134820000Y-49082500D03*
X134820000Y-54582500D03*
X130620000Y-54582500D03*
X130620000Y-49082500D03*
%TD*%
D21*
%TO.C,R5*%
X118360000Y-127837500D03*
X118360000Y-129662500D03*
%TD*%
D20*
%TO.C,TP35*%
X159410000Y-66760000D03*
%TD*%
D22*
%TO.C,R23*%
X139697500Y-66700000D03*
X141522500Y-66700000D03*
%TD*%
D31*
%TO.C,R9*%
X101219000Y-96491500D03*
X101219000Y-94666500D03*
%TD*%
D22*
%TO.C,R6*%
X101067500Y-98230000D03*
X102892500Y-98230000D03*
%TD*%
D23*
%TO.C,R17*%
X121782500Y-67310000D03*
X119957500Y-67310000D03*
%TD*%
D22*
%TO.C,R14*%
X130217500Y-57180000D03*
X132042500Y-57180000D03*
%TD*%
D24*
%TO.C,C3*%
X153530000Y-62230000D03*
X153530000Y-64130000D03*
%TD*%
D20*
%TO.C,TP10*%
X101320000Y-59810000D03*
%TD*%
D29*
%TO.C,J16*%
X123740000Y-49106750D03*
X123740000Y-54606750D03*
X119540000Y-54606750D03*
X119540000Y-49106750D03*
%TD*%
D36*
%TO.C,J1*%
X160210000Y-78245000D03*
X160210000Y-80245000D03*
X160210000Y-82245000D03*
X158210000Y-78245000D03*
X158210000Y-80245000D03*
X158210000Y-82245000D03*
%TD*%
D20*
%TO.C,TP18*%
X102780000Y-101890000D03*
%TD*%
D22*
%TO.C,R34*%
X86970000Y-35500000D03*
X88795000Y-35500000D03*
%TD*%
D37*
%TO.C,U1*%
X112385000Y-101615000D03*
X112885000Y-101615000D03*
X113385000Y-101615000D03*
X113885000Y-101615000D03*
X114385000Y-101615000D03*
X114885000Y-101615000D03*
X115385000Y-101615000D03*
X115885000Y-101615000D03*
X116385000Y-101615000D03*
X116885000Y-101615000D03*
X117385000Y-101615000D03*
X117885000Y-101615000D03*
X118385000Y-101615000D03*
X118885000Y-101615000D03*
X119385000Y-101615000D03*
X119885000Y-101615000D03*
D38*
X120580000Y-100920000D03*
X120580000Y-100420000D03*
X120580000Y-99920000D03*
X120580000Y-99420000D03*
X120580000Y-98920000D03*
X120580000Y-98420000D03*
X120580000Y-97920000D03*
X120580000Y-97420000D03*
X120580000Y-96920000D03*
X120580000Y-96420000D03*
X120580000Y-95920000D03*
X120580000Y-95420000D03*
X120580000Y-94920000D03*
X120580000Y-94420000D03*
X120580000Y-93920000D03*
X120580000Y-93420000D03*
D39*
X119885000Y-92725000D03*
X119385000Y-92725000D03*
X118885000Y-92725000D03*
X118385000Y-92725000D03*
X117885000Y-92725000D03*
X117385000Y-92725000D03*
X116885000Y-92725000D03*
X116385000Y-92725000D03*
X115885000Y-92725000D03*
X115385000Y-92725000D03*
X114885000Y-92725000D03*
X114385000Y-92725000D03*
X113885000Y-92725000D03*
X113385000Y-92725000D03*
X112885000Y-92725000D03*
X112385000Y-92725000D03*
D40*
X111690000Y-93420000D03*
X111690000Y-93920000D03*
X111690000Y-94420000D03*
X111690000Y-94920000D03*
X111690000Y-95420000D03*
X111690000Y-95920000D03*
X111690000Y-96420000D03*
X111690000Y-96920000D03*
X111690000Y-97420000D03*
X111690000Y-97920000D03*
X111690000Y-98420000D03*
X111690000Y-98920000D03*
X111690000Y-99420000D03*
X111690000Y-99920000D03*
X111690000Y-100420000D03*
X111690000Y-100920000D03*
D41*
X116135000Y-97170000D03*
%TD*%
D24*
%TO.C,C4*%
X141060000Y-61700000D03*
X141060000Y-63600000D03*
%TD*%
D20*
%TO.C,TP15*%
X131860000Y-101300000D03*
%TD*%
D22*
%TO.C,R19*%
X130607500Y-91170000D03*
X132432500Y-91170000D03*
%TD*%
D31*
%TO.C,R7*%
X95180000Y-96508500D03*
X95180000Y-94683500D03*
%TD*%
D20*
%TO.C,TP3*%
X123980000Y-87450000D03*
%TD*%
D30*
%TO.C,C20*%
X126820000Y-66140000D03*
X124920000Y-66140000D03*
%TD*%
D20*
%TO.C,TP22*%
X115210000Y-82610000D03*
%TD*%
D21*
%TO.C,R4*%
X103570000Y-127817500D03*
X103570000Y-129642500D03*
%TD*%
D20*
%TO.C,TP16*%
X116220000Y-124710000D03*
%TD*%
D27*
%TO.C,J9*%
X101510000Y-42980000D03*
X101510000Y-40980000D03*
X99510000Y-42980000D03*
X99510000Y-40980000D03*
X97510000Y-42980000D03*
X97510000Y-40980000D03*
X95510000Y-42980000D03*
X95510000Y-40980000D03*
X93510000Y-42980000D03*
X93510000Y-40980000D03*
X91510000Y-42980000D03*
X91510000Y-40980000D03*
X89510000Y-42980000D03*
X89510000Y-40980000D03*
X87510000Y-42980000D03*
X87510000Y-40980000D03*
X85510000Y-42980000D03*
X85510000Y-40980000D03*
%TD*%
D23*
%TO.C,R3*%
X75785000Y-35500000D03*
X73960000Y-35500000D03*
%TD*%
%TO.C,R30*%
X76702500Y-46830000D03*
X74877500Y-46830000D03*
%TD*%
D22*
%TO.C,R13*%
X140687500Y-57270000D03*
X142512500Y-57270000D03*
%TD*%
D24*
%TO.C,C5*%
X138530000Y-61680000D03*
X138530000Y-63580000D03*
%TD*%
D23*
%TO.C,R38*%
X78682500Y-49650000D03*
X76857500Y-49650000D03*
%TD*%
D22*
%TO.C,R24*%
X92880000Y-46830000D03*
X94705000Y-46830000D03*
%TD*%
D20*
%TO.C,TP20*%
X91480000Y-94260000D03*
%TD*%
%TO.C,TP5*%
X126010000Y-96710000D03*
%TD*%
%TO.C,TP4*%
X125270000Y-84960000D03*
%TD*%
D22*
%TO.C,R48*%
X105977500Y-63210000D03*
X107802500Y-63210000D03*
%TD*%
D20*
%TO.C,TP11*%
X132040000Y-98130000D03*
%TD*%
D27*
%TO.C,J10*%
X80080000Y-57010000D03*
X80080000Y-55010000D03*
X78080000Y-57010000D03*
X78080000Y-55010000D03*
X76080000Y-57010000D03*
X76080000Y-55010000D03*
X74080000Y-57010000D03*
X74080000Y-55010000D03*
X72080000Y-57010000D03*
X72080000Y-55010000D03*
X70080000Y-57010000D03*
X70080000Y-55010000D03*
X68080000Y-57010000D03*
X68080000Y-55010000D03*
X66080000Y-57010000D03*
X66080000Y-55010000D03*
X64080000Y-57010000D03*
X64080000Y-55010000D03*
%TD*%
D42*
%TO.C,FB2*%
X110105000Y-112810000D03*
X111755000Y-112810000D03*
%TD*%
D30*
%TO.C,C12*%
X107890000Y-93590000D03*
X105990000Y-93590000D03*
%TD*%
D26*
%TO.C,C15*%
X124786000Y-99424000D03*
X126686000Y-99424000D03*
%TD*%
D29*
%TO.C,J17*%
X112650000Y-49126750D03*
X112650000Y-54626750D03*
X108450000Y-54626750D03*
X108450000Y-49126750D03*
%TD*%
D43*
%TO.C,U4*%
X129360799Y-64225001D03*
X129360799Y-64874999D03*
X129360799Y-65525001D03*
X129360799Y-66174999D03*
D44*
X130335001Y-67149201D03*
X130984999Y-67149201D03*
X131635001Y-67149201D03*
X132284999Y-67149201D03*
D43*
X133259201Y-66174999D03*
X133259201Y-65525001D03*
X133259201Y-64874999D03*
X133259201Y-64225001D03*
D44*
X132284999Y-63250799D03*
X131635001Y-63250799D03*
X130984999Y-63250799D03*
X130335001Y-63250799D03*
D45*
X131310000Y-65200000D03*
%TD*%
G36*
X61243425Y-34264685D02*
G01*
X61289180Y-34317489D01*
X61300386Y-34368977D01*
X61303446Y-50535035D01*
X61283774Y-50602078D01*
X61230979Y-50647843D01*
X61161822Y-50657799D01*
X61098261Y-50628786D01*
X61091765Y-50622739D01*
X61065671Y-50596645D01*
X61065667Y-50596642D01*
X60952152Y-50531094D01*
X60952151Y-50531093D01*
X60825542Y-50497149D01*
X60760009Y-50495000D01*
X58761830Y-50495000D01*
X58758169Y-50494946D01*
X58708875Y-50493490D01*
X58680459Y-50489323D01*
X58583517Y-50463362D01*
X58553601Y-50450974D01*
X58468304Y-50401735D01*
X58442616Y-50382025D01*
X58372974Y-50312383D01*
X58353264Y-50286695D01*
X58304025Y-50201398D01*
X58291637Y-50171482D01*
X58265676Y-50074540D01*
X58261509Y-50046122D01*
X58260054Y-49996829D01*
X58260000Y-49993170D01*
X58260000Y-34747021D01*
X58260066Y-34742978D01*
X58261673Y-34693720D01*
X58265832Y-34665670D01*
X58291841Y-34568601D01*
X58304229Y-34538694D01*
X58353449Y-34453443D01*
X58373155Y-34427762D01*
X58442762Y-34358155D01*
X58468443Y-34338449D01*
X58553694Y-34289229D01*
X58583601Y-34276841D01*
X58680670Y-34250832D01*
X58708720Y-34246673D01*
X58757979Y-34245066D01*
X58762022Y-34245000D01*
X61176386Y-34245000D01*
X61243425Y-34264685D01*
G37*
G36*
X61223747Y-55537846D02*
G01*
X61279681Y-55579716D01*
X61304099Y-55645180D01*
X61304415Y-55654005D01*
X61318318Y-129099907D01*
X61298646Y-129166950D01*
X61245851Y-129212715D01*
X61176694Y-129222671D01*
X61113133Y-129193658D01*
X61106637Y-129187611D01*
X61065671Y-129146645D01*
X61065667Y-129146642D01*
X60952152Y-129081094D01*
X60952151Y-129081093D01*
X60825542Y-129047149D01*
X60760009Y-129045000D01*
X58761830Y-129045000D01*
X58758169Y-129044946D01*
X58708875Y-129043490D01*
X58680459Y-129039323D01*
X58583517Y-129013362D01*
X58553601Y-129000974D01*
X58468304Y-128951735D01*
X58442616Y-128932025D01*
X58372974Y-128862383D01*
X58353264Y-128836695D01*
X58304025Y-128751398D01*
X58291637Y-128721482D01*
X58265676Y-128624540D01*
X58261509Y-128596122D01*
X58260054Y-128546829D01*
X58260000Y-128543170D01*
X58260000Y-56197021D01*
X58260066Y-56192978D01*
X58261673Y-56143720D01*
X58265832Y-56115670D01*
X58291841Y-56018601D01*
X58304229Y-55988694D01*
X58353449Y-55903443D01*
X58373155Y-55877762D01*
X58442762Y-55808155D01*
X58468443Y-55788449D01*
X58553694Y-55739229D01*
X58583601Y-55726841D01*
X58680670Y-55700832D01*
X58708720Y-55696673D01*
X58757979Y-55695066D01*
X58762022Y-55695000D01*
X60760000Y-55695000D01*
X60825544Y-55692860D01*
X60952168Y-55658931D01*
X61065692Y-55593388D01*
X61092732Y-55566348D01*
X61154055Y-55532862D01*
X61223747Y-55537846D01*
G37*
G36*
X167762042Y-34245067D02*
G01*
X167811278Y-34246682D01*
X167839322Y-34250844D01*
X167936386Y-34276866D01*
X167966285Y-34289254D01*
X168051536Y-34338482D01*
X168077209Y-34358184D01*
X168146815Y-34427790D01*
X168166517Y-34453463D01*
X168215745Y-34538714D01*
X168228133Y-34568613D01*
X168254155Y-34665677D01*
X168258317Y-34693718D01*
X168259933Y-34742954D01*
X168260000Y-34747022D01*
X168260000Y-49992978D01*
X168259934Y-49997024D01*
X168258326Y-50046282D01*
X168254167Y-50074329D01*
X168228158Y-50171398D01*
X168215770Y-50201305D01*
X168166550Y-50286556D01*
X168146844Y-50312237D01*
X168077237Y-50381844D01*
X168051556Y-50401550D01*
X167966305Y-50450770D01*
X167936398Y-50463158D01*
X167839329Y-50489167D01*
X167811282Y-50493326D01*
X167762024Y-50494934D01*
X167757978Y-50495000D01*
X165760000Y-50495000D01*
X165694455Y-50497139D01*
X165567831Y-50531068D01*
X165454306Y-50596612D01*
X165454303Y-50596614D01*
X165361614Y-50689303D01*
X165361612Y-50689306D01*
X165296066Y-50802833D01*
X165296066Y-50802834D01*
X165284344Y-50846580D01*
X165247978Y-50906240D01*
X165185131Y-50936768D01*
X165115756Y-50928472D01*
X165061878Y-50883986D01*
X165040605Y-50817434D01*
X165040570Y-50814673D01*
X165015609Y-34369188D01*
X165035192Y-34302119D01*
X165087926Y-34256284D01*
X165139609Y-34245000D01*
X167757977Y-34245000D01*
X167762042Y-34245067D01*
G37*
G36*
X165252594Y-55308512D02*
G01*
X165290458Y-55367233D01*
X165291313Y-55370269D01*
X165295863Y-55387258D01*
X165361429Y-55500839D01*
X165454160Y-55593570D01*
X165567742Y-55659137D01*
X165567741Y-55659137D01*
X165694421Y-55693062D01*
X165694427Y-55693063D01*
X165760001Y-55695000D01*
X167757977Y-55695000D01*
X167762042Y-55695067D01*
X167811278Y-55696682D01*
X167839322Y-55700844D01*
X167936386Y-55726866D01*
X167966285Y-55739254D01*
X168051536Y-55788482D01*
X168077209Y-55808184D01*
X168146815Y-55877790D01*
X168166517Y-55903463D01*
X168215745Y-55988714D01*
X168228133Y-56018613D01*
X168254155Y-56115677D01*
X168258317Y-56143718D01*
X168259933Y-56192954D01*
X168260000Y-56197022D01*
X168260000Y-128542978D01*
X168259934Y-128547024D01*
X168258326Y-128596282D01*
X168254167Y-128624329D01*
X168228158Y-128721398D01*
X168215770Y-128751305D01*
X168166550Y-128836556D01*
X168146844Y-128862237D01*
X168077237Y-128931844D01*
X168051556Y-128951550D01*
X167966305Y-129000770D01*
X167936398Y-129013158D01*
X167839329Y-129039167D01*
X167811282Y-129043326D01*
X167762024Y-129044934D01*
X167757978Y-129045000D01*
X165760000Y-129045000D01*
X165694455Y-129047139D01*
X165567831Y-129081068D01*
X165454306Y-129146612D01*
X165371143Y-129229775D01*
X165309819Y-129263259D01*
X165240128Y-129258275D01*
X165184194Y-129216403D01*
X165159778Y-129150938D01*
X165159462Y-129142281D01*
X165047534Y-55402536D01*
X165067117Y-55335467D01*
X165119851Y-55289632D01*
X165188995Y-55279583D01*
X165252594Y-55308512D01*
G37*
M02*
