%TF.GenerationSoftware,KiCad,Pcbnew,8.0.0*%
%TF.CreationDate,2024-03-20T15:43:41-04:00*%
%TF.ProjectId,bitcrane,62697463-7261-46e6-952e-6b696361645f,rev?*%
%TF.SameCoordinates,Original*%
%TF.FileFunction,Copper,L4,Bot*%
%TF.FilePolarity,Positive*%
%FSLAX46Y46*%
G04 Gerber Fmt 4.6, Leading zero omitted, Abs format (unit mm)*
G04 Created by KiCad (PCBNEW 8.0.0) date 2024-03-20 15:43:41*
%MOMM*%
%LPD*%
G01*
G04 APERTURE LIST*
%TA.AperFunction,ComponentPad*%
%ADD10C,1.549400*%
%TD*%
%TA.AperFunction,ComponentPad*%
%ADD11C,1.300000*%
%TD*%
%TA.AperFunction,ComponentPad*%
%ADD12C,2.775000*%
%TD*%
%TA.AperFunction,ComponentPad*%
%ADD13C,2.300000*%
%TD*%
%TA.AperFunction,ComponentPad*%
%ADD14C,4.000000*%
%TD*%
%TA.AperFunction,ComponentPad*%
%ADD15O,1.000000X2.100000*%
%TD*%
%TA.AperFunction,ComponentPad*%
%ADD16O,1.000000X1.800000*%
%TD*%
%TA.AperFunction,ComponentPad*%
%ADD17C,0.500000*%
%TD*%
%TA.AperFunction,ComponentPad*%
%ADD18C,1.400000*%
%TD*%
%TA.AperFunction,ViaPad*%
%ADD19C,0.800000*%
%TD*%
%TA.AperFunction,Conductor*%
%ADD20C,0.250000*%
%TD*%
%TA.AperFunction,Conductor*%
%ADD21C,0.500000*%
%TD*%
G04 APERTURE END LIST*
D10*
%TO.P,J5,1,Pin_1*%
%TO.N,GND*%
X136530000Y-51870750D03*
%TO.P,J5,2,Pin_2*%
%TO.N,/12V*%
X133990000Y-51870750D03*
%TO.P,J5,3,Pin_3*%
%TO.N,Net-(J15-Pin_3)*%
X131450000Y-51870750D03*
%TO.P,J5,4,Pin_4*%
%TO.N,Net-(J15-Pin_4)*%
X128910000Y-51870750D03*
%TD*%
D11*
%TO.P,J2,1,Pin_1*%
%TO.N,GND*%
X80080000Y-42980000D03*
%TO.P,J2,2,Pin_2*%
X80080000Y-40980000D03*
%TO.P,J2,3,Pin_3*%
%TO.N,/SDA0*%
X78080000Y-42980000D03*
%TO.P,J2,4,Pin_4*%
%TO.N,/SCL0*%
X78080000Y-40980000D03*
%TO.P,J2,5,Pin_5*%
%TO.N,/PLUG0*%
X76080000Y-42980000D03*
%TO.P,J2,6,Pin_6*%
%TO.N,/A20*%
X76080000Y-40980000D03*
%TO.P,J2,7,Pin_7*%
%TO.N,/A10*%
X74080000Y-42980000D03*
%TO.P,J2,8,Pin_8*%
%TO.N,/A00*%
X74080000Y-40980000D03*
%TO.P,J2,9,Pin_9*%
%TO.N,GND*%
X72080000Y-42980000D03*
%TO.P,J2,10,Pin_10*%
X72080000Y-40980000D03*
%TO.P,J2,11,Pin_11*%
%TO.N,/TXD0*%
X70080000Y-42980000D03*
%TO.P,J2,12,Pin_12*%
%TO.N,/RXD0*%
X70080000Y-40980000D03*
%TO.P,J2,13,Pin_13*%
%TO.N,GND*%
X68080000Y-42980000D03*
%TO.P,J2,14,Pin_14*%
X68080000Y-40980000D03*
%TO.P,J2,15,Pin_15*%
%TO.N,/RST0*%
X66080000Y-42980000D03*
%TO.P,J2,16,Pin_16*%
%TO.N,VCCIO*%
X66080000Y-40980000D03*
%TO.P,J2,17,Pin_17*%
%TO.N,unconnected-(J2-Pin_17-Pad17)*%
X64080000Y-42980000D03*
%TO.P,J2,18,Pin_18*%
%TO.N,unconnected-(J2-Pin_18-Pad18)*%
X64080000Y-40980000D03*
%TD*%
D12*
%TO.P,J3,1,1*%
%TO.N,Net-(Q1-D)*%
X152960000Y-50540000D03*
%TO.P,J3,2,2*%
X157160000Y-50540000D03*
%TO.P,J3,3,3*%
X161360000Y-50540000D03*
%TO.P,J3,4,4*%
%TO.N,GND*%
X152960000Y-54740000D03*
%TO.P,J3,5,5*%
X157160000Y-54740000D03*
%TO.P,J3,6,6*%
X161360000Y-54740000D03*
%TD*%
D13*
%TO.P,J14,1,Pin_1*%
%TO.N,GND*%
X146080000Y-48820000D03*
%TO.P,J14,2,Pin_2*%
%TO.N,/12V*%
X146080000Y-54320000D03*
%TO.P,J14,3,Pin_3*%
%TO.N,Net-(J14-Pin_3)*%
X141880000Y-54320000D03*
%TO.P,J14,4,Pin_4*%
%TO.N,Net-(J14-Pin_4)*%
X141880000Y-48820000D03*
%TD*%
D14*
%TO.P,H4,1,1*%
%TO.N,GND*%
X63160000Y-127445000D03*
%TD*%
D15*
%TO.P,J8,S1,SHIELD*%
%TO.N,GND*%
X106780000Y-127730000D03*
D16*
X106780000Y-131910000D03*
D15*
X115420000Y-127730000D03*
D16*
X115420000Y-131910000D03*
%TD*%
D10*
%TO.P,J6,1,Pin_1*%
%TO.N,GND*%
X114400000Y-51870750D03*
%TO.P,J6,2,Pin_2*%
%TO.N,/12V*%
X111860000Y-51870750D03*
%TO.P,J6,3,Pin_3*%
%TO.N,Net-(J16-Pin_3)*%
X109320000Y-51870750D03*
%TO.P,J6,4,Pin_4*%
%TO.N,Net-(J16-Pin_4)*%
X106780000Y-51870750D03*
%TD*%
%TO.P,J7,1,Pin_1*%
%TO.N,GND*%
X125510000Y-51870750D03*
%TO.P,J7,2,Pin_2*%
%TO.N,/12V*%
X122970000Y-51870750D03*
%TO.P,J7,3,Pin_3*%
%TO.N,Net-(J17-Pin_3)*%
X120430000Y-51870750D03*
%TO.P,J7,4,Pin_4*%
%TO.N,Net-(J17-Pin_4)*%
X117890000Y-51870750D03*
%TD*%
D14*
%TO.P,H3,1,1*%
%TO.N,GND*%
X63160000Y-80245000D03*
%TD*%
%TO.P,H2,1,1*%
%TO.N,GND*%
X163360000Y-128245000D03*
%TD*%
D10*
%TO.P,J4,1,Pin_1*%
%TO.N,GND*%
X147580000Y-51870750D03*
%TO.P,J4,2,Pin_2*%
%TO.N,/12V*%
X145040000Y-51870750D03*
%TO.P,J4,3,Pin_3*%
%TO.N,Net-(J14-Pin_3)*%
X142500000Y-51870750D03*
%TO.P,J4,4,Pin_4*%
%TO.N,Net-(J14-Pin_4)*%
X139960000Y-51870750D03*
%TD*%
D14*
%TO.P,H1,1,1*%
%TO.N,GND*%
X163360000Y-67365000D03*
%TD*%
D13*
%TO.P,J15,1,Pin_1*%
%TO.N,GND*%
X135060000Y-48820000D03*
%TO.P,J15,2,Pin_2*%
%TO.N,/12V*%
X135060000Y-54320000D03*
%TO.P,J15,3,Pin_3*%
%TO.N,Net-(J15-Pin_3)*%
X130860000Y-54320000D03*
%TO.P,J15,4,Pin_4*%
%TO.N,Net-(J15-Pin_4)*%
X130860000Y-48820000D03*
%TD*%
%TO.P,J16,1,Pin_1*%
%TO.N,GND*%
X112880000Y-48820000D03*
%TO.P,J16,2,Pin_2*%
%TO.N,/12V*%
X112880000Y-54320000D03*
%TO.P,J16,3,Pin_3*%
%TO.N,Net-(J16-Pin_3)*%
X108680000Y-54320000D03*
%TO.P,J16,4,Pin_4*%
%TO.N,Net-(J16-Pin_4)*%
X108680000Y-48820000D03*
%TD*%
D17*
%TO.P,U5,17,EPAD*%
%TO.N,GND*%
X79355000Y-94975000D03*
X80075000Y-95695000D03*
X79355000Y-95695000D03*
X78635000Y-95695000D03*
X79355000Y-96415000D03*
%TD*%
D18*
%TO.P,J1,1,Pin_1*%
%TO.N,unconnected-(J1-Pin_1-Pad1)*%
X160210000Y-78245000D03*
%TO.P,J1,2,Pin_2*%
%TO.N,GND*%
X160210000Y-80245000D03*
%TO.P,J1,3,Pin_3*%
%TO.N,/SDA3*%
X160210000Y-82245000D03*
%TO.P,J1,4,Pin_4*%
%TO.N,unconnected-(J1-Pin_4-Pad4)*%
X158210000Y-78245000D03*
%TO.P,J1,5,Pin_5*%
%TO.N,/PSU_EN*%
X158210000Y-80245000D03*
%TO.P,J1,6,Pin_6*%
%TO.N,/SCL3*%
X158210000Y-82245000D03*
%TD*%
D11*
%TO.P,J9,1,Pin_1*%
%TO.N,GND*%
X101510000Y-42980000D03*
%TO.P,J9,2,Pin_2*%
X101510000Y-40980000D03*
%TO.P,J9,3,Pin_3*%
%TO.N,/SDA1*%
X99510000Y-42980000D03*
%TO.P,J9,4,Pin_4*%
%TO.N,/SCL1*%
X99510000Y-40980000D03*
%TO.P,J9,5,Pin_5*%
%TO.N,/PLUG1*%
X97510000Y-42980000D03*
%TO.P,J9,6,Pin_6*%
%TO.N,/A21*%
X97510000Y-40980000D03*
%TO.P,J9,7,Pin_7*%
%TO.N,/A11*%
X95510000Y-42980000D03*
%TO.P,J9,8,Pin_8*%
%TO.N,/A01*%
X95510000Y-40980000D03*
%TO.P,J9,9,Pin_9*%
%TO.N,GND*%
X93510000Y-42980000D03*
%TO.P,J9,10,Pin_10*%
X93510000Y-40980000D03*
%TO.P,J9,11,Pin_11*%
%TO.N,/TXD1*%
X91510000Y-42980000D03*
%TO.P,J9,12,Pin_12*%
%TO.N,/RXD1*%
X91510000Y-40980000D03*
%TO.P,J9,13,Pin_13*%
%TO.N,GND*%
X89510000Y-42980000D03*
%TO.P,J9,14,Pin_14*%
X89510000Y-40980000D03*
%TO.P,J9,15,Pin_15*%
%TO.N,/RST1*%
X87510000Y-42980000D03*
%TO.P,J9,16,Pin_16*%
%TO.N,VCCIO*%
X87510000Y-40980000D03*
%TO.P,J9,17,Pin_17*%
%TO.N,unconnected-(J9-Pin_17-Pad17)*%
X85510000Y-42980000D03*
%TO.P,J9,18,Pin_18*%
%TO.N,unconnected-(J9-Pin_18-Pad18)*%
X85510000Y-40980000D03*
%TD*%
%TO.P,J10,1,Pin_1*%
%TO.N,GND*%
X80080000Y-57010000D03*
%TO.P,J10,2,Pin_2*%
X80080000Y-55010000D03*
%TO.P,J10,3,Pin_3*%
%TO.N,/SDA2*%
X78080000Y-57010000D03*
%TO.P,J10,4,Pin_4*%
%TO.N,/SCL2*%
X78080000Y-55010000D03*
%TO.P,J10,5,Pin_5*%
%TO.N,/PLUG2*%
X76080000Y-57010000D03*
%TO.P,J10,6,Pin_6*%
%TO.N,/A22*%
X76080000Y-55010000D03*
%TO.P,J10,7,Pin_7*%
%TO.N,/A12*%
X74080000Y-57010000D03*
%TO.P,J10,8,Pin_8*%
%TO.N,/A02*%
X74080000Y-55010000D03*
%TO.P,J10,9,Pin_9*%
%TO.N,GND*%
X72080000Y-57010000D03*
%TO.P,J10,10,Pin_10*%
X72080000Y-55010000D03*
%TO.P,J10,11,Pin_11*%
%TO.N,/TXD2*%
X70080000Y-57010000D03*
%TO.P,J10,12,Pin_12*%
%TO.N,/RXD2*%
X70080000Y-55010000D03*
%TO.P,J10,13,Pin_13*%
%TO.N,GND*%
X68080000Y-57010000D03*
%TO.P,J10,14,Pin_14*%
X68080000Y-55010000D03*
%TO.P,J10,15,Pin_15*%
%TO.N,/RST2*%
X66080000Y-57010000D03*
%TO.P,J10,16,Pin_16*%
%TO.N,VCCIO*%
X66080000Y-55010000D03*
%TO.P,J10,17,Pin_17*%
%TO.N,unconnected-(J10-Pin_17-Pad17)*%
X64080000Y-57010000D03*
%TO.P,J10,18,Pin_18*%
%TO.N,unconnected-(J10-Pin_18-Pad18)*%
X64080000Y-55010000D03*
%TD*%
D13*
%TO.P,J17,1,Pin_1*%
%TO.N,GND*%
X124020000Y-48820000D03*
%TO.P,J17,2,Pin_2*%
%TO.N,/12V*%
X124020000Y-54320000D03*
%TO.P,J17,3,Pin_3*%
%TO.N,Net-(J17-Pin_3)*%
X119820000Y-54320000D03*
%TO.P,J17,4,Pin_4*%
%TO.N,Net-(J17-Pin_4)*%
X119820000Y-48820000D03*
%TD*%
D19*
%TO.N,GND*%
X122350000Y-97260000D03*
%TO.N,/RST1*%
X116016246Y-84520000D03*
%TO.N,/RST2*%
X97762347Y-90677653D03*
%TO.N,/RST0*%
X123476396Y-94410000D03*
%TO.N,/PLUG0*%
X122160000Y-94370000D03*
%TO.N,/FAN_ALERT*%
X123400000Y-97990000D03*
%TO.N,/5V*%
X113454000Y-123936000D03*
X107543800Y-123724800D03*
%TO.N,VCORE*%
X117862354Y-104176740D03*
X110810000Y-102190000D03*
X110547000Y-92259000D03*
X118264799Y-91560799D03*
%TO.N,VCCIO*%
X107780000Y-97005500D03*
X134220000Y-91190000D03*
X109090000Y-92670000D03*
X118490000Y-68930000D03*
X108750000Y-112800000D03*
X91007000Y-98936000D03*
X157690000Y-93900000D03*
X71290000Y-62730000D03*
X122462347Y-93042347D03*
X123140000Y-100250000D03*
X98310000Y-93120000D03*
X95160000Y-93080000D03*
X79160000Y-37150000D03*
X116990000Y-55590000D03*
X87010000Y-37180000D03*
X120660000Y-107890000D03*
X100250000Y-37020000D03*
X101220000Y-93110000D03*
X65580000Y-47980000D03*
X128650000Y-110410000D03*
X95800000Y-54150000D03*
X89750000Y-64890000D03*
X78250000Y-48190000D03*
X130060000Y-101270000D03*
X98260000Y-48510000D03*
X104090000Y-56380000D03*
X89780000Y-54270000D03*
X127980000Y-65540000D03*
X65600000Y-37050000D03*
X128760000Y-55900000D03*
X91064000Y-100921000D03*
X122090000Y-112720000D03*
X96100000Y-123710000D03*
X139160000Y-56860000D03*
X84060000Y-95830000D03*
X114900000Y-90800000D03*
%TO.N,GND*%
X117750000Y-109160000D03*
X59820000Y-82940904D03*
X166670000Y-101257274D03*
X120170000Y-103220000D03*
X59820000Y-122543623D03*
X166670000Y-104303637D03*
X59820000Y-67709089D03*
X96150000Y-125690000D03*
X166670000Y-82979096D03*
X76020000Y-94790000D03*
X59710000Y-48120000D03*
X117420000Y-98410000D03*
X59820000Y-119497260D03*
X93690000Y-36620000D03*
X59820000Y-116450897D03*
X105420000Y-118710000D03*
X166670000Y-76886370D03*
X166670000Y-98210911D03*
X166670000Y-67747281D03*
X104390000Y-93680000D03*
X117430000Y-95900000D03*
X111410000Y-106310000D03*
X59820000Y-58570000D03*
X72340000Y-36420000D03*
X105730000Y-102310000D03*
X130720000Y-64570000D03*
X166770000Y-42860000D03*
X166670000Y-116489089D03*
X59820000Y-73801815D03*
X59820000Y-110358171D03*
X166670000Y-58608192D03*
X166670000Y-86025459D03*
X102720000Y-126130000D03*
X166670000Y-79932733D03*
X138560000Y-65110000D03*
X89750000Y-99920000D03*
X112340000Y-87800000D03*
X126360000Y-118740000D03*
X117160500Y-103190000D03*
X122370000Y-114580000D03*
X91125000Y-97515000D03*
X59820000Y-76848178D03*
X166670000Y-122581815D03*
X59820000Y-113404534D03*
X166670000Y-113442726D03*
X59820000Y-85987267D03*
X104328000Y-110913000D03*
X166670000Y-107350000D03*
X123680000Y-66160000D03*
X59710000Y-39015000D03*
X119700000Y-91536000D03*
X80310000Y-98950000D03*
X105250000Y-91160000D03*
X59820000Y-125590000D03*
X166670000Y-70793644D03*
X59820000Y-98172719D03*
X128340000Y-99450000D03*
X114160500Y-103302000D03*
X109255765Y-94259041D03*
X114380000Y-108310000D03*
X59820000Y-79894541D03*
X71900000Y-48360000D03*
X166670000Y-125628192D03*
X166770000Y-39825000D03*
X92930000Y-48510000D03*
X59820000Y-101219082D03*
X59820000Y-64662726D03*
X59820000Y-104265445D03*
X114820000Y-95860000D03*
X166670000Y-110396363D03*
X59710000Y-42050000D03*
X108720000Y-114790000D03*
X166770000Y-36790000D03*
X110390000Y-103550000D03*
X153200000Y-65340000D03*
X166770000Y-45895000D03*
X166670000Y-95164548D03*
X59820000Y-89033630D03*
X116135000Y-97170000D03*
X59820000Y-107311808D03*
X166670000Y-64700918D03*
X147110000Y-67290000D03*
X114740000Y-98510000D03*
X113040000Y-91493000D03*
X76760000Y-62760000D03*
X166770000Y-48930000D03*
X59820000Y-61616363D03*
X131880000Y-65700000D03*
X59820000Y-95126356D03*
X85420000Y-91050000D03*
X59710000Y-35980000D03*
X166670000Y-61654555D03*
X166670000Y-73840007D03*
X103872000Y-122806000D03*
X59820000Y-92079993D03*
X59710000Y-45085000D03*
X166670000Y-119535452D03*
X166670000Y-92118185D03*
X166670000Y-89071822D03*
X59820000Y-70755452D03*
X106250000Y-98350000D03*
%TO.N,/SDA*%
X85810000Y-96950000D03*
X121980000Y-101480000D03*
%TO.N,/SCL*%
X122021610Y-102478636D03*
X85752701Y-98137299D03*
%TO.N,Net-(U1-EEDATA)*%
X92150000Y-95060000D03*
X104060000Y-98780000D03*
%TO.N,Net-(J14-Pin_4)*%
X129950000Y-69130000D03*
%TO.N,Net-(J14-Pin_3)*%
X131200000Y-70450000D03*
%TO.N,/FAN_ALERT*%
X127175500Y-92409860D03*
%TO.N,Net-(J15-Pin_4)*%
X131490000Y-68600000D03*
%TO.N,Net-(J15-Pin_3)*%
X132580000Y-68380000D03*
%TO.N,Net-(J16-Pin_4)*%
X134614981Y-66416683D03*
%TO.N,Net-(J16-Pin_3)*%
X134690000Y-65420000D03*
%TO.N,Net-(J17-Pin_4)*%
X132700000Y-62190000D03*
%TO.N,Net-(J17-Pin_3)*%
X131640000Y-62090000D03*
%TO.N,/SDA3*%
X110260000Y-67930000D03*
X111603198Y-69233198D03*
%TO.N,/SCL3*%
X111660000Y-67890000D03*
%TO.N,/SDA1*%
X85620000Y-87340000D03*
X100360000Y-48290000D03*
X82151850Y-87961851D03*
%TO.N,/SCL1*%
X85210000Y-86370000D03*
X100430000Y-49420000D03*
X81950000Y-86980000D03*
%TO.N,/PLUG1*%
X118480000Y-85210000D03*
%TO.N,/RST1*%
X116124824Y-87034530D03*
%TO.N,/SDA2*%
X85530000Y-61210000D03*
%TO.N,/SCL2*%
X85595047Y-60212616D03*
%TO.N,/PLUG2*%
X109740000Y-96159041D03*
%TO.N,/RST2*%
X106210000Y-96240000D03*
%TO.N,/SCL0*%
X82640000Y-46440000D03*
%TO.N,/TXD1*%
X117884423Y-87922572D03*
%TO.N,/RXD1*%
X116885000Y-87910000D03*
%TO.N,/TXD0*%
X124500000Y-95950000D03*
%TO.N,/RXD0*%
X123410000Y-95630000D03*
%TO.N,/TXD2*%
X102370000Y-89060000D03*
%TO.N,/RXD2*%
X101290000Y-91720000D03*
X107340000Y-94924125D03*
%TO.N,/RESET*%
X80710000Y-92090000D03*
X122440000Y-98710000D03*
%TD*%
D20*
%TO.N,/TXD0*%
X124500000Y-95950000D02*
X124500000Y-96270000D01*
X117089799Y-92047500D02*
X117089799Y-91160890D01*
X124240000Y-96530000D02*
X122830000Y-96530000D01*
X124500000Y-96270000D02*
X124240000Y-96530000D01*
X122830000Y-96530000D02*
X122240000Y-95940000D01*
X113820000Y-87891091D02*
X113820000Y-81445584D01*
X75994745Y-46960000D02*
X72989745Y-43955000D01*
X122240000Y-95940000D02*
X120982299Y-95940000D01*
X71055000Y-43955000D02*
X70080000Y-42980000D01*
X120982299Y-95940000D02*
X117089799Y-92047500D01*
X117089799Y-91160890D02*
X113820000Y-87891091D01*
X113820000Y-81445584D02*
X79334416Y-46960000D01*
X79334416Y-46960000D02*
X75994745Y-46960000D01*
X72989745Y-43955000D02*
X71055000Y-43955000D01*
%TO.N,/RXD0*%
X120938695Y-95260000D02*
X117539799Y-91861104D01*
X114270000Y-87704695D02*
X114270000Y-81259188D01*
X123040000Y-95260000D02*
X120938695Y-95260000D01*
X123410000Y-95630000D02*
X123040000Y-95260000D01*
X117539799Y-91861104D02*
X117539799Y-90974494D01*
X114270000Y-81259188D02*
X79520812Y-46510000D01*
X117539799Y-90974494D02*
X114270000Y-87704695D01*
X79520812Y-46510000D02*
X76181141Y-46510000D01*
X76181141Y-46510000D02*
X73055000Y-43383859D01*
X73055000Y-43383859D02*
X73055000Y-42576141D01*
X73055000Y-42576141D02*
X72433859Y-41955000D01*
X72433859Y-41955000D02*
X71055000Y-41955000D01*
X71055000Y-41955000D02*
X70080000Y-40980000D01*
%TO.N,/FAN_ALERT*%
X123400000Y-97990000D02*
X123410000Y-97990000D01*
X123410000Y-97990000D02*
X124020000Y-97380000D01*
X124020000Y-97380000D02*
X124600000Y-97380000D01*
X127180000Y-94800000D02*
X127180000Y-92414360D01*
X124600000Y-97380000D02*
X127180000Y-94800000D01*
X127180000Y-92414360D02*
X127175500Y-92409860D01*
%TO.N,/RESET*%
X80800000Y-92000000D02*
X80710000Y-92090000D01*
X122440000Y-98710000D02*
X120620000Y-100530000D01*
X120620000Y-100530000D02*
X95540000Y-100530000D01*
X95540000Y-100530000D02*
X87010000Y-92000000D01*
X87010000Y-92000000D02*
X80800000Y-92000000D01*
%TO.N,/RST1*%
X116124824Y-87034530D02*
X116016246Y-86925952D01*
X116016246Y-86925952D02*
X116016246Y-84520000D01*
%TO.N,/SDA3*%
X160210000Y-82245000D02*
X158455000Y-84000000D01*
X158455000Y-84000000D02*
X126370000Y-84000000D01*
X126370000Y-84000000D02*
X111603198Y-69233198D01*
%TO.N,/RST1*%
X116016246Y-84520000D02*
X116016246Y-81096246D01*
X116016246Y-81096246D02*
X90505000Y-55585000D01*
X90505000Y-46015000D02*
X87510000Y-43020000D01*
X87510000Y-43020000D02*
X87510000Y-42980000D01*
X90505000Y-55585000D02*
X90505000Y-46015000D01*
%TO.N,/RST2*%
X97762347Y-90677653D02*
X97044695Y-89960000D01*
X103324695Y-96240000D02*
X97762347Y-90677653D01*
%TO.N,/PLUG2*%
X109740000Y-96159041D02*
X108530765Y-94949806D01*
X103470000Y-88310000D02*
X101250000Y-88310000D01*
X108530765Y-93370765D02*
X103470000Y-88310000D01*
X108530765Y-94949806D02*
X108530765Y-93370765D01*
%TO.N,/PLUG0*%
X122160000Y-94370000D02*
X121980000Y-94370000D01*
X120720000Y-93110000D02*
X120720000Y-91530695D01*
X114720000Y-87518299D02*
X114720000Y-81072792D01*
X120720000Y-91530695D02*
X119648454Y-90459149D01*
X119648454Y-90459149D02*
X117660850Y-90459149D01*
X121980000Y-94370000D02*
X120720000Y-93110000D01*
X117660850Y-90459149D02*
X114720000Y-87518299D01*
X76627208Y-42980000D02*
X76080000Y-42980000D01*
X114720000Y-81072792D02*
X76627208Y-42980000D01*
%TO.N,/RST0*%
X66080000Y-42980000D02*
X67055000Y-42005000D01*
X123420000Y-92850000D02*
X123420000Y-94353604D01*
X67626141Y-40005000D02*
X74483859Y-40005000D01*
X79055000Y-42576141D02*
X79055000Y-44771396D01*
X67055000Y-42005000D02*
X67055000Y-40576141D01*
X78433859Y-41955000D02*
X79055000Y-42576141D01*
X67055000Y-40576141D02*
X67626141Y-40005000D01*
X115170000Y-87331903D02*
X117847246Y-90009149D01*
X74483859Y-40005000D02*
X75055000Y-40576141D01*
X79055000Y-44771396D02*
X115170000Y-80886396D01*
X75055000Y-40576141D02*
X75055000Y-41333859D01*
X117847246Y-90009149D02*
X120579149Y-90009149D01*
X75055000Y-41333859D02*
X75676141Y-41955000D01*
X75676141Y-41955000D02*
X78433859Y-41955000D01*
X115170000Y-80886396D02*
X115170000Y-87331903D01*
X120579149Y-90009149D02*
X123420000Y-92850000D01*
X123420000Y-94353604D02*
X123476396Y-94410000D01*
D21*
%TO.N,/5V*%
X113454000Y-123936000D02*
X113219000Y-123701000D01*
X107567600Y-123701000D02*
X107543800Y-123724800D01*
X113219000Y-123701000D02*
X107567600Y-123701000D01*
D20*
%TO.N,VCORE*%
X116906740Y-104176740D02*
X117862354Y-104176740D01*
X110810000Y-102190000D02*
X114920000Y-102190000D01*
X114920000Y-102190000D02*
X116906740Y-104176740D01*
%TO.N,/SDA*%
X85810000Y-96950000D02*
X85810000Y-97170000D01*
X121080000Y-101480000D02*
X121980000Y-101480000D01*
X120580000Y-100980000D02*
X121080000Y-101480000D01*
X85810000Y-97170000D02*
X90286000Y-101646000D01*
X95580000Y-100980000D02*
X120580000Y-100980000D01*
X90286000Y-101646000D02*
X94914000Y-101646000D01*
X94914000Y-101646000D02*
X95580000Y-100980000D01*
%TO.N,/SCL*%
X95766396Y-101430000D02*
X95100396Y-102096000D01*
X120000000Y-101430000D02*
X95766396Y-101430000D01*
X121048636Y-102478636D02*
X120000000Y-101430000D01*
X95100396Y-102096000D02*
X89711402Y-102096000D01*
X122021610Y-102478636D02*
X121048636Y-102478636D01*
X89711402Y-102096000D02*
X85752701Y-98137299D01*
%TO.N,Net-(U1-EEDATA)*%
X104060000Y-98780000D02*
X95870000Y-98780000D01*
X95870000Y-98780000D02*
X92150000Y-95060000D01*
%TO.N,Net-(J14-Pin_4)*%
X130145000Y-69325000D02*
X134101396Y-69325000D01*
X140830000Y-48920000D02*
X141880000Y-48920000D01*
X137835000Y-53995750D02*
X139960000Y-51870750D01*
X139960000Y-51870750D02*
X139960000Y-49790000D01*
X134101396Y-69325000D02*
X137835000Y-65591396D01*
X139960000Y-49790000D02*
X140830000Y-48920000D01*
X137835000Y-65591396D02*
X137835000Y-53995750D01*
X129950000Y-69130000D02*
X130145000Y-69325000D01*
%TO.N,Net-(J14-Pin_3)*%
X141880000Y-54420000D02*
X141880000Y-52490750D01*
X141880000Y-52490750D02*
X142500000Y-51870750D01*
X134310000Y-70450000D02*
X141880000Y-62880000D01*
X141880000Y-62880000D02*
X141880000Y-54420000D01*
X131200000Y-70450000D02*
X134310000Y-70450000D01*
%TO.N,Net-(J15-Pin_4)*%
X132398317Y-67141683D02*
X134915286Y-67141683D01*
X131490000Y-68600000D02*
X131490000Y-68050000D01*
X128910000Y-51820750D02*
X128910000Y-50790000D01*
X134915286Y-67141683D02*
X135470000Y-66586969D01*
X135470000Y-63900000D02*
X127550000Y-55980000D01*
X135470000Y-66586969D02*
X135470000Y-63900000D01*
X131490000Y-68050000D02*
X132398317Y-67141683D01*
X128910000Y-50790000D02*
X130860000Y-48840000D01*
X127550000Y-55980000D02*
X127550000Y-53180750D01*
X127550000Y-53180750D02*
X128910000Y-51820750D01*
%TO.N,Net-(J15-Pin_3)*%
X130860000Y-55250000D02*
X130860000Y-54340000D01*
X134410000Y-68380000D02*
X136260000Y-66530000D01*
X136260000Y-66530000D02*
X136260000Y-60650000D01*
X130860000Y-52410750D02*
X131450000Y-51820750D01*
X130860000Y-54340000D02*
X130860000Y-52410750D01*
X136260000Y-60650000D02*
X130860000Y-55250000D01*
X132580000Y-68380000D02*
X134410000Y-68380000D01*
%TO.N,Net-(J16-Pin_4)*%
X134614981Y-66416683D02*
X132188622Y-66416683D01*
X132180305Y-66425000D02*
X131579695Y-66425000D01*
X114270000Y-66900000D02*
X106780000Y-59410000D01*
X106780000Y-59410000D02*
X106780000Y-51830750D01*
X130683317Y-66416683D02*
X130200000Y-66900000D01*
X130200000Y-66900000D02*
X114270000Y-66900000D01*
X132188622Y-66416683D02*
X132180305Y-66425000D01*
X131579695Y-66425000D02*
X131571378Y-66416683D01*
X131571378Y-66416683D02*
X130683317Y-66416683D01*
%TO.N,Net-(J16-Pin_3)*%
X110270000Y-61400000D02*
X110270000Y-52780750D01*
X132740000Y-63470000D02*
X112340000Y-63470000D01*
X134690000Y-65420000D02*
X132740000Y-63470000D01*
X110270000Y-52780750D02*
X109320000Y-51830750D01*
X112340000Y-63470000D02*
X110270000Y-61400000D01*
%TO.N,Net-(J17-Pin_4)*%
X117890000Y-57310000D02*
X117890000Y-51830750D01*
X132075000Y-62815000D02*
X123395000Y-62815000D01*
X123395000Y-62815000D02*
X117890000Y-57310000D01*
X132700000Y-62190000D02*
X132075000Y-62815000D01*
%TO.N,Net-(J17-Pin_3)*%
X121530000Y-52930750D02*
X120430000Y-51830750D01*
X131610000Y-62060000D02*
X125680000Y-62060000D01*
X131640000Y-62090000D02*
X131610000Y-62060000D01*
X121530000Y-57910000D02*
X121530000Y-52930750D01*
X125680000Y-62060000D02*
X121530000Y-57910000D01*
%TO.N,/SDA3*%
X110300000Y-67930000D02*
X111603198Y-69233198D01*
X110260000Y-67930000D02*
X110300000Y-67930000D01*
%TO.N,/SCL3*%
X126306396Y-83300000D02*
X112328198Y-69321802D01*
X157155000Y-83300000D02*
X126306396Y-83300000D01*
X112328198Y-69321802D02*
X112328198Y-68538198D01*
X158210000Y-82245000D02*
X157155000Y-83300000D01*
X111680000Y-67890000D02*
X111660000Y-67890000D01*
X112328198Y-68538198D02*
X111680000Y-67890000D01*
%TO.N,/SDA1*%
X82151850Y-87961851D02*
X84998149Y-87961851D01*
X84998149Y-87961851D02*
X85620000Y-87340000D01*
X99510000Y-47440000D02*
X99510000Y-42980000D01*
X100360000Y-48290000D02*
X99510000Y-47440000D01*
%TO.N,/SCL1*%
X98485000Y-47475000D02*
X98485000Y-42005000D01*
X98485000Y-42005000D02*
X99510000Y-40980000D01*
X82560000Y-86370000D02*
X85210000Y-86370000D01*
X100430000Y-49420000D02*
X98485000Y-47475000D01*
X81950000Y-86980000D02*
X82560000Y-86370000D01*
%TO.N,/PLUG1*%
X118440000Y-85170000D02*
X118440000Y-81503604D01*
X97510000Y-60573604D02*
X97510000Y-42980000D01*
X118480000Y-85210000D02*
X118440000Y-85170000D01*
X118440000Y-81503604D02*
X97510000Y-60573604D01*
%TO.N,/SDA2*%
X85530000Y-61210000D02*
X82280000Y-61210000D01*
X82280000Y-61210000D02*
X78080000Y-57010000D01*
%TO.N,/SCL2*%
X85595047Y-60212616D02*
X84661475Y-60212616D01*
X84661475Y-60212616D02*
X80433859Y-55985000D01*
X80433859Y-55985000D02*
X79055000Y-55985000D01*
X79055000Y-55985000D02*
X78080000Y-55010000D01*
%TO.N,/PLUG2*%
X75883198Y-69646802D02*
X75883198Y-57206802D01*
X101250000Y-88310000D02*
X101000000Y-88310000D01*
X100700000Y-88610000D02*
X94846396Y-88610000D01*
X75883198Y-57206802D02*
X76080000Y-57010000D01*
X94846396Y-88610000D02*
X75883198Y-69646802D01*
X101000000Y-88310000D02*
X100700000Y-88610000D01*
%TO.N,/RST2*%
X106210000Y-96240000D02*
X103324695Y-96240000D01*
X97044695Y-89960000D02*
X94250000Y-89960000D01*
X66080000Y-61790000D02*
X66080000Y-57010000D01*
X94250000Y-89960000D02*
X66080000Y-61790000D01*
%TO.N,/SCL0*%
X79107627Y-41992372D02*
X78095255Y-40980000D01*
X78095255Y-40980000D02*
X78080000Y-40980000D01*
X80471231Y-41992372D02*
X79107627Y-41992372D01*
X82640000Y-44161141D02*
X80471231Y-41992372D01*
X82640000Y-46440000D02*
X82640000Y-44161141D01*
%TO.N,/TXD1*%
X117540000Y-87578149D02*
X117540000Y-81240000D01*
X117884423Y-87922572D02*
X117540000Y-87578149D01*
X91510000Y-55210000D02*
X91510000Y-42980000D01*
X117540000Y-81240000D02*
X91510000Y-55210000D01*
%TO.N,/RXD1*%
X90535000Y-41955000D02*
X91510000Y-40980000D01*
X90955000Y-44285000D02*
X90535000Y-43865000D01*
X90535000Y-43865000D02*
X90535000Y-41955000D01*
X90955000Y-55398604D02*
X90955000Y-44285000D01*
X116885000Y-81328604D02*
X90955000Y-55398604D01*
X116885000Y-87910000D02*
X116885000Y-81328604D01*
%TO.N,/TXD2*%
X102370000Y-89060000D02*
X94660000Y-89060000D01*
X94660000Y-89060000D02*
X70080000Y-64480000D01*
X70080000Y-64480000D02*
X70080000Y-57010000D01*
%TO.N,/RXD2*%
X69105000Y-55985000D02*
X70080000Y-55010000D01*
X99080000Y-89510000D02*
X94473604Y-89510000D01*
X104494125Y-94924125D02*
X101290000Y-91720000D01*
X107340000Y-94924125D02*
X104494125Y-94924125D01*
X94473604Y-89510000D02*
X69105000Y-64141396D01*
X69105000Y-64141396D02*
X69105000Y-55985000D01*
X101290000Y-91720000D02*
X99080000Y-89510000D01*
%TD*%
%TA.AperFunction,Conductor*%
%TO.N,GND*%
G36*
X61107926Y-55652707D02*
G01*
X61151117Y-55707628D01*
X61160000Y-55753715D01*
X61160000Y-128986322D01*
X61140315Y-129053361D01*
X61087511Y-129099116D01*
X61018353Y-129109060D01*
X60973995Y-129093706D01*
X60952154Y-129081095D01*
X60952151Y-129081093D01*
X60825542Y-129047149D01*
X60760009Y-129045000D01*
X60760000Y-129045000D01*
X58761830Y-129045000D01*
X58758172Y-129044946D01*
X58753744Y-129044815D01*
X58708875Y-129043490D01*
X58680459Y-129039323D01*
X58583517Y-129013362D01*
X58553601Y-129000974D01*
X58468304Y-128951735D01*
X58442616Y-128932025D01*
X58372974Y-128862383D01*
X58353264Y-128836695D01*
X58304023Y-128751394D01*
X58291638Y-128721486D01*
X58265675Y-128624538D01*
X58261509Y-128596122D01*
X58260054Y-128546829D01*
X58260000Y-128543170D01*
X58260000Y-56197021D01*
X58260066Y-56192978D01*
X58261673Y-56143720D01*
X58265831Y-56115675D01*
X58291843Y-56018594D01*
X58304226Y-55988701D01*
X58353452Y-55903437D01*
X58373151Y-55877766D01*
X58442766Y-55808151D01*
X58468437Y-55788452D01*
X58553701Y-55739226D01*
X58583594Y-55726843D01*
X58680675Y-55700831D01*
X58708715Y-55696673D01*
X58753582Y-55695209D01*
X58757979Y-55695066D01*
X58762022Y-55695000D01*
X60760000Y-55695000D01*
X60825545Y-55692861D01*
X60952167Y-55658933D01*
X60973999Y-55646327D01*
X61041899Y-55629855D01*
X61107926Y-55652707D01*
G37*
%TD.AperFunction*%
%TA.AperFunction,Conductor*%
G36*
X61103039Y-34264685D02*
G01*
X61148794Y-34317489D01*
X61160000Y-34369000D01*
X61160000Y-50436322D01*
X61140315Y-50503361D01*
X61087511Y-50549116D01*
X61018353Y-50559060D01*
X60973995Y-50543706D01*
X60952154Y-50531095D01*
X60952151Y-50531093D01*
X60825542Y-50497149D01*
X60760009Y-50495000D01*
X60760000Y-50495000D01*
X58761830Y-50495000D01*
X58758172Y-50494946D01*
X58753744Y-50494815D01*
X58708875Y-50493490D01*
X58680459Y-50489323D01*
X58583517Y-50463362D01*
X58553601Y-50450974D01*
X58468304Y-50401735D01*
X58442616Y-50382025D01*
X58372974Y-50312383D01*
X58353264Y-50286695D01*
X58304023Y-50201394D01*
X58291638Y-50171486D01*
X58265675Y-50074538D01*
X58261509Y-50046122D01*
X58260054Y-49996829D01*
X58260000Y-49993170D01*
X58260000Y-34747021D01*
X58260066Y-34742978D01*
X58261673Y-34693720D01*
X58265831Y-34665675D01*
X58291843Y-34568594D01*
X58304226Y-34538701D01*
X58353452Y-34453437D01*
X58373151Y-34427766D01*
X58442766Y-34358151D01*
X58468437Y-34338452D01*
X58553701Y-34289226D01*
X58583594Y-34276843D01*
X58680675Y-34250831D01*
X58708715Y-34246673D01*
X58753582Y-34245209D01*
X58757979Y-34245066D01*
X58762022Y-34245000D01*
X61036000Y-34245000D01*
X61103039Y-34264685D01*
G37*
%TD.AperFunction*%
%TD*%
%TA.AperFunction,Conductor*%
%TO.N,GND*%
G36*
X165417486Y-55557371D02*
G01*
X165424176Y-55563586D01*
X165454160Y-55593570D01*
X165567742Y-55659137D01*
X165567743Y-55659137D01*
X165567744Y-55659138D01*
X165694426Y-55693064D01*
X165760000Y-55695000D01*
X167757977Y-55695000D01*
X167762042Y-55695067D01*
X167811279Y-55696682D01*
X167839316Y-55700843D01*
X167936394Y-55726869D01*
X167966278Y-55739251D01*
X168051539Y-55788484D01*
X168077209Y-55808184D01*
X168146815Y-55877790D01*
X168166516Y-55903462D01*
X168215746Y-55988717D01*
X168228133Y-56018613D01*
X168254155Y-56115677D01*
X168258317Y-56143718D01*
X168259933Y-56192954D01*
X168260000Y-56197022D01*
X168260000Y-128542978D01*
X168259934Y-128547024D01*
X168258326Y-128596282D01*
X168254167Y-128624329D01*
X168228158Y-128721398D01*
X168215770Y-128751305D01*
X168166550Y-128836556D01*
X168146844Y-128862237D01*
X168077237Y-128931844D01*
X168051556Y-128951550D01*
X167966305Y-129000770D01*
X167936398Y-129013158D01*
X167839329Y-129039167D01*
X167811282Y-129043326D01*
X167766973Y-129044772D01*
X167762020Y-129044934D01*
X167757978Y-129045000D01*
X165760000Y-129045000D01*
X165694455Y-129047139D01*
X165567828Y-129081068D01*
X165567825Y-129081069D01*
X165563684Y-129083461D01*
X165495784Y-129099931D01*
X165429758Y-129077077D01*
X165386569Y-129022154D01*
X165377688Y-128976351D01*
X165213724Y-56197022D01*
X165212495Y-55651544D01*
X165232029Y-55584463D01*
X165284730Y-55538589D01*
X165353865Y-55528490D01*
X165417486Y-55557371D01*
G37*
%TD.AperFunction*%
%TA.AperFunction,Conductor*%
G36*
X167762042Y-34245067D02*
G01*
X167811279Y-34246682D01*
X167839316Y-34250843D01*
X167936394Y-34276869D01*
X167966278Y-34289251D01*
X168051539Y-34338484D01*
X168077209Y-34358184D01*
X168146815Y-34427790D01*
X168166516Y-34453462D01*
X168215746Y-34538717D01*
X168228133Y-34568613D01*
X168254155Y-34665677D01*
X168258317Y-34693718D01*
X168259933Y-34742954D01*
X168260000Y-34747022D01*
X168260000Y-49992978D01*
X168259934Y-49997024D01*
X168258326Y-50046282D01*
X168254167Y-50074329D01*
X168228158Y-50171398D01*
X168215770Y-50201305D01*
X168166550Y-50286556D01*
X168146844Y-50312237D01*
X168077237Y-50381844D01*
X168051556Y-50401550D01*
X167966305Y-50450770D01*
X167936398Y-50463158D01*
X167839329Y-50489167D01*
X167811282Y-50493326D01*
X167766973Y-50494772D01*
X167762020Y-50494934D01*
X167757978Y-50495000D01*
X165760000Y-50495000D01*
X165694455Y-50497139D01*
X165567833Y-50531067D01*
X165567831Y-50531067D01*
X165567831Y-50531068D01*
X165454306Y-50596612D01*
X165454302Y-50596615D01*
X165412684Y-50638233D01*
X165351361Y-50671717D01*
X165281669Y-50666732D01*
X165225736Y-50624860D01*
X165201320Y-50559396D01*
X165201004Y-50550830D01*
X165200959Y-50531068D01*
X165164549Y-34369279D01*
X165184083Y-34302196D01*
X165236784Y-34256322D01*
X165288549Y-34245000D01*
X167757977Y-34245000D01*
X167762042Y-34245067D01*
G37*
%TD.AperFunction*%
%TD*%
M02*
