%TF.GenerationSoftware,KiCad,Pcbnew,7.0.6-0*%
%TF.CreationDate,2023-11-06T17:07:03-05:00*%
%TF.ProjectId,bitcrane,62697463-7261-46e6-952e-6b696361645f,rev?*%
%TF.SameCoordinates,Original*%
%TF.FileFunction,Copper,L4,Bot*%
%TF.FilePolarity,Positive*%
%FSLAX46Y46*%
G04 Gerber Fmt 4.6, Leading zero omitted, Abs format (unit mm)*
G04 Created by KiCad (PCBNEW 7.0.6-0) date 2023-11-06 17:07:03*
%MOMM*%
%LPD*%
G01*
G04 APERTURE LIST*
%TA.AperFunction,ComponentPad*%
%ADD10C,1.549400*%
%TD*%
%TA.AperFunction,ComponentPad*%
%ADD11C,2.300000*%
%TD*%
%TA.AperFunction,ComponentPad*%
%ADD12R,1.500000X1.700000*%
%TD*%
%TA.AperFunction,ComponentPad*%
%ADD13C,1.500000*%
%TD*%
%TA.AperFunction,ComponentPad*%
%ADD14C,2.775000*%
%TD*%
%TA.AperFunction,ComponentPad*%
%ADD15O,1.000000X2.100000*%
%TD*%
%TA.AperFunction,ComponentPad*%
%ADD16O,1.000000X1.800000*%
%TD*%
%TA.AperFunction,ComponentPad*%
%ADD17R,1.400000X1.400000*%
%TD*%
%TA.AperFunction,ComponentPad*%
%ADD18C,1.400000*%
%TD*%
%TA.AperFunction,ViaPad*%
%ADD19C,0.800000*%
%TD*%
%TA.AperFunction,Conductor*%
%ADD20C,0.250000*%
%TD*%
%TA.AperFunction,Conductor*%
%ADD21C,0.500000*%
%TD*%
G04 APERTURE END LIST*
D10*
%TO.P,J5,1,Pin_1*%
%TO.N,GND*%
X124930000Y-52510750D03*
%TO.P,J5,2,Pin_2*%
%TO.N,/12V*%
X122390000Y-52510750D03*
%TO.P,J5,3,Pin_3*%
%TO.N,Net-(J5-Pin_3)*%
X119850000Y-52510750D03*
%TO.P,J5,4,Pin_4*%
%TO.N,Net-(J5-Pin_4)*%
X117310000Y-52510750D03*
%TD*%
%TO.P,J4,1,Pin_1*%
%TO.N,GND*%
X137640000Y-52500750D03*
%TO.P,J4,2,Pin_2*%
%TO.N,/12V*%
X135100000Y-52500750D03*
%TO.P,J4,3,Pin_3*%
%TO.N,Net-(J4-Pin_3)*%
X132560000Y-52500750D03*
%TO.P,J4,4,Pin_4*%
%TO.N,Net-(J4-Pin_4)*%
X130020000Y-52500750D03*
%TD*%
D11*
%TO.P,J7,1,Pin_1*%
%TO.N,GND*%
X136140000Y-49550000D03*
%TO.P,J7,2,Pin_2*%
%TO.N,/12V*%
X136140000Y-55050000D03*
%TO.P,J7,3,Pin_3*%
%TO.N,Net-(J4-Pin_3)*%
X131940000Y-55050000D03*
%TO.P,J7,4,Pin_4*%
%TO.N,Net-(J4-Pin_4)*%
X131940000Y-49550000D03*
%TD*%
%TO.P,J8,1,Pin_1*%
%TO.N,GND*%
X123460000Y-49530000D03*
%TO.P,J8,2,Pin_2*%
%TO.N,/12V*%
X123460000Y-55030000D03*
%TO.P,J8,3,Pin_3*%
%TO.N,Net-(J5-Pin_3)*%
X119260000Y-55030000D03*
%TO.P,J8,4,Pin_4*%
%TO.N,Net-(J5-Pin_4)*%
X119260000Y-49530000D03*
%TD*%
D12*
%TO.P,J2,1,Pin_1*%
%TO.N,GND*%
X86700000Y-47630000D03*
D13*
%TO.P,J2,2,Pin_2*%
X86700000Y-45630000D03*
%TO.P,J2,3,Pin_3*%
%TO.N,/SDA*%
X84700000Y-47630000D03*
%TO.P,J2,4,Pin_4*%
%TO.N,/SCL*%
X84700000Y-45630000D03*
%TO.P,J2,5,Pin_5*%
%TO.N,/PLUG*%
X82700000Y-47630000D03*
%TO.P,J2,6,Pin_6*%
%TO.N,/A2*%
X82700000Y-45630000D03*
%TO.P,J2,7,Pin_7*%
%TO.N,/A1*%
X80700000Y-47630000D03*
%TO.P,J2,8,Pin_8*%
%TO.N,/A0*%
X80700000Y-45630000D03*
%TO.P,J2,9,Pin_9*%
%TO.N,GND*%
X78700000Y-47630000D03*
%TO.P,J2,10,Pin_10*%
X78700000Y-45630000D03*
%TO.P,J2,11,Pin_11*%
%TO.N,/TXD*%
X76700000Y-47630000D03*
%TO.P,J2,12,Pin_12*%
%TO.N,/RXD*%
X76700000Y-45630000D03*
%TO.P,J2,13,Pin_13*%
%TO.N,GND*%
X74700000Y-47630000D03*
%TO.P,J2,14,Pin_14*%
X74700000Y-45630000D03*
%TO.P,J2,15,Pin_15*%
%TO.N,/RST*%
X72700000Y-47630000D03*
%TO.P,J2,16,Pin_16*%
%TO.N,VCCIO*%
X72700000Y-45630000D03*
%TO.P,J2,17,Pin_17*%
%TO.N,unconnected-(J2-Pin_17-Pad17)*%
X70700000Y-47630000D03*
%TO.P,J2,18,Pin_18*%
%TO.N,unconnected-(J2-Pin_18-Pad18)*%
X70700000Y-45630000D03*
%TD*%
D14*
%TO.P,J3,1,1*%
%TO.N,Net-(Q1-D)*%
X150150000Y-50620000D03*
%TO.P,J3,2,2*%
X154350000Y-50620000D03*
%TO.P,J3,3,3*%
X158550000Y-50620000D03*
%TO.P,J3,4,4*%
%TO.N,GND*%
X150150000Y-54820000D03*
%TO.P,J3,5,5*%
X154350000Y-54820000D03*
%TO.P,J3,6,6*%
X158550000Y-54820000D03*
%TD*%
D15*
%TO.P,J6,S1,SHIELD*%
%TO.N,GND*%
X106780000Y-127730000D03*
D16*
X106780000Y-131910000D03*
D15*
X115420000Y-127730000D03*
D16*
X115420000Y-131910000D03*
%TD*%
D10*
%TO.P,J9,1,Pin_1*%
%TO.N,GND*%
X102040000Y-52540750D03*
%TO.P,J9,2,Pin_2*%
%TO.N,/12V*%
X99500000Y-52540750D03*
%TO.P,J9,3,Pin_3*%
%TO.N,Net-(J9-Pin_3)*%
X96960000Y-52540750D03*
%TO.P,J9,4,Pin_4*%
%TO.N,Net-(J9-Pin_4)*%
X94420000Y-52540750D03*
%TD*%
%TO.P,J10,1,Pin_1*%
%TO.N,GND*%
X113150000Y-52540750D03*
%TO.P,J10,2,Pin_2*%
%TO.N,/12V*%
X110610000Y-52540750D03*
%TO.P,J10,3,Pin_3*%
%TO.N,Net-(J10-Pin_3)*%
X108070000Y-52540750D03*
%TO.P,J10,4,Pin_4*%
%TO.N,Net-(J10-Pin_4)*%
X105530000Y-52540750D03*
%TD*%
D17*
%TO.P,J1,1,Pin_1*%
%TO.N,unconnected-(J1-Pin_1-Pad1)*%
X158930000Y-62590000D03*
D18*
%TO.P,J1,2,Pin_2*%
%TO.N,GND*%
X158930000Y-64590000D03*
%TO.P,J1,3,Pin_3*%
%TO.N,/PSU_SDA*%
X158930000Y-66590000D03*
%TO.P,J1,4,Pin_4*%
%TO.N,unconnected-(J1-Pin_4-Pad4)*%
X156930000Y-62590000D03*
%TO.P,J1,5,Pin_5*%
%TO.N,/PSU_EN*%
X156930000Y-64590000D03*
%TO.P,J1,6,Pin_6*%
%TO.N,/PSU_SCL*%
X156930000Y-66590000D03*
%TD*%
D19*
%TO.N,GND*%
X107520000Y-90790000D03*
%TO.N,/5V*%
X113454000Y-123936000D03*
X107543800Y-123724800D03*
%TO.N,VCORE*%
X117440000Y-104600000D03*
X110566000Y-101346000D03*
X110547000Y-92259000D03*
X118264799Y-91560799D03*
%TO.N,VCCIO*%
X109388000Y-93934000D03*
X108750000Y-112800000D03*
X91007000Y-98936000D03*
X124283000Y-99453000D03*
X98299000Y-94013000D03*
X95138000Y-94047000D03*
X125613000Y-90946000D03*
X103610000Y-54930000D03*
X119390000Y-105480000D03*
X101208000Y-94002000D03*
X94980000Y-55080000D03*
X116380000Y-66230000D03*
X117840000Y-57460000D03*
X91064000Y-100921000D03*
X122090000Y-112720000D03*
X109456000Y-96925000D03*
X97299000Y-123741000D03*
X129220000Y-57490000D03*
X115854000Y-90836000D03*
%TO.N,GND*%
X117820000Y-107650000D03*
X59820000Y-82940904D03*
X166670000Y-101257274D03*
X59820000Y-122543623D03*
X166670000Y-104303637D03*
X122497000Y-97361000D03*
X59820000Y-67709089D03*
X97215000Y-125145000D03*
X166670000Y-82979096D03*
X59710000Y-48120000D03*
X117420000Y-98410000D03*
X59820000Y-119497260D03*
X59820000Y-116450897D03*
X105350000Y-117180000D03*
X166670000Y-76886370D03*
X166670000Y-98210911D03*
X166670000Y-67747281D03*
X107490000Y-95148000D03*
X117430000Y-95900000D03*
X111987000Y-106740000D03*
X59820000Y-58570000D03*
X107460000Y-101417000D03*
X119120000Y-65260000D03*
X166770000Y-42860000D03*
X166670000Y-116489089D03*
X59820000Y-73801815D03*
X59820000Y-110358171D03*
X166670000Y-58608192D03*
X166670000Y-86025459D03*
X104500000Y-125990000D03*
X166670000Y-79932733D03*
X133240000Y-65360000D03*
X89750000Y-99920000D03*
X117415000Y-88719000D03*
X126320000Y-117340000D03*
X117160500Y-103190000D03*
X121310000Y-113980000D03*
X91125000Y-97515000D03*
X59820000Y-76848178D03*
X166670000Y-122581815D03*
X59820000Y-113404534D03*
X166670000Y-113442726D03*
X59820000Y-85987267D03*
X105218000Y-110803000D03*
X166670000Y-107350000D03*
X112632797Y-66229500D03*
X59710000Y-39015000D03*
X119700000Y-91536000D03*
X59820000Y-125590000D03*
X166670000Y-70793644D03*
X59820000Y-98172719D03*
X126225000Y-98375000D03*
X114160500Y-103302000D03*
X108980000Y-95215500D03*
X114505000Y-106593000D03*
X59820000Y-79894541D03*
X120178000Y-103983000D03*
X166670000Y-125628192D03*
X166770000Y-39825000D03*
X59820000Y-101219082D03*
X59820000Y-64662726D03*
X59820000Y-104265445D03*
X114820000Y-95860000D03*
X166670000Y-110396363D03*
X59710000Y-42050000D03*
X109970000Y-114030000D03*
X166770000Y-36790000D03*
X111210000Y-102483000D03*
X145970000Y-64830000D03*
X166770000Y-45895000D03*
X166670000Y-95164548D03*
X59820000Y-89033630D03*
X116135000Y-97170000D03*
X59820000Y-107311808D03*
X166670000Y-64700918D03*
X140340000Y-66040000D03*
X114740000Y-98510000D03*
X113040000Y-91493000D03*
X166770000Y-48930000D03*
X59820000Y-61616363D03*
X120280000Y-66390000D03*
X59820000Y-95126356D03*
X59710000Y-35980000D03*
X166670000Y-61654555D03*
X166670000Y-73840007D03*
X103872000Y-122806000D03*
X59820000Y-92079993D03*
X59710000Y-45085000D03*
X166670000Y-119535452D03*
X166670000Y-92118185D03*
X166670000Y-89071822D03*
X59820000Y-70755452D03*
X107460000Y-98055000D03*
%TO.N,/SDA*%
X122336000Y-95896000D03*
%TO.N,/SCL*%
X123450000Y-96462000D03*
%TO.N,/PLUG*%
X123256500Y-91992997D03*
%TO.N,/TXD*%
X121494000Y-103165000D03*
%TO.N,/RXD*%
X122670000Y-104540000D03*
%TO.N,/RST*%
X121719500Y-91647497D03*
%TO.N,/PSU_SDA*%
X132972000Y-78970000D03*
%TO.N,Net-(J4-Pin_3)*%
X119600000Y-71140000D03*
%TO.N,Net-(J4-Pin_4)*%
X118440500Y-69920000D03*
%TO.N,Net-(J5-Pin_3)*%
X120980000Y-69070000D03*
%TO.N,Net-(J5-Pin_4)*%
X119890000Y-69290000D03*
%TO.N,Net-(J9-Pin_3)*%
X123090000Y-66110000D03*
%TO.N,Net-(J9-Pin_4)*%
X123014981Y-67106683D03*
%TO.N,Net-(J10-Pin_3)*%
X120040000Y-62780000D03*
%TO.N,Net-(J10-Pin_4)*%
X121100000Y-62880000D03*
%TO.N,/FAN_ALERT*%
X110480000Y-89190000D03*
X110460000Y-96000000D03*
%TD*%
D20*
%TO.N,/TXD*%
X121494000Y-103165000D02*
X121509000Y-103150000D01*
X121509000Y-93094000D02*
X122444000Y-92159000D01*
X122444000Y-92159000D02*
X122444000Y-91334396D01*
X122444000Y-91334396D02*
X83273302Y-52163698D01*
X121509000Y-103150000D02*
X121509000Y-93094000D01*
X83273302Y-52163698D02*
X81233698Y-52163698D01*
X81233698Y-52163698D02*
X76700000Y-47630000D01*
%TO.N,/RXD*%
X122670000Y-104540000D02*
X121750000Y-104540000D01*
X75154000Y-42195000D02*
X76700000Y-43741000D01*
X68781000Y-42195000D02*
X75154000Y-42195000D01*
X121750000Y-104540000D02*
X120769000Y-103559000D01*
X85700812Y-55864000D02*
X73688000Y-55864000D01*
X120769000Y-103559000D02*
X120769000Y-102864695D01*
X120940000Y-102693695D02*
X120940000Y-91103188D01*
X120940000Y-91103188D02*
X85700812Y-55864000D01*
X120769000Y-102864695D02*
X120940000Y-102693695D01*
X68033000Y-50209000D02*
X68033000Y-42943000D01*
X73688000Y-55864000D02*
X68033000Y-50209000D01*
X68033000Y-42943000D02*
X68781000Y-42195000D01*
X76700000Y-43741000D02*
X76700000Y-45630000D01*
%TO.N,VCORE*%
X117440000Y-104600000D02*
X117330000Y-104600000D01*
X114076000Y-101346000D02*
X110566000Y-101346000D01*
X117330000Y-104600000D02*
X114076000Y-101346000D01*
%TO.N,Net-(J5-Pin_3)*%
X119260000Y-55030000D02*
X119260000Y-53100750D01*
X119260000Y-53100750D02*
X119850000Y-52510750D01*
X120980000Y-69070000D02*
X122810000Y-69070000D01*
X122810000Y-69070000D02*
X124660000Y-67220000D01*
X119260000Y-55940000D02*
X119260000Y-55030000D01*
X124660000Y-67220000D02*
X124660000Y-61340000D01*
X124660000Y-61340000D02*
X119260000Y-55940000D01*
%TO.N,Net-(J5-Pin_4)*%
X119890000Y-69290000D02*
X119890000Y-68740000D01*
X117310000Y-52510750D02*
X117310000Y-51480000D01*
X117310000Y-51480000D02*
X119260000Y-49530000D01*
X119890000Y-68740000D02*
X120798317Y-67831683D01*
X120798317Y-67831683D02*
X123315286Y-67831683D01*
X123870000Y-67276969D02*
X123870000Y-64590000D01*
X117115000Y-52705750D02*
X117310000Y-52510750D01*
X123315286Y-67831683D02*
X123870000Y-67276969D01*
X123870000Y-64590000D02*
X117115000Y-57835000D01*
X117115000Y-57835000D02*
X117115000Y-52705750D01*
%TO.N,Net-(J10-Pin_3)*%
X120040000Y-62780000D02*
X120010000Y-62750000D01*
X120010000Y-62750000D02*
X118279250Y-62750000D01*
X118279250Y-62750000D02*
X108070000Y-52540750D01*
%TO.N,Net-(J10-Pin_4)*%
X118884250Y-63505000D02*
X118859250Y-63480000D01*
X118859250Y-63480000D02*
X116469250Y-63480000D01*
X116469250Y-63480000D02*
X105530000Y-52540750D01*
%TO.N,Net-(J9-Pin_4)*%
X123014981Y-67106683D02*
X120886921Y-67106683D01*
X120886921Y-67106683D02*
X119923604Y-68070000D01*
X119923604Y-68070000D02*
X109780000Y-68070000D01*
X94420000Y-52710000D02*
X94420000Y-52540750D01*
X109780000Y-68070000D02*
X94420000Y-52710000D01*
%TO.N,Net-(J9-Pin_3)*%
X123090000Y-66110000D02*
X120910000Y-63930000D01*
X120910000Y-63930000D02*
X120686396Y-63930000D01*
X120686396Y-63930000D02*
X120661396Y-63955000D01*
X108349250Y-63930000D02*
X96960000Y-52540750D01*
X118697854Y-63955000D02*
X118672854Y-63930000D01*
X120661396Y-63955000D02*
X118697854Y-63955000D01*
X118672854Y-63930000D02*
X108349250Y-63930000D01*
D21*
%TO.N,/5V*%
X113454000Y-123936000D02*
X113219000Y-123701000D01*
X107567600Y-123701000D02*
X107543800Y-123724800D01*
X113219000Y-123701000D02*
X107567600Y-123701000D01*
D20*
%TO.N,VCORE*%
X110938000Y-92650000D02*
X117175598Y-92650000D01*
X110566000Y-101346000D02*
X111438000Y-100474000D01*
X111438000Y-93150000D02*
X110547000Y-92259000D01*
X111438000Y-100474000D02*
X111438000Y-93150000D01*
X110547000Y-92259000D02*
X110938000Y-92650000D01*
X117175598Y-92650000D02*
X118264799Y-91560799D01*
%TO.N,/SDA*%
X84700000Y-52294396D02*
X123981000Y-91575396D01*
X123981000Y-91575396D02*
X123981000Y-94251000D01*
X84700000Y-47630000D02*
X84700000Y-52294396D01*
X123981000Y-94251000D02*
X122336000Y-95896000D01*
%TO.N,/SCL*%
X124431000Y-91389000D02*
X124431000Y-95481000D01*
X84700000Y-44325000D02*
X86301000Y-42724000D01*
X124431000Y-95481000D02*
X123450000Y-96462000D01*
X88928000Y-42724000D02*
X90426000Y-44222000D01*
X90426000Y-44222000D02*
X90426000Y-57384000D01*
X86301000Y-42724000D02*
X88928000Y-42724000D01*
X84700000Y-45630000D02*
X84700000Y-44325000D01*
X90426000Y-57384000D02*
X124431000Y-91389000D01*
%TO.N,/PLUG*%
X81625000Y-49879000D02*
X81625000Y-48705000D01*
X81625000Y-48705000D02*
X82700000Y-47630000D01*
X123256500Y-91992997D02*
X123256500Y-91510500D01*
X123256500Y-91510500D02*
X81625000Y-49879000D01*
%TO.N,/RST*%
X85887208Y-55414000D02*
X121719500Y-91246292D01*
X72700000Y-47630000D02*
X80484000Y-55414000D01*
X80484000Y-55414000D02*
X85887208Y-55414000D01*
X121719500Y-91246292D02*
X121719500Y-91647497D01*
%TO.N,/PSU_SDA*%
X132972000Y-78970000D02*
X146550000Y-78970000D01*
X146550000Y-78970000D02*
X158930000Y-66590000D01*
%TO.N,Net-(J4-Pin_3)*%
X131940000Y-55050000D02*
X131940000Y-53120750D01*
X131940000Y-61910000D02*
X131940000Y-55050000D01*
X119600000Y-71140000D02*
X122710000Y-71140000D01*
X131940000Y-53120750D02*
X132560000Y-52500750D01*
X122710000Y-71140000D02*
X131940000Y-61910000D01*
%TO.N,Net-(J4-Pin_4)*%
X118440500Y-69920000D02*
X118847302Y-70326802D01*
X130020000Y-52500750D02*
X131940000Y-50580750D01*
X131940000Y-50580750D02*
X131940000Y-49550000D01*
X130020000Y-62496396D02*
X130020000Y-52500750D01*
X118847302Y-70326802D02*
X122189594Y-70326802D01*
X122189594Y-70326802D02*
X130020000Y-62496396D01*
%TO.N,Net-(J10-Pin_4)*%
X120475000Y-63505000D02*
X118884250Y-63505000D01*
X121100000Y-62880000D02*
X120475000Y-63505000D01*
%TO.N,/FAN_ALERT*%
X110460000Y-93980695D02*
X110460000Y-96000000D01*
X109822000Y-89848000D02*
X109822000Y-93342695D01*
X109822000Y-93342695D02*
X110460000Y-93980695D01*
X110480000Y-89190000D02*
X109822000Y-89848000D01*
%TD*%
%TA.AperFunction,Conductor*%
%TO.N,GND*%
G36*
X61094125Y-55654825D02*
G01*
X61144116Y-55703638D01*
X61160000Y-55764358D01*
X61160000Y-128975680D01*
X61140315Y-129042719D01*
X61087511Y-129088474D01*
X61018353Y-129098418D01*
X60995221Y-129088674D01*
X60979649Y-129090334D01*
X60947969Y-129080040D01*
X60926343Y-129069623D01*
X60926340Y-129069622D01*
X60926338Y-129069621D01*
X60906804Y-129065159D01*
X60894898Y-129062440D01*
X60875046Y-129056109D01*
X60857854Y-129048986D01*
X60824052Y-129046259D01*
X60816394Y-129044510D01*
X60816395Y-129044510D01*
X60816390Y-129044509D01*
X60816387Y-129044508D01*
X60816382Y-129044508D01*
X60760271Y-129044499D01*
X60752170Y-129043967D01*
X60713504Y-129038869D01*
X60677078Y-129044500D01*
X58763477Y-129044500D01*
X58756546Y-129044111D01*
X58743237Y-129042614D01*
X58733656Y-129041536D01*
X58654158Y-129031083D01*
X58629382Y-129025187D01*
X58595274Y-129013257D01*
X58592022Y-129012016D01*
X58537798Y-128989561D01*
X58519274Y-128979993D01*
X58484465Y-128958124D01*
X58479705Y-128954813D01*
X58431773Y-128918038D01*
X58425674Y-128912690D01*
X58392307Y-128879323D01*
X58386964Y-128873230D01*
X58375148Y-128857829D01*
X58350185Y-128825293D01*
X58346874Y-128820533D01*
X58325005Y-128785724D01*
X58315437Y-128767200D01*
X58292982Y-128712976D01*
X58291755Y-128709762D01*
X58279809Y-128675610D01*
X58273916Y-128650845D01*
X58263468Y-128571387D01*
X58260889Y-128548455D01*
X58260500Y-128541520D01*
X58260500Y-56198486D01*
X58260890Y-56191540D01*
X58261285Y-56188029D01*
X58263472Y-56168619D01*
X58273933Y-56089163D01*
X58279830Y-56064399D01*
X58291775Y-56030262D01*
X58293001Y-56027047D01*
X58315474Y-55972794D01*
X58325021Y-55954313D01*
X58346922Y-55919459D01*
X58350197Y-55914752D01*
X58387003Y-55866786D01*
X58392323Y-55860718D01*
X58425718Y-55827323D01*
X58431786Y-55822003D01*
X58479752Y-55785197D01*
X58484459Y-55781922D01*
X58519313Y-55760021D01*
X58537794Y-55750474D01*
X58592047Y-55728001D01*
X58595253Y-55726778D01*
X58629402Y-55714829D01*
X58654163Y-55708933D01*
X58701565Y-55702693D01*
X58733646Y-55698470D01*
X58742632Y-55697456D01*
X58756545Y-55695889D01*
X58763481Y-55695500D01*
X60677062Y-55695500D01*
X60701558Y-55702693D01*
X60752162Y-55696031D01*
X60760263Y-55695500D01*
X60816391Y-55695500D01*
X60816393Y-55695500D01*
X60824060Y-55693750D01*
X60847782Y-55695202D01*
X60875048Y-55683909D01*
X60894904Y-55677580D01*
X60926351Y-55670403D01*
X60947986Y-55659983D01*
X60996841Y-55651937D01*
X61025680Y-55640788D01*
X61094125Y-55654825D01*
G37*
%TD.AperFunction*%
%TA.AperFunction,Conductor*%
G36*
X61103039Y-34265185D02*
G01*
X61148794Y-34317989D01*
X61160000Y-34369500D01*
X61160000Y-50425680D01*
X61140315Y-50492719D01*
X61087511Y-50538474D01*
X61018353Y-50548418D01*
X60995221Y-50538674D01*
X60979649Y-50540334D01*
X60947969Y-50530040D01*
X60926343Y-50519623D01*
X60926340Y-50519622D01*
X60926338Y-50519621D01*
X60906804Y-50515159D01*
X60894898Y-50512440D01*
X60875046Y-50506109D01*
X60857854Y-50498986D01*
X60824052Y-50496259D01*
X60816394Y-50494510D01*
X60816395Y-50494510D01*
X60816390Y-50494509D01*
X60816387Y-50494508D01*
X60816382Y-50494508D01*
X60760271Y-50494499D01*
X60752170Y-50493967D01*
X60713504Y-50488869D01*
X60677078Y-50494500D01*
X58763477Y-50494500D01*
X58756546Y-50494111D01*
X58743237Y-50492614D01*
X58733656Y-50491536D01*
X58654158Y-50481083D01*
X58629382Y-50475187D01*
X58595274Y-50463257D01*
X58592022Y-50462016D01*
X58537798Y-50439561D01*
X58519274Y-50429993D01*
X58484465Y-50408124D01*
X58479705Y-50404813D01*
X58431773Y-50368038D01*
X58425674Y-50362690D01*
X58392307Y-50329323D01*
X58386964Y-50323230D01*
X58375148Y-50307829D01*
X58350185Y-50275293D01*
X58346874Y-50270533D01*
X58325005Y-50235724D01*
X58315437Y-50217200D01*
X58292982Y-50162976D01*
X58291755Y-50159762D01*
X58279809Y-50125610D01*
X58273916Y-50100845D01*
X58263466Y-50021367D01*
X58260886Y-49998437D01*
X58260500Y-49991539D01*
X58260499Y-34748480D01*
X58260889Y-34741546D01*
X58263470Y-34718645D01*
X58266944Y-34692248D01*
X58273933Y-34639163D01*
X58279830Y-34614399D01*
X58291775Y-34580262D01*
X58293001Y-34577047D01*
X58315474Y-34522794D01*
X58325021Y-34504313D01*
X58346922Y-34469459D01*
X58350197Y-34464752D01*
X58387003Y-34416786D01*
X58392323Y-34410718D01*
X58425718Y-34377323D01*
X58431786Y-34372003D01*
X58479752Y-34335197D01*
X58484459Y-34331922D01*
X58519313Y-34310021D01*
X58537794Y-34300474D01*
X58592047Y-34278001D01*
X58595253Y-34276778D01*
X58629402Y-34264829D01*
X58654163Y-34258933D01*
X58701020Y-34252764D01*
X58733646Y-34248470D01*
X58742632Y-34247456D01*
X58756545Y-34245889D01*
X58763481Y-34245500D01*
X61036000Y-34245500D01*
X61103039Y-34265185D01*
G37*
%TD.AperFunction*%
%TD*%
%TA.AperFunction,Conductor*%
%TO.N,GND*%
G36*
X165348567Y-55504198D02*
G01*
X165382392Y-55530150D01*
X165398848Y-55546300D01*
X165398899Y-55546250D01*
X165408750Y-55556101D01*
X165408699Y-55556151D01*
X165424848Y-55572606D01*
X165431490Y-55581263D01*
X165436141Y-55581904D01*
X165462613Y-55598054D01*
X165492011Y-55621497D01*
X165505816Y-55628143D01*
X165527502Y-55641487D01*
X165538478Y-55649908D01*
X165540301Y-55649714D01*
X165571986Y-55660002D01*
X165593637Y-55670427D01*
X165614497Y-55675184D01*
X165625050Y-55677592D01*
X165644918Y-55683921D01*
X165662108Y-55691039D01*
X165695922Y-55693756D01*
X165703604Y-55695509D01*
X165759748Y-55695500D01*
X165767835Y-55696029D01*
X165806602Y-55701126D01*
X165842969Y-55695500D01*
X167756511Y-55695500D01*
X167763460Y-55695890D01*
X167786358Y-55698474D01*
X167865841Y-55708952D01*
X167890582Y-55714847D01*
X167924739Y-55726803D01*
X167927919Y-55728017D01*
X167982169Y-55750494D01*
X168000667Y-55760051D01*
X168035493Y-55781937D01*
X168040240Y-55785239D01*
X168088175Y-55822024D01*
X168094268Y-55827367D01*
X168127630Y-55860729D01*
X168132974Y-55866823D01*
X168169759Y-55914758D01*
X168173070Y-55919518D01*
X168194942Y-55954323D01*
X168204506Y-55972834D01*
X168226963Y-56027033D01*
X168228203Y-56030282D01*
X168240149Y-56064409D01*
X168246048Y-56089170D01*
X168256526Y-56168651D01*
X168259109Y-56191535D01*
X168259500Y-56198494D01*
X168259500Y-128541514D01*
X168259110Y-128548462D01*
X168256530Y-128571351D01*
X168246066Y-128650829D01*
X168240169Y-128675597D01*
X168228223Y-128709735D01*
X168226983Y-128712984D01*
X168204536Y-128767180D01*
X168194967Y-128785702D01*
X168173097Y-128820508D01*
X168169786Y-128825267D01*
X168133005Y-128873200D01*
X168127653Y-128879304D01*
X168094304Y-128912653D01*
X168088200Y-128918005D01*
X168040267Y-128954786D01*
X168035508Y-128958097D01*
X168000702Y-128979967D01*
X167982180Y-128989536D01*
X167927984Y-129011983D01*
X167924735Y-129013223D01*
X167890597Y-129025169D01*
X167865829Y-129031066D01*
X167786351Y-129041530D01*
X167765688Y-129043859D01*
X167763460Y-129044110D01*
X167756514Y-129044500D01*
X165842936Y-129044500D01*
X165818437Y-129037306D01*
X165767830Y-129043969D01*
X165759728Y-129044500D01*
X165703604Y-129044500D01*
X165695930Y-129046252D01*
X165672208Y-129044797D01*
X165644941Y-129056092D01*
X165625085Y-129062420D01*
X165593650Y-129069595D01*
X165593647Y-129069596D01*
X165572006Y-129080018D01*
X165546104Y-129084282D01*
X165527526Y-129098538D01*
X165505844Y-129111881D01*
X165492034Y-129118531D01*
X165492027Y-129118536D01*
X165462644Y-129141968D01*
X165436094Y-129152806D01*
X165424878Y-129167424D01*
X165408728Y-129183880D01*
X165408778Y-129183930D01*
X165398930Y-129193778D01*
X165398880Y-129193728D01*
X165382424Y-129209878D01*
X165373757Y-129216527D01*
X165373118Y-129221173D01*
X165356967Y-129247646D01*
X165335490Y-129274577D01*
X165278301Y-129314717D01*
X165208489Y-129317567D01*
X165148220Y-129282221D01*
X165116627Y-129219902D01*
X165114543Y-129197216D01*
X165149051Y-55677984D01*
X165149086Y-55602518D01*
X165168802Y-55535490D01*
X165221627Y-55489759D01*
X165290791Y-55479848D01*
X165348567Y-55504198D01*
G37*
%TD.AperFunction*%
%TA.AperFunction,Conductor*%
G36*
X167763460Y-34245890D02*
G01*
X167786358Y-34248474D01*
X167865841Y-34258952D01*
X167890582Y-34264847D01*
X167924739Y-34276803D01*
X167927919Y-34278017D01*
X167982169Y-34300494D01*
X168000667Y-34310051D01*
X168035493Y-34331937D01*
X168040240Y-34335239D01*
X168088175Y-34372024D01*
X168094268Y-34377367D01*
X168127630Y-34410729D01*
X168132974Y-34416823D01*
X168169759Y-34464758D01*
X168173070Y-34469518D01*
X168194942Y-34504323D01*
X168204506Y-34522834D01*
X168226963Y-34577033D01*
X168228203Y-34580282D01*
X168240149Y-34614409D01*
X168246048Y-34639170D01*
X168256526Y-34718651D01*
X168259109Y-34741535D01*
X168259500Y-34748494D01*
X168259500Y-49991514D01*
X168259110Y-49998462D01*
X168256530Y-50021351D01*
X168246066Y-50100829D01*
X168240169Y-50125597D01*
X168228223Y-50159735D01*
X168226983Y-50162984D01*
X168204536Y-50217180D01*
X168194967Y-50235702D01*
X168173097Y-50270508D01*
X168169786Y-50275267D01*
X168133005Y-50323200D01*
X168127653Y-50329304D01*
X168094304Y-50362653D01*
X168088200Y-50368005D01*
X168040267Y-50404786D01*
X168035508Y-50408097D01*
X168000702Y-50429967D01*
X167982180Y-50439536D01*
X167927984Y-50461983D01*
X167924735Y-50463223D01*
X167890597Y-50475169D01*
X167865829Y-50481066D01*
X167786351Y-50491530D01*
X167765688Y-50493859D01*
X167763460Y-50494110D01*
X167756514Y-50494500D01*
X165842936Y-50494500D01*
X165818437Y-50487306D01*
X165767830Y-50493969D01*
X165759728Y-50494500D01*
X165703604Y-50494500D01*
X165695930Y-50496252D01*
X165672208Y-50494797D01*
X165644941Y-50506092D01*
X165625085Y-50512420D01*
X165593650Y-50519595D01*
X165593647Y-50519596D01*
X165572006Y-50530018D01*
X165546104Y-50534282D01*
X165527526Y-50548538D01*
X165505844Y-50561881D01*
X165492034Y-50568531D01*
X165492027Y-50568536D01*
X165462644Y-50591968D01*
X165436094Y-50602806D01*
X165424878Y-50617424D01*
X165408728Y-50633880D01*
X165408778Y-50633930D01*
X165398930Y-50643778D01*
X165398880Y-50643728D01*
X165382424Y-50659878D01*
X165350928Y-50684046D01*
X165285759Y-50709241D01*
X165217314Y-50695203D01*
X165167324Y-50646389D01*
X165151441Y-50585613D01*
X165151459Y-50548538D01*
X165158875Y-34748494D01*
X165159053Y-34369442D01*
X165178769Y-34302412D01*
X165231594Y-34256681D01*
X165283053Y-34245500D01*
X167756511Y-34245500D01*
X167763460Y-34245890D01*
G37*
%TD.AperFunction*%
%TD*%
M02*
