M48
; DRILL file {KiCad 7.0.6-0} date 2023 November 06, Monday 17:07:06
; FORMAT={-:-/ absolute / inch / decimal}
; #@! TF.CreationDate,2023-11-06T17:07:06-05:00
; #@! TF.GenerationSoftware,Kicad,Pcbnew,7.0.6-0
; #@! TF.FileFunction,Plated,1,4,PTH
FMAT,2
INCH
; #@! TA.AperFunction,Plated,PTH,ViaDrill
T1C0.0157
; #@! TA.AperFunction,Plated,PTH,ComponentDrill
T2C0.0236
; #@! TA.AperFunction,Plated,PTH,ComponentDrill
T3C0.0315
; #@! TA.AperFunction,Plated,PTH,ComponentDrill
T4C0.0410
; #@! TA.AperFunction,Plated,PTH,ComponentDrill
T5C0.0709
; #@! TA.AperFunction,Plated,PTH,ComponentDrill
T6C0.0728
%
G90
G05
T1
X2.3508Y-1.4165
X2.3508Y-1.536
X2.3508Y-1.6555
X2.3508Y-1.775
X2.3508Y-1.8945
X2.3551Y-2.3059
X2.3551Y-2.4258
X2.3551Y-2.5458
X2.3551Y-2.6657
X2.3551Y-2.7856
X2.3551Y-2.9056
X2.3551Y-3.0255
X2.3551Y-3.1455
X2.3551Y-3.2654
X2.3551Y-3.3853
X2.3551Y-3.5053
X2.3551Y-3.6252
X2.3551Y-3.7451
X2.3551Y-3.8651
X2.3551Y-3.985
X2.3551Y-4.1049
X2.3551Y-4.2249
X2.3551Y-4.3448
X2.3551Y-4.4647
X2.3551Y-4.5847
X2.3551Y-4.7046
X2.3551Y-4.8246
X2.3551Y-4.9445
X3.5335Y-3.9339
X3.583Y-3.8951
X3.5852Y-3.9733
X3.5876Y-3.8392
X3.7394Y-2.1685
X3.7456Y-3.7026
X3.8274Y-4.927
X3.8307Y-4.8717
X3.87Y-3.7013
X3.9846Y-3.7009
X4.0791Y-2.1626
X4.0894Y-4.8349
X4.1142Y-4.9602
X4.1424Y-4.3623
X4.1476Y-4.6134
X4.2307Y-3.8604
X4.2307Y-3.9928
X4.2319Y-3.746
X4.2331Y-3.5744
X4.234Y-4.8711
X4.2815Y-4.4409
X4.2906Y-3.7486
X4.3066Y-3.6982
X4.3093Y-3.8159
X4.3295Y-4.4894
X4.3488Y-3.7795
X4.3496Y-3.5114
X4.3522Y-3.6322
X4.353Y-3.99
X4.3783Y-4.0348
X4.4089Y-4.2024
X4.4344Y-2.6075
X4.4504Y-3.6021
X4.4667Y-4.8794
X4.4945Y-4.067
X4.5081Y-4.1966
X4.5173Y-3.8783
X4.5205Y-3.774
X4.5612Y-3.5762
X4.5722Y-3.8256
X4.5819Y-2.6075
X4.6126Y-4.0626
X4.6226Y-3.4929
X4.6228Y-3.8744
X4.6232Y-3.7756
X4.6236Y-4.1181
X4.6386Y-4.2382
X4.6394Y-2.2622
X4.6561Y-3.6048
X4.663Y-2.7528
X4.6898Y-2.5693
X4.7004Y-4.1528
X4.7087Y-2.8008
X4.7126Y-3.6038
X4.7201Y-2.728
X4.726Y-2.4717
X4.7314Y-4.0938
X4.7354Y-2.6138
X4.763Y-2.7193
X4.7677Y-2.4756
X4.776Y-4.4874
X4.7832Y-4.0616
X4.7921Y-3.6082
X4.8067Y-4.4378
X4.8164Y-3.7754
X4.8227Y-3.8331
X4.8295Y-4.1157
X4.8431Y-2.642
X4.8461Y-2.6028
X4.8526Y-3.6218
X4.8602Y-3.7977
X4.893Y-3.9155
X4.9454Y-3.5806
X4.9695Y-3.873
X4.9732Y-4.6197
X5.0874Y-2.2634
X5.2351Y-3.1091
X5.2457Y-2.5732
X5.5252Y-2.6
X5.7469Y-2.5524
X6.5618Y-2.3074
X6.5618Y-2.4273
X6.5618Y-2.5473
X6.5618Y-2.6672
X6.5618Y-2.7872
X6.5618Y-2.9071
X6.5618Y-3.027
X6.5618Y-3.147
X6.5618Y-3.2669
X6.5618Y-3.3868
X6.5618Y-3.5068
X6.5618Y-3.6267
X6.5618Y-3.7466
X6.5618Y-3.8666
X6.5618Y-3.9865
X6.5618Y-4.1064
X6.5618Y-4.2264
X6.5618Y-4.3463
X6.5618Y-4.4662
X6.5618Y-4.5862
X6.5618Y-4.7061
X6.5618Y-4.8261
X6.5618Y-4.946
X6.5657Y-1.4484
X6.5657Y-1.5679
X6.5657Y-1.6874
X6.5657Y-1.8069
X6.5657Y-1.9264
T3
X2.7835Y-1.7965
X2.7835Y-1.8752
X2.8622Y-1.7965
X2.8622Y-1.8752
X2.9409Y-1.7965
X2.9409Y-1.8752
X3.0197Y-1.7965
X3.0197Y-1.8752
X3.0984Y-1.7965
X3.0984Y-1.8752
X3.1772Y-1.7965
X3.1772Y-1.8752
X3.2559Y-1.7965
X3.2559Y-1.8752
X3.3346Y-1.7965
X3.3346Y-1.8752
X3.4134Y-1.7965
X3.4134Y-1.8752
X6.1783Y-2.4642
X6.1783Y-2.5429
X6.1783Y-2.6217
X6.2571Y-2.4642
X6.2571Y-2.5429
X6.2571Y-2.6217
T4
X3.7173Y-2.0685
X3.8173Y-2.0685
X3.9173Y-2.0685
X4.0173Y-2.0685
X4.1547Y-2.0685
X4.2547Y-2.0685
X4.3547Y-2.0685
X4.4547Y-2.0685
X4.6185Y-2.0674
X4.7185Y-2.0674
X4.8185Y-2.0674
X4.9185Y-2.0674
X5.1189Y-2.067
X5.2189Y-2.067
X5.3189Y-2.067
X5.4189Y-2.067
T5
X4.6953Y-1.95
X4.6953Y-2.1665
X4.8606Y-1.95
X4.8606Y-2.1665
X5.1945Y-1.9508
X5.1945Y-2.1673
X5.3598Y-1.9508
X5.3598Y-2.1673
T6
X5.9114Y-1.9929
X5.9114Y-2.1583
X6.0768Y-1.9929
X6.0768Y-2.1583
X6.2421Y-1.9929
X6.2421Y-2.1583
T2
G00X4.2039Y-5.0071
M15
G01X4.2039Y-5.0504
M16
G05
G00X4.2039Y-5.1776
M15
G01X4.2039Y-5.2091
M16
G05
G00X4.5441Y-5.0071
M15
G01X4.5441Y-5.0504
M16
G05
G00X4.5441Y-5.1776
M15
G01X4.5441Y-5.2091
M16
G05
T0
M30
