%TF.GenerationSoftware,KiCad,Pcbnew,8.0.2*%
%TF.CreationDate,2024-05-06T15:34:29-04:00*%
%TF.ProjectId,bitcrane,62697463-7261-46e6-952e-6b696361645f,rev?*%
%TF.SameCoordinates,Original*%
%TF.FileFunction,Copper,L2,Inr*%
%TF.FilePolarity,Positive*%
%FSLAX46Y46*%
G04 Gerber Fmt 4.6, Leading zero omitted, Abs format (unit mm)*
G04 Created by KiCad (PCBNEW 8.0.2) date 2024-05-06 15:34:29*
%MOMM*%
%LPD*%
G01*
G04 APERTURE LIST*
%TA.AperFunction,ComponentPad*%
%ADD10C,2.300000*%
%TD*%
%TA.AperFunction,ComponentPad*%
%ADD11C,1.549400*%
%TD*%
%TA.AperFunction,ComponentPad*%
%ADD12C,2.775000*%
%TD*%
%TA.AperFunction,ComponentPad*%
%ADD13C,4.000000*%
%TD*%
%TA.AperFunction,ComponentPad*%
%ADD14O,1.000000X2.100000*%
%TD*%
%TA.AperFunction,ComponentPad*%
%ADD15O,1.000000X1.800000*%
%TD*%
%TA.AperFunction,ComponentPad*%
%ADD16C,1.400000*%
%TD*%
%TA.AperFunction,ComponentPad*%
%ADD17C,1.300000*%
%TD*%
%TA.AperFunction,ViaPad*%
%ADD18C,0.800000*%
%TD*%
%TA.AperFunction,ViaPad*%
%ADD19C,1.000000*%
%TD*%
G04 APERTURE END LIST*
D10*
%TO.N,GND*%
%TO.C,J14*%
X146080000Y-48820000D03*
%TO.N,/12V*%
X146080000Y-54320000D03*
%TO.N,/TACH1*%
X141880000Y-54320000D03*
%TO.N,/PWM1*%
X141880000Y-48820000D03*
%TD*%
%TO.N,GND*%
%TO.C,J15*%
X135060000Y-48820000D03*
%TO.N,/12V*%
X135060000Y-54320000D03*
%TO.N,/TACH2*%
X130860000Y-54320000D03*
%TO.N,/PWM2*%
X130860000Y-48820000D03*
%TD*%
%TO.N,GND*%
%TO.C,J16*%
X123930000Y-48800000D03*
%TO.N,/12V*%
X123930000Y-54300000D03*
%TO.N,/TACH3*%
X119730000Y-54300000D03*
%TO.N,/PWM3*%
X119730000Y-48800000D03*
%TD*%
%TO.N,GND*%
%TO.C,J17*%
X112870000Y-48820000D03*
%TO.N,/12V*%
X112870000Y-54320000D03*
%TO.N,/TACH4*%
X108670000Y-54320000D03*
%TO.N,/PWM4*%
X108670000Y-48820000D03*
%TD*%
D11*
%TO.N,GND*%
%TO.C,J5*%
X136530000Y-51870750D03*
%TO.N,/12V*%
X133990000Y-51870750D03*
%TO.N,/TACH2*%
X131450000Y-51870750D03*
%TO.N,/PWM2*%
X128910000Y-51870750D03*
%TD*%
D12*
%TO.N,Net-(Q1-D)*%
%TO.C,J3*%
X152960000Y-50540000D03*
X157160000Y-50540000D03*
X161360000Y-50540000D03*
%TO.N,GND*%
X152960000Y-54740000D03*
X157160000Y-54740000D03*
X161360000Y-54740000D03*
%TD*%
D13*
%TO.N,GND*%
%TO.C,H4*%
X63160000Y-127445000D03*
%TD*%
D14*
%TO.N,GND*%
%TO.C,J8*%
X106780000Y-127730000D03*
D15*
X106780000Y-131910000D03*
D14*
X115420000Y-127730000D03*
D15*
X115420000Y-131910000D03*
%TD*%
D11*
%TO.N,GND*%
%TO.C,J6*%
X125450000Y-51850750D03*
%TO.N,/12V*%
X122910000Y-51850750D03*
%TO.N,/TACH3*%
X120370000Y-51850750D03*
%TO.N,/PWM3*%
X117830000Y-51850750D03*
%TD*%
%TO.N,GND*%
%TO.C,J7*%
X114360000Y-51870750D03*
%TO.N,/12V*%
X111820000Y-51870750D03*
%TO.N,/TACH4*%
X109280000Y-51870750D03*
%TO.N,/PWM4*%
X106740000Y-51870750D03*
%TD*%
D13*
%TO.N,GND*%
%TO.C,H3*%
X63160000Y-80245000D03*
%TD*%
%TO.N,GND*%
%TO.C,H2*%
X163360000Y-128245000D03*
%TD*%
D11*
%TO.N,GND*%
%TO.C,J4*%
X147580000Y-51870750D03*
%TO.N,/12V*%
X145040000Y-51870750D03*
%TO.N,/TACH1*%
X142500000Y-51870750D03*
%TO.N,/PWM1*%
X139960000Y-51870750D03*
%TD*%
D13*
%TO.N,GND*%
%TO.C,H1*%
X163360000Y-67365000D03*
%TD*%
D16*
%TO.N,Net-(J1-Pin_1)*%
%TO.C,J1*%
X160210000Y-78245000D03*
%TO.N,GND*%
X160210000Y-80245000D03*
%TO.N,/SDA*%
X160210000Y-82245000D03*
%TO.N,Net-(J1-Pin_4)*%
X158210000Y-78245000D03*
%TO.N,/PSU_EN*%
X158210000Y-80245000D03*
%TO.N,/SCL*%
X158210000Y-82245000D03*
%TD*%
D17*
%TO.N,GND*%
%TO.C,J9*%
X101510000Y-42980000D03*
X101510000Y-40980000D03*
%TO.N,/SDA*%
X99510000Y-42980000D03*
%TO.N,/SCL*%
X99510000Y-40980000D03*
%TO.N,/PLUG1*%
X97510000Y-42980000D03*
%TO.N,/A21*%
X97510000Y-40980000D03*
%TO.N,/A11*%
X95510000Y-42980000D03*
%TO.N,/A01*%
X95510000Y-40980000D03*
%TO.N,GND*%
X93510000Y-42980000D03*
X93510000Y-40980000D03*
%TO.N,/TXD1*%
X91510000Y-42980000D03*
%TO.N,/RXD1*%
X91510000Y-40980000D03*
%TO.N,GND*%
X89510000Y-42980000D03*
X89510000Y-40980000D03*
%TO.N,/RST1*%
X87510000Y-42980000D03*
%TO.N,VCCIO*%
X87510000Y-40980000D03*
%TO.N,unconnected-(J9-Pin_17-Pad17)*%
X85510000Y-42980000D03*
%TO.N,unconnected-(J9-Pin_18-Pad18)*%
X85510000Y-40980000D03*
%TD*%
%TO.N,GND*%
%TO.C,J10*%
X80080000Y-57010000D03*
X80080000Y-55010000D03*
%TO.N,/SDA*%
X78080000Y-57010000D03*
%TO.N,/SCL*%
X78080000Y-55010000D03*
%TO.N,/PLUG2*%
X76080000Y-57010000D03*
%TO.N,/A22*%
X76080000Y-55010000D03*
%TO.N,/A12*%
X74080000Y-57010000D03*
%TO.N,/A02*%
X74080000Y-55010000D03*
%TO.N,GND*%
X72080000Y-57010000D03*
X72080000Y-55010000D03*
%TO.N,/TXD2*%
X70080000Y-57010000D03*
%TO.N,/RXD2*%
X70080000Y-55010000D03*
%TO.N,GND*%
X68080000Y-57010000D03*
X68080000Y-55010000D03*
%TO.N,/RST2*%
X66080000Y-57010000D03*
%TO.N,VCCIO*%
X66080000Y-55010000D03*
%TO.N,unconnected-(J10-Pin_17-Pad17)*%
X64080000Y-57010000D03*
%TO.N,unconnected-(J10-Pin_18-Pad18)*%
X64080000Y-55010000D03*
%TD*%
%TO.N,GND*%
%TO.C,J2*%
X80080000Y-42980000D03*
X80080000Y-40980000D03*
%TO.N,/SDA*%
X78080000Y-42980000D03*
%TO.N,/SCL*%
X78080000Y-40980000D03*
%TO.N,/PLUG0*%
X76080000Y-42980000D03*
%TO.N,/A20*%
X76080000Y-40980000D03*
%TO.N,/A10*%
X74080000Y-42980000D03*
%TO.N,/A00*%
X74080000Y-40980000D03*
%TO.N,GND*%
X72080000Y-42980000D03*
X72080000Y-40980000D03*
%TO.N,/TXD0*%
X70080000Y-42980000D03*
%TO.N,/RXD0*%
X70080000Y-40980000D03*
%TO.N,GND*%
X68080000Y-42980000D03*
X68080000Y-40980000D03*
%TO.N,/RST0*%
X66080000Y-42980000D03*
%TO.N,VCCIO*%
X66080000Y-40980000D03*
%TO.N,unconnected-(J2-Pin_17-Pad17)*%
X64080000Y-42980000D03*
%TO.N,unconnected-(J2-Pin_18-Pad18)*%
X64080000Y-40980000D03*
%TD*%
D18*
%TO.N,VCCIO*%
X98880000Y-55900000D03*
X101740000Y-55870000D03*
%TO.N,/RXD2*%
X99920000Y-90210000D03*
%TO.N,GND*%
X108710000Y-116880000D03*
%TO.N,/SCL*%
X160935000Y-87150000D03*
%TO.N,/5V*%
X109630000Y-63210000D03*
D19*
X113454000Y-123936000D03*
D18*
X141600000Y-70270000D03*
D19*
X108650000Y-123701000D03*
D18*
%TO.N,VCORE*%
X117862354Y-104176740D03*
X110810000Y-102190000D03*
X110547000Y-92259000D03*
X118264799Y-91560799D03*
%TO.N,VCCIO*%
X107780000Y-97005500D03*
X134220000Y-91190000D03*
X108650000Y-92830000D03*
X118490000Y-68930000D03*
X108750000Y-112800000D03*
X91007000Y-98936000D03*
X71290000Y-62730000D03*
X122462347Y-93042347D03*
X123140000Y-100250000D03*
X98276000Y-93870000D03*
X95180000Y-93870000D03*
X79160000Y-37150000D03*
X106660000Y-57150000D03*
X87010000Y-37180000D03*
X120660000Y-107890000D03*
X100250000Y-37020000D03*
X101219000Y-93850000D03*
X65580000Y-47980000D03*
X78250000Y-48190000D03*
X130060000Y-101270000D03*
X98260000Y-48510000D03*
X117520000Y-56490000D03*
X127980000Y-65540000D03*
X65600000Y-37050000D03*
X128760000Y-55900000D03*
X91064000Y-100921000D03*
X122090000Y-112720000D03*
X96100000Y-123710000D03*
X139160000Y-56860000D03*
X114900000Y-90800000D03*
%TO.N,GND*%
X117750000Y-109160000D03*
X59820000Y-82940904D03*
X166670000Y-101257274D03*
X120170000Y-103220000D03*
X59820000Y-122543623D03*
X166670000Y-104303637D03*
X59820000Y-67709089D03*
X96150000Y-125690000D03*
X166670000Y-82979096D03*
X59710000Y-48120000D03*
X117420000Y-98410000D03*
X59820000Y-119497260D03*
X93690000Y-36620000D03*
X59820000Y-116450897D03*
X166670000Y-76886370D03*
X166670000Y-98210911D03*
X166670000Y-67747281D03*
X105220000Y-93590000D03*
X117430000Y-95900000D03*
X110970000Y-106760000D03*
X59820000Y-58570000D03*
X72340000Y-36420000D03*
X105730000Y-102310000D03*
X130720000Y-64570000D03*
X166770000Y-42860000D03*
X166670000Y-116489089D03*
X59820000Y-73801815D03*
X59820000Y-110358171D03*
X166670000Y-58608192D03*
X166670000Y-86025459D03*
X102720000Y-126130000D03*
X122350000Y-97260000D03*
X166670000Y-79932733D03*
X138560000Y-65110000D03*
X89750000Y-99920000D03*
X112340000Y-87800000D03*
X122350000Y-117070000D03*
X117160500Y-103190000D03*
X122370000Y-114580000D03*
X91125000Y-97515000D03*
X59820000Y-76848178D03*
X166670000Y-122581815D03*
X59820000Y-113404534D03*
X166670000Y-113442726D03*
X59820000Y-85987267D03*
X105490000Y-110010000D03*
X166670000Y-107350000D03*
X123680000Y-66160000D03*
X59710000Y-39015000D03*
X120710000Y-91536000D03*
X106220000Y-91200000D03*
X59820000Y-125590000D03*
X166670000Y-70793644D03*
X59820000Y-98172719D03*
X128340000Y-99450000D03*
X114160500Y-103302000D03*
X109255765Y-94259041D03*
X114380000Y-108310000D03*
X59820000Y-79894541D03*
X71900000Y-48360000D03*
X166670000Y-125628192D03*
X166770000Y-39825000D03*
X92930000Y-48510000D03*
X59820000Y-101219082D03*
X59820000Y-64662726D03*
X59820000Y-104265445D03*
X114820000Y-95860000D03*
X166670000Y-110396363D03*
X59710000Y-42050000D03*
X108720000Y-114790000D03*
X166770000Y-36790000D03*
X110500000Y-103400000D03*
X153200000Y-65340000D03*
X166770000Y-45895000D03*
X166670000Y-95164548D03*
X59820000Y-89033630D03*
X116135000Y-97170000D03*
X59820000Y-107311808D03*
X166670000Y-64700918D03*
X147110000Y-67290000D03*
X114740000Y-98510000D03*
X113040000Y-91493000D03*
X76760000Y-62760000D03*
X166770000Y-48930000D03*
X59820000Y-61616363D03*
X131880000Y-65700000D03*
X59820000Y-95126356D03*
X59710000Y-35980000D03*
X166670000Y-61654555D03*
X166670000Y-73840007D03*
X103740000Y-122490000D03*
X59820000Y-92079993D03*
X59710000Y-45085000D03*
X166670000Y-119535452D03*
X166670000Y-92118185D03*
X166670000Y-89071822D03*
X59820000Y-70755452D03*
X106250000Y-98350000D03*
%TO.N,/SDA*%
X122010000Y-101110000D03*
%TO.N,/SCL*%
X121950000Y-102495000D03*
%TO.N,Net-(U1-EEDATA)*%
X92150000Y-95060000D03*
X104060000Y-98780000D03*
%TO.N,/PWM1*%
X137133198Y-66293198D03*
X129950000Y-69130000D03*
%TO.N,/TACH1*%
X131200000Y-70450000D03*
%TO.N,/FAN_ALERT*%
X127175500Y-92409860D03*
X123400000Y-97990000D03*
%TO.N,/TACH2*%
X132580000Y-68380000D03*
%TO.N,/PWM2*%
X134480000Y-62910000D03*
X131490000Y-68600000D03*
%TO.N,/TACH3*%
X134690000Y-65420000D03*
%TO.N,/PWM3*%
X134614981Y-66416683D03*
X116440000Y-62780000D03*
%TO.N,/PWM4*%
X132700000Y-62190000D03*
X123920000Y-62745000D03*
%TO.N,/TACH4*%
X125750000Y-62040000D03*
X131640000Y-62090000D03*
%TO.N,/SDA*%
X109680000Y-67280000D03*
%TO.N,/SCL*%
X111285304Y-67889999D03*
%TO.N,/PLUG0*%
X122160000Y-94370000D03*
%TO.N,/RST0*%
X123476396Y-94410000D03*
%TO.N,/PLUG1*%
X118480000Y-85210000D03*
%TO.N,/RST1*%
X116124824Y-87034530D03*
X116016246Y-84520000D03*
%TO.N,/PLUG2*%
X109740000Y-96159041D03*
%TO.N,/RST2*%
X97762347Y-90677653D03*
%TO.N,/TXD1*%
X117884423Y-87922572D03*
%TO.N,/RXD1*%
X116885000Y-87910000D03*
%TO.N,/TXD0*%
X124500000Y-95950000D03*
%TO.N,/RXD0*%
X123410000Y-95630000D03*
%TO.N,/TXD2*%
X100620000Y-89060000D03*
%TD*%
%TA.AperFunction,Conductor*%
%TO.N,GND*%
G36*
X167762042Y-34245067D02*
G01*
X167811279Y-34246682D01*
X167839316Y-34250843D01*
X167936394Y-34276869D01*
X167966278Y-34289251D01*
X168051539Y-34338484D01*
X168077209Y-34358184D01*
X168146815Y-34427790D01*
X168166516Y-34453462D01*
X168215746Y-34538717D01*
X168228133Y-34568613D01*
X168254155Y-34665677D01*
X168258317Y-34693718D01*
X168259933Y-34742954D01*
X168260000Y-34747022D01*
X168260000Y-49992978D01*
X168259934Y-49997024D01*
X168258326Y-50046282D01*
X168254167Y-50074329D01*
X168228158Y-50171398D01*
X168215770Y-50201305D01*
X168166550Y-50286556D01*
X168146844Y-50312237D01*
X168077237Y-50381844D01*
X168051556Y-50401550D01*
X167966305Y-50450770D01*
X167936398Y-50463158D01*
X167839329Y-50489167D01*
X167811282Y-50493326D01*
X167766973Y-50494772D01*
X167762020Y-50494934D01*
X167757978Y-50495000D01*
X165760000Y-50495000D01*
X165694455Y-50497139D01*
X165567833Y-50531067D01*
X165567831Y-50531067D01*
X165567831Y-50531068D01*
X165454306Y-50596612D01*
X165454303Y-50596614D01*
X165361614Y-50689303D01*
X165361612Y-50689306D01*
X165319542Y-50762174D01*
X165296067Y-50802833D01*
X165278027Y-50870159D01*
X165262139Y-50929455D01*
X165260000Y-50994999D01*
X165260000Y-55194998D01*
X165261936Y-55260572D01*
X165261937Y-55260578D01*
X165295862Y-55387258D01*
X165361429Y-55500839D01*
X165454160Y-55593570D01*
X165454162Y-55593571D01*
X165454163Y-55593572D01*
X165515284Y-55628855D01*
X165567742Y-55659137D01*
X165567743Y-55659137D01*
X165567744Y-55659138D01*
X165694426Y-55693064D01*
X165760000Y-55695000D01*
X167757977Y-55695000D01*
X167762042Y-55695067D01*
X167811279Y-55696682D01*
X167839316Y-55700843D01*
X167936394Y-55726869D01*
X167966278Y-55739251D01*
X168051539Y-55788484D01*
X168077209Y-55808184D01*
X168146815Y-55877790D01*
X168166516Y-55903462D01*
X168215746Y-55988717D01*
X168228133Y-56018613D01*
X168254155Y-56115677D01*
X168258317Y-56143718D01*
X168259933Y-56192954D01*
X168260000Y-56197022D01*
X168260000Y-128542978D01*
X168259934Y-128547024D01*
X168258326Y-128596282D01*
X168254167Y-128624329D01*
X168228158Y-128721398D01*
X168215770Y-128751305D01*
X168166550Y-128836556D01*
X168146844Y-128862237D01*
X168077237Y-128931844D01*
X168051556Y-128951550D01*
X167966305Y-129000770D01*
X167936398Y-129013158D01*
X167839329Y-129039167D01*
X167811282Y-129043326D01*
X167766973Y-129044772D01*
X167762020Y-129044934D01*
X167757978Y-129045000D01*
X165760000Y-129045000D01*
X165694455Y-129047139D01*
X165567833Y-129081067D01*
X165567831Y-129081067D01*
X165567831Y-129081068D01*
X165454306Y-129146612D01*
X165454303Y-129146614D01*
X165361614Y-129239303D01*
X165361612Y-129239306D01*
X165296067Y-129352833D01*
X165296063Y-129352848D01*
X165262139Y-129479455D01*
X165260000Y-129544999D01*
X165260000Y-133742978D01*
X165259934Y-133747024D01*
X165258326Y-133796282D01*
X165254167Y-133824329D01*
X165228158Y-133921398D01*
X165215770Y-133951305D01*
X165166550Y-134036556D01*
X165146844Y-134062237D01*
X165077237Y-134131844D01*
X165051556Y-134151550D01*
X164966305Y-134200770D01*
X164936398Y-134213158D01*
X164839329Y-134239167D01*
X164811282Y-134243326D01*
X164766973Y-134244772D01*
X164762020Y-134244934D01*
X164757978Y-134245000D01*
X61761830Y-134245000D01*
X61758172Y-134244946D01*
X61753744Y-134244815D01*
X61708875Y-134243490D01*
X61680459Y-134239323D01*
X61583517Y-134213362D01*
X61553601Y-134200974D01*
X61468304Y-134151735D01*
X61442616Y-134132025D01*
X61372974Y-134062383D01*
X61353264Y-134036695D01*
X61353184Y-134036556D01*
X61304023Y-133951394D01*
X61291638Y-133921486D01*
X61265675Y-133824538D01*
X61261509Y-133796122D01*
X61260054Y-133746829D01*
X61260000Y-133743170D01*
X61260000Y-129544990D01*
X61257850Y-129479457D01*
X61223906Y-129352848D01*
X61223905Y-129352847D01*
X61158357Y-129239332D01*
X61158354Y-129239328D01*
X61065671Y-129146645D01*
X61065667Y-129146642D01*
X60952152Y-129081094D01*
X60952151Y-129081093D01*
X60825542Y-129047149D01*
X60760009Y-129045000D01*
X60760000Y-129045000D01*
X58761830Y-129045000D01*
X58758172Y-129044946D01*
X58753744Y-129044815D01*
X58708875Y-129043490D01*
X58680459Y-129039323D01*
X58583517Y-129013362D01*
X58553601Y-129000974D01*
X58468304Y-128951735D01*
X58442616Y-128932025D01*
X58372974Y-128862383D01*
X58353264Y-128836695D01*
X58353184Y-128836556D01*
X58304023Y-128751394D01*
X58291638Y-128721486D01*
X58265675Y-128624538D01*
X58261509Y-128596122D01*
X58261132Y-128583364D01*
X58260054Y-128546829D01*
X58260000Y-128543170D01*
X58260000Y-128154234D01*
X107634500Y-128154234D01*
X107634500Y-128305765D01*
X107673719Y-128452136D01*
X107711602Y-128517750D01*
X107749485Y-128583365D01*
X107856635Y-128690515D01*
X107987865Y-128766281D01*
X108134234Y-128805500D01*
X108134236Y-128805500D01*
X108285764Y-128805500D01*
X108285766Y-128805500D01*
X108432135Y-128766281D01*
X108563365Y-128690515D01*
X108670515Y-128583365D01*
X108746281Y-128452135D01*
X108785500Y-128305766D01*
X108785500Y-128154234D01*
X113414500Y-128154234D01*
X113414500Y-128305765D01*
X113453719Y-128452136D01*
X113491602Y-128517750D01*
X113529485Y-128583365D01*
X113636635Y-128690515D01*
X113767865Y-128766281D01*
X113914234Y-128805500D01*
X113914236Y-128805500D01*
X114065764Y-128805500D01*
X114065766Y-128805500D01*
X114212135Y-128766281D01*
X114343365Y-128690515D01*
X114450515Y-128583365D01*
X114526281Y-128452135D01*
X114565500Y-128305766D01*
X114565500Y-128154234D01*
X114526281Y-128007865D01*
X114450515Y-127876635D01*
X114343365Y-127769485D01*
X114277750Y-127731602D01*
X114212136Y-127693719D01*
X114138950Y-127674109D01*
X114065766Y-127654500D01*
X113914234Y-127654500D01*
X113767863Y-127693719D01*
X113636635Y-127769485D01*
X113636632Y-127769487D01*
X113529487Y-127876632D01*
X113529485Y-127876635D01*
X113453719Y-128007863D01*
X113414500Y-128154234D01*
X108785500Y-128154234D01*
X108746281Y-128007865D01*
X108670515Y-127876635D01*
X108563365Y-127769485D01*
X108497750Y-127731602D01*
X108432136Y-127693719D01*
X108358950Y-127674109D01*
X108285766Y-127654500D01*
X108134234Y-127654500D01*
X107987863Y-127693719D01*
X107856635Y-127769485D01*
X107856632Y-127769487D01*
X107749487Y-127876632D01*
X107749485Y-127876635D01*
X107673719Y-128007863D01*
X107634500Y-128154234D01*
X58260000Y-128154234D01*
X58260000Y-123710000D01*
X95194540Y-123710000D01*
X95214326Y-123898256D01*
X95214327Y-123898259D01*
X95272818Y-124078277D01*
X95272821Y-124078284D01*
X95367467Y-124242216D01*
X95494129Y-124382888D01*
X95647265Y-124494148D01*
X95647270Y-124494151D01*
X95820192Y-124571142D01*
X95820197Y-124571144D01*
X96005354Y-124610500D01*
X96005355Y-124610500D01*
X96194644Y-124610500D01*
X96194646Y-124610500D01*
X96379803Y-124571144D01*
X96552730Y-124494151D01*
X96705871Y-124382888D01*
X96832533Y-124242216D01*
X96927179Y-124078284D01*
X96985674Y-123898256D01*
X97005460Y-123710000D01*
X97004514Y-123701000D01*
X107644659Y-123701000D01*
X107663975Y-123897129D01*
X107721188Y-124085733D01*
X107814086Y-124259532D01*
X107814090Y-124259539D01*
X107939116Y-124411883D01*
X108091460Y-124536909D01*
X108091467Y-124536913D01*
X108265266Y-124629811D01*
X108265269Y-124629811D01*
X108265273Y-124629814D01*
X108453868Y-124687024D01*
X108650000Y-124706341D01*
X108846132Y-124687024D01*
X109034727Y-124629814D01*
X109208538Y-124536910D01*
X109360883Y-124411883D01*
X109485910Y-124259538D01*
X109578814Y-124085727D01*
X109624233Y-123936000D01*
X112448659Y-123936000D01*
X112467975Y-124132129D01*
X112467976Y-124132132D01*
X112506624Y-124259538D01*
X112525188Y-124320733D01*
X112618086Y-124494532D01*
X112618090Y-124494539D01*
X112743116Y-124646883D01*
X112895460Y-124771909D01*
X112895467Y-124771913D01*
X113069266Y-124864811D01*
X113069269Y-124864811D01*
X113069273Y-124864814D01*
X113257868Y-124922024D01*
X113454000Y-124941341D01*
X113650132Y-124922024D01*
X113838727Y-124864814D01*
X114012538Y-124771910D01*
X114164883Y-124646883D01*
X114289910Y-124494538D01*
X114382814Y-124320727D01*
X114440024Y-124132132D01*
X114459341Y-123936000D01*
X114440024Y-123739868D01*
X114382814Y-123551273D01*
X114382811Y-123551269D01*
X114382811Y-123551266D01*
X114289913Y-123377467D01*
X114289909Y-123377460D01*
X114164883Y-123225116D01*
X114012539Y-123100090D01*
X114012532Y-123100086D01*
X113838733Y-123007188D01*
X113838727Y-123007186D01*
X113650132Y-122949976D01*
X113650129Y-122949975D01*
X113454000Y-122930659D01*
X113257870Y-122949975D01*
X113069266Y-123007188D01*
X112895467Y-123100086D01*
X112895460Y-123100090D01*
X112743116Y-123225116D01*
X112618090Y-123377460D01*
X112618086Y-123377467D01*
X112525188Y-123551266D01*
X112467975Y-123739870D01*
X112448659Y-123936000D01*
X109624233Y-123936000D01*
X109636024Y-123897132D01*
X109655341Y-123701000D01*
X109636024Y-123504868D01*
X109578814Y-123316273D01*
X109578811Y-123316269D01*
X109578811Y-123316266D01*
X109485913Y-123142467D01*
X109485909Y-123142460D01*
X109360883Y-122990116D01*
X109208539Y-122865090D01*
X109208532Y-122865086D01*
X109034733Y-122772188D01*
X109034727Y-122772186D01*
X108846132Y-122714976D01*
X108846129Y-122714975D01*
X108650000Y-122695659D01*
X108453870Y-122714975D01*
X108265266Y-122772188D01*
X108091467Y-122865086D01*
X108091460Y-122865090D01*
X107939116Y-122990116D01*
X107814090Y-123142460D01*
X107814086Y-123142467D01*
X107721188Y-123316266D01*
X107663975Y-123504870D01*
X107644659Y-123701000D01*
X97004514Y-123701000D01*
X96985674Y-123521744D01*
X96927179Y-123341716D01*
X96832533Y-123177784D01*
X96705871Y-123037112D01*
X96705870Y-123037111D01*
X96552734Y-122925851D01*
X96552729Y-122925848D01*
X96379807Y-122848857D01*
X96379802Y-122848855D01*
X96234001Y-122817865D01*
X96194646Y-122809500D01*
X96005354Y-122809500D01*
X95972897Y-122816398D01*
X95820197Y-122848855D01*
X95820192Y-122848857D01*
X95647270Y-122925848D01*
X95647265Y-122925851D01*
X95494129Y-123037111D01*
X95367466Y-123177785D01*
X95272821Y-123341715D01*
X95272818Y-123341722D01*
X95214327Y-123521740D01*
X95214326Y-123521744D01*
X95194540Y-123710000D01*
X58260000Y-123710000D01*
X58260000Y-112800000D01*
X107844540Y-112800000D01*
X107864326Y-112988256D01*
X107864327Y-112988259D01*
X107922818Y-113168277D01*
X107922821Y-113168284D01*
X108017467Y-113332216D01*
X108144129Y-113472888D01*
X108297265Y-113584148D01*
X108297270Y-113584151D01*
X108470192Y-113661142D01*
X108470197Y-113661144D01*
X108655354Y-113700500D01*
X108655355Y-113700500D01*
X108844644Y-113700500D01*
X108844646Y-113700500D01*
X109029803Y-113661144D01*
X109202730Y-113584151D01*
X109355871Y-113472888D01*
X109482533Y-113332216D01*
X109577179Y-113168284D01*
X109635674Y-112988256D01*
X109655460Y-112800000D01*
X109647052Y-112720000D01*
X121184540Y-112720000D01*
X121204326Y-112908256D01*
X121204327Y-112908259D01*
X121262818Y-113088277D01*
X121262821Y-113088284D01*
X121357467Y-113252216D01*
X121429498Y-113332214D01*
X121484129Y-113392888D01*
X121637265Y-113504148D01*
X121637270Y-113504151D01*
X121810192Y-113581142D01*
X121810197Y-113581144D01*
X121995354Y-113620500D01*
X121995355Y-113620500D01*
X122184644Y-113620500D01*
X122184646Y-113620500D01*
X122369803Y-113581144D01*
X122542730Y-113504151D01*
X122695871Y-113392888D01*
X122822533Y-113252216D01*
X122917179Y-113088284D01*
X122975674Y-112908256D01*
X122995460Y-112720000D01*
X122975674Y-112531744D01*
X122917179Y-112351716D01*
X122822533Y-112187784D01*
X122695871Y-112047112D01*
X122652844Y-112015851D01*
X122542734Y-111935851D01*
X122542729Y-111935848D01*
X122369807Y-111858857D01*
X122369802Y-111858855D01*
X122224001Y-111827865D01*
X122184646Y-111819500D01*
X121995354Y-111819500D01*
X121962897Y-111826398D01*
X121810197Y-111858855D01*
X121810192Y-111858857D01*
X121637270Y-111935848D01*
X121637265Y-111935851D01*
X121484129Y-112047111D01*
X121357466Y-112187785D01*
X121262821Y-112351715D01*
X121262818Y-112351722D01*
X121236827Y-112431716D01*
X121204326Y-112531744D01*
X121184540Y-112720000D01*
X109647052Y-112720000D01*
X109635674Y-112611744D01*
X109577179Y-112431716D01*
X109482533Y-112267784D01*
X109355871Y-112127112D01*
X109355870Y-112127111D01*
X109202734Y-112015851D01*
X109202729Y-112015848D01*
X109029807Y-111938857D01*
X109029802Y-111938855D01*
X108884001Y-111907865D01*
X108844646Y-111899500D01*
X108655354Y-111899500D01*
X108622897Y-111906398D01*
X108470197Y-111938855D01*
X108470192Y-111938857D01*
X108297270Y-112015848D01*
X108297265Y-112015851D01*
X108144129Y-112127111D01*
X108017466Y-112267785D01*
X107922821Y-112431715D01*
X107922818Y-112431722D01*
X107864327Y-112611740D01*
X107864326Y-112611744D01*
X107844540Y-112800000D01*
X58260000Y-112800000D01*
X58260000Y-107890000D01*
X119754540Y-107890000D01*
X119774326Y-108078256D01*
X119774327Y-108078259D01*
X119832818Y-108258277D01*
X119832821Y-108258284D01*
X119927467Y-108422216D01*
X120054129Y-108562888D01*
X120207265Y-108674148D01*
X120207270Y-108674151D01*
X120380192Y-108751142D01*
X120380197Y-108751144D01*
X120565354Y-108790500D01*
X120565355Y-108790500D01*
X120754644Y-108790500D01*
X120754646Y-108790500D01*
X120939803Y-108751144D01*
X121112730Y-108674151D01*
X121265871Y-108562888D01*
X121392533Y-108422216D01*
X121487179Y-108258284D01*
X121545674Y-108078256D01*
X121565460Y-107890000D01*
X121545674Y-107701744D01*
X121487179Y-107521716D01*
X121392533Y-107357784D01*
X121265871Y-107217112D01*
X121265870Y-107217111D01*
X121112734Y-107105851D01*
X121112729Y-107105848D01*
X120939807Y-107028857D01*
X120939802Y-107028855D01*
X120794001Y-106997865D01*
X120754646Y-106989500D01*
X120565354Y-106989500D01*
X120532897Y-106996398D01*
X120380197Y-107028855D01*
X120380192Y-107028857D01*
X120207270Y-107105848D01*
X120207265Y-107105851D01*
X120054129Y-107217111D01*
X119927466Y-107357785D01*
X119832821Y-107521715D01*
X119832818Y-107521722D01*
X119774327Y-107701740D01*
X119774326Y-107701744D01*
X119754540Y-107890000D01*
X58260000Y-107890000D01*
X58260000Y-104176740D01*
X116956894Y-104176740D01*
X116976680Y-104364996D01*
X116976681Y-104364999D01*
X117035172Y-104545017D01*
X117035175Y-104545024D01*
X117129821Y-104708956D01*
X117256483Y-104849628D01*
X117409619Y-104960888D01*
X117409624Y-104960891D01*
X117582546Y-105037882D01*
X117582551Y-105037884D01*
X117767708Y-105077240D01*
X117767709Y-105077240D01*
X117956998Y-105077240D01*
X117957000Y-105077240D01*
X118142157Y-105037884D01*
X118315084Y-104960891D01*
X118468225Y-104849628D01*
X118594887Y-104708956D01*
X118689533Y-104545024D01*
X118748028Y-104364996D01*
X118767814Y-104176740D01*
X118748028Y-103988484D01*
X118689533Y-103808456D01*
X118594887Y-103644524D01*
X118468225Y-103503852D01*
X118468224Y-103503851D01*
X118315088Y-103392591D01*
X118315083Y-103392588D01*
X118142161Y-103315597D01*
X118142156Y-103315595D01*
X117970681Y-103279148D01*
X117957000Y-103276240D01*
X117767708Y-103276240D01*
X117754027Y-103279148D01*
X117582551Y-103315595D01*
X117582546Y-103315597D01*
X117409624Y-103392588D01*
X117409619Y-103392591D01*
X117256483Y-103503851D01*
X117129820Y-103644525D01*
X117035175Y-103808455D01*
X117035172Y-103808462D01*
X116976681Y-103988480D01*
X116976680Y-103988484D01*
X116956894Y-104176740D01*
X58260000Y-104176740D01*
X58260000Y-102190000D01*
X109904540Y-102190000D01*
X109924326Y-102378256D01*
X109924327Y-102378259D01*
X109982818Y-102558277D01*
X109982821Y-102558284D01*
X110077467Y-102722216D01*
X110204129Y-102862888D01*
X110357265Y-102974148D01*
X110357270Y-102974151D01*
X110530192Y-103051142D01*
X110530197Y-103051144D01*
X110715354Y-103090500D01*
X110715355Y-103090500D01*
X110904644Y-103090500D01*
X110904646Y-103090500D01*
X111089803Y-103051144D01*
X111262730Y-102974151D01*
X111415871Y-102862888D01*
X111542533Y-102722216D01*
X111637179Y-102558284D01*
X111657741Y-102495000D01*
X121044540Y-102495000D01*
X121064326Y-102683256D01*
X121064327Y-102683259D01*
X121122818Y-102863277D01*
X121122821Y-102863284D01*
X121217467Y-103027216D01*
X121344129Y-103167888D01*
X121497265Y-103279148D01*
X121497270Y-103279151D01*
X121670192Y-103356142D01*
X121670197Y-103356144D01*
X121855354Y-103395500D01*
X121855355Y-103395500D01*
X122044644Y-103395500D01*
X122044646Y-103395500D01*
X122229803Y-103356144D01*
X122402730Y-103279151D01*
X122555871Y-103167888D01*
X122682533Y-103027216D01*
X122777179Y-102863284D01*
X122835674Y-102683256D01*
X122855460Y-102495000D01*
X122835674Y-102306744D01*
X122777179Y-102126716D01*
X122682533Y-101962784D01*
X122642920Y-101918790D01*
X122612690Y-101855799D01*
X122621315Y-101786464D01*
X122642918Y-101752848D01*
X122742533Y-101642216D01*
X122837179Y-101478284D01*
X122895674Y-101298256D01*
X122898643Y-101270000D01*
X129154540Y-101270000D01*
X129174326Y-101458256D01*
X129174327Y-101458259D01*
X129232818Y-101638277D01*
X129232821Y-101638284D01*
X129327467Y-101802216D01*
X129432432Y-101918791D01*
X129454129Y-101942888D01*
X129607265Y-102054148D01*
X129607270Y-102054151D01*
X129780192Y-102131142D01*
X129780197Y-102131144D01*
X129965354Y-102170500D01*
X129965355Y-102170500D01*
X130154644Y-102170500D01*
X130154646Y-102170500D01*
X130339803Y-102131144D01*
X130512730Y-102054151D01*
X130665871Y-101942888D01*
X130792533Y-101802216D01*
X130887179Y-101638284D01*
X130945674Y-101458256D01*
X130965460Y-101270000D01*
X130945674Y-101081744D01*
X130887179Y-100901716D01*
X130792533Y-100737784D01*
X130665871Y-100597112D01*
X130639270Y-100577785D01*
X130512734Y-100485851D01*
X130512729Y-100485848D01*
X130339807Y-100408857D01*
X130339802Y-100408855D01*
X130194001Y-100377865D01*
X130154646Y-100369500D01*
X129965354Y-100369500D01*
X129932897Y-100376398D01*
X129780197Y-100408855D01*
X129780192Y-100408857D01*
X129607270Y-100485848D01*
X129607265Y-100485851D01*
X129454129Y-100597111D01*
X129327466Y-100737785D01*
X129232821Y-100901715D01*
X129232818Y-100901722D01*
X129174327Y-101081740D01*
X129174326Y-101081744D01*
X129154540Y-101270000D01*
X122898643Y-101270000D01*
X122899739Y-101259571D01*
X122926321Y-101194958D01*
X122983617Y-101154971D01*
X123038684Y-101151823D01*
X123038895Y-101149821D01*
X123045353Y-101150500D01*
X123045354Y-101150500D01*
X123234644Y-101150500D01*
X123234646Y-101150500D01*
X123419803Y-101111144D01*
X123592730Y-101034151D01*
X123745871Y-100922888D01*
X123872533Y-100782216D01*
X123967179Y-100618284D01*
X124025674Y-100438256D01*
X124045460Y-100250000D01*
X124025674Y-100061744D01*
X123967179Y-99881716D01*
X123872533Y-99717784D01*
X123745871Y-99577112D01*
X123728028Y-99564148D01*
X123592734Y-99465851D01*
X123592729Y-99465848D01*
X123419807Y-99388857D01*
X123419802Y-99388855D01*
X123274001Y-99357865D01*
X123234646Y-99349500D01*
X123045354Y-99349500D01*
X123012897Y-99356398D01*
X122860197Y-99388855D01*
X122860192Y-99388857D01*
X122687270Y-99465848D01*
X122687265Y-99465851D01*
X122534129Y-99577111D01*
X122407466Y-99717785D01*
X122312821Y-99881715D01*
X122312818Y-99881722D01*
X122254327Y-100061739D01*
X122250260Y-100100432D01*
X122223674Y-100165046D01*
X122166376Y-100205030D01*
X122111313Y-100208184D01*
X122111104Y-100210179D01*
X122104646Y-100209500D01*
X121915354Y-100209500D01*
X121912160Y-100210179D01*
X121730197Y-100248855D01*
X121730192Y-100248857D01*
X121557270Y-100325848D01*
X121557265Y-100325851D01*
X121404129Y-100437111D01*
X121277466Y-100577785D01*
X121182821Y-100741715D01*
X121182818Y-100741722D01*
X121124327Y-100921740D01*
X121124326Y-100921744D01*
X121104540Y-101110000D01*
X121124326Y-101298256D01*
X121124327Y-101298259D01*
X121182818Y-101478277D01*
X121182821Y-101478284D01*
X121277466Y-101642215D01*
X121317078Y-101686209D01*
X121347308Y-101749201D01*
X121338682Y-101818536D01*
X121317079Y-101852152D01*
X121217466Y-101962785D01*
X121122821Y-102126715D01*
X121122818Y-102126722D01*
X121064327Y-102306740D01*
X121064326Y-102306744D01*
X121044540Y-102495000D01*
X111657741Y-102495000D01*
X111695674Y-102378256D01*
X111715460Y-102190000D01*
X111695674Y-102001744D01*
X111641112Y-101833823D01*
X111637181Y-101821722D01*
X111637180Y-101821721D01*
X111637179Y-101821716D01*
X111542533Y-101657784D01*
X111415871Y-101517112D01*
X111362429Y-101478284D01*
X111262734Y-101405851D01*
X111262729Y-101405848D01*
X111089807Y-101328857D01*
X111089802Y-101328855D01*
X110944001Y-101297865D01*
X110904646Y-101289500D01*
X110715354Y-101289500D01*
X110682897Y-101296398D01*
X110530197Y-101328855D01*
X110530192Y-101328857D01*
X110357270Y-101405848D01*
X110357265Y-101405851D01*
X110204129Y-101517111D01*
X110077466Y-101657785D01*
X109982821Y-101821715D01*
X109982818Y-101821722D01*
X109924327Y-102001740D01*
X109924326Y-102001744D01*
X109904540Y-102190000D01*
X58260000Y-102190000D01*
X58260000Y-98936000D01*
X90101540Y-98936000D01*
X90121326Y-99124256D01*
X90121327Y-99124259D01*
X90179818Y-99304277D01*
X90179821Y-99304284D01*
X90274467Y-99468216D01*
X90360845Y-99564148D01*
X90401129Y-99608888D01*
X90554265Y-99720148D01*
X90554270Y-99720151D01*
X90727191Y-99797142D01*
X90727193Y-99797142D01*
X90727197Y-99797144D01*
X90803056Y-99813268D01*
X90864534Y-99846458D01*
X90898311Y-99907621D01*
X90893659Y-99977336D01*
X90852055Y-100033468D01*
X90803057Y-100055847D01*
X90784192Y-100059857D01*
X90611270Y-100136848D01*
X90611265Y-100136851D01*
X90458129Y-100248111D01*
X90331466Y-100388785D01*
X90236821Y-100552715D01*
X90236818Y-100552722D01*
X90178327Y-100732740D01*
X90178326Y-100732744D01*
X90158540Y-100921000D01*
X90178326Y-101109256D01*
X90178327Y-101109259D01*
X90236818Y-101289277D01*
X90236821Y-101289284D01*
X90331467Y-101453216D01*
X90458129Y-101593888D01*
X90611265Y-101705148D01*
X90611270Y-101705151D01*
X90784192Y-101782142D01*
X90784197Y-101782144D01*
X90969354Y-101821500D01*
X90969355Y-101821500D01*
X91158644Y-101821500D01*
X91158646Y-101821500D01*
X91343803Y-101782144D01*
X91516730Y-101705151D01*
X91669871Y-101593888D01*
X91796533Y-101453216D01*
X91891179Y-101289284D01*
X91949674Y-101109256D01*
X91969460Y-100921000D01*
X91949674Y-100732744D01*
X91891179Y-100552716D01*
X91796533Y-100388784D01*
X91669871Y-100248112D01*
X91655115Y-100237391D01*
X91516734Y-100136851D01*
X91516729Y-100136848D01*
X91343807Y-100059857D01*
X91343802Y-100059855D01*
X91267946Y-100043732D01*
X91206464Y-100010540D01*
X91172688Y-99949377D01*
X91177340Y-99879662D01*
X91218945Y-99823530D01*
X91267945Y-99801152D01*
X91286803Y-99797144D01*
X91459730Y-99720151D01*
X91612871Y-99608888D01*
X91739533Y-99468216D01*
X91834179Y-99304284D01*
X91892674Y-99124256D01*
X91912460Y-98936000D01*
X91896064Y-98780000D01*
X103154540Y-98780000D01*
X103174326Y-98968256D01*
X103174327Y-98968259D01*
X103232818Y-99148277D01*
X103232821Y-99148284D01*
X103327467Y-99312216D01*
X103396475Y-99388857D01*
X103454129Y-99452888D01*
X103607265Y-99564148D01*
X103607270Y-99564151D01*
X103780192Y-99641142D01*
X103780197Y-99641144D01*
X103965354Y-99680500D01*
X103965355Y-99680500D01*
X104154644Y-99680500D01*
X104154646Y-99680500D01*
X104339803Y-99641144D01*
X104512730Y-99564151D01*
X104665871Y-99452888D01*
X104792533Y-99312216D01*
X104887179Y-99148284D01*
X104945674Y-98968256D01*
X104965460Y-98780000D01*
X104945674Y-98591744D01*
X104887179Y-98411716D01*
X104792533Y-98247784D01*
X104665871Y-98107112D01*
X104621476Y-98074857D01*
X104512734Y-97995851D01*
X104512729Y-97995848D01*
X104499594Y-97990000D01*
X122494540Y-97990000D01*
X122514326Y-98178256D01*
X122514327Y-98178259D01*
X122572818Y-98358277D01*
X122572821Y-98358284D01*
X122667467Y-98522216D01*
X122794129Y-98662888D01*
X122947265Y-98774148D01*
X122947270Y-98774151D01*
X123120192Y-98851142D01*
X123120197Y-98851144D01*
X123305354Y-98890500D01*
X123305355Y-98890500D01*
X123494644Y-98890500D01*
X123494646Y-98890500D01*
X123679803Y-98851144D01*
X123852730Y-98774151D01*
X124005871Y-98662888D01*
X124132533Y-98522216D01*
X124227179Y-98358284D01*
X124285674Y-98178256D01*
X124305460Y-97990000D01*
X124285674Y-97801744D01*
X124227179Y-97621716D01*
X124132533Y-97457784D01*
X124005871Y-97317112D01*
X124005870Y-97317111D01*
X123852734Y-97205851D01*
X123852729Y-97205848D01*
X123679807Y-97128857D01*
X123679802Y-97128855D01*
X123534001Y-97097865D01*
X123494646Y-97089500D01*
X123305354Y-97089500D01*
X123272897Y-97096398D01*
X123120197Y-97128855D01*
X123120192Y-97128857D01*
X122947270Y-97205848D01*
X122947265Y-97205851D01*
X122794129Y-97317111D01*
X122667466Y-97457785D01*
X122572821Y-97621715D01*
X122572818Y-97621722D01*
X122518256Y-97789648D01*
X122514326Y-97801744D01*
X122494540Y-97990000D01*
X104499594Y-97990000D01*
X104339807Y-97918857D01*
X104339802Y-97918855D01*
X104194001Y-97887865D01*
X104154646Y-97879500D01*
X103965354Y-97879500D01*
X103932897Y-97886398D01*
X103780197Y-97918855D01*
X103780192Y-97918857D01*
X103607270Y-97995848D01*
X103607265Y-97995851D01*
X103454129Y-98107111D01*
X103327466Y-98247785D01*
X103232821Y-98411715D01*
X103232818Y-98411722D01*
X103182133Y-98567716D01*
X103174326Y-98591744D01*
X103154540Y-98780000D01*
X91896064Y-98780000D01*
X91892674Y-98747744D01*
X91834179Y-98567716D01*
X91739533Y-98403784D01*
X91612871Y-98263112D01*
X91612870Y-98263111D01*
X91459734Y-98151851D01*
X91459729Y-98151848D01*
X91286807Y-98074857D01*
X91286802Y-98074855D01*
X91141001Y-98043865D01*
X91101646Y-98035500D01*
X90912354Y-98035500D01*
X90879897Y-98042398D01*
X90727197Y-98074855D01*
X90727192Y-98074857D01*
X90554270Y-98151848D01*
X90554265Y-98151851D01*
X90401129Y-98263111D01*
X90274466Y-98403785D01*
X90179821Y-98567715D01*
X90179818Y-98567722D01*
X90121327Y-98747740D01*
X90121326Y-98747744D01*
X90101540Y-98936000D01*
X58260000Y-98936000D01*
X58260000Y-97005500D01*
X106874540Y-97005500D01*
X106894326Y-97193756D01*
X106894327Y-97193759D01*
X106952818Y-97373777D01*
X106952821Y-97373784D01*
X107047467Y-97537716D01*
X107123101Y-97621716D01*
X107174129Y-97678388D01*
X107327265Y-97789648D01*
X107327270Y-97789651D01*
X107500192Y-97866642D01*
X107500197Y-97866644D01*
X107685354Y-97906000D01*
X107685355Y-97906000D01*
X107874644Y-97906000D01*
X107874646Y-97906000D01*
X108059803Y-97866644D01*
X108232730Y-97789651D01*
X108385871Y-97678388D01*
X108512533Y-97537716D01*
X108607179Y-97373784D01*
X108665674Y-97193756D01*
X108685460Y-97005500D01*
X108665674Y-96817244D01*
X108607179Y-96637216D01*
X108512533Y-96473284D01*
X108385871Y-96332612D01*
X108385870Y-96332611D01*
X108232734Y-96221351D01*
X108232729Y-96221348D01*
X108092787Y-96159041D01*
X108834540Y-96159041D01*
X108854326Y-96347297D01*
X108854327Y-96347300D01*
X108912818Y-96527318D01*
X108912821Y-96527325D01*
X109007467Y-96691257D01*
X109115412Y-96811142D01*
X109134129Y-96831929D01*
X109287265Y-96943189D01*
X109287270Y-96943192D01*
X109460192Y-97020183D01*
X109460197Y-97020185D01*
X109645354Y-97059541D01*
X109645355Y-97059541D01*
X109834644Y-97059541D01*
X109834646Y-97059541D01*
X110019803Y-97020185D01*
X110192730Y-96943192D01*
X110345871Y-96831929D01*
X110472533Y-96691257D01*
X110567179Y-96527325D01*
X110625674Y-96347297D01*
X110645460Y-96159041D01*
X110625674Y-95970785D01*
X110567179Y-95790757D01*
X110472533Y-95626825D01*
X110345871Y-95486153D01*
X110345870Y-95486152D01*
X110192734Y-95374892D01*
X110192729Y-95374889D01*
X110019807Y-95297898D01*
X110019802Y-95297896D01*
X109849583Y-95261716D01*
X109834646Y-95258541D01*
X109645354Y-95258541D01*
X109630417Y-95261716D01*
X109460197Y-95297896D01*
X109460192Y-95297898D01*
X109287270Y-95374889D01*
X109287265Y-95374892D01*
X109134129Y-95486152D01*
X109007466Y-95626826D01*
X108912821Y-95790756D01*
X108912818Y-95790763D01*
X108854327Y-95970781D01*
X108854326Y-95970785D01*
X108834540Y-96159041D01*
X108092787Y-96159041D01*
X108059807Y-96144357D01*
X108059802Y-96144355D01*
X107914001Y-96113365D01*
X107874646Y-96105000D01*
X107685354Y-96105000D01*
X107652897Y-96111898D01*
X107500197Y-96144355D01*
X107500192Y-96144357D01*
X107327270Y-96221348D01*
X107327265Y-96221351D01*
X107174129Y-96332611D01*
X107047466Y-96473285D01*
X106952821Y-96637215D01*
X106952818Y-96637222D01*
X106896308Y-96811144D01*
X106894326Y-96817244D01*
X106874540Y-97005500D01*
X58260000Y-97005500D01*
X58260000Y-95060000D01*
X91244540Y-95060000D01*
X91264326Y-95248256D01*
X91264327Y-95248259D01*
X91322818Y-95428277D01*
X91322821Y-95428284D01*
X91417467Y-95592216D01*
X91544129Y-95732888D01*
X91697265Y-95844148D01*
X91697270Y-95844151D01*
X91870192Y-95921142D01*
X91870197Y-95921144D01*
X92055354Y-95960500D01*
X92055355Y-95960500D01*
X92244644Y-95960500D01*
X92244646Y-95960500D01*
X92429803Y-95921144D01*
X92602730Y-95844151D01*
X92755871Y-95732888D01*
X92882533Y-95592216D01*
X92977179Y-95428284D01*
X93035674Y-95248256D01*
X93055460Y-95060000D01*
X93035674Y-94871744D01*
X92977179Y-94691716D01*
X92882533Y-94527784D01*
X92755871Y-94387112D01*
X92755870Y-94387111D01*
X92602734Y-94275851D01*
X92602729Y-94275848D01*
X92429807Y-94198857D01*
X92429802Y-94198855D01*
X92284001Y-94167865D01*
X92244646Y-94159500D01*
X92055354Y-94159500D01*
X92022897Y-94166398D01*
X91870197Y-94198855D01*
X91870192Y-94198857D01*
X91697270Y-94275848D01*
X91697265Y-94275851D01*
X91544129Y-94387111D01*
X91417466Y-94527785D01*
X91322821Y-94691715D01*
X91322818Y-94691722D01*
X91264599Y-94870904D01*
X91264326Y-94871744D01*
X91244540Y-95060000D01*
X58260000Y-95060000D01*
X58260000Y-93870000D01*
X94274540Y-93870000D01*
X94294326Y-94058256D01*
X94294327Y-94058259D01*
X94352818Y-94238277D01*
X94352821Y-94238284D01*
X94447467Y-94402216D01*
X94556121Y-94522888D01*
X94574129Y-94542888D01*
X94727265Y-94654148D01*
X94727270Y-94654151D01*
X94900192Y-94731142D01*
X94900197Y-94731144D01*
X95085354Y-94770500D01*
X95085355Y-94770500D01*
X95274644Y-94770500D01*
X95274646Y-94770500D01*
X95459803Y-94731144D01*
X95632730Y-94654151D01*
X95785871Y-94542888D01*
X95912533Y-94402216D01*
X96007179Y-94238284D01*
X96065674Y-94058256D01*
X96085460Y-93870000D01*
X97370540Y-93870000D01*
X97390326Y-94058256D01*
X97390327Y-94058259D01*
X97448818Y-94238277D01*
X97448821Y-94238284D01*
X97543467Y-94402216D01*
X97652121Y-94522888D01*
X97670129Y-94542888D01*
X97823265Y-94654148D01*
X97823270Y-94654151D01*
X97996192Y-94731142D01*
X97996197Y-94731144D01*
X98181354Y-94770500D01*
X98181355Y-94770500D01*
X98370644Y-94770500D01*
X98370646Y-94770500D01*
X98555803Y-94731144D01*
X98728730Y-94654151D01*
X98881871Y-94542888D01*
X99008533Y-94402216D01*
X99103179Y-94238284D01*
X99161674Y-94058256D01*
X99181460Y-93870000D01*
X99179358Y-93850000D01*
X100313540Y-93850000D01*
X100333326Y-94038256D01*
X100333327Y-94038259D01*
X100391818Y-94218277D01*
X100391821Y-94218284D01*
X100486467Y-94382216D01*
X100613129Y-94522888D01*
X100766265Y-94634148D01*
X100766270Y-94634151D01*
X100939192Y-94711142D01*
X100939197Y-94711144D01*
X101124354Y-94750500D01*
X101124355Y-94750500D01*
X101313644Y-94750500D01*
X101313646Y-94750500D01*
X101498803Y-94711144D01*
X101671730Y-94634151D01*
X101824871Y-94522888D01*
X101951533Y-94382216D01*
X101958586Y-94370000D01*
X121254540Y-94370000D01*
X121274326Y-94558256D01*
X121274327Y-94558259D01*
X121332818Y-94738277D01*
X121332821Y-94738284D01*
X121427467Y-94902216D01*
X121521580Y-95006739D01*
X121554129Y-95042888D01*
X121707265Y-95154148D01*
X121707270Y-95154151D01*
X121880192Y-95231142D01*
X121880197Y-95231144D01*
X122065354Y-95270500D01*
X122065355Y-95270500D01*
X122254644Y-95270500D01*
X122254646Y-95270500D01*
X122394021Y-95240875D01*
X122463687Y-95246191D01*
X122519421Y-95288328D01*
X122543526Y-95353908D01*
X122537732Y-95400482D01*
X122524327Y-95441738D01*
X122524326Y-95441742D01*
X122524326Y-95441744D01*
X122504540Y-95630000D01*
X122524326Y-95818256D01*
X122524327Y-95818259D01*
X122582818Y-95998277D01*
X122582821Y-95998284D01*
X122677467Y-96162216D01*
X122730710Y-96221348D01*
X122804129Y-96302888D01*
X122957265Y-96414148D01*
X122957270Y-96414151D01*
X123130192Y-96491142D01*
X123130197Y-96491144D01*
X123315354Y-96530500D01*
X123315355Y-96530500D01*
X123504644Y-96530500D01*
X123504646Y-96530500D01*
X123689803Y-96491144D01*
X123689804Y-96491143D01*
X123691711Y-96490738D01*
X123761378Y-96496054D01*
X123809642Y-96529056D01*
X123894129Y-96622888D01*
X124047265Y-96734148D01*
X124047270Y-96734151D01*
X124220192Y-96811142D01*
X124220197Y-96811144D01*
X124405354Y-96850500D01*
X124405355Y-96850500D01*
X124594644Y-96850500D01*
X124594646Y-96850500D01*
X124779803Y-96811144D01*
X124952730Y-96734151D01*
X125105871Y-96622888D01*
X125232533Y-96482216D01*
X125327179Y-96318284D01*
X125385674Y-96138256D01*
X125405460Y-95950000D01*
X125385674Y-95761744D01*
X125327179Y-95581716D01*
X125232533Y-95417784D01*
X125105871Y-95277112D01*
X125105870Y-95277111D01*
X124952734Y-95165851D01*
X124952729Y-95165848D01*
X124779807Y-95088857D01*
X124779802Y-95088855D01*
X124616734Y-95054195D01*
X124594646Y-95049500D01*
X124405354Y-95049500D01*
X124388187Y-95053148D01*
X124383265Y-95054195D01*
X124313598Y-95048877D01*
X124257865Y-95006739D01*
X124233762Y-94941158D01*
X124248940Y-94872957D01*
X124250057Y-94870978D01*
X124303575Y-94778284D01*
X124362070Y-94598256D01*
X124381856Y-94410000D01*
X124362070Y-94221744D01*
X124303575Y-94041716D01*
X124208929Y-93877784D01*
X124082267Y-93737112D01*
X124082266Y-93737111D01*
X123929130Y-93625851D01*
X123929125Y-93625848D01*
X123756203Y-93548857D01*
X123756198Y-93548855D01*
X123610397Y-93517865D01*
X123571042Y-93509500D01*
X123428073Y-93509500D01*
X123361034Y-93489815D01*
X123315279Y-93437011D01*
X123305335Y-93367853D01*
X123310142Y-93347182D01*
X123313196Y-93337784D01*
X123348021Y-93230603D01*
X123367807Y-93042347D01*
X123348021Y-92854091D01*
X123289526Y-92674063D01*
X123194880Y-92510131D01*
X123104595Y-92409860D01*
X126270040Y-92409860D01*
X126289826Y-92598116D01*
X126289827Y-92598119D01*
X126348318Y-92778137D01*
X126348321Y-92778144D01*
X126442967Y-92942076D01*
X126503097Y-93008857D01*
X126569629Y-93082748D01*
X126722765Y-93194008D01*
X126722770Y-93194011D01*
X126895692Y-93271002D01*
X126895697Y-93271004D01*
X127080854Y-93310360D01*
X127080855Y-93310360D01*
X127270144Y-93310360D01*
X127270146Y-93310360D01*
X127455303Y-93271004D01*
X127628230Y-93194011D01*
X127781371Y-93082748D01*
X127908033Y-92942076D01*
X128002679Y-92778144D01*
X128061174Y-92598116D01*
X128080960Y-92409860D01*
X128061174Y-92221604D01*
X128002679Y-92041576D01*
X127908033Y-91877644D01*
X127781371Y-91736972D01*
X127767350Y-91726785D01*
X127628234Y-91625711D01*
X127628229Y-91625708D01*
X127455307Y-91548717D01*
X127455302Y-91548715D01*
X127309501Y-91517725D01*
X127270146Y-91509360D01*
X127080854Y-91509360D01*
X127048397Y-91516258D01*
X126895697Y-91548715D01*
X126895692Y-91548717D01*
X126722770Y-91625708D01*
X126722765Y-91625711D01*
X126569629Y-91736971D01*
X126442966Y-91877645D01*
X126348321Y-92041575D01*
X126348318Y-92041582D01*
X126289827Y-92221600D01*
X126289826Y-92221604D01*
X126270040Y-92409860D01*
X123104595Y-92409860D01*
X123068218Y-92369459D01*
X123040963Y-92349657D01*
X122915081Y-92258198D01*
X122915076Y-92258195D01*
X122742154Y-92181204D01*
X122742149Y-92181202D01*
X122596348Y-92150212D01*
X122556993Y-92141847D01*
X122367701Y-92141847D01*
X122335244Y-92148745D01*
X122182544Y-92181202D01*
X122182539Y-92181204D01*
X122009617Y-92258195D01*
X122009612Y-92258198D01*
X121856476Y-92369458D01*
X121729813Y-92510132D01*
X121635168Y-92674062D01*
X121635165Y-92674069D01*
X121576674Y-92854087D01*
X121576673Y-92854091D01*
X121556887Y-93042347D01*
X121576673Y-93230603D01*
X121576674Y-93230606D01*
X121635165Y-93410624D01*
X121635168Y-93410631D01*
X121650398Y-93437011D01*
X121671917Y-93474282D01*
X121688390Y-93542182D01*
X121665537Y-93608209D01*
X121637416Y-93636600D01*
X121554127Y-93697113D01*
X121427466Y-93837785D01*
X121332821Y-94001715D01*
X121332818Y-94001722D01*
X121274327Y-94181740D01*
X121274326Y-94181744D01*
X121254540Y-94370000D01*
X101958586Y-94370000D01*
X102046179Y-94218284D01*
X102104674Y-94038256D01*
X102124460Y-93850000D01*
X102104674Y-93661744D01*
X102046179Y-93481716D01*
X101951533Y-93317784D01*
X101824871Y-93177112D01*
X101824870Y-93177111D01*
X101671734Y-93065851D01*
X101671729Y-93065848D01*
X101498807Y-92988857D01*
X101498802Y-92988855D01*
X101353001Y-92957865D01*
X101313646Y-92949500D01*
X101124354Y-92949500D01*
X101091897Y-92956398D01*
X100939197Y-92988855D01*
X100939192Y-92988857D01*
X100766270Y-93065848D01*
X100766265Y-93065851D01*
X100613129Y-93177111D01*
X100486466Y-93317785D01*
X100391821Y-93481715D01*
X100391818Y-93481722D01*
X100333327Y-93661740D01*
X100333326Y-93661744D01*
X100313540Y-93850000D01*
X99179358Y-93850000D01*
X99161674Y-93681744D01*
X99103179Y-93501716D01*
X99008533Y-93337784D01*
X98881871Y-93197112D01*
X98877599Y-93194008D01*
X98728734Y-93085851D01*
X98728729Y-93085848D01*
X98555807Y-93008857D01*
X98555802Y-93008855D01*
X98410001Y-92977865D01*
X98370646Y-92969500D01*
X98181354Y-92969500D01*
X98148897Y-92976398D01*
X97996197Y-93008855D01*
X97996192Y-93008857D01*
X97823270Y-93085848D01*
X97823265Y-93085851D01*
X97670129Y-93197111D01*
X97543466Y-93337785D01*
X97448821Y-93501715D01*
X97448818Y-93501722D01*
X97396824Y-93661744D01*
X97390326Y-93681744D01*
X97370540Y-93870000D01*
X96085460Y-93870000D01*
X96065674Y-93681744D01*
X96007179Y-93501716D01*
X95912533Y-93337784D01*
X95785871Y-93197112D01*
X95781599Y-93194008D01*
X95632734Y-93085851D01*
X95632729Y-93085848D01*
X95459807Y-93008857D01*
X95459802Y-93008855D01*
X95314001Y-92977865D01*
X95274646Y-92969500D01*
X95085354Y-92969500D01*
X95052897Y-92976398D01*
X94900197Y-93008855D01*
X94900192Y-93008857D01*
X94727270Y-93085848D01*
X94727265Y-93085851D01*
X94574129Y-93197111D01*
X94447466Y-93337785D01*
X94352821Y-93501715D01*
X94352818Y-93501722D01*
X94300824Y-93661744D01*
X94294326Y-93681744D01*
X94274540Y-93870000D01*
X58260000Y-93870000D01*
X58260000Y-92830000D01*
X107744540Y-92830000D01*
X107764326Y-93018256D01*
X107764327Y-93018259D01*
X107822818Y-93198277D01*
X107822821Y-93198284D01*
X107917467Y-93362216D01*
X107984813Y-93437011D01*
X108044129Y-93502888D01*
X108197265Y-93614148D01*
X108197270Y-93614151D01*
X108370192Y-93691142D01*
X108370197Y-93691144D01*
X108555354Y-93730500D01*
X108555355Y-93730500D01*
X108744644Y-93730500D01*
X108744646Y-93730500D01*
X108929803Y-93691144D01*
X109102730Y-93614151D01*
X109255871Y-93502888D01*
X109382533Y-93362216D01*
X109477179Y-93198284D01*
X109535674Y-93018256D01*
X109555460Y-92830000D01*
X109553810Y-92814305D01*
X109566376Y-92745578D01*
X109614106Y-92694552D01*
X109681846Y-92677432D01*
X109748088Y-92699652D01*
X109784517Y-92739342D01*
X109814466Y-92791214D01*
X109814465Y-92791214D01*
X109941129Y-92931888D01*
X110094265Y-93043148D01*
X110094270Y-93043151D01*
X110267192Y-93120142D01*
X110267197Y-93120144D01*
X110452354Y-93159500D01*
X110452355Y-93159500D01*
X110641644Y-93159500D01*
X110641646Y-93159500D01*
X110826803Y-93120144D01*
X110999730Y-93043151D01*
X111152871Y-92931888D01*
X111279533Y-92791216D01*
X111374179Y-92627284D01*
X111432674Y-92447256D01*
X111452460Y-92259000D01*
X111432674Y-92070744D01*
X111374179Y-91890716D01*
X111279533Y-91726784D01*
X111152871Y-91586112D01*
X111150168Y-91584148D01*
X110999734Y-91474851D01*
X110999729Y-91474848D01*
X110826807Y-91397857D01*
X110826802Y-91397855D01*
X110681001Y-91366865D01*
X110641646Y-91358500D01*
X110452354Y-91358500D01*
X110419897Y-91365398D01*
X110267197Y-91397855D01*
X110267192Y-91397857D01*
X110094270Y-91474848D01*
X110094265Y-91474851D01*
X109941129Y-91586111D01*
X109814466Y-91726785D01*
X109719821Y-91890715D01*
X109719818Y-91890722D01*
X109670803Y-92041576D01*
X109661326Y-92070744D01*
X109645471Y-92221600D01*
X109641540Y-92258999D01*
X109643190Y-92274695D01*
X109630621Y-92343425D01*
X109582888Y-92394449D01*
X109515148Y-92411567D01*
X109448907Y-92389345D01*
X109412482Y-92349657D01*
X109405737Y-92337975D01*
X109382533Y-92297784D01*
X109255871Y-92157112D01*
X109255870Y-92157111D01*
X109102734Y-92045851D01*
X109102729Y-92045848D01*
X108929807Y-91968857D01*
X108929802Y-91968855D01*
X108784001Y-91937865D01*
X108744646Y-91929500D01*
X108555354Y-91929500D01*
X108522897Y-91936398D01*
X108370197Y-91968855D01*
X108370192Y-91968857D01*
X108197270Y-92045848D01*
X108197265Y-92045851D01*
X108044129Y-92157111D01*
X107917466Y-92297785D01*
X107822821Y-92461715D01*
X107822818Y-92461722D01*
X107769024Y-92627284D01*
X107764326Y-92641744D01*
X107744540Y-92830000D01*
X58260000Y-92830000D01*
X58260000Y-90677653D01*
X96856887Y-90677653D01*
X96876673Y-90865909D01*
X96876674Y-90865912D01*
X96935165Y-91045930D01*
X96935168Y-91045937D01*
X97029814Y-91209869D01*
X97139974Y-91332214D01*
X97156476Y-91350541D01*
X97309612Y-91461801D01*
X97309617Y-91461804D01*
X97482539Y-91538795D01*
X97482544Y-91538797D01*
X97667701Y-91578153D01*
X97667702Y-91578153D01*
X97856991Y-91578153D01*
X97856993Y-91578153D01*
X98042150Y-91538797D01*
X98215077Y-91461804D01*
X98368218Y-91350541D01*
X98494880Y-91209869D01*
X98589526Y-91045937D01*
X98648021Y-90865909D01*
X98667807Y-90677653D01*
X98648021Y-90489397D01*
X98589526Y-90309369D01*
X98532155Y-90210000D01*
X99014540Y-90210000D01*
X99034326Y-90398256D01*
X99034327Y-90398259D01*
X99092818Y-90578277D01*
X99092821Y-90578284D01*
X99187467Y-90742216D01*
X99259055Y-90821722D01*
X99314129Y-90882888D01*
X99467265Y-90994148D01*
X99467270Y-90994151D01*
X99640192Y-91071142D01*
X99640197Y-91071144D01*
X99825354Y-91110500D01*
X99825355Y-91110500D01*
X100014644Y-91110500D01*
X100014646Y-91110500D01*
X100199803Y-91071144D01*
X100372730Y-90994151D01*
X100525871Y-90882888D01*
X100600504Y-90800000D01*
X113994540Y-90800000D01*
X114014326Y-90988256D01*
X114014327Y-90988259D01*
X114072818Y-91168277D01*
X114072821Y-91168284D01*
X114167467Y-91332216D01*
X114226569Y-91397855D01*
X114294129Y-91472888D01*
X114447265Y-91584148D01*
X114447270Y-91584151D01*
X114620192Y-91661142D01*
X114620197Y-91661144D01*
X114805354Y-91700500D01*
X114805355Y-91700500D01*
X114994644Y-91700500D01*
X114994646Y-91700500D01*
X115179803Y-91661144D01*
X115352730Y-91584151D01*
X115384871Y-91560799D01*
X117359339Y-91560799D01*
X117379125Y-91749055D01*
X117379126Y-91749058D01*
X117437617Y-91929076D01*
X117437620Y-91929083D01*
X117532266Y-92093015D01*
X117611670Y-92181202D01*
X117658928Y-92233687D01*
X117812064Y-92344947D01*
X117812069Y-92344950D01*
X117984991Y-92421941D01*
X117984996Y-92421943D01*
X118170153Y-92461299D01*
X118170154Y-92461299D01*
X118359443Y-92461299D01*
X118359445Y-92461299D01*
X118544602Y-92421943D01*
X118717529Y-92344950D01*
X118870670Y-92233687D01*
X118997332Y-92093015D01*
X119091978Y-91929083D01*
X119150473Y-91749055D01*
X119170259Y-91560799D01*
X119150473Y-91372543D01*
X119091978Y-91192515D01*
X119090526Y-91190000D01*
X133314540Y-91190000D01*
X133334326Y-91378256D01*
X133334327Y-91378259D01*
X133392818Y-91558277D01*
X133392821Y-91558284D01*
X133487467Y-91722216D01*
X133511636Y-91749058D01*
X133614129Y-91862888D01*
X133767265Y-91974148D01*
X133767270Y-91974151D01*
X133940192Y-92051142D01*
X133940197Y-92051144D01*
X134125354Y-92090500D01*
X134125355Y-92090500D01*
X134314644Y-92090500D01*
X134314646Y-92090500D01*
X134499803Y-92051144D01*
X134672730Y-91974151D01*
X134825871Y-91862888D01*
X134952533Y-91722216D01*
X135047179Y-91558284D01*
X135105674Y-91378256D01*
X135125460Y-91190000D01*
X135105674Y-91001744D01*
X135047179Y-90821716D01*
X134952533Y-90657784D01*
X134825871Y-90517112D01*
X134825870Y-90517111D01*
X134672734Y-90405851D01*
X134672729Y-90405848D01*
X134499807Y-90328857D01*
X134499802Y-90328855D01*
X134354001Y-90297865D01*
X134314646Y-90289500D01*
X134125354Y-90289500D01*
X134092897Y-90296398D01*
X133940197Y-90328855D01*
X133940192Y-90328857D01*
X133767270Y-90405848D01*
X133767265Y-90405851D01*
X133614129Y-90517111D01*
X133487466Y-90657785D01*
X133392821Y-90821715D01*
X133392818Y-90821722D01*
X133336794Y-90994148D01*
X133334326Y-91001744D01*
X133314540Y-91190000D01*
X119090526Y-91190000D01*
X118997332Y-91028583D01*
X118870670Y-90887911D01*
X118870669Y-90887910D01*
X118717533Y-90776650D01*
X118717528Y-90776647D01*
X118544606Y-90699656D01*
X118544601Y-90699654D01*
X118398800Y-90668664D01*
X118359445Y-90660299D01*
X118170153Y-90660299D01*
X118137696Y-90667197D01*
X117984996Y-90699654D01*
X117984991Y-90699656D01*
X117812069Y-90776647D01*
X117812064Y-90776650D01*
X117658928Y-90887910D01*
X117532265Y-91028584D01*
X117437620Y-91192514D01*
X117437617Y-91192521D01*
X117392228Y-91332216D01*
X117379125Y-91372543D01*
X117359339Y-91560799D01*
X115384871Y-91560799D01*
X115505871Y-91472888D01*
X115632533Y-91332216D01*
X115727179Y-91168284D01*
X115785674Y-90988256D01*
X115805460Y-90800000D01*
X115785674Y-90611744D01*
X115727179Y-90431716D01*
X115632533Y-90267784D01*
X115505871Y-90127112D01*
X115505870Y-90127111D01*
X115352734Y-90015851D01*
X115352729Y-90015848D01*
X115179807Y-89938857D01*
X115179802Y-89938855D01*
X115034001Y-89907865D01*
X114994646Y-89899500D01*
X114805354Y-89899500D01*
X114772897Y-89906398D01*
X114620197Y-89938855D01*
X114620192Y-89938857D01*
X114447270Y-90015848D01*
X114447265Y-90015851D01*
X114294129Y-90127111D01*
X114167466Y-90267785D01*
X114072821Y-90431715D01*
X114072818Y-90431722D01*
X114014327Y-90611740D01*
X114014326Y-90611744D01*
X113994540Y-90800000D01*
X100600504Y-90800000D01*
X100652533Y-90742216D01*
X100747179Y-90578284D01*
X100805674Y-90398256D01*
X100825460Y-90210000D01*
X100809053Y-90053899D01*
X100821622Y-89985173D01*
X100869354Y-89934149D01*
X100894071Y-89923005D01*
X100899787Y-89921147D01*
X100899803Y-89921144D01*
X101072730Y-89844151D01*
X101225871Y-89732888D01*
X101352533Y-89592216D01*
X101447179Y-89428284D01*
X101505674Y-89248256D01*
X101525460Y-89060000D01*
X101505674Y-88871744D01*
X101447179Y-88691716D01*
X101352533Y-88527784D01*
X101225871Y-88387112D01*
X101225870Y-88387111D01*
X101072734Y-88275851D01*
X101072729Y-88275848D01*
X100899807Y-88198857D01*
X100899802Y-88198855D01*
X100754001Y-88167865D01*
X100714646Y-88159500D01*
X100525354Y-88159500D01*
X100492897Y-88166398D01*
X100340197Y-88198855D01*
X100340192Y-88198857D01*
X100167270Y-88275848D01*
X100167265Y-88275851D01*
X100014129Y-88387111D01*
X99887466Y-88527785D01*
X99792821Y-88691715D01*
X99792818Y-88691722D01*
X99734327Y-88871740D01*
X99734326Y-88871744D01*
X99714540Y-89060000D01*
X99730946Y-89216096D01*
X99718376Y-89284826D01*
X99670644Y-89335849D01*
X99645949Y-89346986D01*
X99640197Y-89348854D01*
X99467270Y-89425848D01*
X99467265Y-89425851D01*
X99314129Y-89537111D01*
X99187466Y-89677785D01*
X99092821Y-89841715D01*
X99092818Y-89841722D01*
X99034327Y-90021740D01*
X99034326Y-90021744D01*
X99014540Y-90210000D01*
X98532155Y-90210000D01*
X98494880Y-90145437D01*
X98368218Y-90004765D01*
X98341252Y-89985173D01*
X98215081Y-89893504D01*
X98215076Y-89893501D01*
X98042154Y-89816510D01*
X98042149Y-89816508D01*
X97896348Y-89785518D01*
X97856993Y-89777153D01*
X97667701Y-89777153D01*
X97635244Y-89784051D01*
X97482544Y-89816508D01*
X97482539Y-89816510D01*
X97309617Y-89893501D01*
X97309612Y-89893504D01*
X97156476Y-90004764D01*
X97029813Y-90145438D01*
X96935168Y-90309368D01*
X96935165Y-90309375D01*
X96876674Y-90489393D01*
X96876673Y-90489397D01*
X96856887Y-90677653D01*
X58260000Y-90677653D01*
X58260000Y-87034530D01*
X115219364Y-87034530D01*
X115239150Y-87222786D01*
X115239151Y-87222789D01*
X115297642Y-87402807D01*
X115297645Y-87402814D01*
X115392291Y-87566746D01*
X115496259Y-87682214D01*
X115518953Y-87707418D01*
X115672089Y-87818678D01*
X115672094Y-87818681D01*
X115845021Y-87895674D01*
X115892952Y-87905861D01*
X115954431Y-87939052D01*
X115988208Y-88000215D01*
X115990490Y-88014188D01*
X115999326Y-88098256D01*
X115999327Y-88098258D01*
X115999327Y-88098260D01*
X116057818Y-88278277D01*
X116057821Y-88278284D01*
X116152467Y-88442216D01*
X116229513Y-88527784D01*
X116279129Y-88582888D01*
X116432265Y-88694148D01*
X116432270Y-88694151D01*
X116605192Y-88771142D01*
X116605197Y-88771144D01*
X116790354Y-88810500D01*
X116790355Y-88810500D01*
X116979644Y-88810500D01*
X116979646Y-88810500D01*
X117164803Y-88771144D01*
X117320768Y-88701702D01*
X117390018Y-88692418D01*
X117425411Y-88704856D01*
X117425757Y-88704080D01*
X117604615Y-88783714D01*
X117604620Y-88783716D01*
X117789777Y-88823072D01*
X117789778Y-88823072D01*
X117979067Y-88823072D01*
X117979069Y-88823072D01*
X118164226Y-88783716D01*
X118337153Y-88706723D01*
X118490294Y-88595460D01*
X118616956Y-88454788D01*
X118711602Y-88290856D01*
X118770097Y-88110828D01*
X118789883Y-87922572D01*
X118770097Y-87734316D01*
X118711602Y-87554288D01*
X118616956Y-87390356D01*
X118490294Y-87249684D01*
X118490293Y-87249683D01*
X118353091Y-87150000D01*
X160029540Y-87150000D01*
X160049326Y-87338256D01*
X160049327Y-87338259D01*
X160107818Y-87518277D01*
X160107821Y-87518284D01*
X160202467Y-87682216D01*
X160325338Y-87818678D01*
X160329129Y-87822888D01*
X160482265Y-87934148D01*
X160482270Y-87934151D01*
X160655192Y-88011142D01*
X160655197Y-88011144D01*
X160840354Y-88050500D01*
X160840355Y-88050500D01*
X161029644Y-88050500D01*
X161029646Y-88050500D01*
X161214803Y-88011144D01*
X161387730Y-87934151D01*
X161540871Y-87822888D01*
X161667533Y-87682216D01*
X161762179Y-87518284D01*
X161820674Y-87338256D01*
X161840460Y-87150000D01*
X161820674Y-86961744D01*
X161762179Y-86781716D01*
X161667533Y-86617784D01*
X161540871Y-86477112D01*
X161540870Y-86477111D01*
X161387734Y-86365851D01*
X161387729Y-86365848D01*
X161214807Y-86288857D01*
X161214802Y-86288855D01*
X161069001Y-86257865D01*
X161029646Y-86249500D01*
X160840354Y-86249500D01*
X160807897Y-86256398D01*
X160655197Y-86288855D01*
X160655192Y-86288857D01*
X160482270Y-86365848D01*
X160482265Y-86365851D01*
X160329129Y-86477111D01*
X160202466Y-86617785D01*
X160107821Y-86781715D01*
X160107818Y-86781722D01*
X160049327Y-86961740D01*
X160049326Y-86961744D01*
X160029540Y-87150000D01*
X118353091Y-87150000D01*
X118337157Y-87138423D01*
X118337152Y-87138420D01*
X118164230Y-87061429D01*
X118164225Y-87061427D01*
X118018424Y-87030437D01*
X117979069Y-87022072D01*
X117789777Y-87022072D01*
X117757320Y-87028970D01*
X117604620Y-87061427D01*
X117448653Y-87130869D01*
X117379403Y-87140153D01*
X117344011Y-87127716D01*
X117343666Y-87128492D01*
X117164807Y-87048857D01*
X117164805Y-87048856D01*
X117116870Y-87038667D01*
X117055389Y-87005473D01*
X117021613Y-86944310D01*
X117019334Y-86930354D01*
X117010498Y-86846274D01*
X116952003Y-86666246D01*
X116857357Y-86502314D01*
X116730695Y-86361642D01*
X116730694Y-86361641D01*
X116577558Y-86250381D01*
X116577553Y-86250378D01*
X116404631Y-86173387D01*
X116404626Y-86173385D01*
X116258825Y-86142395D01*
X116219470Y-86134030D01*
X116030178Y-86134030D01*
X115997721Y-86140928D01*
X115845021Y-86173385D01*
X115845016Y-86173387D01*
X115672094Y-86250378D01*
X115672089Y-86250381D01*
X115518953Y-86361641D01*
X115392290Y-86502315D01*
X115297645Y-86666245D01*
X115297642Y-86666252D01*
X115260126Y-86781716D01*
X115239150Y-86846274D01*
X115219364Y-87034530D01*
X58260000Y-87034530D01*
X58260000Y-84520000D01*
X115110786Y-84520000D01*
X115130572Y-84708256D01*
X115130573Y-84708259D01*
X115189064Y-84888277D01*
X115189067Y-84888284D01*
X115283713Y-85052216D01*
X115410375Y-85192888D01*
X115563511Y-85304148D01*
X115563516Y-85304151D01*
X115736438Y-85381142D01*
X115736443Y-85381144D01*
X115921600Y-85420500D01*
X115921601Y-85420500D01*
X116110890Y-85420500D01*
X116110892Y-85420500D01*
X116296049Y-85381144D01*
X116468976Y-85304151D01*
X116598564Y-85210000D01*
X117574540Y-85210000D01*
X117594326Y-85398256D01*
X117594327Y-85398259D01*
X117652818Y-85578277D01*
X117652821Y-85578284D01*
X117747467Y-85742216D01*
X117874129Y-85882888D01*
X118027265Y-85994148D01*
X118027270Y-85994151D01*
X118200192Y-86071142D01*
X118200197Y-86071144D01*
X118385354Y-86110500D01*
X118385355Y-86110500D01*
X118574644Y-86110500D01*
X118574646Y-86110500D01*
X118759803Y-86071144D01*
X118932730Y-85994151D01*
X119085871Y-85882888D01*
X119212533Y-85742216D01*
X119307179Y-85578284D01*
X119365674Y-85398256D01*
X119385460Y-85210000D01*
X119365674Y-85021744D01*
X119307179Y-84841716D01*
X119212533Y-84677784D01*
X119085871Y-84537112D01*
X119085870Y-84537111D01*
X118932734Y-84425851D01*
X118932729Y-84425848D01*
X118759807Y-84348857D01*
X118759802Y-84348855D01*
X118614001Y-84317865D01*
X118574646Y-84309500D01*
X118385354Y-84309500D01*
X118352897Y-84316398D01*
X118200197Y-84348855D01*
X118200192Y-84348857D01*
X118027270Y-84425848D01*
X118027265Y-84425851D01*
X117874129Y-84537111D01*
X117747466Y-84677785D01*
X117652821Y-84841715D01*
X117652818Y-84841722D01*
X117594327Y-85021740D01*
X117594326Y-85021744D01*
X117574540Y-85210000D01*
X116598564Y-85210000D01*
X116622117Y-85192888D01*
X116748779Y-85052216D01*
X116843425Y-84888284D01*
X116901920Y-84708256D01*
X116921706Y-84520000D01*
X116901920Y-84331744D01*
X116843425Y-84151716D01*
X116748779Y-83987784D01*
X116622117Y-83847112D01*
X116622116Y-83847111D01*
X116468980Y-83735851D01*
X116468975Y-83735848D01*
X116296053Y-83658857D01*
X116296048Y-83658855D01*
X116150247Y-83627865D01*
X116110892Y-83619500D01*
X115921600Y-83619500D01*
X115889143Y-83626398D01*
X115736443Y-83658855D01*
X115736438Y-83658857D01*
X115563516Y-83735848D01*
X115563511Y-83735851D01*
X115410375Y-83847111D01*
X115283712Y-83987785D01*
X115189067Y-84151715D01*
X115189064Y-84151722D01*
X115130573Y-84331740D01*
X115130572Y-84331744D01*
X115110786Y-84520000D01*
X58260000Y-84520000D01*
X58260000Y-78244999D01*
X157004357Y-78244999D01*
X157004357Y-78245000D01*
X157024884Y-78466535D01*
X157024885Y-78466537D01*
X157085769Y-78680523D01*
X157085775Y-78680538D01*
X157184938Y-78879683D01*
X157184943Y-78879691D01*
X157319018Y-79057235D01*
X157424465Y-79153363D01*
X157460746Y-79213075D01*
X157458985Y-79282922D01*
X157424465Y-79336637D01*
X157319018Y-79432764D01*
X157184943Y-79610308D01*
X157184938Y-79610316D01*
X157085775Y-79809461D01*
X157085769Y-79809476D01*
X157024885Y-80023462D01*
X157024884Y-80023464D01*
X157004357Y-80244999D01*
X157004357Y-80245000D01*
X157024884Y-80466535D01*
X157024885Y-80466537D01*
X157085769Y-80680523D01*
X157085775Y-80680538D01*
X157184938Y-80879683D01*
X157184943Y-80879691D01*
X157319018Y-81057235D01*
X157424465Y-81153363D01*
X157460746Y-81213075D01*
X157458985Y-81282922D01*
X157424465Y-81336637D01*
X157319018Y-81432764D01*
X157184943Y-81610308D01*
X157184938Y-81610316D01*
X157085775Y-81809461D01*
X157085769Y-81809476D01*
X157024885Y-82023462D01*
X157024884Y-82023464D01*
X157004357Y-82244999D01*
X157004357Y-82245000D01*
X157024884Y-82466535D01*
X157024885Y-82466537D01*
X157085769Y-82680523D01*
X157085775Y-82680538D01*
X157184938Y-82879683D01*
X157184943Y-82879691D01*
X157319020Y-83057238D01*
X157483437Y-83207123D01*
X157483439Y-83207125D01*
X157672595Y-83324245D01*
X157672596Y-83324245D01*
X157672599Y-83324247D01*
X157880060Y-83404618D01*
X158098757Y-83445500D01*
X158098759Y-83445500D01*
X158321241Y-83445500D01*
X158321243Y-83445500D01*
X158539940Y-83404618D01*
X158747401Y-83324247D01*
X158936562Y-83207124D01*
X159100981Y-83057236D01*
X159111046Y-83043906D01*
X159167153Y-83002271D01*
X159236865Y-82997578D01*
X159298047Y-83031319D01*
X159308948Y-83043900D01*
X159319019Y-83057236D01*
X159319022Y-83057239D01*
X159319025Y-83057242D01*
X159483437Y-83207123D01*
X159483439Y-83207125D01*
X159672595Y-83324245D01*
X159672596Y-83324245D01*
X159672599Y-83324247D01*
X159880060Y-83404618D01*
X160098757Y-83445500D01*
X160098759Y-83445500D01*
X160321241Y-83445500D01*
X160321243Y-83445500D01*
X160539940Y-83404618D01*
X160747401Y-83324247D01*
X160936562Y-83207124D01*
X161076282Y-83079751D01*
X161100979Y-83057238D01*
X161100982Y-83057235D01*
X161235058Y-82879689D01*
X161334229Y-82680528D01*
X161395115Y-82466536D01*
X161415643Y-82245000D01*
X161395115Y-82023464D01*
X161334229Y-81809472D01*
X161334224Y-81809461D01*
X161235061Y-81610316D01*
X161235056Y-81610308D01*
X161100979Y-81432761D01*
X160936562Y-81282876D01*
X160936560Y-81282874D01*
X160747404Y-81165754D01*
X160747398Y-81165752D01*
X160539940Y-81085382D01*
X160321243Y-81044500D01*
X160098757Y-81044500D01*
X159880060Y-81085382D01*
X159748864Y-81136207D01*
X159672601Y-81165752D01*
X159672595Y-81165754D01*
X159483439Y-81282874D01*
X159483437Y-81282876D01*
X159319019Y-81432762D01*
X159308953Y-81446093D01*
X159252844Y-81487728D01*
X159183132Y-81492419D01*
X159121950Y-81458676D01*
X159111047Y-81446093D01*
X159106800Y-81440470D01*
X159100981Y-81432764D01*
X158995531Y-81336633D01*
X158959253Y-81276927D01*
X158961013Y-81207079D01*
X158995531Y-81153366D01*
X159100981Y-81057236D01*
X159235058Y-80879689D01*
X159334229Y-80680528D01*
X159395115Y-80466536D01*
X159415643Y-80245000D01*
X159395115Y-80023464D01*
X159334229Y-79809472D01*
X159334224Y-79809461D01*
X159235061Y-79610316D01*
X159235056Y-79610308D01*
X159200180Y-79564125D01*
X159100981Y-79432764D01*
X158995531Y-79336633D01*
X158959253Y-79276927D01*
X158961013Y-79207079D01*
X158995531Y-79153366D01*
X159100981Y-79057236D01*
X159111046Y-79043906D01*
X159167153Y-79002271D01*
X159236865Y-78997578D01*
X159298047Y-79031319D01*
X159308948Y-79043900D01*
X159319019Y-79057236D01*
X159319022Y-79057239D01*
X159319025Y-79057242D01*
X159483437Y-79207123D01*
X159483439Y-79207125D01*
X159672595Y-79324245D01*
X159672596Y-79324245D01*
X159672599Y-79324247D01*
X159880060Y-79404618D01*
X160098757Y-79445500D01*
X160098759Y-79445500D01*
X160321241Y-79445500D01*
X160321243Y-79445500D01*
X160539940Y-79404618D01*
X160747401Y-79324247D01*
X160936562Y-79207124D01*
X161076282Y-79079751D01*
X161100979Y-79057238D01*
X161100982Y-79057235D01*
X161235058Y-78879689D01*
X161334229Y-78680528D01*
X161395115Y-78466536D01*
X161415643Y-78245000D01*
X161395115Y-78023464D01*
X161334229Y-77809472D01*
X161334224Y-77809461D01*
X161235061Y-77610316D01*
X161235056Y-77610308D01*
X161100979Y-77432761D01*
X160936562Y-77282876D01*
X160936560Y-77282874D01*
X160747404Y-77165754D01*
X160747398Y-77165752D01*
X160539940Y-77085382D01*
X160321243Y-77044500D01*
X160098757Y-77044500D01*
X159880060Y-77085382D01*
X159748864Y-77136207D01*
X159672601Y-77165752D01*
X159672595Y-77165754D01*
X159483439Y-77282874D01*
X159483437Y-77282876D01*
X159319019Y-77432762D01*
X159308953Y-77446093D01*
X159252844Y-77487728D01*
X159183132Y-77492419D01*
X159121950Y-77458676D01*
X159111047Y-77446093D01*
X159100980Y-77432762D01*
X158936562Y-77282876D01*
X158936560Y-77282874D01*
X158747404Y-77165754D01*
X158747398Y-77165752D01*
X158539940Y-77085382D01*
X158321243Y-77044500D01*
X158098757Y-77044500D01*
X157880060Y-77085382D01*
X157748864Y-77136207D01*
X157672601Y-77165752D01*
X157672595Y-77165754D01*
X157483439Y-77282874D01*
X157483437Y-77282876D01*
X157319020Y-77432761D01*
X157184943Y-77610308D01*
X157184938Y-77610316D01*
X157085775Y-77809461D01*
X157085769Y-77809476D01*
X157024885Y-78023462D01*
X157024884Y-78023464D01*
X157004357Y-78244999D01*
X58260000Y-78244999D01*
X58260000Y-68930000D01*
X117584540Y-68930000D01*
X117604326Y-69118256D01*
X117604327Y-69118259D01*
X117662818Y-69298277D01*
X117662821Y-69298284D01*
X117757467Y-69462216D01*
X117878927Y-69597111D01*
X117884129Y-69602888D01*
X118037265Y-69714148D01*
X118037270Y-69714151D01*
X118210192Y-69791142D01*
X118210197Y-69791144D01*
X118395354Y-69830500D01*
X118395355Y-69830500D01*
X118584644Y-69830500D01*
X118584646Y-69830500D01*
X118769803Y-69791144D01*
X118942730Y-69714151D01*
X119095871Y-69602888D01*
X119222533Y-69462216D01*
X119317179Y-69298284D01*
X119371858Y-69130000D01*
X129044540Y-69130000D01*
X129064326Y-69318256D01*
X129064327Y-69318259D01*
X129122818Y-69498277D01*
X129122821Y-69498284D01*
X129217467Y-69662216D01*
X129264227Y-69714148D01*
X129344129Y-69802888D01*
X129497265Y-69914148D01*
X129497270Y-69914151D01*
X129670192Y-69991142D01*
X129670197Y-69991144D01*
X129855354Y-70030500D01*
X129855355Y-70030500D01*
X130044644Y-70030500D01*
X130044646Y-70030500D01*
X130204961Y-69996424D01*
X130274628Y-70001740D01*
X130330362Y-70043877D01*
X130354467Y-70109457D01*
X130348673Y-70156031D01*
X130314327Y-70261739D01*
X130314327Y-70261740D01*
X130314326Y-70261744D01*
X130294540Y-70450000D01*
X130314326Y-70638256D01*
X130314327Y-70638259D01*
X130372818Y-70818277D01*
X130372821Y-70818284D01*
X130467467Y-70982216D01*
X130532235Y-71054148D01*
X130594129Y-71122888D01*
X130747265Y-71234148D01*
X130747270Y-71234151D01*
X130920192Y-71311142D01*
X130920197Y-71311144D01*
X131105354Y-71350500D01*
X131105355Y-71350500D01*
X131294644Y-71350500D01*
X131294646Y-71350500D01*
X131479803Y-71311144D01*
X131652730Y-71234151D01*
X131805871Y-71122888D01*
X131932533Y-70982216D01*
X132027179Y-70818284D01*
X132085674Y-70638256D01*
X132105460Y-70450000D01*
X132086542Y-70270000D01*
X140694540Y-70270000D01*
X140714326Y-70458256D01*
X140714327Y-70458259D01*
X140772818Y-70638277D01*
X140772821Y-70638284D01*
X140867467Y-70802216D01*
X140881935Y-70818284D01*
X140994129Y-70942888D01*
X141147265Y-71054148D01*
X141147270Y-71054151D01*
X141320192Y-71131142D01*
X141320197Y-71131144D01*
X141505354Y-71170500D01*
X141505355Y-71170500D01*
X141694644Y-71170500D01*
X141694646Y-71170500D01*
X141879803Y-71131144D01*
X142052730Y-71054151D01*
X142205871Y-70942888D01*
X142332533Y-70802216D01*
X142427179Y-70638284D01*
X142485674Y-70458256D01*
X142505460Y-70270000D01*
X142485674Y-70081744D01*
X142427179Y-69901716D01*
X142332533Y-69737784D01*
X142205871Y-69597112D01*
X142194508Y-69588856D01*
X142052734Y-69485851D01*
X142052729Y-69485848D01*
X141879807Y-69408857D01*
X141879802Y-69408855D01*
X141734001Y-69377865D01*
X141694646Y-69369500D01*
X141505354Y-69369500D01*
X141472897Y-69376398D01*
X141320197Y-69408855D01*
X141320192Y-69408857D01*
X141147270Y-69485848D01*
X141147265Y-69485851D01*
X140994129Y-69597111D01*
X140867466Y-69737785D01*
X140772821Y-69901715D01*
X140772818Y-69901722D01*
X140714335Y-70081715D01*
X140714326Y-70081744D01*
X140694540Y-70270000D01*
X132086542Y-70270000D01*
X132085674Y-70261744D01*
X132027179Y-70081716D01*
X131932533Y-69917784D01*
X131805871Y-69777112D01*
X131751740Y-69737784D01*
X131686566Y-69690432D01*
X131643900Y-69635102D01*
X131637921Y-69565489D01*
X131670527Y-69503694D01*
X131731365Y-69469337D01*
X131733571Y-69468845D01*
X131769803Y-69461144D01*
X131769807Y-69461142D01*
X131769808Y-69461142D01*
X131887242Y-69408856D01*
X131942730Y-69384151D01*
X132095871Y-69272888D01*
X132114462Y-69252240D01*
X132173945Y-69215591D01*
X132243802Y-69216919D01*
X132257045Y-69221931D01*
X132300197Y-69241144D01*
X132485354Y-69280500D01*
X132485355Y-69280500D01*
X132674644Y-69280500D01*
X132674646Y-69280500D01*
X132859803Y-69241144D01*
X133032730Y-69164151D01*
X133185871Y-69052888D01*
X133312533Y-68912216D01*
X133407179Y-68748284D01*
X133465674Y-68568256D01*
X133485460Y-68380000D01*
X133465674Y-68191744D01*
X133407179Y-68011716D01*
X133312533Y-67847784D01*
X133185871Y-67707112D01*
X133185863Y-67707106D01*
X133032734Y-67595851D01*
X133032729Y-67595848D01*
X132859807Y-67518857D01*
X132859802Y-67518855D01*
X132714001Y-67487865D01*
X132674646Y-67479500D01*
X132485354Y-67479500D01*
X132452897Y-67486398D01*
X132300197Y-67518855D01*
X132300192Y-67518857D01*
X132127270Y-67595848D01*
X132127265Y-67595851D01*
X131974135Y-67707106D01*
X131974126Y-67707114D01*
X131955534Y-67727762D01*
X131896047Y-67764409D01*
X131826190Y-67763076D01*
X131812952Y-67758067D01*
X131769802Y-67738855D01*
X131620430Y-67707106D01*
X131584646Y-67699500D01*
X131395354Y-67699500D01*
X131362897Y-67706398D01*
X131210197Y-67738855D01*
X131210192Y-67738857D01*
X131037270Y-67815848D01*
X131037265Y-67815851D01*
X130884129Y-67927111D01*
X130757466Y-68067785D01*
X130662821Y-68231715D01*
X130662819Y-68231719D01*
X130635886Y-68314611D01*
X130596448Y-68372286D01*
X130532089Y-68399484D01*
X130463243Y-68387569D01*
X130445070Y-68376610D01*
X130402734Y-68345851D01*
X130402729Y-68345848D01*
X130229807Y-68268857D01*
X130229802Y-68268855D01*
X130084001Y-68237865D01*
X130044646Y-68229500D01*
X129855354Y-68229500D01*
X129822897Y-68236398D01*
X129670197Y-68268855D01*
X129670192Y-68268857D01*
X129497270Y-68345848D01*
X129497265Y-68345851D01*
X129344129Y-68457111D01*
X129217466Y-68597785D01*
X129122821Y-68761715D01*
X129122818Y-68761722D01*
X129073921Y-68912214D01*
X129064326Y-68941744D01*
X129044540Y-69130000D01*
X119371858Y-69130000D01*
X119375674Y-69118256D01*
X119395460Y-68930000D01*
X119375674Y-68741744D01*
X119319304Y-68568256D01*
X119317181Y-68561722D01*
X119317180Y-68561721D01*
X119317179Y-68561716D01*
X119222533Y-68397784D01*
X119095871Y-68257112D01*
X119095870Y-68257111D01*
X118942734Y-68145851D01*
X118942729Y-68145848D01*
X118769807Y-68068857D01*
X118769802Y-68068855D01*
X118624001Y-68037865D01*
X118584646Y-68029500D01*
X118395354Y-68029500D01*
X118362897Y-68036398D01*
X118210197Y-68068855D01*
X118210192Y-68068857D01*
X118037270Y-68145848D01*
X118037265Y-68145851D01*
X117884129Y-68257111D01*
X117757466Y-68397785D01*
X117662821Y-68561715D01*
X117662818Y-68561722D01*
X117604327Y-68741740D01*
X117604326Y-68741744D01*
X117584540Y-68930000D01*
X58260000Y-68930000D01*
X58260000Y-67280000D01*
X108774540Y-67280000D01*
X108794326Y-67468256D01*
X108794327Y-67468259D01*
X108852818Y-67648277D01*
X108852821Y-67648284D01*
X108947467Y-67812216D01*
X109050919Y-67927111D01*
X109074129Y-67952888D01*
X109227265Y-68064148D01*
X109227270Y-68064151D01*
X109400192Y-68141142D01*
X109400197Y-68141144D01*
X109585354Y-68180500D01*
X109585355Y-68180500D01*
X109774644Y-68180500D01*
X109774646Y-68180500D01*
X109959803Y-68141144D01*
X110132730Y-68064151D01*
X110206874Y-68010282D01*
X110272678Y-67986803D01*
X110340732Y-68002628D01*
X110389427Y-68052734D01*
X110397689Y-68072283D01*
X110458122Y-68258276D01*
X110458125Y-68258283D01*
X110552771Y-68422215D01*
X110678378Y-68561715D01*
X110679433Y-68562887D01*
X110832569Y-68674147D01*
X110832574Y-68674150D01*
X111005496Y-68751141D01*
X111005501Y-68751143D01*
X111190658Y-68790499D01*
X111190659Y-68790499D01*
X111379948Y-68790499D01*
X111379950Y-68790499D01*
X111565107Y-68751143D01*
X111738034Y-68674150D01*
X111891175Y-68562887D01*
X112017837Y-68422215D01*
X112112483Y-68258283D01*
X112170978Y-68078255D01*
X112190764Y-67889999D01*
X112170978Y-67701743D01*
X112112483Y-67521715D01*
X112017837Y-67357783D01*
X111891175Y-67217111D01*
X111868772Y-67200834D01*
X111738038Y-67105850D01*
X111738033Y-67105847D01*
X111565111Y-67028856D01*
X111565106Y-67028854D01*
X111419305Y-66997864D01*
X111379950Y-66989499D01*
X111190658Y-66989499D01*
X111158201Y-66996397D01*
X111005501Y-67028854D01*
X111005496Y-67028856D01*
X110832574Y-67105847D01*
X110832570Y-67105849D01*
X110758429Y-67159716D01*
X110692623Y-67183195D01*
X110624569Y-67167369D01*
X110575875Y-67117263D01*
X110567614Y-67097715D01*
X110507181Y-66911721D01*
X110507178Y-66911715D01*
X110412533Y-66747784D01*
X110285871Y-66607112D01*
X110285870Y-66607111D01*
X110132734Y-66495851D01*
X110132729Y-66495848D01*
X109959807Y-66418857D01*
X109959802Y-66418855D01*
X109814001Y-66387865D01*
X109774646Y-66379500D01*
X109585354Y-66379500D01*
X109552897Y-66386398D01*
X109400197Y-66418855D01*
X109400192Y-66418857D01*
X109227270Y-66495848D01*
X109227265Y-66495851D01*
X109074129Y-66607111D01*
X108947466Y-66747785D01*
X108852821Y-66911715D01*
X108852818Y-66911722D01*
X108799004Y-67077346D01*
X108794326Y-67091744D01*
X108774540Y-67280000D01*
X58260000Y-67280000D01*
X58260000Y-65540000D01*
X127074540Y-65540000D01*
X127094326Y-65728256D01*
X127094327Y-65728259D01*
X127152818Y-65908277D01*
X127152821Y-65908284D01*
X127247467Y-66072216D01*
X127276934Y-66104942D01*
X127374129Y-66212888D01*
X127527265Y-66324148D01*
X127527270Y-66324151D01*
X127700192Y-66401142D01*
X127700197Y-66401144D01*
X127885354Y-66440500D01*
X127885355Y-66440500D01*
X128074644Y-66440500D01*
X128074646Y-66440500D01*
X128186697Y-66416683D01*
X133709521Y-66416683D01*
X133729307Y-66604939D01*
X133729308Y-66604942D01*
X133787799Y-66784960D01*
X133787802Y-66784967D01*
X133882448Y-66948899D01*
X133919005Y-66989499D01*
X134009110Y-67089571D01*
X134162246Y-67200831D01*
X134162251Y-67200834D01*
X134335173Y-67277825D01*
X134335178Y-67277827D01*
X134520335Y-67317183D01*
X134520336Y-67317183D01*
X134709625Y-67317183D01*
X134709627Y-67317183D01*
X134894784Y-67277827D01*
X135067711Y-67200834D01*
X135220852Y-67089571D01*
X135347514Y-66948899D01*
X135442160Y-66784967D01*
X135500655Y-66604939D01*
X135520441Y-66416683D01*
X135507463Y-66293198D01*
X136227738Y-66293198D01*
X136247524Y-66481454D01*
X136247525Y-66481457D01*
X136306016Y-66661475D01*
X136306019Y-66661482D01*
X136400665Y-66825414D01*
X136511850Y-66948897D01*
X136527327Y-66966086D01*
X136680463Y-67077346D01*
X136680468Y-67077349D01*
X136853390Y-67154340D01*
X136853395Y-67154342D01*
X137038552Y-67193698D01*
X137038553Y-67193698D01*
X137227842Y-67193698D01*
X137227844Y-67193698D01*
X137413001Y-67154342D01*
X137585928Y-67077349D01*
X137739069Y-66966086D01*
X137865731Y-66825414D01*
X137960377Y-66661482D01*
X138018872Y-66481454D01*
X138038658Y-66293198D01*
X138018872Y-66104942D01*
X137960377Y-65924914D01*
X137865731Y-65760982D01*
X137739069Y-65620310D01*
X137739068Y-65620309D01*
X137585932Y-65509049D01*
X137585927Y-65509046D01*
X137413005Y-65432055D01*
X137413000Y-65432053D01*
X137267199Y-65401063D01*
X137227844Y-65392698D01*
X137038552Y-65392698D01*
X137006095Y-65399596D01*
X136853395Y-65432053D01*
X136853390Y-65432055D01*
X136680468Y-65509046D01*
X136680463Y-65509049D01*
X136527327Y-65620309D01*
X136400664Y-65760983D01*
X136306019Y-65924913D01*
X136306016Y-65924920D01*
X136265894Y-66048405D01*
X136247524Y-66104942D01*
X136227738Y-66293198D01*
X135507463Y-66293198D01*
X135500655Y-66228427D01*
X135442160Y-66048399D01*
X135440376Y-66045309D01*
X135439888Y-66043299D01*
X135439519Y-66042469D01*
X135439670Y-66042401D01*
X135423903Y-65977412D01*
X135440375Y-65921311D01*
X135517179Y-65788284D01*
X135575674Y-65608256D01*
X135595460Y-65420000D01*
X135575674Y-65231744D01*
X135517179Y-65051716D01*
X135422533Y-64887784D01*
X135295871Y-64747112D01*
X135295870Y-64747111D01*
X135142734Y-64635851D01*
X135142729Y-64635848D01*
X134969807Y-64558857D01*
X134969802Y-64558855D01*
X134824001Y-64527865D01*
X134784646Y-64519500D01*
X134595354Y-64519500D01*
X134562897Y-64526398D01*
X134410197Y-64558855D01*
X134410192Y-64558857D01*
X134237270Y-64635848D01*
X134237265Y-64635851D01*
X134084129Y-64747111D01*
X133957466Y-64887785D01*
X133862821Y-65051715D01*
X133862818Y-65051722D01*
X133823830Y-65171716D01*
X133804326Y-65231744D01*
X133784540Y-65420000D01*
X133804326Y-65608256D01*
X133804327Y-65608259D01*
X133862820Y-65788284D01*
X133864603Y-65791371D01*
X133865091Y-65793386D01*
X133865464Y-65794222D01*
X133865311Y-65794290D01*
X133881077Y-65859271D01*
X133864604Y-65915372D01*
X133787804Y-66048393D01*
X133787799Y-66048405D01*
X133734356Y-66212888D01*
X133729307Y-66228427D01*
X133709521Y-66416683D01*
X128186697Y-66416683D01*
X128259803Y-66401144D01*
X128432730Y-66324151D01*
X128585871Y-66212888D01*
X128712533Y-66072216D01*
X128807179Y-65908284D01*
X128865674Y-65728256D01*
X128885460Y-65540000D01*
X128865674Y-65351744D01*
X128807179Y-65171716D01*
X128712533Y-65007784D01*
X128585871Y-64867112D01*
X128585870Y-64867111D01*
X128432734Y-64755851D01*
X128432729Y-64755848D01*
X128259807Y-64678857D01*
X128259802Y-64678855D01*
X128114001Y-64647865D01*
X128074646Y-64639500D01*
X127885354Y-64639500D01*
X127852897Y-64646398D01*
X127700197Y-64678855D01*
X127700192Y-64678857D01*
X127527270Y-64755848D01*
X127527265Y-64755851D01*
X127374129Y-64867111D01*
X127247466Y-65007785D01*
X127152821Y-65171715D01*
X127152818Y-65171722D01*
X127094327Y-65351740D01*
X127094326Y-65351744D01*
X127074540Y-65540000D01*
X58260000Y-65540000D01*
X58260000Y-62730000D01*
X70384540Y-62730000D01*
X70404326Y-62918256D01*
X70404327Y-62918259D01*
X70462818Y-63098277D01*
X70462821Y-63098284D01*
X70557467Y-63262216D01*
X70679958Y-63398256D01*
X70684129Y-63402888D01*
X70837265Y-63514148D01*
X70837270Y-63514151D01*
X71010192Y-63591142D01*
X71010197Y-63591144D01*
X71195354Y-63630500D01*
X71195355Y-63630500D01*
X71384644Y-63630500D01*
X71384646Y-63630500D01*
X71569803Y-63591144D01*
X71742730Y-63514151D01*
X71895871Y-63402888D01*
X72022533Y-63262216D01*
X72052680Y-63210000D01*
X108724540Y-63210000D01*
X108744326Y-63398256D01*
X108744327Y-63398259D01*
X108802818Y-63578277D01*
X108802821Y-63578284D01*
X108897467Y-63742216D01*
X109024129Y-63882888D01*
X109177265Y-63994148D01*
X109177270Y-63994151D01*
X109350192Y-64071142D01*
X109350197Y-64071144D01*
X109535354Y-64110500D01*
X109535355Y-64110500D01*
X109724644Y-64110500D01*
X109724646Y-64110500D01*
X109909803Y-64071144D01*
X110082730Y-63994151D01*
X110235871Y-63882888D01*
X110362533Y-63742216D01*
X110457179Y-63578284D01*
X110515674Y-63398256D01*
X110535460Y-63210000D01*
X110515674Y-63021744D01*
X110457179Y-62841716D01*
X110421547Y-62780000D01*
X115534540Y-62780000D01*
X115554326Y-62968256D01*
X115554327Y-62968259D01*
X115612818Y-63148277D01*
X115612821Y-63148284D01*
X115707467Y-63312216D01*
X115784938Y-63398256D01*
X115834129Y-63452888D01*
X115987265Y-63564148D01*
X115987270Y-63564151D01*
X116160192Y-63641142D01*
X116160197Y-63641144D01*
X116345354Y-63680500D01*
X116345355Y-63680500D01*
X116534644Y-63680500D01*
X116534646Y-63680500D01*
X116719803Y-63641144D01*
X116892730Y-63564151D01*
X117045871Y-63452888D01*
X117172533Y-63312216D01*
X117267179Y-63148284D01*
X117325674Y-62968256D01*
X117345460Y-62780000D01*
X117341781Y-62745000D01*
X123014540Y-62745000D01*
X123034326Y-62933256D01*
X123034327Y-62933259D01*
X123092818Y-63113277D01*
X123092821Y-63113284D01*
X123187467Y-63277216D01*
X123296452Y-63398256D01*
X123314129Y-63417888D01*
X123467265Y-63529148D01*
X123467270Y-63529151D01*
X123640192Y-63606142D01*
X123640197Y-63606144D01*
X123825354Y-63645500D01*
X123825355Y-63645500D01*
X124014644Y-63645500D01*
X124014646Y-63645500D01*
X124199803Y-63606144D01*
X124372730Y-63529151D01*
X124525871Y-63417888D01*
X124652533Y-63277216D01*
X124747179Y-63113284D01*
X124805674Y-62933256D01*
X124825460Y-62745000D01*
X124819415Y-62687492D01*
X124831984Y-62618767D01*
X124879715Y-62567743D01*
X124947455Y-62550624D01*
X125013697Y-62572846D01*
X125034886Y-62591562D01*
X125144129Y-62712888D01*
X125297265Y-62824148D01*
X125297270Y-62824151D01*
X125470192Y-62901142D01*
X125470197Y-62901144D01*
X125655354Y-62940500D01*
X125655355Y-62940500D01*
X125844644Y-62940500D01*
X125844646Y-62940500D01*
X126029803Y-62901144D01*
X126202730Y-62824151D01*
X126355871Y-62712888D01*
X126482533Y-62572216D01*
X126577179Y-62408284D01*
X126635674Y-62228256D01*
X126650205Y-62090000D01*
X130734540Y-62090000D01*
X130754326Y-62278256D01*
X130754327Y-62278259D01*
X130812818Y-62458277D01*
X130812821Y-62458284D01*
X130907467Y-62622216D01*
X131034129Y-62762888D01*
X131187265Y-62874148D01*
X131187270Y-62874151D01*
X131360192Y-62951142D01*
X131360197Y-62951144D01*
X131545354Y-62990500D01*
X131545355Y-62990500D01*
X131734644Y-62990500D01*
X131734646Y-62990500D01*
X131919803Y-62951144D01*
X132012213Y-62910000D01*
X132037807Y-62898605D01*
X132107057Y-62889320D01*
X132161128Y-62911566D01*
X132247265Y-62974148D01*
X132247270Y-62974151D01*
X132420192Y-63051142D01*
X132420197Y-63051144D01*
X132605354Y-63090500D01*
X132605355Y-63090500D01*
X132794644Y-63090500D01*
X132794646Y-63090500D01*
X132979803Y-63051144D01*
X133152730Y-62974151D01*
X133305871Y-62862888D01*
X133360291Y-62802448D01*
X133419776Y-62765800D01*
X133489633Y-62767130D01*
X133547682Y-62806017D01*
X133575492Y-62870113D01*
X133575761Y-62898380D01*
X133575471Y-62901142D01*
X133574540Y-62910000D01*
X133594326Y-63098256D01*
X133594327Y-63098259D01*
X133652818Y-63278277D01*
X133652821Y-63278284D01*
X133747467Y-63442216D01*
X133812235Y-63514148D01*
X133874129Y-63582888D01*
X134027265Y-63694148D01*
X134027270Y-63694151D01*
X134200192Y-63771142D01*
X134200197Y-63771144D01*
X134385354Y-63810500D01*
X134385355Y-63810500D01*
X134574644Y-63810500D01*
X134574646Y-63810500D01*
X134759803Y-63771144D01*
X134932730Y-63694151D01*
X135085871Y-63582888D01*
X135212533Y-63442216D01*
X135307179Y-63278284D01*
X135365674Y-63098256D01*
X135385460Y-62910000D01*
X135365674Y-62721744D01*
X135307179Y-62541716D01*
X135212533Y-62377784D01*
X135085871Y-62237112D01*
X135082104Y-62234375D01*
X134932734Y-62125851D01*
X134932729Y-62125848D01*
X134759807Y-62048857D01*
X134759802Y-62048855D01*
X134614001Y-62017865D01*
X134574646Y-62009500D01*
X134385354Y-62009500D01*
X134352897Y-62016398D01*
X134200197Y-62048855D01*
X134200192Y-62048857D01*
X134027270Y-62125848D01*
X134027265Y-62125851D01*
X133874129Y-62237111D01*
X133874128Y-62237112D01*
X133819708Y-62297551D01*
X133760221Y-62334199D01*
X133690364Y-62332868D01*
X133632316Y-62293981D01*
X133604507Y-62229884D01*
X133604239Y-62201616D01*
X133605460Y-62190000D01*
X133585674Y-62001744D01*
X133527179Y-61821716D01*
X133432533Y-61657784D01*
X133305871Y-61517112D01*
X133305870Y-61517111D01*
X133152734Y-61405851D01*
X133152729Y-61405848D01*
X132979807Y-61328857D01*
X132979802Y-61328855D01*
X132834001Y-61297865D01*
X132794646Y-61289500D01*
X132605354Y-61289500D01*
X132572897Y-61296398D01*
X132420197Y-61328855D01*
X132420192Y-61328857D01*
X132302193Y-61381395D01*
X132232943Y-61390680D01*
X132178872Y-61368434D01*
X132092734Y-61305851D01*
X132092729Y-61305848D01*
X131919807Y-61228857D01*
X131919802Y-61228855D01*
X131774001Y-61197865D01*
X131734646Y-61189500D01*
X131545354Y-61189500D01*
X131512897Y-61196398D01*
X131360197Y-61228855D01*
X131360192Y-61228857D01*
X131187270Y-61305848D01*
X131187265Y-61305851D01*
X131034129Y-61417111D01*
X130907466Y-61557785D01*
X130812821Y-61721715D01*
X130812818Y-61721722D01*
X130754327Y-61901740D01*
X130754326Y-61901744D01*
X130734540Y-62090000D01*
X126650205Y-62090000D01*
X126655460Y-62040000D01*
X126635674Y-61851744D01*
X126577179Y-61671716D01*
X126482533Y-61507784D01*
X126355871Y-61367112D01*
X126355870Y-61367111D01*
X126202734Y-61255851D01*
X126202729Y-61255848D01*
X126029807Y-61178857D01*
X126029802Y-61178855D01*
X125884001Y-61147865D01*
X125844646Y-61139500D01*
X125655354Y-61139500D01*
X125622897Y-61146398D01*
X125470197Y-61178855D01*
X125470192Y-61178857D01*
X125297270Y-61255848D01*
X125297265Y-61255851D01*
X125144129Y-61367111D01*
X125017466Y-61507785D01*
X124922821Y-61671715D01*
X124922818Y-61671722D01*
X124864327Y-61851740D01*
X124864326Y-61851744D01*
X124844540Y-62040000D01*
X124846338Y-62057112D01*
X124850584Y-62097504D01*
X124838014Y-62166234D01*
X124790282Y-62217257D01*
X124722542Y-62234375D01*
X124656300Y-62212152D01*
X124635113Y-62193437D01*
X124525870Y-62072111D01*
X124372734Y-61960851D01*
X124372729Y-61960848D01*
X124199807Y-61883857D01*
X124199802Y-61883855D01*
X124054001Y-61852865D01*
X124014646Y-61844500D01*
X123825354Y-61844500D01*
X123792897Y-61851398D01*
X123640197Y-61883855D01*
X123640192Y-61883857D01*
X123467270Y-61960848D01*
X123467265Y-61960851D01*
X123314129Y-62072111D01*
X123187466Y-62212785D01*
X123092821Y-62376715D01*
X123092818Y-62376722D01*
X123034327Y-62556740D01*
X123034326Y-62556744D01*
X123014540Y-62745000D01*
X117341781Y-62745000D01*
X117325674Y-62591744D01*
X117267179Y-62411716D01*
X117172533Y-62247784D01*
X117045871Y-62107112D01*
X117032647Y-62097504D01*
X116892734Y-61995851D01*
X116892729Y-61995848D01*
X116719807Y-61918857D01*
X116719802Y-61918855D01*
X116555144Y-61883857D01*
X116534646Y-61879500D01*
X116345354Y-61879500D01*
X116324856Y-61883857D01*
X116160197Y-61918855D01*
X116160192Y-61918857D01*
X115987270Y-61995848D01*
X115987265Y-61995851D01*
X115834129Y-62107111D01*
X115707466Y-62247785D01*
X115612821Y-62411715D01*
X115612818Y-62411722D01*
X115560671Y-62572216D01*
X115554326Y-62591744D01*
X115534540Y-62780000D01*
X110421547Y-62780000D01*
X110362533Y-62677784D01*
X110235871Y-62537112D01*
X110235870Y-62537111D01*
X110082734Y-62425851D01*
X110082729Y-62425848D01*
X109909807Y-62348857D01*
X109909802Y-62348855D01*
X109764001Y-62317865D01*
X109724646Y-62309500D01*
X109535354Y-62309500D01*
X109502897Y-62316398D01*
X109350197Y-62348855D01*
X109350192Y-62348857D01*
X109177270Y-62425848D01*
X109177265Y-62425851D01*
X109024129Y-62537111D01*
X108897466Y-62677785D01*
X108802821Y-62841715D01*
X108802818Y-62841722D01*
X108744327Y-63021740D01*
X108744326Y-63021744D01*
X108724540Y-63210000D01*
X72052680Y-63210000D01*
X72117179Y-63098284D01*
X72175674Y-62918256D01*
X72195460Y-62730000D01*
X72175674Y-62541744D01*
X72117179Y-62361716D01*
X72022533Y-62197784D01*
X71895871Y-62057112D01*
X71884508Y-62048856D01*
X71742734Y-61945851D01*
X71742729Y-61945848D01*
X71569807Y-61868857D01*
X71569802Y-61868855D01*
X71424001Y-61837865D01*
X71384646Y-61829500D01*
X71195354Y-61829500D01*
X71162897Y-61836398D01*
X71010197Y-61868855D01*
X71010192Y-61868857D01*
X70837270Y-61945848D01*
X70837265Y-61945851D01*
X70684129Y-62057111D01*
X70557466Y-62197785D01*
X70462821Y-62361715D01*
X70462818Y-62361722D01*
X70405831Y-62537111D01*
X70404326Y-62541744D01*
X70384540Y-62730000D01*
X58260000Y-62730000D01*
X58260000Y-56197021D01*
X58260066Y-56192978D01*
X58261673Y-56143720D01*
X58261674Y-56143718D01*
X58261673Y-56143715D01*
X58265831Y-56115675D01*
X58291843Y-56018594D01*
X58304226Y-55988701D01*
X58353452Y-55903437D01*
X58373151Y-55877766D01*
X58442766Y-55808151D01*
X58468437Y-55788452D01*
X58553701Y-55739226D01*
X58583594Y-55726843D01*
X58680675Y-55700831D01*
X58708715Y-55696673D01*
X58753582Y-55695209D01*
X58757979Y-55695066D01*
X58762022Y-55695000D01*
X60760000Y-55695000D01*
X60825545Y-55692861D01*
X60952167Y-55658933D01*
X61065694Y-55593388D01*
X61158388Y-55500694D01*
X61223933Y-55387167D01*
X61257861Y-55260545D01*
X61260000Y-55195000D01*
X61260000Y-55009999D01*
X62924571Y-55009999D01*
X62924571Y-55010000D01*
X62944244Y-55222310D01*
X63002596Y-55427392D01*
X63002596Y-55427394D01*
X63097632Y-55618253D01*
X63216121Y-55775156D01*
X63226128Y-55788407D01*
X63368682Y-55918363D01*
X63404963Y-55978075D01*
X63403202Y-56047922D01*
X63368682Y-56101637D01*
X63226127Y-56231593D01*
X63097632Y-56401746D01*
X63002596Y-56592605D01*
X63002596Y-56592607D01*
X62978226Y-56678259D01*
X62944244Y-56797690D01*
X62924571Y-57010000D01*
X62944244Y-57222310D01*
X62980900Y-57351142D01*
X63002596Y-57427392D01*
X63002596Y-57427394D01*
X63097632Y-57618253D01*
X63169450Y-57713354D01*
X63226128Y-57788407D01*
X63383698Y-57932052D01*
X63564981Y-58044298D01*
X63763802Y-58121321D01*
X63973390Y-58160500D01*
X63973392Y-58160500D01*
X64186608Y-58160500D01*
X64186610Y-58160500D01*
X64396198Y-58121321D01*
X64595019Y-58044298D01*
X64776302Y-57932052D01*
X64933872Y-57788407D01*
X64981046Y-57725938D01*
X65037155Y-57684303D01*
X65106867Y-57679612D01*
X65168049Y-57713354D01*
X65178953Y-57725938D01*
X65226128Y-57788407D01*
X65383698Y-57932052D01*
X65564981Y-58044298D01*
X65763802Y-58121321D01*
X65973390Y-58160500D01*
X65973392Y-58160500D01*
X66186608Y-58160500D01*
X66186610Y-58160500D01*
X66396198Y-58121321D01*
X66595019Y-58044298D01*
X66776302Y-57932052D01*
X66933872Y-57788407D01*
X67062366Y-57618255D01*
X67080000Y-57582840D01*
X67157403Y-57427394D01*
X67157403Y-57427393D01*
X67157405Y-57427389D01*
X67215756Y-57222310D01*
X67235429Y-57010000D01*
X67215756Y-56797690D01*
X67157405Y-56592611D01*
X67157403Y-56592606D01*
X67157403Y-56592605D01*
X67062367Y-56401746D01*
X66977115Y-56288856D01*
X66933872Y-56231593D01*
X66791317Y-56101636D01*
X66755036Y-56041926D01*
X66756797Y-55972078D01*
X66791318Y-55918363D01*
X66933872Y-55788407D01*
X67062366Y-55618255D01*
X67105457Y-55531716D01*
X67157403Y-55427394D01*
X67157403Y-55427393D01*
X67157405Y-55427389D01*
X67215756Y-55222310D01*
X67235429Y-55010000D01*
X67235429Y-55009999D01*
X68924571Y-55009999D01*
X68924571Y-55010000D01*
X68944244Y-55222310D01*
X69002596Y-55427392D01*
X69002596Y-55427394D01*
X69097632Y-55618253D01*
X69216121Y-55775156D01*
X69226128Y-55788407D01*
X69368682Y-55918363D01*
X69404963Y-55978075D01*
X69403202Y-56047922D01*
X69368682Y-56101637D01*
X69226127Y-56231593D01*
X69097632Y-56401746D01*
X69002596Y-56592605D01*
X69002596Y-56592607D01*
X68978226Y-56678259D01*
X68944244Y-56797690D01*
X68924571Y-57010000D01*
X68944244Y-57222310D01*
X68980900Y-57351142D01*
X69002596Y-57427392D01*
X69002596Y-57427394D01*
X69097632Y-57618253D01*
X69169450Y-57713354D01*
X69226128Y-57788407D01*
X69383698Y-57932052D01*
X69564981Y-58044298D01*
X69763802Y-58121321D01*
X69973390Y-58160500D01*
X69973392Y-58160500D01*
X70186608Y-58160500D01*
X70186610Y-58160500D01*
X70396198Y-58121321D01*
X70595019Y-58044298D01*
X70776302Y-57932052D01*
X70933872Y-57788407D01*
X71062366Y-57618255D01*
X71080000Y-57582840D01*
X71157403Y-57427394D01*
X71157403Y-57427393D01*
X71157405Y-57427389D01*
X71215756Y-57222310D01*
X71235429Y-57010000D01*
X71215756Y-56797690D01*
X71157405Y-56592611D01*
X71157403Y-56592606D01*
X71157403Y-56592605D01*
X71062367Y-56401746D01*
X70977115Y-56288856D01*
X70933872Y-56231593D01*
X70791317Y-56101636D01*
X70755036Y-56041926D01*
X70756797Y-55972078D01*
X70791318Y-55918363D01*
X70933872Y-55788407D01*
X71062366Y-55618255D01*
X71105457Y-55531716D01*
X71157403Y-55427394D01*
X71157403Y-55427393D01*
X71157405Y-55427389D01*
X71215756Y-55222310D01*
X71235429Y-55010000D01*
X71235429Y-55009999D01*
X72924571Y-55009999D01*
X72924571Y-55010000D01*
X72944244Y-55222310D01*
X73002596Y-55427392D01*
X73002596Y-55427394D01*
X73097632Y-55618253D01*
X73216121Y-55775156D01*
X73226128Y-55788407D01*
X73368682Y-55918363D01*
X73404963Y-55978075D01*
X73403202Y-56047922D01*
X73368682Y-56101637D01*
X73226127Y-56231593D01*
X73097632Y-56401746D01*
X73002596Y-56592605D01*
X73002596Y-56592607D01*
X72978226Y-56678259D01*
X72944244Y-56797690D01*
X72924571Y-57010000D01*
X72944244Y-57222310D01*
X72980900Y-57351142D01*
X73002596Y-57427392D01*
X73002596Y-57427394D01*
X73097632Y-57618253D01*
X73169450Y-57713354D01*
X73226128Y-57788407D01*
X73383698Y-57932052D01*
X73564981Y-58044298D01*
X73763802Y-58121321D01*
X73973390Y-58160500D01*
X73973392Y-58160500D01*
X74186608Y-58160500D01*
X74186610Y-58160500D01*
X74396198Y-58121321D01*
X74595019Y-58044298D01*
X74776302Y-57932052D01*
X74933872Y-57788407D01*
X74981046Y-57725938D01*
X75037155Y-57684303D01*
X75106867Y-57679612D01*
X75168049Y-57713354D01*
X75178953Y-57725938D01*
X75226128Y-57788407D01*
X75383698Y-57932052D01*
X75564981Y-58044298D01*
X75763802Y-58121321D01*
X75973390Y-58160500D01*
X75973392Y-58160500D01*
X76186608Y-58160500D01*
X76186610Y-58160500D01*
X76396198Y-58121321D01*
X76595019Y-58044298D01*
X76776302Y-57932052D01*
X76933872Y-57788407D01*
X76981046Y-57725938D01*
X77037155Y-57684303D01*
X77106867Y-57679612D01*
X77168049Y-57713354D01*
X77178953Y-57725938D01*
X77226128Y-57788407D01*
X77383698Y-57932052D01*
X77564981Y-58044298D01*
X77763802Y-58121321D01*
X77973390Y-58160500D01*
X77973392Y-58160500D01*
X78186608Y-58160500D01*
X78186610Y-58160500D01*
X78396198Y-58121321D01*
X78595019Y-58044298D01*
X78776302Y-57932052D01*
X78933872Y-57788407D01*
X79062366Y-57618255D01*
X79080000Y-57582840D01*
X79157403Y-57427394D01*
X79157403Y-57427393D01*
X79157405Y-57427389D01*
X79215756Y-57222310D01*
X79222456Y-57150000D01*
X105754540Y-57150000D01*
X105774326Y-57338256D01*
X105774327Y-57338259D01*
X105832818Y-57518277D01*
X105832821Y-57518284D01*
X105927467Y-57682216D01*
X106023081Y-57788406D01*
X106054129Y-57822888D01*
X106207265Y-57934148D01*
X106207270Y-57934151D01*
X106380192Y-58011142D01*
X106380197Y-58011144D01*
X106565354Y-58050500D01*
X106565355Y-58050500D01*
X106754644Y-58050500D01*
X106754646Y-58050500D01*
X106939803Y-58011144D01*
X107112730Y-57934151D01*
X107265871Y-57822888D01*
X107392533Y-57682216D01*
X107487179Y-57518284D01*
X107545674Y-57338256D01*
X107565460Y-57150000D01*
X107545674Y-56961744D01*
X107487179Y-56781716D01*
X107392533Y-56617784D01*
X107277475Y-56490000D01*
X116614540Y-56490000D01*
X116634326Y-56678256D01*
X116634327Y-56678259D01*
X116692818Y-56858277D01*
X116692821Y-56858284D01*
X116787467Y-57022216D01*
X116902525Y-57150000D01*
X116914129Y-57162888D01*
X117067265Y-57274148D01*
X117067270Y-57274151D01*
X117240192Y-57351142D01*
X117240197Y-57351144D01*
X117425354Y-57390500D01*
X117425355Y-57390500D01*
X117614644Y-57390500D01*
X117614646Y-57390500D01*
X117799803Y-57351144D01*
X117972730Y-57274151D01*
X118125871Y-57162888D01*
X118252533Y-57022216D01*
X118346188Y-56860000D01*
X138254540Y-56860000D01*
X138274326Y-57048256D01*
X138274327Y-57048259D01*
X138332818Y-57228277D01*
X138332821Y-57228284D01*
X138427467Y-57392216D01*
X138554129Y-57532888D01*
X138707265Y-57644148D01*
X138707270Y-57644151D01*
X138880192Y-57721142D01*
X138880197Y-57721144D01*
X139065354Y-57760500D01*
X139065355Y-57760500D01*
X139254644Y-57760500D01*
X139254646Y-57760500D01*
X139439803Y-57721144D01*
X139612730Y-57644151D01*
X139765871Y-57532888D01*
X139892533Y-57392216D01*
X139987179Y-57228284D01*
X140045674Y-57048256D01*
X140065460Y-56860000D01*
X140045674Y-56671744D01*
X139987179Y-56491716D01*
X139892533Y-56327784D01*
X139765871Y-56187112D01*
X139765870Y-56187111D01*
X139612734Y-56075851D01*
X139612729Y-56075848D01*
X139439807Y-55998857D01*
X139439802Y-55998855D01*
X139294001Y-55967865D01*
X139254646Y-55959500D01*
X139065354Y-55959500D01*
X139032897Y-55966398D01*
X138880197Y-55998855D01*
X138880192Y-55998857D01*
X138707270Y-56075848D01*
X138707265Y-56075851D01*
X138554129Y-56187111D01*
X138427466Y-56327785D01*
X138332821Y-56491715D01*
X138332818Y-56491722D01*
X138291858Y-56617785D01*
X138274326Y-56671744D01*
X138254540Y-56860000D01*
X118346188Y-56860000D01*
X118347179Y-56858284D01*
X118405674Y-56678256D01*
X118425460Y-56490000D01*
X118405674Y-56301744D01*
X118347179Y-56121716D01*
X118252533Y-55957784D01*
X118125871Y-55817112D01*
X118113583Y-55808184D01*
X117972734Y-55705851D01*
X117972729Y-55705848D01*
X117799807Y-55628857D01*
X117799802Y-55628855D01*
X117633803Y-55593572D01*
X117614646Y-55589500D01*
X117425354Y-55589500D01*
X117406197Y-55593572D01*
X117240197Y-55628855D01*
X117240192Y-55628857D01*
X117067270Y-55705848D01*
X117067265Y-55705851D01*
X116914129Y-55817111D01*
X116787466Y-55957785D01*
X116692821Y-56121715D01*
X116692818Y-56121722D01*
X116638513Y-56288857D01*
X116634326Y-56301744D01*
X116614540Y-56490000D01*
X107277475Y-56490000D01*
X107265871Y-56477112D01*
X107265870Y-56477111D01*
X107112734Y-56365851D01*
X107112729Y-56365848D01*
X106939807Y-56288857D01*
X106939802Y-56288855D01*
X106794001Y-56257865D01*
X106754646Y-56249500D01*
X106565354Y-56249500D01*
X106532897Y-56256398D01*
X106380197Y-56288855D01*
X106380192Y-56288857D01*
X106207270Y-56365848D01*
X106207265Y-56365851D01*
X106054129Y-56477111D01*
X105927466Y-56617785D01*
X105832821Y-56781715D01*
X105832818Y-56781722D01*
X105774327Y-56961740D01*
X105774326Y-56961744D01*
X105754540Y-57150000D01*
X79222456Y-57150000D01*
X79235429Y-57010000D01*
X79215756Y-56797690D01*
X79157405Y-56592611D01*
X79157403Y-56592606D01*
X79157403Y-56592605D01*
X79062367Y-56401746D01*
X78977115Y-56288856D01*
X78933872Y-56231593D01*
X78791317Y-56101636D01*
X78755036Y-56041926D01*
X78756797Y-55972078D01*
X78791318Y-55918363D01*
X78811461Y-55900000D01*
X97974540Y-55900000D01*
X97994326Y-56088256D01*
X97994327Y-56088259D01*
X98052818Y-56268277D01*
X98052821Y-56268284D01*
X98147467Y-56432216D01*
X98201047Y-56491722D01*
X98274129Y-56572888D01*
X98427265Y-56684148D01*
X98427270Y-56684151D01*
X98600192Y-56761142D01*
X98600197Y-56761144D01*
X98785354Y-56800500D01*
X98785355Y-56800500D01*
X98974644Y-56800500D01*
X98974646Y-56800500D01*
X99159803Y-56761144D01*
X99332730Y-56684151D01*
X99485871Y-56572888D01*
X99612533Y-56432216D01*
X99707179Y-56268284D01*
X99765674Y-56088256D01*
X99785460Y-55900000D01*
X99782307Y-55870000D01*
X100834540Y-55870000D01*
X100854326Y-56058256D01*
X100854327Y-56058259D01*
X100912818Y-56238277D01*
X100912821Y-56238284D01*
X101007467Y-56402216D01*
X101088059Y-56491722D01*
X101134129Y-56542888D01*
X101287265Y-56654148D01*
X101287270Y-56654151D01*
X101460192Y-56731142D01*
X101460197Y-56731144D01*
X101645354Y-56770500D01*
X101645355Y-56770500D01*
X101834644Y-56770500D01*
X101834646Y-56770500D01*
X102019803Y-56731144D01*
X102192730Y-56654151D01*
X102345871Y-56542888D01*
X102472533Y-56402216D01*
X102567179Y-56238284D01*
X102625674Y-56058256D01*
X102645460Y-55870000D01*
X102625674Y-55681744D01*
X102567179Y-55501716D01*
X102472533Y-55337784D01*
X102345871Y-55197112D01*
X102342964Y-55195000D01*
X102192734Y-55085851D01*
X102192729Y-55085848D01*
X102019807Y-55008857D01*
X102019802Y-55008855D01*
X101874001Y-54977865D01*
X101834646Y-54969500D01*
X101645354Y-54969500D01*
X101612897Y-54976398D01*
X101460197Y-55008855D01*
X101460192Y-55008857D01*
X101287270Y-55085848D01*
X101287265Y-55085851D01*
X101134129Y-55197111D01*
X101007466Y-55337785D01*
X100912821Y-55501715D01*
X100912818Y-55501722D01*
X100854327Y-55681740D01*
X100854326Y-55681744D01*
X100834540Y-55870000D01*
X99782307Y-55870000D01*
X99765674Y-55711744D01*
X99707179Y-55531716D01*
X99612533Y-55367784D01*
X99485871Y-55227112D01*
X99479262Y-55222310D01*
X99332734Y-55115851D01*
X99332729Y-55115848D01*
X99159807Y-55038857D01*
X99159802Y-55038855D01*
X99014001Y-55007865D01*
X98974646Y-54999500D01*
X98785354Y-54999500D01*
X98772995Y-55002127D01*
X98600197Y-55038855D01*
X98600192Y-55038857D01*
X98427270Y-55115848D01*
X98427265Y-55115851D01*
X98274129Y-55227111D01*
X98147466Y-55367785D01*
X98052821Y-55531715D01*
X98052818Y-55531722D01*
X97994327Y-55711740D01*
X97994326Y-55711744D01*
X97974540Y-55900000D01*
X78811461Y-55900000D01*
X78933872Y-55788407D01*
X79062366Y-55618255D01*
X79105457Y-55531716D01*
X79157403Y-55427394D01*
X79157403Y-55427393D01*
X79157405Y-55427389D01*
X79215756Y-55222310D01*
X79235429Y-55010000D01*
X79234699Y-55002127D01*
X79218899Y-54831614D01*
X79215756Y-54797690D01*
X79157405Y-54592611D01*
X79157403Y-54592606D01*
X79157403Y-54592605D01*
X79062367Y-54401746D01*
X78933872Y-54231593D01*
X78776302Y-54087948D01*
X78595019Y-53975702D01*
X78595017Y-53975701D01*
X78495608Y-53937190D01*
X78396198Y-53898679D01*
X78186610Y-53859500D01*
X77973390Y-53859500D01*
X77763802Y-53898679D01*
X77763799Y-53898679D01*
X77763799Y-53898680D01*
X77564982Y-53975701D01*
X77564980Y-53975702D01*
X77383699Y-54087947D01*
X77226126Y-54231594D01*
X77178953Y-54294061D01*
X77122844Y-54335696D01*
X77053132Y-54340387D01*
X76991950Y-54306644D01*
X76981047Y-54294061D01*
X76933873Y-54231594D01*
X76933872Y-54231593D01*
X76776302Y-54087948D01*
X76595019Y-53975702D01*
X76595017Y-53975701D01*
X76495608Y-53937190D01*
X76396198Y-53898679D01*
X76186610Y-53859500D01*
X75973390Y-53859500D01*
X75763802Y-53898679D01*
X75763799Y-53898679D01*
X75763799Y-53898680D01*
X75564982Y-53975701D01*
X75564980Y-53975702D01*
X75383699Y-54087947D01*
X75226126Y-54231594D01*
X75178953Y-54294061D01*
X75122844Y-54335696D01*
X75053132Y-54340387D01*
X74991950Y-54306644D01*
X74981047Y-54294061D01*
X74933873Y-54231594D01*
X74933872Y-54231593D01*
X74776302Y-54087948D01*
X74595019Y-53975702D01*
X74595017Y-53975701D01*
X74495608Y-53937190D01*
X74396198Y-53898679D01*
X74186610Y-53859500D01*
X73973390Y-53859500D01*
X73763802Y-53898679D01*
X73763799Y-53898679D01*
X73763799Y-53898680D01*
X73564982Y-53975701D01*
X73564980Y-53975702D01*
X73383699Y-54087947D01*
X73226127Y-54231593D01*
X73097632Y-54401746D01*
X73002596Y-54592605D01*
X73002596Y-54592607D01*
X72944244Y-54797689D01*
X72924571Y-55009999D01*
X71235429Y-55009999D01*
X71234699Y-55002127D01*
X71218899Y-54831614D01*
X71215756Y-54797690D01*
X71157405Y-54592611D01*
X71157403Y-54592606D01*
X71157403Y-54592605D01*
X71062367Y-54401746D01*
X70933872Y-54231593D01*
X70776302Y-54087948D01*
X70595019Y-53975702D01*
X70595017Y-53975701D01*
X70495608Y-53937190D01*
X70396198Y-53898679D01*
X70186610Y-53859500D01*
X69973390Y-53859500D01*
X69763802Y-53898679D01*
X69763799Y-53898679D01*
X69763799Y-53898680D01*
X69564982Y-53975701D01*
X69564980Y-53975702D01*
X69383699Y-54087947D01*
X69226127Y-54231593D01*
X69097632Y-54401746D01*
X69002596Y-54592605D01*
X69002596Y-54592607D01*
X68944244Y-54797689D01*
X68924571Y-55009999D01*
X67235429Y-55009999D01*
X67234699Y-55002127D01*
X67218899Y-54831614D01*
X67215756Y-54797690D01*
X67157405Y-54592611D01*
X67157403Y-54592606D01*
X67157403Y-54592605D01*
X67062367Y-54401746D01*
X66933872Y-54231593D01*
X66776302Y-54087948D01*
X66595019Y-53975702D01*
X66595017Y-53975701D01*
X66495608Y-53937190D01*
X66396198Y-53898679D01*
X66186610Y-53859500D01*
X65973390Y-53859500D01*
X65763802Y-53898679D01*
X65763799Y-53898679D01*
X65763799Y-53898680D01*
X65564982Y-53975701D01*
X65564980Y-53975702D01*
X65383699Y-54087947D01*
X65226126Y-54231594D01*
X65178953Y-54294061D01*
X65122844Y-54335696D01*
X65053132Y-54340387D01*
X64991950Y-54306644D01*
X64981047Y-54294061D01*
X64933873Y-54231594D01*
X64933872Y-54231593D01*
X64776302Y-54087948D01*
X64595019Y-53975702D01*
X64595017Y-53975701D01*
X64495608Y-53937190D01*
X64396198Y-53898679D01*
X64186610Y-53859500D01*
X63973390Y-53859500D01*
X63763802Y-53898679D01*
X63763799Y-53898679D01*
X63763799Y-53898680D01*
X63564982Y-53975701D01*
X63564980Y-53975702D01*
X63383699Y-54087947D01*
X63226127Y-54231593D01*
X63097632Y-54401746D01*
X63002596Y-54592605D01*
X63002596Y-54592607D01*
X62944244Y-54797689D01*
X62924571Y-55009999D01*
X61260000Y-55009999D01*
X61260000Y-51870748D01*
X105459929Y-51870748D01*
X105459929Y-51870751D01*
X105479375Y-52093026D01*
X105479376Y-52093034D01*
X105537125Y-52308555D01*
X105537129Y-52308566D01*
X105630531Y-52508866D01*
X105631426Y-52510786D01*
X105759409Y-52693564D01*
X105917186Y-52851341D01*
X106099964Y-52979324D01*
X106178072Y-53015746D01*
X106302183Y-53073620D01*
X106302185Y-53073620D01*
X106302190Y-53073623D01*
X106517718Y-53131374D01*
X106647062Y-53142690D01*
X106739998Y-53150821D01*
X106740000Y-53150821D01*
X106740002Y-53150821D01*
X106795570Y-53145959D01*
X106962282Y-53131374D01*
X107177810Y-53073623D01*
X107301928Y-53015745D01*
X107371005Y-53005254D01*
X107434789Y-53033774D01*
X107473028Y-53092250D01*
X107473583Y-53162118D01*
X107448622Y-53208659D01*
X107330590Y-53346856D01*
X107194843Y-53568376D01*
X107095427Y-53808389D01*
X107034778Y-54061009D01*
X107014396Y-54320000D01*
X107034778Y-54578990D01*
X107095427Y-54831610D01*
X107194843Y-55071623D01*
X107194845Y-55071627D01*
X107194846Y-55071628D01*
X107330588Y-55293140D01*
X107499311Y-55490689D01*
X107696860Y-55659412D01*
X107918372Y-55795154D01*
X107918374Y-55795154D01*
X107918376Y-55795156D01*
X107949749Y-55808151D01*
X108158390Y-55894573D01*
X108411006Y-55955221D01*
X108670000Y-55975604D01*
X108928994Y-55955221D01*
X109181610Y-55894573D01*
X109421628Y-55795154D01*
X109643140Y-55659412D01*
X109840689Y-55490689D01*
X110009412Y-55293140D01*
X110145154Y-55071628D01*
X110244573Y-54831610D01*
X110305221Y-54578994D01*
X110325604Y-54320000D01*
X110305221Y-54061006D01*
X110244573Y-53808390D01*
X110145154Y-53568372D01*
X110009412Y-53346860D01*
X109865361Y-53178198D01*
X109836791Y-53114438D01*
X109847228Y-53045353D01*
X109893359Y-52992877D01*
X109907238Y-52985291D01*
X109920036Y-52979324D01*
X110102814Y-52851341D01*
X110260591Y-52693564D01*
X110388574Y-52510786D01*
X110437618Y-52405609D01*
X110483790Y-52353170D01*
X110550983Y-52334018D01*
X110617864Y-52354233D01*
X110662382Y-52405610D01*
X110707405Y-52502164D01*
X110711426Y-52510786D01*
X110839409Y-52693564D01*
X110997186Y-52851341D01*
X111179964Y-52979324D01*
X111258072Y-53015746D01*
X111382183Y-53073620D01*
X111382185Y-53073620D01*
X111382190Y-53073623D01*
X111503026Y-53106001D01*
X111562686Y-53142366D01*
X111593215Y-53205213D01*
X111584920Y-53274589D01*
X111565223Y-53306306D01*
X111530590Y-53346856D01*
X111394843Y-53568376D01*
X111295427Y-53808389D01*
X111234778Y-54061009D01*
X111214396Y-54320000D01*
X111234778Y-54578990D01*
X111295427Y-54831610D01*
X111394843Y-55071623D01*
X111394845Y-55071627D01*
X111394846Y-55071628D01*
X111530588Y-55293140D01*
X111699311Y-55490689D01*
X111896860Y-55659412D01*
X112118372Y-55795154D01*
X112118374Y-55795154D01*
X112118376Y-55795156D01*
X112149749Y-55808151D01*
X112358390Y-55894573D01*
X112611006Y-55955221D01*
X112870000Y-55975604D01*
X113128994Y-55955221D01*
X113381610Y-55894573D01*
X113621628Y-55795154D01*
X113843140Y-55659412D01*
X114040689Y-55490689D01*
X114209412Y-55293140D01*
X114345154Y-55071628D01*
X114444573Y-54831610D01*
X114505221Y-54578994D01*
X114525604Y-54320000D01*
X114505221Y-54061006D01*
X114444573Y-53808390D01*
X114345154Y-53568372D01*
X114209412Y-53346860D01*
X114040689Y-53149311D01*
X113843140Y-52980588D01*
X113621628Y-52844846D01*
X113621627Y-52844845D01*
X113621623Y-52844843D01*
X113406802Y-52755862D01*
X113381610Y-52745427D01*
X113381611Y-52745427D01*
X113218002Y-52706148D01*
X113128994Y-52684779D01*
X113128992Y-52684778D01*
X113035599Y-52677428D01*
X112970311Y-52652544D01*
X112928841Y-52596312D01*
X112924354Y-52526587D01*
X112932943Y-52501416D01*
X113022873Y-52308560D01*
X113080624Y-52093032D01*
X113100071Y-51870750D01*
X113098321Y-51850748D01*
X116549929Y-51850748D01*
X116549929Y-51850751D01*
X116569375Y-52073026D01*
X116569376Y-52073034D01*
X116627125Y-52288555D01*
X116627129Y-52288566D01*
X116718114Y-52483683D01*
X116721426Y-52490786D01*
X116849409Y-52673564D01*
X117007186Y-52831341D01*
X117189964Y-52959324D01*
X117252788Y-52988619D01*
X117392183Y-53053620D01*
X117392185Y-53053620D01*
X117392190Y-53053623D01*
X117607718Y-53111374D01*
X117766490Y-53125264D01*
X117829998Y-53130821D01*
X117830000Y-53130821D01*
X117830002Y-53130821D01*
X117885570Y-53125959D01*
X118052282Y-53111374D01*
X118267810Y-53053623D01*
X118342073Y-53018993D01*
X118411148Y-53008502D01*
X118474932Y-53037022D01*
X118513172Y-53095498D01*
X118513727Y-53165365D01*
X118488767Y-53211907D01*
X118390588Y-53326860D01*
X118254843Y-53548376D01*
X118155427Y-53788389D01*
X118094778Y-54041009D01*
X118074396Y-54300000D01*
X118094778Y-54558990D01*
X118155427Y-54811610D01*
X118254843Y-55051623D01*
X118254845Y-55051627D01*
X118254846Y-55051628D01*
X118390588Y-55273140D01*
X118559311Y-55470689D01*
X118756860Y-55639412D01*
X118978372Y-55775154D01*
X118978374Y-55775154D01*
X118978376Y-55775156D01*
X119010372Y-55788409D01*
X119218390Y-55874573D01*
X119471006Y-55935221D01*
X119730000Y-55955604D01*
X119988994Y-55935221D01*
X120241610Y-55874573D01*
X120481628Y-55775154D01*
X120703140Y-55639412D01*
X120900689Y-55470689D01*
X121069412Y-55273140D01*
X121205154Y-55051628D01*
X121304573Y-54811610D01*
X121365221Y-54558994D01*
X121385604Y-54300000D01*
X121365221Y-54041006D01*
X121304573Y-53788390D01*
X121213440Y-53568376D01*
X121205156Y-53548376D01*
X121069411Y-53326859D01*
X121024768Y-53274589D01*
X120933906Y-53168203D01*
X120905336Y-53104443D01*
X120915773Y-53035358D01*
X120961904Y-52982882D01*
X120975786Y-52975294D01*
X121010036Y-52959324D01*
X121192814Y-52831341D01*
X121350591Y-52673564D01*
X121478574Y-52490786D01*
X121527618Y-52385609D01*
X121573790Y-52333170D01*
X121640983Y-52314018D01*
X121707864Y-52334233D01*
X121752381Y-52385609D01*
X121801426Y-52490786D01*
X121929409Y-52673564D01*
X122087186Y-52831341D01*
X122269964Y-52959324D01*
X122332788Y-52988619D01*
X122472183Y-53053620D01*
X122472185Y-53053620D01*
X122472190Y-53053623D01*
X122568613Y-53079459D01*
X122628273Y-53115824D01*
X122658802Y-53178670D01*
X122650508Y-53248046D01*
X122630811Y-53279764D01*
X122590588Y-53326860D01*
X122454843Y-53548376D01*
X122355427Y-53788389D01*
X122294778Y-54041009D01*
X122274396Y-54300000D01*
X122294778Y-54558990D01*
X122355427Y-54811610D01*
X122454843Y-55051623D01*
X122454845Y-55051627D01*
X122454846Y-55051628D01*
X122590588Y-55273140D01*
X122759311Y-55470689D01*
X122956860Y-55639412D01*
X123178372Y-55775154D01*
X123178374Y-55775154D01*
X123178376Y-55775156D01*
X123210372Y-55788409D01*
X123418390Y-55874573D01*
X123671006Y-55935221D01*
X123930000Y-55955604D01*
X124188994Y-55935221D01*
X124441610Y-55874573D01*
X124681628Y-55775154D01*
X124903140Y-55639412D01*
X125100689Y-55470689D01*
X125269412Y-55273140D01*
X125405154Y-55051628D01*
X125504573Y-54811610D01*
X125565221Y-54558994D01*
X125585604Y-54300000D01*
X125565221Y-54041006D01*
X125504573Y-53788390D01*
X125413440Y-53568376D01*
X125405156Y-53548376D01*
X125269411Y-53326859D01*
X125100689Y-53129311D01*
X124903140Y-52960588D01*
X124681628Y-52824846D01*
X124681627Y-52824845D01*
X124681623Y-52824843D01*
X124510673Y-52754034D01*
X124441610Y-52725427D01*
X124441611Y-52725427D01*
X124303921Y-52692370D01*
X124188994Y-52664779D01*
X124188992Y-52664778D01*
X124188991Y-52664778D01*
X124124538Y-52659706D01*
X124059250Y-52634822D01*
X124017779Y-52578591D01*
X124013292Y-52508866D01*
X124021881Y-52483692D01*
X124112873Y-52288560D01*
X124170624Y-52073032D01*
X124188321Y-51870748D01*
X127629929Y-51870748D01*
X127629929Y-51870751D01*
X127649375Y-52093026D01*
X127649376Y-52093034D01*
X127707125Y-52308555D01*
X127707129Y-52308566D01*
X127800531Y-52508866D01*
X127801426Y-52510786D01*
X127929409Y-52693564D01*
X128087186Y-52851341D01*
X128269964Y-52979324D01*
X128348072Y-53015746D01*
X128472183Y-53073620D01*
X128472185Y-53073620D01*
X128472190Y-53073623D01*
X128687718Y-53131374D01*
X128817062Y-53142690D01*
X128909998Y-53150821D01*
X128910000Y-53150821D01*
X128910002Y-53150821D01*
X128965570Y-53145959D01*
X129132282Y-53131374D01*
X129347810Y-53073623D01*
X129505167Y-53000246D01*
X129574241Y-52989755D01*
X129638026Y-53018275D01*
X129676265Y-53076751D01*
X129676820Y-53146619D01*
X129651860Y-53193160D01*
X129520588Y-53346860D01*
X129384843Y-53568376D01*
X129285427Y-53808389D01*
X129224778Y-54061009D01*
X129204396Y-54320000D01*
X129224778Y-54578990D01*
X129285427Y-54831611D01*
X129285428Y-54831614D01*
X129327282Y-54932658D01*
X129334751Y-55002127D01*
X129303476Y-55064606D01*
X129243387Y-55100258D01*
X129173561Y-55097764D01*
X129162285Y-55093389D01*
X129039807Y-55038857D01*
X129039802Y-55038855D01*
X128894001Y-55007865D01*
X128854646Y-54999500D01*
X128665354Y-54999500D01*
X128652995Y-55002127D01*
X128480197Y-55038855D01*
X128480192Y-55038857D01*
X128307270Y-55115848D01*
X128307265Y-55115851D01*
X128154129Y-55227111D01*
X128027466Y-55367785D01*
X127932821Y-55531715D01*
X127932818Y-55531722D01*
X127874327Y-55711740D01*
X127874326Y-55711744D01*
X127854540Y-55900000D01*
X127874326Y-56088256D01*
X127874327Y-56088259D01*
X127932818Y-56268277D01*
X127932821Y-56268284D01*
X128027467Y-56432216D01*
X128081047Y-56491722D01*
X128154129Y-56572888D01*
X128307265Y-56684148D01*
X128307270Y-56684151D01*
X128480192Y-56761142D01*
X128480197Y-56761144D01*
X128665354Y-56800500D01*
X128665355Y-56800500D01*
X128854644Y-56800500D01*
X128854646Y-56800500D01*
X129039803Y-56761144D01*
X129212730Y-56684151D01*
X129365871Y-56572888D01*
X129492533Y-56432216D01*
X129587179Y-56268284D01*
X129645674Y-56088256D01*
X129665460Y-55900000D01*
X129648333Y-55737043D01*
X129660901Y-55668319D01*
X129708633Y-55617295D01*
X129776373Y-55600177D01*
X129842615Y-55622399D01*
X129852184Y-55629796D01*
X129886860Y-55659412D01*
X130108372Y-55795154D01*
X130108374Y-55795154D01*
X130108376Y-55795156D01*
X130139749Y-55808151D01*
X130348390Y-55894573D01*
X130601006Y-55955221D01*
X130860000Y-55975604D01*
X131118994Y-55955221D01*
X131371610Y-55894573D01*
X131611628Y-55795154D01*
X131833140Y-55659412D01*
X132030689Y-55490689D01*
X132199412Y-55293140D01*
X132335154Y-55071628D01*
X132434573Y-54831610D01*
X132495221Y-54578994D01*
X132515604Y-54320000D01*
X132495221Y-54061006D01*
X132434573Y-53808390D01*
X132335154Y-53568372D01*
X132199412Y-53346860D01*
X132049665Y-53171529D01*
X132021095Y-53107769D01*
X132031532Y-53038684D01*
X132077663Y-52986208D01*
X132086069Y-52981613D01*
X132090025Y-52979328D01*
X132090036Y-52979324D01*
X132272814Y-52851341D01*
X132430591Y-52693564D01*
X132558574Y-52510786D01*
X132607618Y-52405609D01*
X132653790Y-52353170D01*
X132720983Y-52334018D01*
X132787864Y-52354233D01*
X132832382Y-52405610D01*
X132877405Y-52502164D01*
X132881426Y-52510786D01*
X133009409Y-52693564D01*
X133167186Y-52851341D01*
X133349964Y-52979324D01*
X133428072Y-53015746D01*
X133552183Y-53073620D01*
X133552185Y-53073620D01*
X133552190Y-53073623D01*
X133552195Y-53073624D01*
X133552197Y-53073625D01*
X133573970Y-53079459D01*
X133673025Y-53106001D01*
X133689301Y-53110362D01*
X133748962Y-53146727D01*
X133779491Y-53209574D01*
X133771196Y-53278950D01*
X133751499Y-53310667D01*
X133737670Y-53326860D01*
X133720588Y-53346860D01*
X133584843Y-53568376D01*
X133485427Y-53808389D01*
X133424778Y-54061009D01*
X133404396Y-54320000D01*
X133424778Y-54578990D01*
X133485427Y-54831610D01*
X133584843Y-55071623D01*
X133584845Y-55071627D01*
X133584846Y-55071628D01*
X133720588Y-55293140D01*
X133889311Y-55490689D01*
X134086860Y-55659412D01*
X134308372Y-55795154D01*
X134308374Y-55795154D01*
X134308376Y-55795156D01*
X134339749Y-55808151D01*
X134548390Y-55894573D01*
X134801006Y-55955221D01*
X135060000Y-55975604D01*
X135318994Y-55955221D01*
X135571610Y-55894573D01*
X135811628Y-55795154D01*
X136033140Y-55659412D01*
X136230689Y-55490689D01*
X136399412Y-55293140D01*
X136535154Y-55071628D01*
X136634573Y-54831610D01*
X136695221Y-54578994D01*
X136715604Y-54320000D01*
X136695221Y-54061006D01*
X136634573Y-53808390D01*
X136535154Y-53568372D01*
X136399412Y-53346860D01*
X136230689Y-53149311D01*
X136033140Y-52980588D01*
X135811628Y-52844846D01*
X135811627Y-52844845D01*
X135811623Y-52844843D01*
X135596802Y-52755862D01*
X135571610Y-52745427D01*
X135571611Y-52745427D01*
X135408002Y-52706148D01*
X135318994Y-52684779D01*
X135318992Y-52684778D01*
X135318991Y-52684778D01*
X135206308Y-52675910D01*
X135141020Y-52651026D01*
X135099549Y-52594795D01*
X135095062Y-52525069D01*
X135103651Y-52499897D01*
X135192873Y-52308560D01*
X135250624Y-52093032D01*
X135270071Y-51870750D01*
X135270071Y-51870748D01*
X138679929Y-51870748D01*
X138679929Y-51870751D01*
X138699375Y-52093026D01*
X138699376Y-52093034D01*
X138757125Y-52308555D01*
X138757129Y-52308566D01*
X138850531Y-52508866D01*
X138851426Y-52510786D01*
X138979409Y-52693564D01*
X139137186Y-52851341D01*
X139319964Y-52979324D01*
X139398072Y-53015746D01*
X139522183Y-53073620D01*
X139522185Y-53073620D01*
X139522190Y-53073623D01*
X139737718Y-53131374D01*
X139867062Y-53142690D01*
X139959998Y-53150821D01*
X139960000Y-53150821D01*
X139960002Y-53150821D01*
X140015570Y-53145959D01*
X140182282Y-53131374D01*
X140397810Y-53073623D01*
X140505311Y-53023494D01*
X140574385Y-53013003D01*
X140638169Y-53041522D01*
X140676409Y-53099999D01*
X140676964Y-53169866D01*
X140652004Y-53216408D01*
X140540588Y-53346860D01*
X140404843Y-53568376D01*
X140305427Y-53808389D01*
X140244778Y-54061009D01*
X140224396Y-54320000D01*
X140244778Y-54578990D01*
X140305427Y-54831610D01*
X140404843Y-55071623D01*
X140404845Y-55071627D01*
X140404846Y-55071628D01*
X140540588Y-55293140D01*
X140709311Y-55490689D01*
X140906860Y-55659412D01*
X141128372Y-55795154D01*
X141128374Y-55795154D01*
X141128376Y-55795156D01*
X141159749Y-55808151D01*
X141368390Y-55894573D01*
X141621006Y-55955221D01*
X141880000Y-55975604D01*
X142138994Y-55955221D01*
X142391610Y-55894573D01*
X142631628Y-55795154D01*
X142853140Y-55659412D01*
X143050689Y-55490689D01*
X143219412Y-55293140D01*
X143355154Y-55071628D01*
X143454573Y-54831610D01*
X143515221Y-54578994D01*
X143535604Y-54320000D01*
X143515221Y-54061006D01*
X143454573Y-53808390D01*
X143355154Y-53568372D01*
X143219412Y-53346860D01*
X143219409Y-53346856D01*
X143078211Y-53181534D01*
X143049640Y-53117773D01*
X143060077Y-53048687D01*
X143106208Y-52996212D01*
X143120085Y-52988627D01*
X143140036Y-52979324D01*
X143322814Y-52851341D01*
X143480591Y-52693564D01*
X143608574Y-52510786D01*
X143657618Y-52405609D01*
X143703790Y-52353170D01*
X143770983Y-52334018D01*
X143837864Y-52354233D01*
X143882382Y-52405610D01*
X143927405Y-52502164D01*
X143931426Y-52510786D01*
X144059409Y-52693564D01*
X144217186Y-52851341D01*
X144399964Y-52979324D01*
X144478072Y-53015746D01*
X144602183Y-53073620D01*
X144602185Y-53073620D01*
X144602190Y-53073623D01*
X144714889Y-53103821D01*
X144774548Y-53140185D01*
X144805078Y-53203031D01*
X144796784Y-53272407D01*
X144777086Y-53304126D01*
X144740588Y-53346860D01*
X144604843Y-53568376D01*
X144505427Y-53808389D01*
X144444778Y-54061009D01*
X144424396Y-54320000D01*
X144444778Y-54578990D01*
X144505427Y-54831610D01*
X144604843Y-55071623D01*
X144604845Y-55071627D01*
X144604846Y-55071628D01*
X144740588Y-55293140D01*
X144909311Y-55490689D01*
X145106860Y-55659412D01*
X145328372Y-55795154D01*
X145328374Y-55795154D01*
X145328376Y-55795156D01*
X145359749Y-55808151D01*
X145568390Y-55894573D01*
X145821006Y-55955221D01*
X146080000Y-55975604D01*
X146338994Y-55955221D01*
X146591610Y-55894573D01*
X146831628Y-55795154D01*
X147053140Y-55659412D01*
X147250689Y-55490689D01*
X147419412Y-55293140D01*
X147555154Y-55071628D01*
X147654573Y-54831610D01*
X147715221Y-54578994D01*
X147735604Y-54320000D01*
X147715221Y-54061006D01*
X147654573Y-53808390D01*
X147555154Y-53568372D01*
X147419412Y-53346860D01*
X147250689Y-53149311D01*
X147053140Y-52980588D01*
X146831628Y-52844846D01*
X146831627Y-52844845D01*
X146831623Y-52844843D01*
X146616802Y-52755862D01*
X146591610Y-52745427D01*
X146591611Y-52745427D01*
X146428002Y-52706148D01*
X146338994Y-52684779D01*
X146338992Y-52684778D01*
X146255245Y-52678187D01*
X146189957Y-52653302D01*
X146148486Y-52597071D01*
X146144000Y-52527346D01*
X146152588Y-52502175D01*
X146242873Y-52308560D01*
X146300624Y-52093032D01*
X146320071Y-51870750D01*
X146300624Y-51648468D01*
X146242873Y-51432940D01*
X146148574Y-51230715D01*
X146148572Y-51230712D01*
X146148571Y-51230710D01*
X146020592Y-51047937D01*
X145967654Y-50994999D01*
X145862814Y-50890159D01*
X145680036Y-50762176D01*
X145637146Y-50742176D01*
X145477816Y-50667879D01*
X145477805Y-50667875D01*
X145262284Y-50610126D01*
X145262276Y-50610125D01*
X145040002Y-50590679D01*
X145039998Y-50590679D01*
X144817723Y-50610125D01*
X144817715Y-50610126D01*
X144602194Y-50667875D01*
X144602188Y-50667878D01*
X144399964Y-50762176D01*
X144399960Y-50762178D01*
X144217184Y-50890159D01*
X144059409Y-51047934D01*
X143931428Y-51230710D01*
X143931426Y-51230714D01*
X143882382Y-51335890D01*
X143836209Y-51388329D01*
X143769016Y-51407481D01*
X143702135Y-51387265D01*
X143657618Y-51335890D01*
X143648222Y-51315741D01*
X143608574Y-51230715D01*
X143608572Y-51230712D01*
X143608571Y-51230710D01*
X143480592Y-51047937D01*
X143427654Y-50994999D01*
X143322814Y-50890159D01*
X143140036Y-50762176D01*
X143097146Y-50742176D01*
X142937816Y-50667879D01*
X142937805Y-50667875D01*
X142722284Y-50610126D01*
X142722277Y-50610125D01*
X142524447Y-50592817D01*
X142459379Y-50567364D01*
X142439563Y-50539998D01*
X151067177Y-50539998D01*
X151067177Y-50540001D01*
X151086443Y-50809382D01*
X151138339Y-51047937D01*
X151143850Y-51073270D01*
X151195113Y-51210710D01*
X151238228Y-51326308D01*
X151238230Y-51326312D01*
X151367652Y-51563331D01*
X151367657Y-51563339D01*
X151529493Y-51779527D01*
X151529509Y-51779545D01*
X151720454Y-51970490D01*
X151720472Y-51970506D01*
X151936660Y-52132342D01*
X151936668Y-52132347D01*
X152173687Y-52261769D01*
X152173691Y-52261771D01*
X152173693Y-52261772D01*
X152426730Y-52356150D01*
X152558676Y-52384853D01*
X152690617Y-52413556D01*
X152690619Y-52413556D01*
X152690623Y-52413557D01*
X152930007Y-52430677D01*
X152959999Y-52432823D01*
X152960000Y-52432823D01*
X152960001Y-52432823D01*
X152986987Y-52430892D01*
X153229377Y-52413557D01*
X153493270Y-52356150D01*
X153746307Y-52261772D01*
X153983337Y-52132344D01*
X154199535Y-51970500D01*
X154390500Y-51779535D01*
X154552344Y-51563337D01*
X154681772Y-51326307D01*
X154776150Y-51073270D01*
X154833557Y-50809377D01*
X154852823Y-50540000D01*
X154852823Y-50539998D01*
X155267177Y-50539998D01*
X155267177Y-50540001D01*
X155286443Y-50809382D01*
X155338339Y-51047937D01*
X155343850Y-51073270D01*
X155395113Y-51210710D01*
X155438228Y-51326308D01*
X155438230Y-51326312D01*
X155567652Y-51563331D01*
X155567657Y-51563339D01*
X155729493Y-51779527D01*
X155729509Y-51779545D01*
X155920454Y-51970490D01*
X155920472Y-51970506D01*
X156136660Y-52132342D01*
X156136668Y-52132347D01*
X156373687Y-52261769D01*
X156373691Y-52261771D01*
X156373693Y-52261772D01*
X156626730Y-52356150D01*
X156758676Y-52384853D01*
X156890617Y-52413556D01*
X156890619Y-52413556D01*
X156890623Y-52413557D01*
X157130007Y-52430677D01*
X157159999Y-52432823D01*
X157160000Y-52432823D01*
X157160001Y-52432823D01*
X157186987Y-52430892D01*
X157429377Y-52413557D01*
X157693270Y-52356150D01*
X157946307Y-52261772D01*
X158183337Y-52132344D01*
X158399535Y-51970500D01*
X158590500Y-51779535D01*
X158752344Y-51563337D01*
X158881772Y-51326307D01*
X158976150Y-51073270D01*
X159033557Y-50809377D01*
X159052823Y-50540000D01*
X159052823Y-50539998D01*
X159467177Y-50539998D01*
X159467177Y-50540001D01*
X159486443Y-50809382D01*
X159538339Y-51047937D01*
X159543850Y-51073270D01*
X159595113Y-51210710D01*
X159638228Y-51326308D01*
X159638230Y-51326312D01*
X159767652Y-51563331D01*
X159767657Y-51563339D01*
X159929493Y-51779527D01*
X159929509Y-51779545D01*
X160120454Y-51970490D01*
X160120472Y-51970506D01*
X160336660Y-52132342D01*
X160336668Y-52132347D01*
X160573687Y-52261769D01*
X160573691Y-52261771D01*
X160573693Y-52261772D01*
X160826730Y-52356150D01*
X160958676Y-52384853D01*
X161090617Y-52413556D01*
X161090619Y-52413556D01*
X161090623Y-52413557D01*
X161330007Y-52430677D01*
X161359999Y-52432823D01*
X161360000Y-52432823D01*
X161360001Y-52432823D01*
X161386987Y-52430892D01*
X161629377Y-52413557D01*
X161893270Y-52356150D01*
X162146307Y-52261772D01*
X162383337Y-52132344D01*
X162599535Y-51970500D01*
X162790500Y-51779535D01*
X162952344Y-51563337D01*
X163081772Y-51326307D01*
X163176150Y-51073270D01*
X163233557Y-50809377D01*
X163252823Y-50540000D01*
X163250784Y-50511497D01*
X163246787Y-50455603D01*
X163233557Y-50270623D01*
X163205013Y-50139412D01*
X163176151Y-50006736D01*
X163176150Y-50006730D01*
X163081772Y-49753693D01*
X162982354Y-49571623D01*
X162952347Y-49516668D01*
X162952342Y-49516660D01*
X162790506Y-49300472D01*
X162790490Y-49300454D01*
X162599545Y-49109509D01*
X162599527Y-49109493D01*
X162383339Y-48947657D01*
X162383331Y-48947652D01*
X162146312Y-48818230D01*
X162146308Y-48818228D01*
X162001313Y-48764148D01*
X161893270Y-48723850D01*
X161893266Y-48723849D01*
X161893263Y-48723848D01*
X161629382Y-48666443D01*
X161360001Y-48647177D01*
X161359999Y-48647177D01*
X161090617Y-48666443D01*
X160826736Y-48723848D01*
X160826731Y-48723849D01*
X160826730Y-48723850D01*
X160765551Y-48746668D01*
X160573691Y-48818228D01*
X160573687Y-48818230D01*
X160336668Y-48947652D01*
X160336660Y-48947657D01*
X160120472Y-49109493D01*
X160120454Y-49109509D01*
X159929509Y-49300454D01*
X159929493Y-49300472D01*
X159767657Y-49516660D01*
X159767652Y-49516668D01*
X159638230Y-49753687D01*
X159638228Y-49753691D01*
X159566668Y-49945551D01*
X159549834Y-49990688D01*
X159543848Y-50006736D01*
X159486443Y-50270617D01*
X159467177Y-50539998D01*
X159052823Y-50539998D01*
X159050784Y-50511497D01*
X159046787Y-50455603D01*
X159033557Y-50270623D01*
X159005013Y-50139412D01*
X158976151Y-50006736D01*
X158976150Y-50006730D01*
X158881772Y-49753693D01*
X158782354Y-49571623D01*
X158752347Y-49516668D01*
X158752342Y-49516660D01*
X158590506Y-49300472D01*
X158590490Y-49300454D01*
X158399545Y-49109509D01*
X158399527Y-49109493D01*
X158183339Y-48947657D01*
X158183331Y-48947652D01*
X157946312Y-48818230D01*
X157946308Y-48818228D01*
X157801313Y-48764148D01*
X157693270Y-48723850D01*
X157693266Y-48723849D01*
X157693263Y-48723848D01*
X157429382Y-48666443D01*
X157160001Y-48647177D01*
X157159999Y-48647177D01*
X156890617Y-48666443D01*
X156626736Y-48723848D01*
X156626731Y-48723849D01*
X156626730Y-48723850D01*
X156565551Y-48746668D01*
X156373691Y-48818228D01*
X156373687Y-48818230D01*
X156136668Y-48947652D01*
X156136660Y-48947657D01*
X155920472Y-49109493D01*
X155920454Y-49109509D01*
X155729509Y-49300454D01*
X155729493Y-49300472D01*
X155567657Y-49516660D01*
X155567652Y-49516668D01*
X155438230Y-49753687D01*
X155438228Y-49753691D01*
X155366668Y-49945551D01*
X155349834Y-49990688D01*
X155343848Y-50006736D01*
X155286443Y-50270617D01*
X155267177Y-50539998D01*
X154852823Y-50539998D01*
X154850784Y-50511497D01*
X154846787Y-50455603D01*
X154833557Y-50270623D01*
X154805013Y-50139412D01*
X154776151Y-50006736D01*
X154776150Y-50006730D01*
X154681772Y-49753693D01*
X154582354Y-49571623D01*
X154552347Y-49516668D01*
X154552342Y-49516660D01*
X154390506Y-49300472D01*
X154390490Y-49300454D01*
X154199545Y-49109509D01*
X154199527Y-49109493D01*
X153983339Y-48947657D01*
X153983331Y-48947652D01*
X153746312Y-48818230D01*
X153746308Y-48818228D01*
X153601313Y-48764148D01*
X153493270Y-48723850D01*
X153493266Y-48723849D01*
X153493263Y-48723848D01*
X153229382Y-48666443D01*
X152960001Y-48647177D01*
X152959999Y-48647177D01*
X152690617Y-48666443D01*
X152426736Y-48723848D01*
X152426731Y-48723849D01*
X152426730Y-48723850D01*
X152365551Y-48746668D01*
X152173691Y-48818228D01*
X152173687Y-48818230D01*
X151936668Y-48947652D01*
X151936660Y-48947657D01*
X151720472Y-49109493D01*
X151720454Y-49109509D01*
X151529509Y-49300454D01*
X151529493Y-49300472D01*
X151367657Y-49516660D01*
X151367652Y-49516668D01*
X151238230Y-49753687D01*
X151238228Y-49753691D01*
X151166668Y-49945551D01*
X151149834Y-49990688D01*
X151143848Y-50006736D01*
X151086443Y-50270617D01*
X151067177Y-50539998D01*
X142439563Y-50539998D01*
X142418400Y-50510773D01*
X142414522Y-50441011D01*
X142448976Y-50380227D01*
X142487801Y-50354729D01*
X142631628Y-50295154D01*
X142853140Y-50159412D01*
X143050689Y-49990689D01*
X143219412Y-49793140D01*
X143355154Y-49571628D01*
X143454573Y-49331610D01*
X143515221Y-49078994D01*
X143535604Y-48820000D01*
X143515221Y-48561006D01*
X143454573Y-48308390D01*
X143355154Y-48068372D01*
X143219412Y-47846860D01*
X143050689Y-47649311D01*
X142853140Y-47480588D01*
X142631628Y-47344846D01*
X142631627Y-47344845D01*
X142631623Y-47344843D01*
X142465627Y-47276086D01*
X142391610Y-47245427D01*
X142391611Y-47245427D01*
X142253921Y-47212370D01*
X142138994Y-47184779D01*
X142138992Y-47184778D01*
X142138991Y-47184778D01*
X141880000Y-47164396D01*
X141621009Y-47184778D01*
X141368389Y-47245427D01*
X141128376Y-47344843D01*
X140906859Y-47480588D01*
X140709311Y-47649311D01*
X140540588Y-47846859D01*
X140404843Y-48068376D01*
X140305427Y-48308389D01*
X140244778Y-48561009D01*
X140224396Y-48820000D01*
X140244778Y-49078990D01*
X140305427Y-49331610D01*
X140404843Y-49571623D01*
X140404845Y-49571627D01*
X140404846Y-49571628D01*
X140540588Y-49793140D01*
X140709311Y-49990689D01*
X140906860Y-50159412D01*
X141128372Y-50295154D01*
X141128374Y-50295154D01*
X141128376Y-50295156D01*
X141169614Y-50312237D01*
X141368390Y-50394573D01*
X141621006Y-50455221D01*
X141880000Y-50475604D01*
X141911620Y-50473115D01*
X141979997Y-50487479D01*
X142029754Y-50536530D01*
X142045093Y-50604695D01*
X142021145Y-50670332D01*
X141973754Y-50709115D01*
X141859964Y-50762176D01*
X141859960Y-50762178D01*
X141677184Y-50890159D01*
X141519409Y-51047934D01*
X141391428Y-51230710D01*
X141391426Y-51230714D01*
X141342382Y-51335890D01*
X141296209Y-51388329D01*
X141229016Y-51407481D01*
X141162135Y-51387265D01*
X141117618Y-51335890D01*
X141108222Y-51315741D01*
X141068574Y-51230715D01*
X141068572Y-51230712D01*
X141068571Y-51230710D01*
X140940592Y-51047937D01*
X140887654Y-50994999D01*
X140782814Y-50890159D01*
X140600036Y-50762176D01*
X140557146Y-50742176D01*
X140397816Y-50667879D01*
X140397805Y-50667875D01*
X140182284Y-50610126D01*
X140182276Y-50610125D01*
X139960002Y-50590679D01*
X139959998Y-50590679D01*
X139737723Y-50610125D01*
X139737715Y-50610126D01*
X139522194Y-50667875D01*
X139522188Y-50667878D01*
X139319964Y-50762176D01*
X139319960Y-50762178D01*
X139137184Y-50890159D01*
X138979409Y-51047934D01*
X138851428Y-51230710D01*
X138851426Y-51230714D01*
X138757128Y-51432938D01*
X138757125Y-51432944D01*
X138699376Y-51648465D01*
X138699375Y-51648473D01*
X138679929Y-51870748D01*
X135270071Y-51870748D01*
X135250624Y-51648468D01*
X135192873Y-51432940D01*
X135098574Y-51230715D01*
X135098572Y-51230712D01*
X135098571Y-51230710D01*
X134970592Y-51047937D01*
X134917654Y-50994999D01*
X134812814Y-50890159D01*
X134630036Y-50762176D01*
X134587146Y-50742176D01*
X134427816Y-50667879D01*
X134427805Y-50667875D01*
X134212284Y-50610126D01*
X134212276Y-50610125D01*
X133990002Y-50590679D01*
X133989998Y-50590679D01*
X133767723Y-50610125D01*
X133767715Y-50610126D01*
X133552194Y-50667875D01*
X133552188Y-50667878D01*
X133349964Y-50762176D01*
X133349960Y-50762178D01*
X133167184Y-50890159D01*
X133009409Y-51047934D01*
X132881428Y-51230710D01*
X132881426Y-51230714D01*
X132832382Y-51335890D01*
X132786209Y-51388329D01*
X132719016Y-51407481D01*
X132652135Y-51387265D01*
X132607618Y-51335890D01*
X132598222Y-51315741D01*
X132558574Y-51230715D01*
X132558572Y-51230712D01*
X132558571Y-51230710D01*
X132430592Y-51047937D01*
X132377654Y-50994999D01*
X132272814Y-50890159D01*
X132090036Y-50762176D01*
X132047146Y-50742176D01*
X131887816Y-50667879D01*
X131887805Y-50667875D01*
X131672284Y-50610126D01*
X131672277Y-50610125D01*
X131499215Y-50594984D01*
X131434147Y-50569531D01*
X131393168Y-50512940D01*
X131389290Y-50443178D01*
X131423744Y-50382394D01*
X131462568Y-50356896D01*
X131611628Y-50295154D01*
X131833140Y-50159412D01*
X132030689Y-49990689D01*
X132199412Y-49793140D01*
X132335154Y-49571628D01*
X132434573Y-49331610D01*
X132495221Y-49078994D01*
X132515604Y-48820000D01*
X132495221Y-48561006D01*
X132434573Y-48308390D01*
X132335154Y-48068372D01*
X132199412Y-47846860D01*
X132030689Y-47649311D01*
X131833140Y-47480588D01*
X131611628Y-47344846D01*
X131611627Y-47344845D01*
X131611623Y-47344843D01*
X131445627Y-47276086D01*
X131371610Y-47245427D01*
X131371611Y-47245427D01*
X131233921Y-47212370D01*
X131118994Y-47184779D01*
X131118992Y-47184778D01*
X131118991Y-47184778D01*
X130860000Y-47164396D01*
X130601009Y-47184778D01*
X130348389Y-47245427D01*
X130108376Y-47344843D01*
X129886859Y-47480588D01*
X129689311Y-47649311D01*
X129520588Y-47846859D01*
X129384843Y-48068376D01*
X129285427Y-48308389D01*
X129224778Y-48561009D01*
X129204396Y-48820000D01*
X129224778Y-49078990D01*
X129285427Y-49331610D01*
X129384843Y-49571623D01*
X129384845Y-49571627D01*
X129384846Y-49571628D01*
X129520588Y-49793140D01*
X129689311Y-49990689D01*
X129886860Y-50159412D01*
X130108372Y-50295154D01*
X130108374Y-50295154D01*
X130108376Y-50295156D01*
X130149614Y-50312237D01*
X130348390Y-50394573D01*
X130601006Y-50455221D01*
X130860000Y-50475604D01*
X130860001Y-50475603D01*
X130860003Y-50475604D01*
X130864872Y-50475604D01*
X130864872Y-50477959D01*
X130923732Y-50490226D01*
X130973567Y-50539197D01*
X130989015Y-50607338D01*
X130965171Y-50673013D01*
X130917663Y-50711955D01*
X130809965Y-50762176D01*
X130809960Y-50762178D01*
X130627184Y-50890159D01*
X130469409Y-51047934D01*
X130341428Y-51230710D01*
X130341426Y-51230714D01*
X130292382Y-51335890D01*
X130246209Y-51388329D01*
X130179016Y-51407481D01*
X130112135Y-51387265D01*
X130067618Y-51335890D01*
X130058222Y-51315741D01*
X130018574Y-51230715D01*
X130018572Y-51230712D01*
X130018571Y-51230710D01*
X129890592Y-51047937D01*
X129837654Y-50994999D01*
X129732814Y-50890159D01*
X129550036Y-50762176D01*
X129507146Y-50742176D01*
X129347816Y-50667879D01*
X129347805Y-50667875D01*
X129132284Y-50610126D01*
X129132276Y-50610125D01*
X128910002Y-50590679D01*
X128909998Y-50590679D01*
X128687723Y-50610125D01*
X128687715Y-50610126D01*
X128472194Y-50667875D01*
X128472188Y-50667878D01*
X128269964Y-50762176D01*
X128269960Y-50762178D01*
X128087184Y-50890159D01*
X127929409Y-51047934D01*
X127801428Y-51230710D01*
X127801426Y-51230714D01*
X127707128Y-51432938D01*
X127707125Y-51432944D01*
X127649376Y-51648465D01*
X127649375Y-51648473D01*
X127629929Y-51870748D01*
X124188321Y-51870748D01*
X124190071Y-51850750D01*
X124170624Y-51628468D01*
X124112873Y-51412940D01*
X124018574Y-51210715D01*
X124018572Y-51210712D01*
X124018571Y-51210710D01*
X123890592Y-51027937D01*
X123857654Y-50994999D01*
X123732814Y-50870159D01*
X123550036Y-50742176D01*
X123550032Y-50742174D01*
X123347816Y-50647879D01*
X123347805Y-50647875D01*
X123132284Y-50590126D01*
X123132276Y-50590125D01*
X122910002Y-50570679D01*
X122909998Y-50570679D01*
X122687723Y-50590125D01*
X122687715Y-50590126D01*
X122472194Y-50647875D01*
X122472188Y-50647878D01*
X122269964Y-50742176D01*
X122269960Y-50742178D01*
X122087184Y-50870159D01*
X121929409Y-51027934D01*
X121801428Y-51210710D01*
X121801426Y-51210714D01*
X121752382Y-51315890D01*
X121706209Y-51368329D01*
X121639016Y-51387481D01*
X121572135Y-51367265D01*
X121527618Y-51315890D01*
X121487900Y-51230715D01*
X121478574Y-51210715D01*
X121478572Y-51210712D01*
X121478571Y-51210710D01*
X121350592Y-51027937D01*
X121317654Y-50994999D01*
X121192814Y-50870159D01*
X121010036Y-50742176D01*
X121010032Y-50742174D01*
X120807816Y-50647879D01*
X120807805Y-50647875D01*
X120592284Y-50590126D01*
X120592276Y-50590125D01*
X120377935Y-50571373D01*
X120312866Y-50545921D01*
X120271887Y-50489330D01*
X120268009Y-50419568D01*
X120302463Y-50358784D01*
X120341290Y-50333284D01*
X120391750Y-50312383D01*
X120481628Y-50275154D01*
X120703140Y-50139412D01*
X120900689Y-49970689D01*
X121069412Y-49773140D01*
X121205154Y-49551628D01*
X121304573Y-49311610D01*
X121365221Y-49058994D01*
X121385604Y-48800000D01*
X121365221Y-48541006D01*
X121304573Y-48288390D01*
X121213440Y-48068376D01*
X121205156Y-48048376D01*
X121163255Y-47980000D01*
X121069412Y-47826860D01*
X120900689Y-47629311D01*
X120703140Y-47460588D01*
X120481628Y-47324846D01*
X120481627Y-47324845D01*
X120481623Y-47324843D01*
X120289894Y-47245427D01*
X120241610Y-47225427D01*
X120241611Y-47225427D01*
X120103921Y-47192370D01*
X119988994Y-47164779D01*
X119988992Y-47164778D01*
X119988991Y-47164778D01*
X119730000Y-47144396D01*
X119471009Y-47164778D01*
X119218389Y-47225427D01*
X118978376Y-47324843D01*
X118756859Y-47460588D01*
X118559311Y-47629311D01*
X118390588Y-47826859D01*
X118254843Y-48048376D01*
X118155427Y-48288389D01*
X118094778Y-48541009D01*
X118074396Y-48800000D01*
X118094778Y-49058990D01*
X118155427Y-49311610D01*
X118254843Y-49551623D01*
X118254845Y-49551627D01*
X118254846Y-49551628D01*
X118390588Y-49773140D01*
X118559311Y-49970689D01*
X118756860Y-50139412D01*
X118978372Y-50275154D01*
X118978374Y-50275154D01*
X118978376Y-50275156D01*
X119006234Y-50286695D01*
X119218390Y-50374573D01*
X119471006Y-50435221D01*
X119730000Y-50455604D01*
X119785683Y-50451221D01*
X119854057Y-50465585D01*
X119903815Y-50514636D01*
X119919154Y-50582801D01*
X119895206Y-50648438D01*
X119847815Y-50687221D01*
X119729965Y-50742176D01*
X119729960Y-50742178D01*
X119547184Y-50870159D01*
X119389409Y-51027934D01*
X119261428Y-51210710D01*
X119261426Y-51210714D01*
X119212382Y-51315890D01*
X119166209Y-51368329D01*
X119099016Y-51387481D01*
X119032135Y-51367265D01*
X118987618Y-51315890D01*
X118947900Y-51230715D01*
X118938574Y-51210715D01*
X118938572Y-51210712D01*
X118938571Y-51210710D01*
X118810592Y-51027937D01*
X118777654Y-50994999D01*
X118652814Y-50870159D01*
X118470036Y-50742176D01*
X118470032Y-50742174D01*
X118267816Y-50647879D01*
X118267805Y-50647875D01*
X118052284Y-50590126D01*
X118052276Y-50590125D01*
X117830002Y-50570679D01*
X117829998Y-50570679D01*
X117607723Y-50590125D01*
X117607715Y-50590126D01*
X117392194Y-50647875D01*
X117392188Y-50647878D01*
X117189964Y-50742176D01*
X117189960Y-50742178D01*
X117007184Y-50870159D01*
X116849409Y-51027934D01*
X116721428Y-51210710D01*
X116721426Y-51210714D01*
X116627128Y-51412938D01*
X116627125Y-51412944D01*
X116569376Y-51628465D01*
X116569375Y-51628473D01*
X116549929Y-51850748D01*
X113098321Y-51850748D01*
X113080624Y-51648468D01*
X113022873Y-51432940D01*
X112928574Y-51230715D01*
X112928572Y-51230712D01*
X112928571Y-51230710D01*
X112800592Y-51047937D01*
X112747654Y-50994999D01*
X112642814Y-50890159D01*
X112460036Y-50762176D01*
X112417146Y-50742176D01*
X112257816Y-50667879D01*
X112257805Y-50667875D01*
X112042284Y-50610126D01*
X112042276Y-50610125D01*
X111820002Y-50590679D01*
X111819998Y-50590679D01*
X111597723Y-50610125D01*
X111597715Y-50610126D01*
X111382194Y-50667875D01*
X111382188Y-50667878D01*
X111179964Y-50762176D01*
X111179960Y-50762178D01*
X110997184Y-50890159D01*
X110839409Y-51047934D01*
X110711428Y-51230710D01*
X110711426Y-51230714D01*
X110662382Y-51335890D01*
X110616209Y-51388329D01*
X110549016Y-51407481D01*
X110482135Y-51387265D01*
X110437618Y-51335890D01*
X110428222Y-51315741D01*
X110388574Y-51230715D01*
X110388572Y-51230712D01*
X110388571Y-51230710D01*
X110260592Y-51047937D01*
X110207654Y-50994999D01*
X110102814Y-50890159D01*
X109920036Y-50762176D01*
X109877146Y-50742176D01*
X109717816Y-50667879D01*
X109717805Y-50667875D01*
X109502284Y-50610126D01*
X109502276Y-50610125D01*
X109312704Y-50593540D01*
X109247635Y-50568088D01*
X109206656Y-50511497D01*
X109202778Y-50441735D01*
X109237232Y-50380951D01*
X109276059Y-50355451D01*
X109421621Y-50295157D01*
X109421621Y-50295156D01*
X109421628Y-50295154D01*
X109643140Y-50159412D01*
X109840689Y-49990689D01*
X110009412Y-49793140D01*
X110145154Y-49571628D01*
X110244573Y-49331610D01*
X110305221Y-49078994D01*
X110325604Y-48820000D01*
X110305221Y-48561006D01*
X110244573Y-48308390D01*
X110145154Y-48068372D01*
X110009412Y-47846860D01*
X109840689Y-47649311D01*
X109643140Y-47480588D01*
X109421628Y-47344846D01*
X109421627Y-47344845D01*
X109421623Y-47344843D01*
X109255627Y-47276086D01*
X109181610Y-47245427D01*
X109181611Y-47245427D01*
X109043921Y-47212370D01*
X108928994Y-47184779D01*
X108928992Y-47184778D01*
X108928991Y-47184778D01*
X108670000Y-47164396D01*
X108411009Y-47184778D01*
X108158389Y-47245427D01*
X107918376Y-47344843D01*
X107696859Y-47480588D01*
X107499311Y-47649311D01*
X107330588Y-47846859D01*
X107194843Y-48068376D01*
X107095427Y-48308389D01*
X107034778Y-48561009D01*
X107014396Y-48820000D01*
X107034778Y-49078990D01*
X107095427Y-49331610D01*
X107194843Y-49571623D01*
X107194845Y-49571627D01*
X107194846Y-49571628D01*
X107330588Y-49793140D01*
X107499311Y-49990689D01*
X107696860Y-50159412D01*
X107918372Y-50295154D01*
X107918374Y-50295154D01*
X107918376Y-50295156D01*
X107959614Y-50312237D01*
X108158390Y-50394573D01*
X108411006Y-50455221D01*
X108670000Y-50475604D01*
X108689590Y-50474062D01*
X108757967Y-50488426D01*
X108807724Y-50537478D01*
X108823063Y-50605643D01*
X108799114Y-50671280D01*
X108751724Y-50710062D01*
X108639964Y-50762176D01*
X108639960Y-50762178D01*
X108457184Y-50890159D01*
X108299409Y-51047934D01*
X108171428Y-51230710D01*
X108171426Y-51230714D01*
X108122382Y-51335890D01*
X108076209Y-51388329D01*
X108009016Y-51407481D01*
X107942135Y-51387265D01*
X107897618Y-51335890D01*
X107888222Y-51315741D01*
X107848574Y-51230715D01*
X107848572Y-51230712D01*
X107848571Y-51230710D01*
X107720592Y-51047937D01*
X107667654Y-50994999D01*
X107562814Y-50890159D01*
X107380036Y-50762176D01*
X107337146Y-50742176D01*
X107177816Y-50667879D01*
X107177805Y-50667875D01*
X106962284Y-50610126D01*
X106962276Y-50610125D01*
X106740002Y-50590679D01*
X106739998Y-50590679D01*
X106517723Y-50610125D01*
X106517715Y-50610126D01*
X106302194Y-50667875D01*
X106302188Y-50667878D01*
X106099964Y-50762176D01*
X106099960Y-50762178D01*
X105917184Y-50890159D01*
X105759409Y-51047934D01*
X105631428Y-51230710D01*
X105631426Y-51230714D01*
X105537128Y-51432938D01*
X105537125Y-51432944D01*
X105479376Y-51648465D01*
X105479375Y-51648473D01*
X105459929Y-51870748D01*
X61260000Y-51870748D01*
X61260000Y-50995000D01*
X61257850Y-50929459D01*
X61257850Y-50929457D01*
X61223906Y-50802848D01*
X61223905Y-50802847D01*
X61200419Y-50762175D01*
X61158357Y-50689332D01*
X61158354Y-50689328D01*
X61065671Y-50596645D01*
X61065667Y-50596642D01*
X60952152Y-50531094D01*
X60952151Y-50531093D01*
X60825542Y-50497149D01*
X60760009Y-50495000D01*
X60760000Y-50495000D01*
X58761830Y-50495000D01*
X58758172Y-50494946D01*
X58753744Y-50494815D01*
X58708875Y-50493490D01*
X58680459Y-50489323D01*
X58583517Y-50463362D01*
X58553601Y-50450974D01*
X58537596Y-50441735D01*
X58468304Y-50401735D01*
X58442616Y-50382025D01*
X58372974Y-50312383D01*
X58353264Y-50286695D01*
X58343983Y-50270617D01*
X58304023Y-50201394D01*
X58291638Y-50171486D01*
X58265675Y-50074538D01*
X58261509Y-50046122D01*
X58260054Y-49996829D01*
X58260000Y-49993170D01*
X58260000Y-47980000D01*
X64674540Y-47980000D01*
X64694326Y-48168256D01*
X64694327Y-48168259D01*
X64752818Y-48348277D01*
X64752821Y-48348284D01*
X64847467Y-48512216D01*
X64888941Y-48558277D01*
X64974129Y-48652888D01*
X65127265Y-48764148D01*
X65127270Y-48764151D01*
X65300192Y-48841142D01*
X65300197Y-48841144D01*
X65485354Y-48880500D01*
X65485355Y-48880500D01*
X65674644Y-48880500D01*
X65674646Y-48880500D01*
X65859803Y-48841144D01*
X66032730Y-48764151D01*
X66185871Y-48652888D01*
X66312533Y-48512216D01*
X66407179Y-48348284D01*
X66458609Y-48190000D01*
X77344540Y-48190000D01*
X77364326Y-48378256D01*
X77364327Y-48378259D01*
X77422818Y-48558277D01*
X77422821Y-48558284D01*
X77517467Y-48722216D01*
X77624549Y-48841142D01*
X77644129Y-48862888D01*
X77797265Y-48974148D01*
X77797270Y-48974151D01*
X77970192Y-49051142D01*
X77970197Y-49051144D01*
X78155354Y-49090500D01*
X78155355Y-49090500D01*
X78344644Y-49090500D01*
X78344646Y-49090500D01*
X78529803Y-49051144D01*
X78702730Y-48974151D01*
X78855871Y-48862888D01*
X78982533Y-48722216D01*
X79077179Y-48558284D01*
X79092868Y-48510000D01*
X97354540Y-48510000D01*
X97374326Y-48698256D01*
X97374327Y-48698259D01*
X97432818Y-48878277D01*
X97432821Y-48878284D01*
X97527467Y-49042216D01*
X97588044Y-49109493D01*
X97654129Y-49182888D01*
X97807265Y-49294148D01*
X97807270Y-49294151D01*
X97980192Y-49371142D01*
X97980197Y-49371144D01*
X98165354Y-49410500D01*
X98165355Y-49410500D01*
X98354644Y-49410500D01*
X98354646Y-49410500D01*
X98539803Y-49371144D01*
X98712730Y-49294151D01*
X98865871Y-49182888D01*
X98992533Y-49042216D01*
X99087179Y-48878284D01*
X99145674Y-48698256D01*
X99165460Y-48510000D01*
X99145674Y-48321744D01*
X99087179Y-48141716D01*
X98992533Y-47977784D01*
X98865871Y-47837112D01*
X98865870Y-47837111D01*
X98712734Y-47725851D01*
X98712729Y-47725848D01*
X98539807Y-47648857D01*
X98539802Y-47648855D01*
X98394001Y-47617865D01*
X98354646Y-47609500D01*
X98165354Y-47609500D01*
X98132897Y-47616398D01*
X97980197Y-47648855D01*
X97980192Y-47648857D01*
X97807270Y-47725848D01*
X97807265Y-47725851D01*
X97654129Y-47837111D01*
X97527466Y-47977785D01*
X97432821Y-48141715D01*
X97432818Y-48141722D01*
X97385163Y-48288390D01*
X97374326Y-48321744D01*
X97354540Y-48510000D01*
X79092868Y-48510000D01*
X79135674Y-48378256D01*
X79155460Y-48190000D01*
X79135674Y-48001744D01*
X79077179Y-47821716D01*
X78982533Y-47657784D01*
X78855871Y-47517112D01*
X78805600Y-47480588D01*
X78702734Y-47405851D01*
X78702729Y-47405848D01*
X78529807Y-47328857D01*
X78529802Y-47328855D01*
X78384001Y-47297865D01*
X78344646Y-47289500D01*
X78155354Y-47289500D01*
X78122897Y-47296398D01*
X77970197Y-47328855D01*
X77970192Y-47328857D01*
X77797270Y-47405848D01*
X77797265Y-47405851D01*
X77644129Y-47517111D01*
X77517466Y-47657785D01*
X77422821Y-47821715D01*
X77422818Y-47821722D01*
X77371391Y-47980000D01*
X77364326Y-48001744D01*
X77344540Y-48190000D01*
X66458609Y-48190000D01*
X66465674Y-48168256D01*
X66485460Y-47980000D01*
X66465674Y-47791744D01*
X66407179Y-47611716D01*
X66312533Y-47447784D01*
X66185871Y-47307112D01*
X66185870Y-47307111D01*
X66032734Y-47195851D01*
X66032729Y-47195848D01*
X65859807Y-47118857D01*
X65859802Y-47118855D01*
X65714001Y-47087865D01*
X65674646Y-47079500D01*
X65485354Y-47079500D01*
X65452897Y-47086398D01*
X65300197Y-47118855D01*
X65300192Y-47118857D01*
X65127270Y-47195848D01*
X65127265Y-47195851D01*
X64974129Y-47307111D01*
X64847466Y-47447785D01*
X64752821Y-47611715D01*
X64752818Y-47611722D01*
X64694327Y-47791740D01*
X64694326Y-47791744D01*
X64674540Y-47980000D01*
X58260000Y-47980000D01*
X58260000Y-40979999D01*
X62924571Y-40979999D01*
X62924571Y-40980000D01*
X62944244Y-41192310D01*
X63002596Y-41397392D01*
X63002596Y-41397394D01*
X63097632Y-41588253D01*
X63226127Y-41758406D01*
X63368682Y-41888363D01*
X63404963Y-41948075D01*
X63403202Y-42017922D01*
X63368682Y-42071637D01*
X63226127Y-42201593D01*
X63097632Y-42371746D01*
X63002596Y-42562605D01*
X63002596Y-42562607D01*
X62972592Y-42668060D01*
X62944244Y-42767690D01*
X62924571Y-42980000D01*
X62944244Y-43192310D01*
X62990924Y-43356372D01*
X63002596Y-43397392D01*
X63002596Y-43397394D01*
X63097632Y-43588253D01*
X63169450Y-43683354D01*
X63226128Y-43758407D01*
X63383698Y-43902052D01*
X63564981Y-44014298D01*
X63763802Y-44091321D01*
X63973390Y-44130500D01*
X63973392Y-44130500D01*
X64186608Y-44130500D01*
X64186610Y-44130500D01*
X64396198Y-44091321D01*
X64595019Y-44014298D01*
X64776302Y-43902052D01*
X64933872Y-43758407D01*
X64981046Y-43695938D01*
X65037155Y-43654303D01*
X65106867Y-43649612D01*
X65168049Y-43683354D01*
X65178953Y-43695938D01*
X65226128Y-43758407D01*
X65383698Y-43902052D01*
X65564981Y-44014298D01*
X65763802Y-44091321D01*
X65973390Y-44130500D01*
X65973392Y-44130500D01*
X66186608Y-44130500D01*
X66186610Y-44130500D01*
X66396198Y-44091321D01*
X66595019Y-44014298D01*
X66776302Y-43902052D01*
X66933872Y-43758407D01*
X67062366Y-43588255D01*
X67157405Y-43397389D01*
X67215756Y-43192310D01*
X67235429Y-42980000D01*
X67215756Y-42767690D01*
X67157405Y-42562611D01*
X67157403Y-42562606D01*
X67157403Y-42562605D01*
X67062367Y-42371746D01*
X66971529Y-42251459D01*
X66933872Y-42201593D01*
X66791317Y-42071636D01*
X66755036Y-42011926D01*
X66756797Y-41942078D01*
X66791318Y-41888363D01*
X66933872Y-41758407D01*
X67062366Y-41588255D01*
X67157405Y-41397389D01*
X67215756Y-41192310D01*
X67235429Y-40980000D01*
X67235429Y-40979999D01*
X68924571Y-40979999D01*
X68924571Y-40980000D01*
X68944244Y-41192310D01*
X69002596Y-41397392D01*
X69002596Y-41397394D01*
X69097632Y-41588253D01*
X69226127Y-41758406D01*
X69368682Y-41888363D01*
X69404963Y-41948075D01*
X69403202Y-42017922D01*
X69368682Y-42071637D01*
X69226127Y-42201593D01*
X69097632Y-42371746D01*
X69002596Y-42562605D01*
X69002596Y-42562607D01*
X68972592Y-42668060D01*
X68944244Y-42767690D01*
X68924571Y-42980000D01*
X68944244Y-43192310D01*
X68990924Y-43356372D01*
X69002596Y-43397392D01*
X69002596Y-43397394D01*
X69097632Y-43588253D01*
X69169450Y-43683354D01*
X69226128Y-43758407D01*
X69383698Y-43902052D01*
X69564981Y-44014298D01*
X69763802Y-44091321D01*
X69973390Y-44130500D01*
X69973392Y-44130500D01*
X70186608Y-44130500D01*
X70186610Y-44130500D01*
X70396198Y-44091321D01*
X70595019Y-44014298D01*
X70776302Y-43902052D01*
X70933872Y-43758407D01*
X71062366Y-43588255D01*
X71157405Y-43397389D01*
X71215756Y-43192310D01*
X71235429Y-42980000D01*
X71215756Y-42767690D01*
X71157405Y-42562611D01*
X71157403Y-42562606D01*
X71157403Y-42562605D01*
X71062367Y-42371746D01*
X70971529Y-42251459D01*
X70933872Y-42201593D01*
X70791317Y-42071636D01*
X70755036Y-42011926D01*
X70756797Y-41942078D01*
X70791318Y-41888363D01*
X70933872Y-41758407D01*
X71062366Y-41588255D01*
X71157405Y-41397389D01*
X71215756Y-41192310D01*
X71235429Y-40980000D01*
X71235429Y-40979999D01*
X72924571Y-40979999D01*
X72924571Y-40980000D01*
X72944244Y-41192310D01*
X73002596Y-41397392D01*
X73002596Y-41397394D01*
X73097632Y-41588253D01*
X73226127Y-41758406D01*
X73368682Y-41888363D01*
X73404963Y-41948075D01*
X73403202Y-42017922D01*
X73368682Y-42071637D01*
X73226127Y-42201593D01*
X73097632Y-42371746D01*
X73002596Y-42562605D01*
X73002596Y-42562607D01*
X72972592Y-42668060D01*
X72944244Y-42767690D01*
X72924571Y-42980000D01*
X72944244Y-43192310D01*
X72990924Y-43356372D01*
X73002596Y-43397392D01*
X73002596Y-43397394D01*
X73097632Y-43588253D01*
X73169450Y-43683354D01*
X73226128Y-43758407D01*
X73383698Y-43902052D01*
X73564981Y-44014298D01*
X73763802Y-44091321D01*
X73973390Y-44130500D01*
X73973392Y-44130500D01*
X74186608Y-44130500D01*
X74186610Y-44130500D01*
X74396198Y-44091321D01*
X74595019Y-44014298D01*
X74776302Y-43902052D01*
X74933872Y-43758407D01*
X74981046Y-43695938D01*
X75037155Y-43654303D01*
X75106867Y-43649612D01*
X75168049Y-43683354D01*
X75178953Y-43695938D01*
X75226128Y-43758407D01*
X75383698Y-43902052D01*
X75564981Y-44014298D01*
X75763802Y-44091321D01*
X75973390Y-44130500D01*
X75973392Y-44130500D01*
X76186608Y-44130500D01*
X76186610Y-44130500D01*
X76396198Y-44091321D01*
X76595019Y-44014298D01*
X76776302Y-43902052D01*
X76933872Y-43758407D01*
X76981046Y-43695938D01*
X77037155Y-43654303D01*
X77106867Y-43649612D01*
X77168049Y-43683354D01*
X77178953Y-43695938D01*
X77226128Y-43758407D01*
X77383698Y-43902052D01*
X77564981Y-44014298D01*
X77763802Y-44091321D01*
X77973390Y-44130500D01*
X77973392Y-44130500D01*
X78186608Y-44130500D01*
X78186610Y-44130500D01*
X78396198Y-44091321D01*
X78595019Y-44014298D01*
X78776302Y-43902052D01*
X78933872Y-43758407D01*
X79062366Y-43588255D01*
X79157405Y-43397389D01*
X79215756Y-43192310D01*
X79235429Y-42980000D01*
X79215756Y-42767690D01*
X79157405Y-42562611D01*
X79157403Y-42562606D01*
X79157403Y-42562605D01*
X79062367Y-42371746D01*
X78971529Y-42251459D01*
X78933872Y-42201593D01*
X78791317Y-42071636D01*
X78755036Y-42011926D01*
X78756797Y-41942078D01*
X78791318Y-41888363D01*
X78933872Y-41758407D01*
X79062366Y-41588255D01*
X79157405Y-41397389D01*
X79215756Y-41192310D01*
X79235429Y-40980000D01*
X79235429Y-40979999D01*
X84354571Y-40979999D01*
X84354571Y-40980000D01*
X84374244Y-41192310D01*
X84432596Y-41397392D01*
X84432596Y-41397394D01*
X84527632Y-41588253D01*
X84656127Y-41758406D01*
X84798682Y-41888363D01*
X84834963Y-41948075D01*
X84833202Y-42017922D01*
X84798682Y-42071637D01*
X84656127Y-42201593D01*
X84527632Y-42371746D01*
X84432596Y-42562605D01*
X84432596Y-42562607D01*
X84402592Y-42668060D01*
X84374244Y-42767690D01*
X84354571Y-42980000D01*
X84374244Y-43192310D01*
X84420924Y-43356372D01*
X84432596Y-43397392D01*
X84432596Y-43397394D01*
X84527632Y-43588253D01*
X84599450Y-43683354D01*
X84656128Y-43758407D01*
X84813698Y-43902052D01*
X84994981Y-44014298D01*
X85193802Y-44091321D01*
X85403390Y-44130500D01*
X85403392Y-44130500D01*
X85616608Y-44130500D01*
X85616610Y-44130500D01*
X85826198Y-44091321D01*
X86025019Y-44014298D01*
X86206302Y-43902052D01*
X86363872Y-43758407D01*
X86411046Y-43695938D01*
X86467155Y-43654303D01*
X86536867Y-43649612D01*
X86598049Y-43683354D01*
X86608953Y-43695938D01*
X86656128Y-43758407D01*
X86813698Y-43902052D01*
X86994981Y-44014298D01*
X87193802Y-44091321D01*
X87403390Y-44130500D01*
X87403392Y-44130500D01*
X87616608Y-44130500D01*
X87616610Y-44130500D01*
X87826198Y-44091321D01*
X88025019Y-44014298D01*
X88206302Y-43902052D01*
X88363872Y-43758407D01*
X88492366Y-43588255D01*
X88587405Y-43397389D01*
X88645756Y-43192310D01*
X88665429Y-42980000D01*
X88645756Y-42767690D01*
X88587405Y-42562611D01*
X88587403Y-42562606D01*
X88587403Y-42562605D01*
X88492367Y-42371746D01*
X88401529Y-42251459D01*
X88363872Y-42201593D01*
X88221317Y-42071636D01*
X88185036Y-42011926D01*
X88186797Y-41942078D01*
X88221318Y-41888363D01*
X88363872Y-41758407D01*
X88492366Y-41588255D01*
X88587405Y-41397389D01*
X88645756Y-41192310D01*
X88665429Y-40980000D01*
X88665429Y-40979999D01*
X90354571Y-40979999D01*
X90354571Y-40980000D01*
X90374244Y-41192310D01*
X90432596Y-41397392D01*
X90432596Y-41397394D01*
X90527632Y-41588253D01*
X90656127Y-41758406D01*
X90798682Y-41888363D01*
X90834963Y-41948075D01*
X90833202Y-42017922D01*
X90798682Y-42071637D01*
X90656127Y-42201593D01*
X90527632Y-42371746D01*
X90432596Y-42562605D01*
X90432596Y-42562607D01*
X90402592Y-42668060D01*
X90374244Y-42767690D01*
X90354571Y-42980000D01*
X90374244Y-43192310D01*
X90420924Y-43356372D01*
X90432596Y-43397392D01*
X90432596Y-43397394D01*
X90527632Y-43588253D01*
X90599450Y-43683354D01*
X90656128Y-43758407D01*
X90813698Y-43902052D01*
X90994981Y-44014298D01*
X91193802Y-44091321D01*
X91403390Y-44130500D01*
X91403392Y-44130500D01*
X91616608Y-44130500D01*
X91616610Y-44130500D01*
X91826198Y-44091321D01*
X92025019Y-44014298D01*
X92206302Y-43902052D01*
X92363872Y-43758407D01*
X92492366Y-43588255D01*
X92587405Y-43397389D01*
X92645756Y-43192310D01*
X92665429Y-42980000D01*
X92645756Y-42767690D01*
X92587405Y-42562611D01*
X92587403Y-42562606D01*
X92587403Y-42562605D01*
X92492367Y-42371746D01*
X92401529Y-42251459D01*
X92363872Y-42201593D01*
X92221317Y-42071636D01*
X92185036Y-42011926D01*
X92186797Y-41942078D01*
X92221318Y-41888363D01*
X92363872Y-41758407D01*
X92492366Y-41588255D01*
X92587405Y-41397389D01*
X92645756Y-41192310D01*
X92665429Y-40980000D01*
X92665429Y-40979999D01*
X94354571Y-40979999D01*
X94354571Y-40980000D01*
X94374244Y-41192310D01*
X94432596Y-41397392D01*
X94432596Y-41397394D01*
X94527632Y-41588253D01*
X94656127Y-41758406D01*
X94798682Y-41888363D01*
X94834963Y-41948075D01*
X94833202Y-42017922D01*
X94798682Y-42071637D01*
X94656127Y-42201593D01*
X94527632Y-42371746D01*
X94432596Y-42562605D01*
X94432596Y-42562607D01*
X94402592Y-42668060D01*
X94374244Y-42767690D01*
X94354571Y-42980000D01*
X94374244Y-43192310D01*
X94420924Y-43356372D01*
X94432596Y-43397392D01*
X94432596Y-43397394D01*
X94527632Y-43588253D01*
X94599450Y-43683354D01*
X94656128Y-43758407D01*
X94813698Y-43902052D01*
X94994981Y-44014298D01*
X95193802Y-44091321D01*
X95403390Y-44130500D01*
X95403392Y-44130500D01*
X95616608Y-44130500D01*
X95616610Y-44130500D01*
X95826198Y-44091321D01*
X96025019Y-44014298D01*
X96206302Y-43902052D01*
X96363872Y-43758407D01*
X96411046Y-43695938D01*
X96467155Y-43654303D01*
X96536867Y-43649612D01*
X96598049Y-43683354D01*
X96608953Y-43695938D01*
X96656128Y-43758407D01*
X96813698Y-43902052D01*
X96994981Y-44014298D01*
X97193802Y-44091321D01*
X97403390Y-44130500D01*
X97403392Y-44130500D01*
X97616608Y-44130500D01*
X97616610Y-44130500D01*
X97826198Y-44091321D01*
X98025019Y-44014298D01*
X98206302Y-43902052D01*
X98363872Y-43758407D01*
X98411046Y-43695938D01*
X98467155Y-43654303D01*
X98536867Y-43649612D01*
X98598049Y-43683354D01*
X98608953Y-43695938D01*
X98656128Y-43758407D01*
X98813698Y-43902052D01*
X98994981Y-44014298D01*
X99193802Y-44091321D01*
X99403390Y-44130500D01*
X99403392Y-44130500D01*
X99616608Y-44130500D01*
X99616610Y-44130500D01*
X99826198Y-44091321D01*
X100025019Y-44014298D01*
X100206302Y-43902052D01*
X100363872Y-43758407D01*
X100492366Y-43588255D01*
X100587405Y-43397389D01*
X100645756Y-43192310D01*
X100652120Y-43123634D01*
X151184500Y-43123634D01*
X151184500Y-43356365D01*
X151184501Y-43356382D01*
X151189900Y-43397394D01*
X151214879Y-43587126D01*
X151244035Y-43695939D01*
X151275120Y-43811947D01*
X151364180Y-44026960D01*
X151364188Y-44026976D01*
X151480553Y-44228524D01*
X151480564Y-44228540D01*
X151622242Y-44413179D01*
X151622248Y-44413186D01*
X151786813Y-44577751D01*
X151786819Y-44577756D01*
X151971468Y-44719442D01*
X151971475Y-44719446D01*
X152173023Y-44835811D01*
X152173039Y-44835819D01*
X152388052Y-44924879D01*
X152388054Y-44924879D01*
X152388060Y-44924882D01*
X152612874Y-44985121D01*
X152843628Y-45015500D01*
X152843635Y-45015500D01*
X153076365Y-45015500D01*
X153076372Y-45015500D01*
X153307126Y-44985121D01*
X153531940Y-44924882D01*
X153589953Y-44900852D01*
X153746960Y-44835819D01*
X153746963Y-44835817D01*
X153746969Y-44835815D01*
X153948532Y-44719442D01*
X154133181Y-44577756D01*
X154297756Y-44413181D01*
X154439442Y-44228532D01*
X154555815Y-44026969D01*
X154561064Y-44014298D01*
X154644879Y-43811947D01*
X154644878Y-43811947D01*
X154644882Y-43811940D01*
X154705121Y-43587126D01*
X154735500Y-43356372D01*
X154735500Y-43123634D01*
X159584500Y-43123634D01*
X159584500Y-43356365D01*
X159584501Y-43356382D01*
X159589900Y-43397394D01*
X159614879Y-43587126D01*
X159644035Y-43695939D01*
X159675120Y-43811947D01*
X159764180Y-44026960D01*
X159764188Y-44026976D01*
X159880553Y-44228524D01*
X159880564Y-44228540D01*
X160022242Y-44413179D01*
X160022248Y-44413186D01*
X160186813Y-44577751D01*
X160186819Y-44577756D01*
X160371468Y-44719442D01*
X160371475Y-44719446D01*
X160573023Y-44835811D01*
X160573039Y-44835819D01*
X160788052Y-44924879D01*
X160788054Y-44924879D01*
X160788060Y-44924882D01*
X161012874Y-44985121D01*
X161243628Y-45015500D01*
X161243635Y-45015500D01*
X161476365Y-45015500D01*
X161476372Y-45015500D01*
X161707126Y-44985121D01*
X161931940Y-44924882D01*
X161989953Y-44900852D01*
X162146960Y-44835819D01*
X162146963Y-44835817D01*
X162146969Y-44835815D01*
X162348532Y-44719442D01*
X162533181Y-44577756D01*
X162697756Y-44413181D01*
X162839442Y-44228532D01*
X162955815Y-44026969D01*
X162961064Y-44014298D01*
X163044879Y-43811947D01*
X163044878Y-43811947D01*
X163044882Y-43811940D01*
X163105121Y-43587126D01*
X163135500Y-43356372D01*
X163135500Y-43123628D01*
X163105121Y-42892874D01*
X163044882Y-42668060D01*
X163044879Y-42668052D01*
X162955819Y-42453039D01*
X162955811Y-42453023D01*
X162839446Y-42251475D01*
X162839442Y-42251468D01*
X162697756Y-42066819D01*
X162697751Y-42066813D01*
X162533186Y-41902248D01*
X162533179Y-41902242D01*
X162348540Y-41760564D01*
X162348538Y-41760562D01*
X162348532Y-41760558D01*
X162348527Y-41760555D01*
X162348524Y-41760553D01*
X162146976Y-41644188D01*
X162146960Y-41644180D01*
X161931947Y-41555120D01*
X161707122Y-41494878D01*
X161476382Y-41464501D01*
X161476377Y-41464500D01*
X161476372Y-41464500D01*
X161243628Y-41464500D01*
X161243622Y-41464500D01*
X161243617Y-41464501D01*
X161012877Y-41494878D01*
X160788052Y-41555120D01*
X160573039Y-41644180D01*
X160573023Y-41644188D01*
X160371475Y-41760553D01*
X160371459Y-41760564D01*
X160186820Y-41902242D01*
X160186813Y-41902248D01*
X160022248Y-42066813D01*
X160022242Y-42066820D01*
X159880564Y-42251459D01*
X159880553Y-42251475D01*
X159764188Y-42453023D01*
X159764180Y-42453039D01*
X159675120Y-42668052D01*
X159614878Y-42892877D01*
X159584501Y-43123617D01*
X159584500Y-43123634D01*
X154735500Y-43123634D01*
X154735500Y-43123628D01*
X154705121Y-42892874D01*
X154644882Y-42668060D01*
X154644879Y-42668052D01*
X154555819Y-42453039D01*
X154555811Y-42453023D01*
X154439446Y-42251475D01*
X154439442Y-42251468D01*
X154297756Y-42066819D01*
X154297751Y-42066813D01*
X154133186Y-41902248D01*
X154133179Y-41902242D01*
X153948540Y-41760564D01*
X153948538Y-41760562D01*
X153948532Y-41760558D01*
X153948527Y-41760555D01*
X153948524Y-41760553D01*
X153746976Y-41644188D01*
X153746960Y-41644180D01*
X153531947Y-41555120D01*
X153307122Y-41494878D01*
X153076382Y-41464501D01*
X153076377Y-41464500D01*
X153076372Y-41464500D01*
X152843628Y-41464500D01*
X152843622Y-41464500D01*
X152843617Y-41464501D01*
X152612877Y-41494878D01*
X152388052Y-41555120D01*
X152173039Y-41644180D01*
X152173023Y-41644188D01*
X151971475Y-41760553D01*
X151971459Y-41760564D01*
X151786820Y-41902242D01*
X151786813Y-41902248D01*
X151622248Y-42066813D01*
X151622242Y-42066820D01*
X151480564Y-42251459D01*
X151480553Y-42251475D01*
X151364188Y-42453023D01*
X151364180Y-42453039D01*
X151275120Y-42668052D01*
X151214878Y-42892877D01*
X151184501Y-43123617D01*
X151184500Y-43123634D01*
X100652120Y-43123634D01*
X100665429Y-42980000D01*
X100645756Y-42767690D01*
X100587405Y-42562611D01*
X100587403Y-42562606D01*
X100587403Y-42562605D01*
X100492367Y-42371746D01*
X100401529Y-42251459D01*
X100363872Y-42201593D01*
X100221317Y-42071636D01*
X100185036Y-42011926D01*
X100186797Y-41942078D01*
X100221318Y-41888363D01*
X100363872Y-41758407D01*
X100492366Y-41588255D01*
X100587405Y-41397389D01*
X100645756Y-41192310D01*
X100665429Y-40980000D01*
X100645756Y-40767690D01*
X100587405Y-40562611D01*
X100587403Y-40562606D01*
X100587403Y-40562605D01*
X100492367Y-40371746D01*
X100363872Y-40201593D01*
X100206302Y-40057948D01*
X100025019Y-39945702D01*
X100025017Y-39945701D01*
X99925608Y-39907190D01*
X99826198Y-39868679D01*
X99616610Y-39829500D01*
X99403390Y-39829500D01*
X99193802Y-39868679D01*
X99193799Y-39868679D01*
X99193799Y-39868680D01*
X98994982Y-39945701D01*
X98994980Y-39945702D01*
X98813699Y-40057947D01*
X98656126Y-40201594D01*
X98608953Y-40264061D01*
X98552844Y-40305696D01*
X98483132Y-40310387D01*
X98421950Y-40276644D01*
X98411047Y-40264061D01*
X98363873Y-40201594D01*
X98363872Y-40201593D01*
X98206302Y-40057948D01*
X98025019Y-39945702D01*
X98025017Y-39945701D01*
X97925608Y-39907190D01*
X97826198Y-39868679D01*
X97616610Y-39829500D01*
X97403390Y-39829500D01*
X97193802Y-39868679D01*
X97193799Y-39868679D01*
X97193799Y-39868680D01*
X96994982Y-39945701D01*
X96994980Y-39945702D01*
X96813699Y-40057947D01*
X96656126Y-40201594D01*
X96608953Y-40264061D01*
X96552844Y-40305696D01*
X96483132Y-40310387D01*
X96421950Y-40276644D01*
X96411047Y-40264061D01*
X96363873Y-40201594D01*
X96363872Y-40201593D01*
X96206302Y-40057948D01*
X96025019Y-39945702D01*
X96025017Y-39945701D01*
X95925608Y-39907190D01*
X95826198Y-39868679D01*
X95616610Y-39829500D01*
X95403390Y-39829500D01*
X95193802Y-39868679D01*
X95193799Y-39868679D01*
X95193799Y-39868680D01*
X94994982Y-39945701D01*
X94994980Y-39945702D01*
X94813699Y-40057947D01*
X94656127Y-40201593D01*
X94527632Y-40371746D01*
X94432596Y-40562605D01*
X94432596Y-40562607D01*
X94374244Y-40767689D01*
X94354571Y-40979999D01*
X92665429Y-40979999D01*
X92645756Y-40767690D01*
X92587405Y-40562611D01*
X92587403Y-40562606D01*
X92587403Y-40562605D01*
X92492367Y-40371746D01*
X92363872Y-40201593D01*
X92206302Y-40057948D01*
X92025019Y-39945702D01*
X92025017Y-39945701D01*
X91925608Y-39907190D01*
X91826198Y-39868679D01*
X91616610Y-39829500D01*
X91403390Y-39829500D01*
X91193802Y-39868679D01*
X91193799Y-39868679D01*
X91193799Y-39868680D01*
X90994982Y-39945701D01*
X90994980Y-39945702D01*
X90813699Y-40057947D01*
X90656127Y-40201593D01*
X90527632Y-40371746D01*
X90432596Y-40562605D01*
X90432596Y-40562607D01*
X90374244Y-40767689D01*
X90354571Y-40979999D01*
X88665429Y-40979999D01*
X88645756Y-40767690D01*
X88587405Y-40562611D01*
X88587403Y-40562606D01*
X88587403Y-40562605D01*
X88492367Y-40371746D01*
X88363872Y-40201593D01*
X88206302Y-40057948D01*
X88025019Y-39945702D01*
X88025017Y-39945701D01*
X87925608Y-39907190D01*
X87826198Y-39868679D01*
X87616610Y-39829500D01*
X87403390Y-39829500D01*
X87193802Y-39868679D01*
X87193799Y-39868679D01*
X87193799Y-39868680D01*
X86994982Y-39945701D01*
X86994980Y-39945702D01*
X86813699Y-40057947D01*
X86656126Y-40201594D01*
X86608953Y-40264061D01*
X86552844Y-40305696D01*
X86483132Y-40310387D01*
X86421950Y-40276644D01*
X86411047Y-40264061D01*
X86363873Y-40201594D01*
X86363872Y-40201593D01*
X86206302Y-40057948D01*
X86025019Y-39945702D01*
X86025017Y-39945701D01*
X85925608Y-39907190D01*
X85826198Y-39868679D01*
X85616610Y-39829500D01*
X85403390Y-39829500D01*
X85193802Y-39868679D01*
X85193799Y-39868679D01*
X85193799Y-39868680D01*
X84994982Y-39945701D01*
X84994980Y-39945702D01*
X84813699Y-40057947D01*
X84656127Y-40201593D01*
X84527632Y-40371746D01*
X84432596Y-40562605D01*
X84432596Y-40562607D01*
X84374244Y-40767689D01*
X84354571Y-40979999D01*
X79235429Y-40979999D01*
X79215756Y-40767690D01*
X79157405Y-40562611D01*
X79157403Y-40562606D01*
X79157403Y-40562605D01*
X79062367Y-40371746D01*
X78933872Y-40201593D01*
X78776302Y-40057948D01*
X78595019Y-39945702D01*
X78595017Y-39945701D01*
X78495608Y-39907190D01*
X78396198Y-39868679D01*
X78186610Y-39829500D01*
X77973390Y-39829500D01*
X77763802Y-39868679D01*
X77763799Y-39868679D01*
X77763799Y-39868680D01*
X77564982Y-39945701D01*
X77564980Y-39945702D01*
X77383699Y-40057947D01*
X77226126Y-40201594D01*
X77178953Y-40264061D01*
X77122844Y-40305696D01*
X77053132Y-40310387D01*
X76991950Y-40276644D01*
X76981047Y-40264061D01*
X76933873Y-40201594D01*
X76933872Y-40201593D01*
X76776302Y-40057948D01*
X76595019Y-39945702D01*
X76595017Y-39945701D01*
X76495608Y-39907190D01*
X76396198Y-39868679D01*
X76186610Y-39829500D01*
X75973390Y-39829500D01*
X75763802Y-39868679D01*
X75763799Y-39868679D01*
X75763799Y-39868680D01*
X75564982Y-39945701D01*
X75564980Y-39945702D01*
X75383699Y-40057947D01*
X75226126Y-40201594D01*
X75178953Y-40264061D01*
X75122844Y-40305696D01*
X75053132Y-40310387D01*
X74991950Y-40276644D01*
X74981047Y-40264061D01*
X74933873Y-40201594D01*
X74933872Y-40201593D01*
X74776302Y-40057948D01*
X74595019Y-39945702D01*
X74595017Y-39945701D01*
X74495608Y-39907190D01*
X74396198Y-39868679D01*
X74186610Y-39829500D01*
X73973390Y-39829500D01*
X73763802Y-39868679D01*
X73763799Y-39868679D01*
X73763799Y-39868680D01*
X73564982Y-39945701D01*
X73564980Y-39945702D01*
X73383699Y-40057947D01*
X73226127Y-40201593D01*
X73097632Y-40371746D01*
X73002596Y-40562605D01*
X73002596Y-40562607D01*
X72944244Y-40767689D01*
X72924571Y-40979999D01*
X71235429Y-40979999D01*
X71215756Y-40767690D01*
X71157405Y-40562611D01*
X71157403Y-40562606D01*
X71157403Y-40562605D01*
X71062367Y-40371746D01*
X70933872Y-40201593D01*
X70776302Y-40057948D01*
X70595019Y-39945702D01*
X70595017Y-39945701D01*
X70495608Y-39907190D01*
X70396198Y-39868679D01*
X70186610Y-39829500D01*
X69973390Y-39829500D01*
X69763802Y-39868679D01*
X69763799Y-39868679D01*
X69763799Y-39868680D01*
X69564982Y-39945701D01*
X69564980Y-39945702D01*
X69383699Y-40057947D01*
X69226127Y-40201593D01*
X69097632Y-40371746D01*
X69002596Y-40562605D01*
X69002596Y-40562607D01*
X68944244Y-40767689D01*
X68924571Y-40979999D01*
X67235429Y-40979999D01*
X67215756Y-40767690D01*
X67157405Y-40562611D01*
X67157403Y-40562606D01*
X67157403Y-40562605D01*
X67062367Y-40371746D01*
X66933872Y-40201593D01*
X66776302Y-40057948D01*
X66595019Y-39945702D01*
X66595017Y-39945701D01*
X66495608Y-39907190D01*
X66396198Y-39868679D01*
X66186610Y-39829500D01*
X65973390Y-39829500D01*
X65763802Y-39868679D01*
X65763799Y-39868679D01*
X65763799Y-39868680D01*
X65564982Y-39945701D01*
X65564980Y-39945702D01*
X65383699Y-40057947D01*
X65226126Y-40201594D01*
X65178953Y-40264061D01*
X65122844Y-40305696D01*
X65053132Y-40310387D01*
X64991950Y-40276644D01*
X64981047Y-40264061D01*
X64933873Y-40201594D01*
X64933872Y-40201593D01*
X64776302Y-40057948D01*
X64595019Y-39945702D01*
X64595017Y-39945701D01*
X64495608Y-39907190D01*
X64396198Y-39868679D01*
X64186610Y-39829500D01*
X63973390Y-39829500D01*
X63763802Y-39868679D01*
X63763799Y-39868679D01*
X63763799Y-39868680D01*
X63564982Y-39945701D01*
X63564980Y-39945702D01*
X63383699Y-40057947D01*
X63226127Y-40201593D01*
X63097632Y-40371746D01*
X63002596Y-40562605D01*
X63002596Y-40562607D01*
X62944244Y-40767689D01*
X62924571Y-40979999D01*
X58260000Y-40979999D01*
X58260000Y-37050000D01*
X64694540Y-37050000D01*
X64714326Y-37238256D01*
X64714327Y-37238259D01*
X64772818Y-37418277D01*
X64772821Y-37418284D01*
X64867467Y-37582216D01*
X64957506Y-37682214D01*
X64994129Y-37722888D01*
X65147265Y-37834148D01*
X65147270Y-37834151D01*
X65320192Y-37911142D01*
X65320197Y-37911144D01*
X65505354Y-37950500D01*
X65505355Y-37950500D01*
X65694644Y-37950500D01*
X65694646Y-37950500D01*
X65879803Y-37911144D01*
X66052730Y-37834151D01*
X66205871Y-37722888D01*
X66332533Y-37582216D01*
X66427179Y-37418284D01*
X66485674Y-37238256D01*
X66494950Y-37150000D01*
X78254540Y-37150000D01*
X78274326Y-37338256D01*
X78274327Y-37338259D01*
X78332818Y-37518277D01*
X78332821Y-37518284D01*
X78427467Y-37682216D01*
X78537255Y-37804148D01*
X78554129Y-37822888D01*
X78707265Y-37934148D01*
X78707270Y-37934151D01*
X78880192Y-38011142D01*
X78880197Y-38011144D01*
X79065354Y-38050500D01*
X79065355Y-38050500D01*
X79254644Y-38050500D01*
X79254646Y-38050500D01*
X79439803Y-38011144D01*
X79612730Y-37934151D01*
X79765871Y-37822888D01*
X79892533Y-37682216D01*
X79987179Y-37518284D01*
X80045674Y-37338256D01*
X80062307Y-37180000D01*
X86104540Y-37180000D01*
X86124326Y-37368256D01*
X86124327Y-37368259D01*
X86182818Y-37548277D01*
X86182821Y-37548284D01*
X86277467Y-37712216D01*
X86360243Y-37804148D01*
X86404129Y-37852888D01*
X86557265Y-37964148D01*
X86557270Y-37964151D01*
X86730192Y-38041142D01*
X86730197Y-38041144D01*
X86915354Y-38080500D01*
X86915355Y-38080500D01*
X87104644Y-38080500D01*
X87104646Y-38080500D01*
X87289803Y-38041144D01*
X87462730Y-37964151D01*
X87615871Y-37852888D01*
X87742533Y-37712216D01*
X87837179Y-37548284D01*
X87895674Y-37368256D01*
X87915460Y-37180000D01*
X87898644Y-37020000D01*
X99344540Y-37020000D01*
X99364326Y-37208256D01*
X99364327Y-37208259D01*
X99422818Y-37388277D01*
X99422821Y-37388284D01*
X99517467Y-37552216D01*
X99634518Y-37682214D01*
X99644129Y-37692888D01*
X99797265Y-37804148D01*
X99797270Y-37804151D01*
X99970192Y-37881142D01*
X99970197Y-37881144D01*
X100155354Y-37920500D01*
X100155355Y-37920500D01*
X100344644Y-37920500D01*
X100344646Y-37920500D01*
X100529803Y-37881144D01*
X100702730Y-37804151D01*
X100855871Y-37692888D01*
X100982533Y-37552216D01*
X101077179Y-37388284D01*
X101135674Y-37208256D01*
X101155460Y-37020000D01*
X101135674Y-36831744D01*
X101077179Y-36651716D01*
X100982533Y-36487784D01*
X100855871Y-36347112D01*
X100855870Y-36347111D01*
X100702734Y-36235851D01*
X100702729Y-36235848D01*
X100529807Y-36158857D01*
X100529802Y-36158855D01*
X100384001Y-36127865D01*
X100344646Y-36119500D01*
X100155354Y-36119500D01*
X100122897Y-36126398D01*
X99970197Y-36158855D01*
X99970192Y-36158857D01*
X99797270Y-36235848D01*
X99797265Y-36235851D01*
X99644129Y-36347111D01*
X99517466Y-36487785D01*
X99422821Y-36651715D01*
X99422818Y-36651722D01*
X99364327Y-36831740D01*
X99364326Y-36831744D01*
X99344540Y-37020000D01*
X87898644Y-37020000D01*
X87895674Y-36991744D01*
X87837179Y-36811716D01*
X87742533Y-36647784D01*
X87615871Y-36507112D01*
X87589270Y-36487785D01*
X87462734Y-36395851D01*
X87462729Y-36395848D01*
X87289807Y-36318857D01*
X87289802Y-36318855D01*
X87144001Y-36287865D01*
X87104646Y-36279500D01*
X86915354Y-36279500D01*
X86882897Y-36286398D01*
X86730197Y-36318855D01*
X86730192Y-36318857D01*
X86557270Y-36395848D01*
X86557265Y-36395851D01*
X86404129Y-36507111D01*
X86277466Y-36647785D01*
X86182821Y-36811715D01*
X86182818Y-36811722D01*
X86124327Y-36991740D01*
X86124326Y-36991744D01*
X86104540Y-37180000D01*
X80062307Y-37180000D01*
X80065460Y-37150000D01*
X80045674Y-36961744D01*
X79987179Y-36781716D01*
X79892533Y-36617784D01*
X79765871Y-36477112D01*
X79765870Y-36477111D01*
X79612734Y-36365851D01*
X79612729Y-36365848D01*
X79439807Y-36288857D01*
X79439802Y-36288855D01*
X79294001Y-36257865D01*
X79254646Y-36249500D01*
X79065354Y-36249500D01*
X79032897Y-36256398D01*
X78880197Y-36288855D01*
X78880192Y-36288857D01*
X78707270Y-36365848D01*
X78707265Y-36365851D01*
X78554129Y-36477111D01*
X78427466Y-36617785D01*
X78332821Y-36781715D01*
X78332818Y-36781722D01*
X78274327Y-36961740D01*
X78274326Y-36961744D01*
X78254540Y-37150000D01*
X66494950Y-37150000D01*
X66505460Y-37050000D01*
X66485674Y-36861744D01*
X66427179Y-36681716D01*
X66332533Y-36517784D01*
X66205871Y-36377112D01*
X66190369Y-36365849D01*
X66052734Y-36265851D01*
X66052729Y-36265848D01*
X65879807Y-36188857D01*
X65879802Y-36188855D01*
X65734001Y-36157865D01*
X65694646Y-36149500D01*
X65505354Y-36149500D01*
X65472897Y-36156398D01*
X65320197Y-36188855D01*
X65320192Y-36188857D01*
X65147270Y-36265848D01*
X65147265Y-36265851D01*
X64994129Y-36377111D01*
X64867466Y-36517785D01*
X64772821Y-36681715D01*
X64772818Y-36681722D01*
X64714327Y-36861740D01*
X64714326Y-36861744D01*
X64694540Y-37050000D01*
X58260000Y-37050000D01*
X58260000Y-34747021D01*
X58260066Y-34742978D01*
X58261673Y-34693720D01*
X58261674Y-34693718D01*
X58261673Y-34693715D01*
X58265831Y-34665675D01*
X58291843Y-34568594D01*
X58304226Y-34538701D01*
X58353452Y-34453437D01*
X58373151Y-34427766D01*
X58442766Y-34358151D01*
X58468437Y-34338452D01*
X58553701Y-34289226D01*
X58583594Y-34276843D01*
X58680675Y-34250831D01*
X58708715Y-34246673D01*
X58753582Y-34245209D01*
X58757979Y-34245066D01*
X58762022Y-34245000D01*
X167757977Y-34245000D01*
X167762042Y-34245067D01*
G37*
%TD.AperFunction*%
%TD*%
M02*
