M48
; DRILL file {KiCad 7.0.6-0} date 2023 December 08, Friday 23:06:08
; FORMAT={-:-/ absolute / inch / decimal}
; #@! TF.CreationDate,2023-12-08T23:06:08-05:00
; #@! TF.GenerationSoftware,Kicad,Pcbnew,7.0.6-0
; #@! TF.FileFunction,Plated,1,4,PTH
FMAT,2
INCH
; #@! TA.AperFunction,Plated,PTH,ComponentDrill
T1C0.0118
; #@! TA.AperFunction,Plated,PTH,ViaDrill
T2C0.0157
; #@! TA.AperFunction,Plated,PTH,ComponentDrill
T3C0.0236
; #@! TA.AperFunction,Plated,PTH,ComponentDrill
T4C0.0315
; #@! TA.AperFunction,Plated,PTH,ComponentDrill
T5C0.0315
; #@! TA.AperFunction,Plated,PTH,ComponentDrill
T6C0.0410
; #@! TA.AperFunction,Plated,PTH,ComponentDrill
T7C0.0709
; #@! TA.AperFunction,Plated,PTH,ComponentDrill
T8C0.0728
; #@! TA.AperFunction,Plated,PTH,ComponentDrill
T9C0.1181
%
G90
G05
T1
X3.0959Y-3.7675
X3.1242Y-3.7392
X3.1242Y-3.7675
X3.1242Y-3.7959
X3.1526Y-3.7675
T2
X2.3508Y-1.4165
X2.3508Y-1.536
X2.3508Y-1.6555
X2.3508Y-1.775
X2.3508Y-1.8945
X2.3551Y-2.3059
X2.3551Y-2.4258
X2.3551Y-2.5458
X2.3551Y-2.6657
X2.3551Y-2.7856
X2.3551Y-2.9056
X2.3551Y-3.0255
X2.3551Y-3.1455
X2.3551Y-3.2654
X2.3551Y-3.3853
X2.3551Y-3.5053
X2.3551Y-3.6252
X2.3551Y-3.7451
X2.3551Y-3.8651
X2.3551Y-3.985
X2.3551Y-4.1049
X2.3551Y-4.2249
X2.3551Y-4.3448
X2.3551Y-4.4647
X2.3551Y-4.5847
X2.3551Y-4.7046
X2.3551Y-4.8246
X2.3551Y-4.9445
X2.5819Y-1.889
X2.5827Y-1.4587
X2.8067Y-2.4697
X2.8307Y-1.9039
X2.848Y-1.4339
X2.9929Y-3.7319
X3.022Y-2.4709
X3.0807Y-1.8972
X3.1165Y-1.4626
X3.1618Y-3.8957
X3.1776Y-3.6256
X3.2264Y-3.4244
X3.2343Y-3.4631
X3.2535Y-1.8283
X3.3094Y-3.7728
X3.3547Y-3.4004
X3.363Y-3.5846
X3.3673Y-2.4098
X3.3699Y-2.3706
X3.3709Y-3.4386
X3.3761Y-3.8637
X3.3783Y-3.8169
X3.4256Y-1.4638
X3.5335Y-2.5547
X3.5335Y-3.9339
X3.5346Y-2.1366
X3.583Y-3.8951
X3.5852Y-3.9733
X3.5876Y-3.8392
X3.628Y-3.7425
X3.6587Y-1.9098
X3.6886Y-1.4417
X3.7465Y-3.6646
X3.7717Y-2.1319
X3.7835Y-4.8705
X3.7854Y-4.9484
X3.8685Y-1.9098
X3.8705Y-3.6661
X3.9469Y-1.4575
X3.9512Y-1.9012
X3.9539Y-1.9457
X3.985Y-3.6657
X3.9862Y-3.4768
X3.9878Y-3.611
X4.0303Y-3.5063
X4.0441Y-4.9657
X4.0894Y-4.8349
X4.0969Y-3.889
X4.098Y-2.2197
X4.1074Y-4.3667
X4.1098Y-3.6882
X4.1437Y-3.589
X4.1504Y-4.6736
X4.1626Y-4.028
X4.1815Y-3.789
X4.1831Y-3.872
X4.226Y-3.7372
X4.234Y-4.8711
X4.2433Y-3.8191
X4.2803Y-4.5193
X4.2815Y-4.4409
X4.2949Y-3.6484
X4.298Y-3.7681
X4.3014Y-3.711
X4.3461Y-4.0768
X4.3522Y-3.6322
X4.3626Y-4.0232
X4.3862Y-4.1854
X4.3938Y-2.7257
X4.3961Y-2.6728
X4.4228Y-3.4567
X4.4504Y-3.6021
X4.4667Y-4.8794
X4.4945Y-4.067
X4.5031Y-4.2642
X4.5173Y-3.8783
X4.5205Y-3.774
X4.5236Y-3.5748
X4.5676Y-3.414
X4.5722Y-3.8256
X4.6018Y-3.461
X4.6059Y-2.1886
X4.6126Y-4.0626
X4.6228Y-3.8744
X4.6232Y-3.7756
X4.6358Y-4.2976
X4.6403Y-4.1014
X4.6411Y-3.4615
X4.6561Y-3.6048
X4.6646Y-3.3547
X4.665Y-2.7138
X4.7126Y-3.6038
X4.7311Y-4.0638
X4.7504Y-4.2476
X4.8011Y-3.866
X4.8024Y-3.9953
X4.804Y-4.0346
X4.8067Y-4.4378
X4.8106Y-3.6654
X4.8177Y-4.511
X4.8261Y-3.7459
X4.8307Y-3.8315
X4.858Y-3.7744
X4.8583Y-3.9142
X4.865Y-3.6882
X4.8693Y-2.6047
X4.8972Y-3.8075
X4.9748Y-4.6748
X5.0016Y-4.0047
X5.0069Y-3.6382
X5.0386Y-2.5803
X5.0528Y-3.9154
X5.065Y-4.3469
X5.0693Y-2.2008
X5.1161Y-2.7217
X5.1205Y-3.987
X5.1465Y-2.5421
X5.1654Y-2.7736
X5.1768Y-2.7008
X5.1827Y-2.4445
X5.1921Y-2.5866
X5.2197Y-2.6921
X5.2244Y-2.4484
X5.2843Y-3.5902
X5.2998Y-2.6148
X5.3028Y-2.5756
X5.4551Y-2.5634
X5.4787Y-2.2386
X5.7917Y-2.6492
X6.0315Y-2.5724
X6.2083Y-3.6969
X6.5618Y-2.3074
X6.5618Y-2.4273
X6.5618Y-2.5473
X6.5618Y-2.6672
X6.5618Y-2.7872
X6.5618Y-2.9071
X6.5618Y-3.027
X6.5618Y-3.147
X6.5618Y-3.2669
X6.5618Y-3.3868
X6.5618Y-3.5068
X6.5618Y-3.6267
X6.5618Y-3.7466
X6.5618Y-3.8666
X6.5618Y-3.9865
X6.5618Y-4.1064
X6.5618Y-4.2264
X6.5618Y-4.3463
X6.5618Y-4.4662
X6.5618Y-4.5862
X6.5618Y-4.7061
X6.5618Y-4.8261
X6.5618Y-4.946
X6.5657Y-1.4484
X6.5657Y-1.5679
X6.5657Y-1.6874
X6.5657Y-1.8069
X6.5657Y-1.9264
T4
X6.2287Y-3.0805
X6.2287Y-3.1593
X6.2287Y-3.238
X6.3075Y-3.0805
X6.3075Y-3.1593
X6.3075Y-3.238
T5
X2.5228Y-1.6134
X2.5228Y-1.6921
X2.5228Y-2.1657
X2.5228Y-2.2445
X2.6016Y-1.6134
X2.6016Y-1.6921
X2.6016Y-2.1657
X2.6016Y-2.2445
X2.6803Y-1.6134
X2.6803Y-1.6921
X2.6803Y-2.1657
X2.6803Y-2.2445
X2.7591Y-1.6134
X2.7591Y-1.6921
X2.7591Y-2.1657
X2.7591Y-2.2445
X2.8378Y-1.6134
X2.8378Y-1.6921
X2.8378Y-2.1657
X2.8378Y-2.2445
X2.9165Y-1.6134
X2.9165Y-1.6921
X2.9165Y-2.1657
X2.9165Y-2.2445
X2.9953Y-1.6134
X2.9953Y-1.6921
X2.9953Y-2.1657
X2.9953Y-2.2445
X3.074Y-1.6134
X3.074Y-1.6921
X3.074Y-2.1657
X3.074Y-2.2445
X3.1528Y-1.6134
X3.1528Y-1.6921
X3.1528Y-2.1657
X3.1528Y-2.2445
X3.3665Y-1.6134
X3.3665Y-1.6921
X3.4453Y-1.6134
X3.4453Y-1.6921
X3.524Y-1.6134
X3.524Y-1.6921
X3.6028Y-1.6134
X3.6028Y-1.6921
X3.6815Y-1.6134
X3.6815Y-1.6921
X3.7602Y-1.6134
X3.7602Y-1.6921
X3.839Y-1.6134
X3.839Y-1.6921
X3.9177Y-1.6134
X3.9177Y-1.6921
X3.9965Y-1.6134
X3.9965Y-1.6921
T6
X4.2039Y-2.0422
X4.3039Y-2.0422
X4.4039Y-2.0422
X4.5039Y-2.0422
X4.6413Y-2.0422
X4.7413Y-2.0422
X4.8413Y-2.0422
X4.9413Y-2.0422
X5.0752Y-2.0422
X5.1752Y-2.0422
X5.2752Y-2.0422
X5.3752Y-2.0422
X5.5102Y-2.0422
X5.6102Y-2.0422
X5.7102Y-2.0422
X5.8102Y-2.0422
T7
X4.2787Y-1.922
X4.2787Y-2.1386
X4.4441Y-1.922
X4.4441Y-2.1386
X4.7173Y-1.922
X4.7173Y-2.1386
X4.8827Y-1.922
X4.8827Y-2.1386
X5.152Y-1.922
X5.152Y-2.1386
X5.3173Y-1.922
X5.3173Y-2.1386
X5.5858Y-1.922
X5.5858Y-2.1386
X5.7512Y-1.922
X5.7512Y-2.1386
T8
X6.022Y-1.9898
X6.022Y-2.1551
X6.1874Y-1.9898
X6.1874Y-2.1551
X6.3528Y-1.9898
X6.3528Y-2.1551
T9
X2.4866Y-3.1593
X2.4866Y-5.0175
X6.4315Y-2.6522
X6.4315Y-5.049
T3
G00X4.2039Y-5.0071
M15
G01X4.2039Y-5.0504
M16
G05
G00X4.2039Y-5.1776
M15
G01X4.2039Y-5.2091
M16
G05
G00X4.5441Y-5.0071
M15
G01X4.5441Y-5.0504
M16
G05
G00X4.5441Y-5.1776
M15
G01X4.5441Y-5.2091
M16
G05
T0
M30
