M48
; DRILL file {KiCad 8.0.2} date 2024-05-06T18:59:49-0400
; FORMAT={-:-/ absolute / inch / decimal}
; #@! TF.CreationDate,2024-05-06T18:59:49-04:00
; #@! TF.GenerationSoftware,Kicad,Pcbnew,8.0.2
; #@! TF.FileFunction,Plated,1,4,PTH
FMAT,2
INCH
; #@! TA.AperFunction,Plated,PTH,ViaDrill
T1C0.0157
; #@! TA.AperFunction,Plated,PTH,ViaDrill
T2C0.0197
; #@! TA.AperFunction,Plated,PTH,ComponentDrill
T3C0.0236
; #@! TA.AperFunction,Plated,PTH,ComponentDrill
T4C0.0315
; #@! TA.AperFunction,Plated,PTH,ComponentDrill
T5C0.0315
; #@! TA.AperFunction,Plated,PTH,ComponentDrill
T6C0.0472
; #@! TA.AperFunction,Plated,PTH,ComponentDrill
T7C0.0709
; #@! TA.AperFunction,Plated,PTH,ComponentDrill
T8C0.0709
; #@! TA.AperFunction,Plated,PTH,ComponentDrill
T9C0.1181
%
G90
G05
T1
X2.3508Y-1.4165
X2.3508Y-1.536
X2.3508Y-1.6555
X2.3508Y-1.775
X2.3508Y-1.8945
X2.3551Y-2.3059
X2.3551Y-2.4258
X2.3551Y-2.5458
X2.3551Y-2.6657
X2.3551Y-2.7856
X2.3551Y-2.9056
X2.3551Y-3.0255
X2.3551Y-3.1455
X2.3551Y-3.2654
X2.3551Y-3.3853
X2.3551Y-3.5053
X2.3551Y-3.6252
X2.3551Y-3.7451
X2.3551Y-3.8651
X2.3551Y-3.985
X2.3551Y-4.1049
X2.3551Y-4.2249
X2.3551Y-4.3448
X2.3551Y-4.4647
X2.3551Y-4.5847
X2.3551Y-4.7046
X2.3551Y-4.8246
X2.3551Y-4.9445
X2.5819Y-1.889
X2.5827Y-1.4587
X2.8067Y-2.4697
X2.8307Y-1.9039
X2.848Y-1.4339
X3.022Y-2.4709
X3.0807Y-1.8972
X3.1165Y-1.4626
X3.4256Y-1.4638
X3.5335Y-3.9339
X3.583Y-3.8951
X3.5852Y-3.9733
X3.5876Y-3.8392
X3.628Y-3.7425
X3.6587Y-1.9098
X3.6886Y-1.4417
X3.7472Y-3.6957
X3.7835Y-4.8705
X3.7854Y-4.9484
X3.8489Y-3.57
X3.8685Y-1.9098
X3.8691Y-3.6957
X3.8929Y-2.2008
X3.9339Y-3.5516
X3.9469Y-1.4575
X3.9614Y-3.5063
X3.985Y-3.6949
X4.0055Y-2.1996
X4.0441Y-4.9657
X4.0843Y-4.8224
X4.0969Y-3.889
X4.1425Y-3.6846
X4.1531Y-4.3311
X4.1626Y-4.028
X4.1819Y-3.5906
X4.1831Y-3.872
X4.1992Y-2.25
X4.2433Y-3.8191
X4.2776Y-3.6547
X4.2799Y-4.6016
X4.2803Y-4.5193
X4.2815Y-4.4409
X4.3014Y-3.711
X4.3161Y-2.4886
X4.3181Y-2.6488
X4.3205Y-3.7858
X4.3504Y-4.0709
X4.3522Y-3.6322
X4.3626Y-4.0232
X4.3689Y-4.2031
X4.3813Y-2.6728
X4.4228Y-3.4567
X4.4504Y-3.6021
X4.4945Y-4.067
X4.5031Y-4.2642
X4.5173Y-3.8783
X4.5205Y-3.774
X4.5236Y-3.5748
X4.5676Y-3.3276
X4.5718Y-3.4266
X4.5722Y-3.8256
X4.5843Y-2.4717
X4.6018Y-3.461
X4.6126Y-4.0626
X4.6228Y-3.8744
X4.6232Y-3.7756
X4.6268Y-2.224
X4.6358Y-4.2976
X4.6403Y-4.1014
X4.6411Y-3.4615
X4.6561Y-3.6048
X4.6646Y-3.3547
X4.665Y-2.7138
X4.7311Y-4.0638
X4.7504Y-4.2476
X4.7524Y-3.6038
X4.8012Y-4.0352
X4.8035Y-3.9807
X4.8067Y-4.4378
X4.8094Y-3.7154
X4.8169Y-3.8291
X4.8169Y-4.6091
X4.8177Y-4.511
X4.8214Y-3.6631
X4.848Y-3.9469
X4.8583Y-3.8579
X4.8587Y-3.765
X4.8613Y-3.7169
X4.8693Y-2.6047
X4.8787Y-2.4703
X4.9016Y-3.7776
X4.9508Y-2.4425
X5.0069Y-3.6382
X5.0386Y-2.5803
X5.0528Y-3.9154
X5.0693Y-2.2008
X5.1161Y-2.7217
X5.1205Y-3.987
X5.1465Y-2.5421
X5.1654Y-2.7736
X5.1768Y-2.7008
X5.1827Y-2.4445
X5.1921Y-2.5866
X5.2197Y-2.6921
X5.2244Y-2.4484
X5.2843Y-3.5902
X5.2945Y-2.4768
X5.2998Y-2.6148
X5.3028Y-2.5756
X5.3989Y-2.61
X5.4551Y-2.5634
X5.4787Y-2.2386
X5.5748Y-2.7665
X5.7917Y-2.6492
X6.0315Y-2.5724
X6.336Y-3.4311
X6.5618Y-2.3074
X6.5618Y-2.4273
X6.5618Y-2.5473
X6.5618Y-2.6672
X6.5618Y-2.7872
X6.5618Y-2.9071
X6.5618Y-3.027
X6.5618Y-3.147
X6.5618Y-3.2669
X6.5618Y-3.3868
X6.5618Y-3.5068
X6.5618Y-3.6267
X6.5618Y-3.7466
X6.5618Y-3.8666
X6.5618Y-3.9865
X6.5618Y-4.1064
X6.5618Y-4.2264
X6.5618Y-4.3463
X6.5618Y-4.4662
X6.5618Y-4.5862
X6.5618Y-4.7061
X6.5618Y-4.8261
X6.5618Y-4.946
X6.5657Y-1.4484
X6.5657Y-1.5679
X6.5657Y-1.6874
X6.5657Y-1.8069
X6.5657Y-1.9264
T2
X4.2776Y-4.8701
X4.4667Y-4.8794
T4
X6.2287Y-3.0805
X6.2287Y-3.1593
X6.2287Y-3.238
X6.3075Y-3.0805
X6.3075Y-3.1593
X6.3075Y-3.238
T5
X2.5228Y-1.6134
X2.5228Y-1.6921
X2.5228Y-2.1657
X2.5228Y-2.2445
X2.6016Y-1.6134
X2.6016Y-1.6921
X2.6016Y-2.1657
X2.6016Y-2.2445
X2.6803Y-1.6134
X2.6803Y-1.6921
X2.6803Y-2.1657
X2.6803Y-2.2445
X2.7591Y-1.6134
X2.7591Y-1.6921
X2.7591Y-2.1657
X2.7591Y-2.2445
X2.8378Y-1.6134
X2.8378Y-1.6921
X2.8378Y-2.1657
X2.8378Y-2.2445
X2.9165Y-1.6134
X2.9165Y-1.6921
X2.9165Y-2.1657
X2.9165Y-2.2445
X2.9953Y-1.6134
X2.9953Y-1.6921
X2.9953Y-2.1657
X2.9953Y-2.2445
X3.074Y-1.6134
X3.074Y-1.6921
X3.074Y-2.1657
X3.074Y-2.2445
X3.1528Y-1.6134
X3.1528Y-1.6921
X3.1528Y-2.1657
X3.1528Y-2.2445
X3.3665Y-1.6134
X3.3665Y-1.6921
X3.4453Y-1.6134
X3.4453Y-1.6921
X3.524Y-1.6134
X3.524Y-1.6921
X3.6028Y-1.6134
X3.6028Y-1.6921
X3.6815Y-1.6134
X3.6815Y-1.6921
X3.7602Y-1.6134
X3.7602Y-1.6921
X3.839Y-1.6134
X3.839Y-1.6921
X3.9177Y-1.6134
X3.9177Y-1.6921
X3.9965Y-1.6134
X3.9965Y-1.6921
T6
X4.2039Y-2.0434
X4.3039Y-2.0434
X4.4039Y-2.0434
X4.5039Y-2.0434
X4.6429Y-2.0434
X4.7429Y-2.0434
X4.8429Y-2.0434
X4.9429Y-2.0434
X5.0791Y-2.0434
X5.1791Y-2.0434
X5.2791Y-2.0434
X5.3791Y-2.0434
X5.5142Y-2.0434
X5.6142Y-2.0434
X5.7142Y-2.0434
X5.8142Y-2.0434
T7
X6.0236Y-1.9406
X6.0236Y-2.1571
X6.189Y-1.9406
X6.189Y-2.1571
X6.3543Y-1.9406
X6.3543Y-2.1571
T8
X4.2697Y-1.9341
X4.2697Y-2.1507
X4.435Y-1.9341
X4.435Y-2.1507
X4.7063Y-1.9333
X4.7063Y-2.1499
X4.8717Y-1.9333
X4.8717Y-2.1499
X5.1425Y-1.9324
X5.1425Y-2.1489
X5.3079Y-1.9324
X5.3079Y-2.1489
X5.5776Y-1.9324
X5.5776Y-2.1489
X5.7429Y-1.9324
X5.7429Y-2.1489
T9
X2.4866Y-3.1593
X2.4866Y-5.0175
X6.4315Y-2.6522
X6.4315Y-5.049
T3
G00X4.2035Y-5.0031
M15
G01X4.2035Y-5.0465
M16
G05
G00X4.2035Y-5.1736
M15
G01X4.2035Y-5.2051
M16
G05
G00X4.5437Y-5.0031
M15
G01X4.5437Y-5.0465
M16
G05
G00X4.5437Y-5.1736
M15
G01X4.5437Y-5.2051
M16
G05
M30
