%TF.GenerationSoftware,KiCad,Pcbnew,7.0.6-0*%
%TF.CreationDate,2023-11-06T17:07:03-05:00*%
%TF.ProjectId,bitcrane,62697463-7261-46e6-952e-6b696361645f,rev?*%
%TF.SameCoordinates,Original*%
%TF.FileFunction,Copper,L2,Inr*%
%TF.FilePolarity,Positive*%
%FSLAX46Y46*%
G04 Gerber Fmt 4.6, Leading zero omitted, Abs format (unit mm)*
G04 Created by KiCad (PCBNEW 7.0.6-0) date 2023-11-06 17:07:03*
%MOMM*%
%LPD*%
G01*
G04 APERTURE LIST*
%TA.AperFunction,ComponentPad*%
%ADD10C,1.549400*%
%TD*%
%TA.AperFunction,ComponentPad*%
%ADD11C,2.300000*%
%TD*%
%TA.AperFunction,ComponentPad*%
%ADD12R,1.500000X1.700000*%
%TD*%
%TA.AperFunction,ComponentPad*%
%ADD13C,1.500000*%
%TD*%
%TA.AperFunction,ComponentPad*%
%ADD14C,2.775000*%
%TD*%
%TA.AperFunction,ComponentPad*%
%ADD15O,1.000000X2.100000*%
%TD*%
%TA.AperFunction,ComponentPad*%
%ADD16O,1.000000X1.800000*%
%TD*%
%TA.AperFunction,ComponentPad*%
%ADD17R,1.400000X1.400000*%
%TD*%
%TA.AperFunction,ComponentPad*%
%ADD18C,1.400000*%
%TD*%
%TA.AperFunction,ViaPad*%
%ADD19C,0.800000*%
%TD*%
G04 APERTURE END LIST*
D10*
%TO.N,GND*%
%TO.C,J5*%
X124930000Y-52510750D03*
%TO.N,/12V*%
X122390000Y-52510750D03*
%TO.N,Net-(J5-Pin_3)*%
X119850000Y-52510750D03*
%TO.N,Net-(J5-Pin_4)*%
X117310000Y-52510750D03*
%TD*%
%TO.N,GND*%
%TO.C,J4*%
X137640000Y-52500750D03*
%TO.N,/12V*%
X135100000Y-52500750D03*
%TO.N,Net-(J4-Pin_3)*%
X132560000Y-52500750D03*
%TO.N,Net-(J4-Pin_4)*%
X130020000Y-52500750D03*
%TD*%
D11*
%TO.N,GND*%
%TO.C,J7*%
X136140000Y-49550000D03*
%TO.N,/12V*%
X136140000Y-55050000D03*
%TO.N,Net-(J4-Pin_3)*%
X131940000Y-55050000D03*
%TO.N,Net-(J4-Pin_4)*%
X131940000Y-49550000D03*
%TD*%
%TO.N,GND*%
%TO.C,J8*%
X123460000Y-49530000D03*
%TO.N,/12V*%
X123460000Y-55030000D03*
%TO.N,Net-(J5-Pin_3)*%
X119260000Y-55030000D03*
%TO.N,Net-(J5-Pin_4)*%
X119260000Y-49530000D03*
%TD*%
D12*
%TO.N,GND*%
%TO.C,J2*%
X86700000Y-47630000D03*
D13*
X86700000Y-45630000D03*
%TO.N,/SDA*%
X84700000Y-47630000D03*
%TO.N,/SCL*%
X84700000Y-45630000D03*
%TO.N,/PLUG*%
X82700000Y-47630000D03*
%TO.N,/A2*%
X82700000Y-45630000D03*
%TO.N,/A1*%
X80700000Y-47630000D03*
%TO.N,/A0*%
X80700000Y-45630000D03*
%TO.N,GND*%
X78700000Y-47630000D03*
X78700000Y-45630000D03*
%TO.N,/TXD*%
X76700000Y-47630000D03*
%TO.N,/RXD*%
X76700000Y-45630000D03*
%TO.N,GND*%
X74700000Y-47630000D03*
X74700000Y-45630000D03*
%TO.N,/RST*%
X72700000Y-47630000D03*
%TO.N,VCCIO*%
X72700000Y-45630000D03*
%TO.N,unconnected-(J2-Pin_17-Pad17)*%
X70700000Y-47630000D03*
%TO.N,unconnected-(J2-Pin_18-Pad18)*%
X70700000Y-45630000D03*
%TD*%
D14*
%TO.N,Net-(Q1-D)*%
%TO.C,J3*%
X150150000Y-50620000D03*
X154350000Y-50620000D03*
X158550000Y-50620000D03*
%TO.N,GND*%
X150150000Y-54820000D03*
X154350000Y-54820000D03*
X158550000Y-54820000D03*
%TD*%
D15*
%TO.N,GND*%
%TO.C,J6*%
X106780000Y-127730000D03*
D16*
X106780000Y-131910000D03*
D15*
X115420000Y-127730000D03*
D16*
X115420000Y-131910000D03*
%TD*%
D10*
%TO.N,GND*%
%TO.C,J9*%
X102040000Y-52540750D03*
%TO.N,/12V*%
X99500000Y-52540750D03*
%TO.N,Net-(J9-Pin_3)*%
X96960000Y-52540750D03*
%TO.N,Net-(J9-Pin_4)*%
X94420000Y-52540750D03*
%TD*%
%TO.N,GND*%
%TO.C,J10*%
X113150000Y-52540750D03*
%TO.N,/12V*%
X110610000Y-52540750D03*
%TO.N,Net-(J10-Pin_3)*%
X108070000Y-52540750D03*
%TO.N,Net-(J10-Pin_4)*%
X105530000Y-52540750D03*
%TD*%
D17*
%TO.N,unconnected-(J1-Pin_1-Pad1)*%
%TO.C,J1*%
X158930000Y-62590000D03*
D18*
%TO.N,GND*%
X158930000Y-64590000D03*
%TO.N,/PSU_SDA*%
X158930000Y-66590000D03*
%TO.N,unconnected-(J1-Pin_4-Pad4)*%
X156930000Y-62590000D03*
%TO.N,/PSU_EN*%
X156930000Y-64590000D03*
%TO.N,/PSU_SCL*%
X156930000Y-66590000D03*
%TD*%
D19*
%TO.N,GND*%
X107520000Y-90790000D03*
%TO.N,/5V*%
X113454000Y-123936000D03*
X107543800Y-123724800D03*
%TO.N,VCORE*%
X117440000Y-104600000D03*
X110566000Y-101346000D03*
X110547000Y-92259000D03*
X118264799Y-91560799D03*
%TO.N,VCCIO*%
X109388000Y-93934000D03*
X108750000Y-112800000D03*
X91007000Y-98936000D03*
X124283000Y-99453000D03*
X98299000Y-94013000D03*
X95138000Y-94047000D03*
X125613000Y-90946000D03*
X103610000Y-54930000D03*
X119390000Y-105480000D03*
X101208000Y-94002000D03*
X94980000Y-55080000D03*
X116380000Y-66230000D03*
X117840000Y-57460000D03*
X91064000Y-100921000D03*
X122090000Y-112720000D03*
X109456000Y-96925000D03*
X97299000Y-123741000D03*
X129220000Y-57490000D03*
X115854000Y-90836000D03*
%TO.N,GND*%
X117820000Y-107650000D03*
X59820000Y-82940904D03*
X166670000Y-101257274D03*
X59820000Y-122543623D03*
X166670000Y-104303637D03*
X122497000Y-97361000D03*
X59820000Y-67709089D03*
X97215000Y-125145000D03*
X166670000Y-82979096D03*
X59710000Y-48120000D03*
X117420000Y-98410000D03*
X59820000Y-119497260D03*
X59820000Y-116450897D03*
X105350000Y-117180000D03*
X166670000Y-76886370D03*
X166670000Y-98210911D03*
X166670000Y-67747281D03*
X107490000Y-95148000D03*
X117430000Y-95900000D03*
X111987000Y-106740000D03*
X59820000Y-58570000D03*
X107460000Y-101417000D03*
X119120000Y-65260000D03*
X166770000Y-42860000D03*
X166670000Y-116489089D03*
X59820000Y-73801815D03*
X59820000Y-110358171D03*
X166670000Y-58608192D03*
X166670000Y-86025459D03*
X104500000Y-125990000D03*
X166670000Y-79932733D03*
X133240000Y-65360000D03*
X89750000Y-99920000D03*
X117415000Y-88719000D03*
X126320000Y-117340000D03*
X117160500Y-103190000D03*
X121310000Y-113980000D03*
X91125000Y-97515000D03*
X59820000Y-76848178D03*
X166670000Y-122581815D03*
X59820000Y-113404534D03*
X166670000Y-113442726D03*
X59820000Y-85987267D03*
X105218000Y-110803000D03*
X166670000Y-107350000D03*
X112632797Y-66229500D03*
X59710000Y-39015000D03*
X119700000Y-91536000D03*
X59820000Y-125590000D03*
X166670000Y-70793644D03*
X59820000Y-98172719D03*
X126225000Y-98375000D03*
X114160500Y-103302000D03*
X108980000Y-95215500D03*
X114505000Y-106593000D03*
X59820000Y-79894541D03*
X120178000Y-103983000D03*
X166670000Y-125628192D03*
X166770000Y-39825000D03*
X59820000Y-101219082D03*
X59820000Y-64662726D03*
X59820000Y-104265445D03*
X114820000Y-95860000D03*
X166670000Y-110396363D03*
X59710000Y-42050000D03*
X109970000Y-114030000D03*
X166770000Y-36790000D03*
X111210000Y-102483000D03*
X145970000Y-64830000D03*
X166770000Y-45895000D03*
X166670000Y-95164548D03*
X59820000Y-89033630D03*
X116135000Y-97170000D03*
X59820000Y-107311808D03*
X166670000Y-64700918D03*
X140340000Y-66040000D03*
X114740000Y-98510000D03*
X113040000Y-91493000D03*
X166770000Y-48930000D03*
X59820000Y-61616363D03*
X120280000Y-66390000D03*
X59820000Y-95126356D03*
X59710000Y-35980000D03*
X166670000Y-61654555D03*
X166670000Y-73840007D03*
X103872000Y-122806000D03*
X59820000Y-92079993D03*
X59710000Y-45085000D03*
X166670000Y-119535452D03*
X166670000Y-92118185D03*
X166670000Y-89071822D03*
X59820000Y-70755452D03*
X107460000Y-98055000D03*
%TO.N,/SDA*%
X122336000Y-95896000D03*
%TO.N,/SCL*%
X123450000Y-96462000D03*
%TO.N,/PLUG*%
X123256500Y-91992997D03*
%TO.N,/TXD*%
X121494000Y-103165000D03*
%TO.N,/RXD*%
X122670000Y-104540000D03*
%TO.N,/RST*%
X121719500Y-91647497D03*
%TO.N,/PSU_SDA*%
X132972000Y-78970000D03*
%TO.N,Net-(J4-Pin_3)*%
X119600000Y-71140000D03*
%TO.N,Net-(J4-Pin_4)*%
X118440500Y-69920000D03*
%TO.N,Net-(J5-Pin_3)*%
X120980000Y-69070000D03*
%TO.N,Net-(J5-Pin_4)*%
X119890000Y-69290000D03*
%TO.N,Net-(J9-Pin_3)*%
X123090000Y-66110000D03*
%TO.N,Net-(J9-Pin_4)*%
X123014981Y-67106683D03*
%TO.N,Net-(J10-Pin_3)*%
X120040000Y-62780000D03*
%TO.N,Net-(J10-Pin_4)*%
X121100000Y-62880000D03*
%TO.N,/FAN_ALERT*%
X110480000Y-89190000D03*
X110460000Y-96000000D03*
%TD*%
%TA.AperFunction,Conductor*%
%TO.N,GND*%
G36*
X167763460Y-34245890D02*
G01*
X167786358Y-34248474D01*
X167865841Y-34258952D01*
X167890582Y-34264847D01*
X167924739Y-34276803D01*
X167927913Y-34278015D01*
X167982169Y-34300494D01*
X168000667Y-34310051D01*
X168035493Y-34331937D01*
X168040240Y-34335239D01*
X168088175Y-34372024D01*
X168094268Y-34377367D01*
X168127630Y-34410729D01*
X168132974Y-34416823D01*
X168169759Y-34464758D01*
X168173068Y-34469515D01*
X168177806Y-34477055D01*
X168194942Y-34504323D01*
X168204506Y-34522834D01*
X168219739Y-34559600D01*
X168226954Y-34577013D01*
X168226963Y-34577033D01*
X168228203Y-34580282D01*
X168240149Y-34614409D01*
X168246048Y-34639170D01*
X168256526Y-34718651D01*
X168259109Y-34741535D01*
X168259500Y-34748494D01*
X168259500Y-49991514D01*
X168259110Y-49998462D01*
X168256530Y-50021351D01*
X168246066Y-50100829D01*
X168240169Y-50125597D01*
X168228223Y-50159735D01*
X168226983Y-50162984D01*
X168204536Y-50217180D01*
X168194967Y-50235702D01*
X168173097Y-50270508D01*
X168169786Y-50275267D01*
X168133005Y-50323200D01*
X168127653Y-50329304D01*
X168094304Y-50362653D01*
X168088200Y-50368005D01*
X168040267Y-50404786D01*
X168035508Y-50408097D01*
X168000702Y-50429967D01*
X167982180Y-50439536D01*
X167927984Y-50461983D01*
X167924735Y-50463223D01*
X167890597Y-50475169D01*
X167865829Y-50481066D01*
X167786351Y-50491530D01*
X167765688Y-50493859D01*
X167763460Y-50494110D01*
X167756514Y-50494500D01*
X165842936Y-50494500D01*
X165818437Y-50487306D01*
X165767830Y-50493969D01*
X165759728Y-50494500D01*
X165703604Y-50494500D01*
X165695930Y-50496252D01*
X165672208Y-50494797D01*
X165644941Y-50506092D01*
X165625085Y-50512420D01*
X165593650Y-50519595D01*
X165593647Y-50519596D01*
X165572006Y-50530018D01*
X165546104Y-50534282D01*
X165527526Y-50548538D01*
X165505844Y-50561881D01*
X165492034Y-50568531D01*
X165492027Y-50568536D01*
X165462644Y-50591968D01*
X165436094Y-50602806D01*
X165424878Y-50617424D01*
X165408728Y-50633880D01*
X165408778Y-50633930D01*
X165398930Y-50643778D01*
X165398880Y-50643728D01*
X165382424Y-50659878D01*
X165373757Y-50666527D01*
X165373118Y-50671173D01*
X165356968Y-50697644D01*
X165333536Y-50727027D01*
X165333531Y-50727034D01*
X165326881Y-50740844D01*
X165313538Y-50762526D01*
X165305113Y-50773504D01*
X165305308Y-50775325D01*
X165295018Y-50807006D01*
X165284596Y-50828647D01*
X165284595Y-50828650D01*
X165277420Y-50860085D01*
X165271092Y-50879941D01*
X165263971Y-50897133D01*
X165261252Y-50930930D01*
X165259500Y-50938604D01*
X165259500Y-50994727D01*
X165258969Y-51002828D01*
X165253871Y-51041545D01*
X165259500Y-51077936D01*
X165259500Y-55112031D01*
X165252310Y-55136516D01*
X165258970Y-55187171D01*
X165259500Y-55195271D01*
X165259491Y-55251394D01*
X165259492Y-55251406D01*
X165261243Y-55259083D01*
X165259784Y-55282811D01*
X165271078Y-55310084D01*
X165277407Y-55329947D01*
X165284573Y-55361363D01*
X165294984Y-55382986D01*
X165294996Y-55383011D01*
X165299259Y-55408920D01*
X165313511Y-55427495D01*
X165326855Y-55449183D01*
X165333503Y-55462989D01*
X165356944Y-55492385D01*
X165367785Y-55518943D01*
X165382393Y-55530151D01*
X165398848Y-55546300D01*
X165398899Y-55546250D01*
X165408750Y-55556101D01*
X165408699Y-55556151D01*
X165424848Y-55572606D01*
X165431490Y-55581263D01*
X165436141Y-55581904D01*
X165462614Y-55598055D01*
X165491970Y-55621465D01*
X165492011Y-55621497D01*
X165505816Y-55628143D01*
X165527502Y-55641487D01*
X165538478Y-55649908D01*
X165540301Y-55649714D01*
X165571986Y-55660002D01*
X165593637Y-55670427D01*
X165614497Y-55675184D01*
X165625050Y-55677592D01*
X165644918Y-55683921D01*
X165662108Y-55691039D01*
X165695922Y-55693756D01*
X165703604Y-55695509D01*
X165759748Y-55695500D01*
X165767835Y-55696029D01*
X165806602Y-55701126D01*
X165842969Y-55695500D01*
X167756511Y-55695500D01*
X167763460Y-55695890D01*
X167786358Y-55698474D01*
X167865841Y-55708952D01*
X167890582Y-55714847D01*
X167924739Y-55726803D01*
X167927913Y-55728015D01*
X167982169Y-55750494D01*
X168000667Y-55760051D01*
X168035493Y-55781937D01*
X168040240Y-55785239D01*
X168088175Y-55822024D01*
X168094268Y-55827367D01*
X168127630Y-55860729D01*
X168132974Y-55866823D01*
X168169759Y-55914758D01*
X168173068Y-55919515D01*
X168177806Y-55927055D01*
X168194942Y-55954323D01*
X168204506Y-55972834D01*
X168217063Y-56003140D01*
X168226954Y-56027013D01*
X168226963Y-56027033D01*
X168228203Y-56030282D01*
X168240149Y-56064409D01*
X168246048Y-56089170D01*
X168256526Y-56168651D01*
X168259109Y-56191535D01*
X168259500Y-56198494D01*
X168259500Y-128541514D01*
X168259110Y-128548462D01*
X168256530Y-128571351D01*
X168246066Y-128650829D01*
X168240169Y-128675597D01*
X168228223Y-128709735D01*
X168226983Y-128712984D01*
X168204536Y-128767180D01*
X168194967Y-128785702D01*
X168173097Y-128820508D01*
X168169786Y-128825267D01*
X168133005Y-128873200D01*
X168127653Y-128879304D01*
X168094304Y-128912653D01*
X168088200Y-128918005D01*
X168040267Y-128954786D01*
X168035508Y-128958097D01*
X168000702Y-128979967D01*
X167982180Y-128989536D01*
X167927984Y-129011983D01*
X167924735Y-129013223D01*
X167890597Y-129025169D01*
X167865829Y-129031066D01*
X167786351Y-129041530D01*
X167765688Y-129043859D01*
X167763460Y-129044110D01*
X167756514Y-129044500D01*
X165842936Y-129044500D01*
X165818437Y-129037306D01*
X165767830Y-129043969D01*
X165759728Y-129044500D01*
X165703604Y-129044500D01*
X165695930Y-129046252D01*
X165672208Y-129044797D01*
X165644941Y-129056092D01*
X165625085Y-129062420D01*
X165593650Y-129069595D01*
X165593647Y-129069596D01*
X165572006Y-129080018D01*
X165546104Y-129084282D01*
X165527526Y-129098538D01*
X165505844Y-129111881D01*
X165492034Y-129118531D01*
X165492027Y-129118536D01*
X165462644Y-129141968D01*
X165436094Y-129152806D01*
X165424878Y-129167424D01*
X165408728Y-129183880D01*
X165408778Y-129183930D01*
X165398930Y-129193778D01*
X165398880Y-129193728D01*
X165382424Y-129209878D01*
X165373757Y-129216527D01*
X165373118Y-129221173D01*
X165356968Y-129247644D01*
X165333536Y-129277027D01*
X165333531Y-129277034D01*
X165326881Y-129290844D01*
X165313538Y-129312526D01*
X165305113Y-129323504D01*
X165305308Y-129325325D01*
X165295018Y-129357006D01*
X165284596Y-129378647D01*
X165284595Y-129378650D01*
X165277420Y-129410085D01*
X165271092Y-129429941D01*
X165263971Y-129447133D01*
X165261252Y-129480930D01*
X165259500Y-129488604D01*
X165259500Y-129544727D01*
X165258969Y-129552828D01*
X165253871Y-129591545D01*
X165259500Y-129627936D01*
X165259500Y-133741514D01*
X165259110Y-133748462D01*
X165256530Y-133771351D01*
X165246066Y-133850829D01*
X165240169Y-133875597D01*
X165228223Y-133909735D01*
X165226983Y-133912984D01*
X165204536Y-133967180D01*
X165194967Y-133985702D01*
X165173097Y-134020508D01*
X165169786Y-134025267D01*
X165133005Y-134073200D01*
X165127653Y-134079304D01*
X165094304Y-134112653D01*
X165088200Y-134118005D01*
X165040267Y-134154786D01*
X165035508Y-134158097D01*
X165000702Y-134179967D01*
X164982180Y-134189536D01*
X164927984Y-134211983D01*
X164924735Y-134213223D01*
X164890597Y-134225169D01*
X164865829Y-134231066D01*
X164786351Y-134241530D01*
X164765688Y-134243859D01*
X164763460Y-134244110D01*
X164756514Y-134244500D01*
X61763477Y-134244500D01*
X61756546Y-134244111D01*
X61743237Y-134242614D01*
X61733656Y-134241536D01*
X61654158Y-134231083D01*
X61629382Y-134225187D01*
X61595274Y-134213257D01*
X61592022Y-134212016D01*
X61537798Y-134189561D01*
X61519274Y-134179993D01*
X61484465Y-134158124D01*
X61479705Y-134154813D01*
X61431773Y-134118038D01*
X61425674Y-134112690D01*
X61392307Y-134079323D01*
X61386964Y-134073230D01*
X61375148Y-134057829D01*
X61350185Y-134025293D01*
X61346874Y-134020533D01*
X61325005Y-133985724D01*
X61315437Y-133967200D01*
X61301341Y-133933163D01*
X61292977Y-133912964D01*
X61291755Y-133909763D01*
X61279809Y-133875610D01*
X61273916Y-133850845D01*
X61263464Y-133771351D01*
X61261470Y-133753628D01*
X61260889Y-133748455D01*
X61260500Y-133741520D01*
X61260500Y-129627920D01*
X61267698Y-129603403D01*
X61261032Y-129552836D01*
X61260500Y-129544724D01*
X61260500Y-129520264D01*
X61260495Y-129520241D01*
X61260491Y-129488610D01*
X61258741Y-129480946D01*
X61260190Y-129457229D01*
X61248891Y-129429958D01*
X61242560Y-129410103D01*
X61242556Y-129410085D01*
X61235379Y-129378662D01*
X61224959Y-129357029D01*
X61220691Y-129331127D01*
X61206432Y-129312546D01*
X61193093Y-129290875D01*
X61186437Y-129277055D01*
X61163008Y-129247678D01*
X61152170Y-129221133D01*
X61137553Y-129209916D01*
X61121089Y-129193756D01*
X61121041Y-129193805D01*
X61111195Y-129183959D01*
X61111243Y-129183910D01*
X61095084Y-129167446D01*
X61088434Y-129158781D01*
X61083792Y-129158142D01*
X61057320Y-129141990D01*
X61057292Y-129141968D01*
X61027948Y-129118565D01*
X61027947Y-129118564D01*
X61027883Y-129118533D01*
X61014128Y-129111907D01*
X60992455Y-129098568D01*
X60981471Y-129090139D01*
X60979649Y-129090334D01*
X60947969Y-129080040D01*
X60926343Y-129069623D01*
X60926340Y-129069622D01*
X60926338Y-129069621D01*
X60906804Y-129065159D01*
X60894898Y-129062440D01*
X60875046Y-129056109D01*
X60857854Y-129048986D01*
X60824052Y-129046259D01*
X60816394Y-129044510D01*
X60816395Y-129044510D01*
X60816390Y-129044509D01*
X60816387Y-129044508D01*
X60816382Y-129044508D01*
X60760271Y-129044499D01*
X60752170Y-129043967D01*
X60713504Y-129038869D01*
X60677078Y-129044500D01*
X58763477Y-129044500D01*
X58756546Y-129044111D01*
X58743237Y-129042614D01*
X58733656Y-129041536D01*
X58654158Y-129031083D01*
X58629382Y-129025187D01*
X58595274Y-129013257D01*
X58592022Y-129012016D01*
X58537798Y-128989561D01*
X58519274Y-128979993D01*
X58484465Y-128958124D01*
X58479705Y-128954813D01*
X58431773Y-128918038D01*
X58425674Y-128912690D01*
X58392307Y-128879323D01*
X58386964Y-128873230D01*
X58375148Y-128857829D01*
X58350185Y-128825293D01*
X58346874Y-128820533D01*
X58325005Y-128785724D01*
X58315437Y-128767200D01*
X58301150Y-128732699D01*
X58292977Y-128712964D01*
X58291755Y-128709763D01*
X58279809Y-128675610D01*
X58273916Y-128650845D01*
X58263464Y-128571351D01*
X58261470Y-128553628D01*
X58260889Y-128548455D01*
X58260500Y-128541520D01*
X58260500Y-128230000D01*
X107629533Y-128230000D01*
X107649312Y-128380234D01*
X107649313Y-128380236D01*
X107707302Y-128520233D01*
X107799549Y-128640451D01*
X107919767Y-128732698D01*
X108059764Y-128790687D01*
X108172280Y-128805500D01*
X108172287Y-128805500D01*
X108247713Y-128805500D01*
X108247720Y-128805500D01*
X108360236Y-128790687D01*
X108500233Y-128732698D01*
X108620451Y-128640451D01*
X108712698Y-128520233D01*
X108770687Y-128380236D01*
X108790466Y-128230000D01*
X113409533Y-128230000D01*
X113429312Y-128380234D01*
X113429313Y-128380236D01*
X113487302Y-128520233D01*
X113579549Y-128640451D01*
X113699767Y-128732698D01*
X113839764Y-128790687D01*
X113952280Y-128805500D01*
X113952287Y-128805500D01*
X114027713Y-128805500D01*
X114027720Y-128805500D01*
X114140236Y-128790687D01*
X114280233Y-128732698D01*
X114400451Y-128640451D01*
X114492698Y-128520233D01*
X114550687Y-128380236D01*
X114570466Y-128230000D01*
X114550687Y-128079764D01*
X114492698Y-127939767D01*
X114400451Y-127819549D01*
X114280233Y-127727302D01*
X114280229Y-127727300D01*
X114216801Y-127701027D01*
X114140236Y-127669313D01*
X114126171Y-127667461D01*
X114027727Y-127654500D01*
X114027720Y-127654500D01*
X113952280Y-127654500D01*
X113952272Y-127654500D01*
X113839764Y-127669313D01*
X113839763Y-127669313D01*
X113699770Y-127727300D01*
X113579549Y-127819549D01*
X113487300Y-127939770D01*
X113429313Y-128079763D01*
X113429312Y-128079765D01*
X113409533Y-128229999D01*
X113409533Y-128230000D01*
X108790466Y-128230000D01*
X108770687Y-128079764D01*
X108712698Y-127939767D01*
X108620451Y-127819549D01*
X108500233Y-127727302D01*
X108500229Y-127727300D01*
X108436801Y-127701027D01*
X108360236Y-127669313D01*
X108346171Y-127667461D01*
X108247727Y-127654500D01*
X108247720Y-127654500D01*
X108172280Y-127654500D01*
X108172272Y-127654500D01*
X108059764Y-127669313D01*
X108059763Y-127669313D01*
X107919770Y-127727300D01*
X107799549Y-127819549D01*
X107707300Y-127939770D01*
X107649313Y-128079763D01*
X107649312Y-128079765D01*
X107629533Y-128229999D01*
X107629533Y-128230000D01*
X58260500Y-128230000D01*
X58260500Y-123741000D01*
X96393540Y-123741000D01*
X96413326Y-123929256D01*
X96413327Y-123929259D01*
X96471818Y-124109277D01*
X96471821Y-124109284D01*
X96566467Y-124273216D01*
X96693128Y-124413888D01*
X96693129Y-124413888D01*
X96846265Y-124525148D01*
X96846270Y-124525151D01*
X97019192Y-124602142D01*
X97019197Y-124602144D01*
X97204354Y-124641500D01*
X97204355Y-124641500D01*
X97393644Y-124641500D01*
X97393646Y-124641500D01*
X97578803Y-124602144D01*
X97751730Y-124525151D01*
X97904871Y-124413888D01*
X98031533Y-124273216D01*
X98126179Y-124109284D01*
X98184674Y-123929256D01*
X98204460Y-123741000D01*
X98202757Y-123724800D01*
X106638340Y-123724800D01*
X106658126Y-123913056D01*
X106658127Y-123913059D01*
X106716618Y-124093077D01*
X106716621Y-124093084D01*
X106811267Y-124257016D01*
X106937929Y-124397688D01*
X107091065Y-124508948D01*
X107091070Y-124508951D01*
X107263992Y-124585942D01*
X107263997Y-124585944D01*
X107449154Y-124625300D01*
X107449155Y-124625300D01*
X107638444Y-124625300D01*
X107638446Y-124625300D01*
X107823603Y-124585944D01*
X107996530Y-124508951D01*
X108149671Y-124397688D01*
X108276333Y-124257016D01*
X108370979Y-124093084D01*
X108422019Y-123936000D01*
X112548540Y-123936000D01*
X112568326Y-124124256D01*
X112568327Y-124124259D01*
X112626818Y-124304277D01*
X112626821Y-124304284D01*
X112721467Y-124468216D01*
X112772729Y-124525148D01*
X112848129Y-124608888D01*
X113001265Y-124720148D01*
X113001270Y-124720151D01*
X113174192Y-124797142D01*
X113174197Y-124797144D01*
X113359354Y-124836500D01*
X113359355Y-124836500D01*
X113548644Y-124836500D01*
X113548646Y-124836500D01*
X113733803Y-124797144D01*
X113906730Y-124720151D01*
X114059871Y-124608888D01*
X114186533Y-124468216D01*
X114281179Y-124304284D01*
X114339674Y-124124256D01*
X114359460Y-123936000D01*
X114339674Y-123747744D01*
X114281179Y-123567716D01*
X114186533Y-123403784D01*
X114059871Y-123263112D01*
X114059870Y-123263111D01*
X113906734Y-123151851D01*
X113906729Y-123151848D01*
X113733807Y-123074857D01*
X113733802Y-123074855D01*
X113588000Y-123043865D01*
X113548646Y-123035500D01*
X113359354Y-123035500D01*
X113326897Y-123042398D01*
X113174197Y-123074855D01*
X113174192Y-123074857D01*
X113001270Y-123151848D01*
X113001265Y-123151851D01*
X112848129Y-123263111D01*
X112721466Y-123403785D01*
X112626821Y-123567715D01*
X112626818Y-123567722D01*
X112575781Y-123724800D01*
X112568326Y-123747744D01*
X112548540Y-123936000D01*
X108422019Y-123936000D01*
X108429474Y-123913056D01*
X108449260Y-123724800D01*
X108429474Y-123536544D01*
X108370979Y-123356516D01*
X108276333Y-123192584D01*
X108149671Y-123051912D01*
X108127082Y-123035500D01*
X107996534Y-122940651D01*
X107996529Y-122940648D01*
X107823607Y-122863657D01*
X107823602Y-122863655D01*
X107677800Y-122832665D01*
X107638446Y-122824300D01*
X107449154Y-122824300D01*
X107416697Y-122831198D01*
X107263997Y-122863655D01*
X107263992Y-122863657D01*
X107091070Y-122940648D01*
X107091065Y-122940651D01*
X106937929Y-123051911D01*
X106811266Y-123192585D01*
X106716621Y-123356515D01*
X106716618Y-123356522D01*
X106658127Y-123536540D01*
X106658126Y-123536544D01*
X106638340Y-123724800D01*
X98202757Y-123724800D01*
X98184674Y-123552744D01*
X98126179Y-123372716D01*
X98031533Y-123208784D01*
X97904871Y-123068112D01*
X97882574Y-123051912D01*
X97751734Y-122956851D01*
X97751729Y-122956848D01*
X97578807Y-122879857D01*
X97578802Y-122879855D01*
X97433001Y-122848865D01*
X97393646Y-122840500D01*
X97204354Y-122840500D01*
X97171897Y-122847398D01*
X97019197Y-122879855D01*
X97019192Y-122879857D01*
X96846270Y-122956848D01*
X96846265Y-122956851D01*
X96693129Y-123068111D01*
X96566466Y-123208785D01*
X96471821Y-123372715D01*
X96471818Y-123372722D01*
X96413327Y-123552740D01*
X96413326Y-123552744D01*
X96393540Y-123741000D01*
X58260500Y-123741000D01*
X58260500Y-112800000D01*
X107844540Y-112800000D01*
X107864326Y-112988256D01*
X107864327Y-112988259D01*
X107922818Y-113168277D01*
X107922821Y-113168284D01*
X108017467Y-113332216D01*
X108144129Y-113472888D01*
X108297265Y-113584148D01*
X108297270Y-113584151D01*
X108470192Y-113661142D01*
X108470197Y-113661144D01*
X108655354Y-113700500D01*
X108655355Y-113700500D01*
X108844644Y-113700500D01*
X108844646Y-113700500D01*
X109029803Y-113661144D01*
X109202730Y-113584151D01*
X109355871Y-113472888D01*
X109482533Y-113332216D01*
X109577179Y-113168284D01*
X109635674Y-112988256D01*
X109655460Y-112800000D01*
X109647052Y-112720000D01*
X121184540Y-112720000D01*
X121204326Y-112908256D01*
X121204327Y-112908259D01*
X121262818Y-113088277D01*
X121262821Y-113088284D01*
X121357467Y-113252216D01*
X121429498Y-113332214D01*
X121484129Y-113392888D01*
X121637265Y-113504148D01*
X121637270Y-113504151D01*
X121810192Y-113581142D01*
X121810197Y-113581144D01*
X121995354Y-113620500D01*
X121995355Y-113620500D01*
X122184644Y-113620500D01*
X122184646Y-113620500D01*
X122369803Y-113581144D01*
X122542730Y-113504151D01*
X122695871Y-113392888D01*
X122822533Y-113252216D01*
X122917179Y-113088284D01*
X122975674Y-112908256D01*
X122995460Y-112720000D01*
X122975674Y-112531744D01*
X122917179Y-112351716D01*
X122822533Y-112187784D01*
X122695871Y-112047112D01*
X122652844Y-112015851D01*
X122542734Y-111935851D01*
X122542729Y-111935848D01*
X122369807Y-111858857D01*
X122369802Y-111858855D01*
X122224000Y-111827865D01*
X122184646Y-111819500D01*
X121995354Y-111819500D01*
X121962897Y-111826398D01*
X121810197Y-111858855D01*
X121810192Y-111858857D01*
X121637270Y-111935848D01*
X121637265Y-111935851D01*
X121484129Y-112047111D01*
X121357466Y-112187785D01*
X121262821Y-112351715D01*
X121262818Y-112351722D01*
X121236827Y-112431716D01*
X121204326Y-112531744D01*
X121184540Y-112720000D01*
X109647052Y-112720000D01*
X109635674Y-112611744D01*
X109577179Y-112431716D01*
X109482533Y-112267784D01*
X109355871Y-112127112D01*
X109355870Y-112127111D01*
X109202734Y-112015851D01*
X109202729Y-112015848D01*
X109029807Y-111938857D01*
X109029802Y-111938855D01*
X108884000Y-111907865D01*
X108844646Y-111899500D01*
X108655354Y-111899500D01*
X108622897Y-111906398D01*
X108470197Y-111938855D01*
X108470192Y-111938857D01*
X108297270Y-112015848D01*
X108297265Y-112015851D01*
X108144129Y-112127111D01*
X108017466Y-112267785D01*
X107922821Y-112431715D01*
X107922818Y-112431722D01*
X107864327Y-112611740D01*
X107864326Y-112611744D01*
X107844540Y-112800000D01*
X58260500Y-112800000D01*
X58260500Y-104600000D01*
X116534540Y-104600000D01*
X116554326Y-104788256D01*
X116554327Y-104788259D01*
X116612818Y-104968277D01*
X116612821Y-104968284D01*
X116707467Y-105132216D01*
X116780105Y-105212888D01*
X116834129Y-105272888D01*
X116987265Y-105384148D01*
X116987270Y-105384151D01*
X117160192Y-105461142D01*
X117160197Y-105461144D01*
X117345354Y-105500500D01*
X117345355Y-105500500D01*
X117534644Y-105500500D01*
X117534646Y-105500500D01*
X117631092Y-105480000D01*
X118484540Y-105480000D01*
X118504326Y-105668256D01*
X118504327Y-105668259D01*
X118562818Y-105848277D01*
X118562821Y-105848284D01*
X118657467Y-106012216D01*
X118784128Y-106152887D01*
X118784129Y-106152888D01*
X118937265Y-106264148D01*
X118937270Y-106264151D01*
X119110192Y-106341142D01*
X119110197Y-106341144D01*
X119295354Y-106380500D01*
X119295355Y-106380500D01*
X119484644Y-106380500D01*
X119484646Y-106380500D01*
X119669803Y-106341144D01*
X119842730Y-106264151D01*
X119995871Y-106152888D01*
X120122533Y-106012216D01*
X120217179Y-105848284D01*
X120275674Y-105668256D01*
X120295460Y-105480000D01*
X120275674Y-105291744D01*
X120217179Y-105111716D01*
X120122533Y-104947784D01*
X119995871Y-104807112D01*
X119969918Y-104788256D01*
X119842734Y-104695851D01*
X119842729Y-104695848D01*
X119669807Y-104618857D01*
X119669802Y-104618855D01*
X119524000Y-104587865D01*
X119484646Y-104579500D01*
X119295354Y-104579500D01*
X119262897Y-104586398D01*
X119110197Y-104618855D01*
X119110192Y-104618857D01*
X118937270Y-104695848D01*
X118937265Y-104695851D01*
X118784129Y-104807111D01*
X118657466Y-104947785D01*
X118562821Y-105111715D01*
X118562818Y-105111722D01*
X118504327Y-105291740D01*
X118504326Y-105291744D01*
X118484540Y-105480000D01*
X117631092Y-105480000D01*
X117719803Y-105461144D01*
X117892730Y-105384151D01*
X118045871Y-105272888D01*
X118172533Y-105132216D01*
X118267179Y-104968284D01*
X118325674Y-104788256D01*
X118345460Y-104600000D01*
X118325674Y-104411744D01*
X118267179Y-104231716D01*
X118172533Y-104067784D01*
X118045871Y-103927112D01*
X118045870Y-103927111D01*
X117892734Y-103815851D01*
X117892729Y-103815848D01*
X117719807Y-103738857D01*
X117719802Y-103738855D01*
X117574000Y-103707865D01*
X117534646Y-103699500D01*
X117345354Y-103699500D01*
X117312897Y-103706398D01*
X117160197Y-103738855D01*
X117160192Y-103738857D01*
X116987270Y-103815848D01*
X116987265Y-103815851D01*
X116834129Y-103927111D01*
X116707466Y-104067785D01*
X116612821Y-104231715D01*
X116612818Y-104231722D01*
X116573821Y-104351744D01*
X116554326Y-104411744D01*
X116534540Y-104600000D01*
X58260500Y-104600000D01*
X58260500Y-103165000D01*
X120588540Y-103165000D01*
X120608326Y-103353256D01*
X120608327Y-103353259D01*
X120666818Y-103533277D01*
X120666821Y-103533284D01*
X120761467Y-103697216D01*
X120868284Y-103815848D01*
X120888129Y-103837888D01*
X121041265Y-103949148D01*
X121041270Y-103949151D01*
X121214192Y-104026142D01*
X121214197Y-104026144D01*
X121399354Y-104065500D01*
X121399355Y-104065500D01*
X121588644Y-104065500D01*
X121588646Y-104065500D01*
X121688670Y-104044239D01*
X121758335Y-104049555D01*
X121814068Y-104091692D01*
X121838174Y-104157271D01*
X121832380Y-104203847D01*
X121784327Y-104351740D01*
X121784326Y-104351744D01*
X121764540Y-104540000D01*
X121784326Y-104728256D01*
X121784327Y-104728259D01*
X121842818Y-104908277D01*
X121842821Y-104908284D01*
X121937467Y-105072216D01*
X122064128Y-105212887D01*
X122064129Y-105212888D01*
X122217265Y-105324148D01*
X122217270Y-105324151D01*
X122390192Y-105401142D01*
X122390197Y-105401144D01*
X122575354Y-105440500D01*
X122575355Y-105440500D01*
X122764644Y-105440500D01*
X122764646Y-105440500D01*
X122949803Y-105401144D01*
X123122730Y-105324151D01*
X123275871Y-105212888D01*
X123402533Y-105072216D01*
X123497179Y-104908284D01*
X123555674Y-104728256D01*
X123575460Y-104540000D01*
X123555674Y-104351744D01*
X123497179Y-104171716D01*
X123402533Y-104007784D01*
X123275871Y-103867112D01*
X123275870Y-103867111D01*
X123122734Y-103755851D01*
X123122729Y-103755848D01*
X122949807Y-103678857D01*
X122949802Y-103678855D01*
X122804001Y-103647865D01*
X122764646Y-103639500D01*
X122575354Y-103639500D01*
X122575352Y-103639500D01*
X122475330Y-103660760D01*
X122405663Y-103655444D01*
X122349930Y-103613306D01*
X122325825Y-103547726D01*
X122331618Y-103501154D01*
X122379674Y-103353256D01*
X122399460Y-103165000D01*
X122379674Y-102976744D01*
X122321179Y-102796716D01*
X122226533Y-102632784D01*
X122099871Y-102492112D01*
X122099870Y-102492111D01*
X121946734Y-102380851D01*
X121946729Y-102380848D01*
X121773807Y-102303857D01*
X121773802Y-102303855D01*
X121628000Y-102272865D01*
X121588646Y-102264500D01*
X121399354Y-102264500D01*
X121366897Y-102271398D01*
X121214197Y-102303855D01*
X121214192Y-102303857D01*
X121041270Y-102380848D01*
X121041265Y-102380851D01*
X120888129Y-102492111D01*
X120761466Y-102632785D01*
X120666821Y-102796715D01*
X120666818Y-102796722D01*
X120608327Y-102976740D01*
X120608326Y-102976744D01*
X120588540Y-103165000D01*
X58260500Y-103165000D01*
X58260500Y-98936000D01*
X90101540Y-98936000D01*
X90121326Y-99124256D01*
X90121327Y-99124259D01*
X90179818Y-99304277D01*
X90179821Y-99304284D01*
X90274467Y-99468216D01*
X90401129Y-99608888D01*
X90554265Y-99720148D01*
X90554270Y-99720151D01*
X90727191Y-99797142D01*
X90727193Y-99797142D01*
X90727197Y-99797144D01*
X90803056Y-99813268D01*
X90864534Y-99846458D01*
X90898311Y-99907621D01*
X90893659Y-99977336D01*
X90852055Y-100033468D01*
X90803057Y-100055847D01*
X90784192Y-100059857D01*
X90611270Y-100136848D01*
X90611265Y-100136851D01*
X90458129Y-100248111D01*
X90331466Y-100388785D01*
X90236821Y-100552715D01*
X90236818Y-100552722D01*
X90178327Y-100732740D01*
X90178326Y-100732744D01*
X90158540Y-100921000D01*
X90178326Y-101109256D01*
X90178327Y-101109259D01*
X90236818Y-101289277D01*
X90236821Y-101289284D01*
X90331467Y-101453216D01*
X90404436Y-101534256D01*
X90458129Y-101593888D01*
X90611265Y-101705148D01*
X90611270Y-101705151D01*
X90784192Y-101782142D01*
X90784197Y-101782144D01*
X90969354Y-101821500D01*
X90969355Y-101821500D01*
X91158644Y-101821500D01*
X91158646Y-101821500D01*
X91343803Y-101782144D01*
X91516730Y-101705151D01*
X91669871Y-101593888D01*
X91796533Y-101453216D01*
X91858434Y-101346000D01*
X109660540Y-101346000D01*
X109680326Y-101534256D01*
X109680327Y-101534259D01*
X109738818Y-101714277D01*
X109738821Y-101714284D01*
X109833467Y-101878216D01*
X109960128Y-102018888D01*
X109960129Y-102018888D01*
X110113265Y-102130148D01*
X110113270Y-102130151D01*
X110286192Y-102207142D01*
X110286197Y-102207144D01*
X110471354Y-102246500D01*
X110471355Y-102246500D01*
X110660644Y-102246500D01*
X110660646Y-102246500D01*
X110845803Y-102207144D01*
X111018730Y-102130151D01*
X111171871Y-102018888D01*
X111298533Y-101878216D01*
X111393179Y-101714284D01*
X111451674Y-101534256D01*
X111471460Y-101346000D01*
X111451674Y-101157744D01*
X111393179Y-100977716D01*
X111298533Y-100813784D01*
X111171871Y-100673112D01*
X111171870Y-100673111D01*
X111018734Y-100561851D01*
X111018729Y-100561848D01*
X110845807Y-100484857D01*
X110845802Y-100484855D01*
X110700000Y-100453865D01*
X110660646Y-100445500D01*
X110471354Y-100445500D01*
X110438897Y-100452398D01*
X110286197Y-100484855D01*
X110286192Y-100484857D01*
X110113270Y-100561848D01*
X110113265Y-100561851D01*
X109960129Y-100673111D01*
X109833466Y-100813785D01*
X109738821Y-100977715D01*
X109738818Y-100977722D01*
X109680327Y-101157740D01*
X109680326Y-101157744D01*
X109660540Y-101346000D01*
X91858434Y-101346000D01*
X91891179Y-101289284D01*
X91949674Y-101109256D01*
X91969460Y-100921000D01*
X91949674Y-100732744D01*
X91891179Y-100552716D01*
X91796533Y-100388784D01*
X91669871Y-100248112D01*
X91669870Y-100248111D01*
X91516734Y-100136851D01*
X91516729Y-100136848D01*
X91343807Y-100059857D01*
X91343802Y-100059855D01*
X91267946Y-100043732D01*
X91206464Y-100010540D01*
X91172688Y-99949377D01*
X91177340Y-99879662D01*
X91218945Y-99823530D01*
X91267945Y-99801152D01*
X91286803Y-99797144D01*
X91459730Y-99720151D01*
X91612871Y-99608888D01*
X91739533Y-99468216D01*
X91748318Y-99453000D01*
X123377540Y-99453000D01*
X123397326Y-99641256D01*
X123397327Y-99641259D01*
X123455818Y-99821277D01*
X123455821Y-99821284D01*
X123550467Y-99985216D01*
X123677129Y-100125888D01*
X123830265Y-100237148D01*
X123830270Y-100237151D01*
X124003192Y-100314142D01*
X124003197Y-100314144D01*
X124188354Y-100353500D01*
X124188355Y-100353500D01*
X124377644Y-100353500D01*
X124377646Y-100353500D01*
X124562803Y-100314144D01*
X124735730Y-100237151D01*
X124888871Y-100125888D01*
X125015533Y-99985216D01*
X125110179Y-99821284D01*
X125168674Y-99641256D01*
X125188460Y-99453000D01*
X125168674Y-99264744D01*
X125110179Y-99084716D01*
X125015533Y-98920784D01*
X124888871Y-98780112D01*
X124888870Y-98780111D01*
X124735734Y-98668851D01*
X124735729Y-98668848D01*
X124562807Y-98591857D01*
X124562802Y-98591855D01*
X124417001Y-98560865D01*
X124377646Y-98552500D01*
X124188354Y-98552500D01*
X124155897Y-98559398D01*
X124003197Y-98591855D01*
X124003192Y-98591857D01*
X123830270Y-98668848D01*
X123830265Y-98668851D01*
X123677129Y-98780111D01*
X123550466Y-98920785D01*
X123455821Y-99084715D01*
X123455818Y-99084722D01*
X123397327Y-99264740D01*
X123397326Y-99264744D01*
X123377540Y-99453000D01*
X91748318Y-99453000D01*
X91834179Y-99304284D01*
X91892674Y-99124256D01*
X91912460Y-98936000D01*
X91892674Y-98747744D01*
X91834179Y-98567716D01*
X91739533Y-98403784D01*
X91612871Y-98263112D01*
X91612870Y-98263111D01*
X91459734Y-98151851D01*
X91459729Y-98151848D01*
X91286807Y-98074857D01*
X91286802Y-98074855D01*
X91141001Y-98043865D01*
X91101646Y-98035500D01*
X90912354Y-98035500D01*
X90879897Y-98042398D01*
X90727197Y-98074855D01*
X90727192Y-98074857D01*
X90554270Y-98151848D01*
X90554265Y-98151851D01*
X90401129Y-98263111D01*
X90274466Y-98403785D01*
X90179821Y-98567715D01*
X90179818Y-98567722D01*
X90121327Y-98747740D01*
X90121326Y-98747744D01*
X90101540Y-98936000D01*
X58260500Y-98936000D01*
X58260500Y-96925000D01*
X108550540Y-96925000D01*
X108570326Y-97113256D01*
X108570327Y-97113259D01*
X108628818Y-97293277D01*
X108628821Y-97293284D01*
X108723467Y-97457216D01*
X108850128Y-97597888D01*
X108850129Y-97597888D01*
X109003265Y-97709148D01*
X109003270Y-97709151D01*
X109176192Y-97786142D01*
X109176197Y-97786144D01*
X109361354Y-97825500D01*
X109361355Y-97825500D01*
X109550644Y-97825500D01*
X109550646Y-97825500D01*
X109735803Y-97786144D01*
X109908730Y-97709151D01*
X110061871Y-97597888D01*
X110188533Y-97457216D01*
X110283179Y-97293284D01*
X110341674Y-97113256D01*
X110352364Y-97011536D01*
X110378948Y-96946924D01*
X110436246Y-96906939D01*
X110475685Y-96900500D01*
X110554644Y-96900500D01*
X110554646Y-96900500D01*
X110739803Y-96861144D01*
X110912730Y-96784151D01*
X111065871Y-96672888D01*
X111192533Y-96532216D01*
X111287179Y-96368284D01*
X111345674Y-96188256D01*
X111365460Y-96000000D01*
X111354529Y-95896000D01*
X121430540Y-95896000D01*
X121450326Y-96084256D01*
X121450327Y-96084259D01*
X121508818Y-96264277D01*
X121508821Y-96264284D01*
X121603467Y-96428216D01*
X121697109Y-96532216D01*
X121730129Y-96568888D01*
X121883265Y-96680148D01*
X121883270Y-96680151D01*
X122056192Y-96757142D01*
X122056197Y-96757144D01*
X122241354Y-96796500D01*
X122241355Y-96796500D01*
X122430645Y-96796500D01*
X122430646Y-96796500D01*
X122496320Y-96782540D01*
X122565985Y-96787855D01*
X122621719Y-96829992D01*
X122629487Y-96841830D01*
X122717467Y-96994216D01*
X122824654Y-97113259D01*
X122844129Y-97134888D01*
X122997265Y-97246148D01*
X122997270Y-97246151D01*
X123170192Y-97323142D01*
X123170197Y-97323144D01*
X123355354Y-97362500D01*
X123355355Y-97362500D01*
X123544644Y-97362500D01*
X123544646Y-97362500D01*
X123729803Y-97323144D01*
X123902730Y-97246151D01*
X124055871Y-97134888D01*
X124182533Y-96994216D01*
X124277179Y-96830284D01*
X124335674Y-96650256D01*
X124355460Y-96462000D01*
X124335674Y-96273744D01*
X124277179Y-96093716D01*
X124182533Y-95929784D01*
X124055871Y-95789112D01*
X124055870Y-95789111D01*
X123902734Y-95677851D01*
X123902729Y-95677848D01*
X123729807Y-95600857D01*
X123729802Y-95600855D01*
X123584001Y-95569865D01*
X123544646Y-95561500D01*
X123355354Y-95561500D01*
X123289680Y-95575459D01*
X123220013Y-95570143D01*
X123164280Y-95528005D01*
X123156513Y-95516169D01*
X123068534Y-95363785D01*
X122941870Y-95223111D01*
X122788734Y-95111851D01*
X122788729Y-95111848D01*
X122615807Y-95034857D01*
X122615802Y-95034855D01*
X122470001Y-95003865D01*
X122430646Y-94995500D01*
X122241354Y-94995500D01*
X122208897Y-95002398D01*
X122056197Y-95034855D01*
X122056192Y-95034857D01*
X121883270Y-95111848D01*
X121883265Y-95111851D01*
X121730129Y-95223111D01*
X121603466Y-95363785D01*
X121508821Y-95527715D01*
X121508818Y-95527722D01*
X121450327Y-95707740D01*
X121450326Y-95707744D01*
X121430540Y-95896000D01*
X111354529Y-95896000D01*
X111345674Y-95811744D01*
X111287179Y-95631716D01*
X111192533Y-95467784D01*
X111065871Y-95327112D01*
X111065870Y-95327111D01*
X110912734Y-95215851D01*
X110912729Y-95215848D01*
X110739807Y-95138857D01*
X110739802Y-95138855D01*
X110594000Y-95107865D01*
X110554646Y-95099500D01*
X110365354Y-95099500D01*
X110332897Y-95106398D01*
X110180197Y-95138855D01*
X110180192Y-95138857D01*
X110007270Y-95215848D01*
X110007265Y-95215851D01*
X109854129Y-95327111D01*
X109727466Y-95467785D01*
X109632821Y-95631715D01*
X109632818Y-95631722D01*
X109574327Y-95811740D01*
X109574326Y-95811744D01*
X109563635Y-95913463D01*
X109537052Y-95978076D01*
X109479754Y-96018061D01*
X109440315Y-96024500D01*
X109361354Y-96024500D01*
X109328897Y-96031398D01*
X109176197Y-96063855D01*
X109176192Y-96063857D01*
X109003270Y-96140848D01*
X109003265Y-96140851D01*
X108850129Y-96252111D01*
X108723466Y-96392785D01*
X108628821Y-96556715D01*
X108628818Y-96556722D01*
X108591074Y-96672888D01*
X108570326Y-96736744D01*
X108550540Y-96925000D01*
X58260500Y-96925000D01*
X58260500Y-94047000D01*
X94232540Y-94047000D01*
X94252326Y-94235256D01*
X94252327Y-94235259D01*
X94310818Y-94415277D01*
X94310821Y-94415284D01*
X94405467Y-94579216D01*
X94491611Y-94674888D01*
X94532129Y-94719888D01*
X94685265Y-94831148D01*
X94685270Y-94831151D01*
X94858192Y-94908142D01*
X94858197Y-94908144D01*
X95043354Y-94947500D01*
X95043355Y-94947500D01*
X95232644Y-94947500D01*
X95232646Y-94947500D01*
X95417803Y-94908144D01*
X95590730Y-94831151D01*
X95743871Y-94719888D01*
X95870533Y-94579216D01*
X95965179Y-94415284D01*
X96023674Y-94235256D01*
X96043460Y-94047000D01*
X96039887Y-94013000D01*
X97393540Y-94013000D01*
X97413326Y-94201256D01*
X97413327Y-94201259D01*
X97471818Y-94381277D01*
X97471821Y-94381284D01*
X97566467Y-94545216D01*
X97597081Y-94579216D01*
X97693129Y-94685888D01*
X97846265Y-94797148D01*
X97846270Y-94797151D01*
X98019192Y-94874142D01*
X98019197Y-94874144D01*
X98204354Y-94913500D01*
X98204355Y-94913500D01*
X98393644Y-94913500D01*
X98393646Y-94913500D01*
X98578803Y-94874144D01*
X98751730Y-94797151D01*
X98904871Y-94685888D01*
X99031533Y-94545216D01*
X99126179Y-94381284D01*
X99184674Y-94201256D01*
X99204460Y-94013000D01*
X99203304Y-94002000D01*
X100302540Y-94002000D01*
X100322326Y-94190256D01*
X100322327Y-94190259D01*
X100380818Y-94370277D01*
X100380821Y-94370284D01*
X100475467Y-94534216D01*
X100602128Y-94674888D01*
X100602129Y-94674888D01*
X100755265Y-94786148D01*
X100755270Y-94786151D01*
X100928192Y-94863142D01*
X100928197Y-94863144D01*
X101113354Y-94902500D01*
X101113355Y-94902500D01*
X101302644Y-94902500D01*
X101302646Y-94902500D01*
X101487803Y-94863144D01*
X101660730Y-94786151D01*
X101813871Y-94674888D01*
X101940533Y-94534216D01*
X102035179Y-94370284D01*
X102093674Y-94190256D01*
X102113460Y-94002000D01*
X102106313Y-93934000D01*
X108482540Y-93934000D01*
X108502326Y-94122256D01*
X108502327Y-94122259D01*
X108560818Y-94302277D01*
X108560821Y-94302284D01*
X108655467Y-94466216D01*
X108726599Y-94545216D01*
X108782129Y-94606888D01*
X108935265Y-94718148D01*
X108935270Y-94718151D01*
X109108192Y-94795142D01*
X109108197Y-94795144D01*
X109293354Y-94834500D01*
X109293355Y-94834500D01*
X109482644Y-94834500D01*
X109482646Y-94834500D01*
X109667803Y-94795144D01*
X109840730Y-94718151D01*
X109993871Y-94606888D01*
X110120533Y-94466216D01*
X110215179Y-94302284D01*
X110273674Y-94122256D01*
X110293460Y-93934000D01*
X110273674Y-93745744D01*
X110215179Y-93565716D01*
X110120533Y-93401784D01*
X109993871Y-93261112D01*
X109993870Y-93261111D01*
X109989522Y-93256282D01*
X109991733Y-93254290D01*
X109961912Y-93205663D01*
X109963385Y-93135809D01*
X110002390Y-93077840D01*
X110066543Y-93050161D01*
X110132034Y-93059964D01*
X110267197Y-93120144D01*
X110452354Y-93159500D01*
X110452355Y-93159500D01*
X110641644Y-93159500D01*
X110641646Y-93159500D01*
X110826803Y-93120144D01*
X110999730Y-93043151D01*
X111152871Y-92931888D01*
X111279533Y-92791216D01*
X111374179Y-92627284D01*
X111432674Y-92447256D01*
X111452460Y-92259000D01*
X111432674Y-92070744D01*
X111374179Y-91890716D01*
X111279533Y-91726784D01*
X111152871Y-91586112D01*
X111118031Y-91560799D01*
X110999734Y-91474851D01*
X110999729Y-91474848D01*
X110826807Y-91397857D01*
X110826802Y-91397855D01*
X110681001Y-91366865D01*
X110641646Y-91358500D01*
X110452354Y-91358500D01*
X110419897Y-91365398D01*
X110267197Y-91397855D01*
X110267192Y-91397857D01*
X110094270Y-91474848D01*
X110094265Y-91474851D01*
X109941129Y-91586111D01*
X109814466Y-91726785D01*
X109719821Y-91890715D01*
X109719818Y-91890722D01*
X109661327Y-92070740D01*
X109661326Y-92070744D01*
X109641540Y-92259000D01*
X109661326Y-92447256D01*
X109661327Y-92447259D01*
X109719818Y-92627277D01*
X109719821Y-92627284D01*
X109814467Y-92791216D01*
X109941129Y-92931888D01*
X109945478Y-92936718D01*
X109943253Y-92938720D01*
X109973063Y-92987248D01*
X109971642Y-93057104D01*
X109932679Y-93115101D01*
X109868546Y-93142827D01*
X109802964Y-93133034D01*
X109667807Y-93072857D01*
X109667802Y-93072855D01*
X109522000Y-93041865D01*
X109482646Y-93033500D01*
X109293354Y-93033500D01*
X109260897Y-93040398D01*
X109108197Y-93072855D01*
X109108192Y-93072857D01*
X108935270Y-93149848D01*
X108935265Y-93149851D01*
X108782129Y-93261111D01*
X108655466Y-93401785D01*
X108560821Y-93565715D01*
X108560818Y-93565722D01*
X108502327Y-93745740D01*
X108502326Y-93745744D01*
X108482540Y-93934000D01*
X102106313Y-93934000D01*
X102093674Y-93813744D01*
X102035179Y-93633716D01*
X101940533Y-93469784D01*
X101813871Y-93329112D01*
X101813870Y-93329111D01*
X101660734Y-93217851D01*
X101660729Y-93217848D01*
X101487807Y-93140857D01*
X101487802Y-93140855D01*
X101342001Y-93109865D01*
X101302646Y-93101500D01*
X101113354Y-93101500D01*
X101080897Y-93108398D01*
X100928197Y-93140855D01*
X100928192Y-93140857D01*
X100755270Y-93217848D01*
X100755265Y-93217851D01*
X100602129Y-93329111D01*
X100475466Y-93469785D01*
X100380821Y-93633715D01*
X100380818Y-93633722D01*
X100322327Y-93813740D01*
X100322326Y-93813744D01*
X100302540Y-94002000D01*
X99203304Y-94002000D01*
X99184674Y-93824744D01*
X99126179Y-93644716D01*
X99031533Y-93480784D01*
X98904871Y-93340112D01*
X98889731Y-93329112D01*
X98751734Y-93228851D01*
X98751729Y-93228848D01*
X98578807Y-93151857D01*
X98578802Y-93151855D01*
X98429599Y-93120142D01*
X98393646Y-93112500D01*
X98204354Y-93112500D01*
X98171897Y-93119398D01*
X98019197Y-93151855D01*
X98019192Y-93151857D01*
X97846270Y-93228848D01*
X97846265Y-93228851D01*
X97693129Y-93340111D01*
X97566466Y-93480785D01*
X97471821Y-93644715D01*
X97471818Y-93644722D01*
X97416901Y-93813740D01*
X97413326Y-93824744D01*
X97393540Y-94013000D01*
X96039887Y-94013000D01*
X96023674Y-93858744D01*
X95965179Y-93678716D01*
X95870533Y-93514784D01*
X95743871Y-93374112D01*
X95697074Y-93340112D01*
X95590734Y-93262851D01*
X95590729Y-93262848D01*
X95417807Y-93185857D01*
X95417802Y-93185855D01*
X95257844Y-93151856D01*
X95232646Y-93146500D01*
X95043354Y-93146500D01*
X95018156Y-93151856D01*
X94858197Y-93185855D01*
X94858192Y-93185857D01*
X94685270Y-93262848D01*
X94685265Y-93262851D01*
X94532129Y-93374111D01*
X94405466Y-93514785D01*
X94310821Y-93678715D01*
X94310818Y-93678722D01*
X94263373Y-93824744D01*
X94252326Y-93858744D01*
X94232540Y-94047000D01*
X58260500Y-94047000D01*
X58260500Y-90836000D01*
X114948540Y-90836000D01*
X114968326Y-91024256D01*
X114968327Y-91024259D01*
X115026818Y-91204277D01*
X115026821Y-91204284D01*
X115121467Y-91368216D01*
X115203423Y-91459237D01*
X115248129Y-91508888D01*
X115401265Y-91620148D01*
X115401270Y-91620151D01*
X115574192Y-91697142D01*
X115574197Y-91697144D01*
X115759354Y-91736500D01*
X115759355Y-91736500D01*
X115948644Y-91736500D01*
X115948646Y-91736500D01*
X116133803Y-91697144D01*
X116306730Y-91620151D01*
X116388421Y-91560799D01*
X117359339Y-91560799D01*
X117379125Y-91749055D01*
X117379126Y-91749058D01*
X117437617Y-91929076D01*
X117437620Y-91929083D01*
X117532266Y-92093015D01*
X117611716Y-92181253D01*
X117658928Y-92233687D01*
X117812064Y-92344947D01*
X117812069Y-92344950D01*
X117984991Y-92421941D01*
X117984996Y-92421943D01*
X118170153Y-92461299D01*
X118170154Y-92461299D01*
X118359443Y-92461299D01*
X118359445Y-92461299D01*
X118544602Y-92421943D01*
X118717529Y-92344950D01*
X118870670Y-92233687D01*
X118997332Y-92093015D01*
X119091978Y-91929083D01*
X119150473Y-91749055D01*
X119161147Y-91647497D01*
X120814040Y-91647497D01*
X120833826Y-91835753D01*
X120833827Y-91835756D01*
X120892318Y-92015774D01*
X120892321Y-92015781D01*
X120986967Y-92179713D01*
X121035566Y-92233687D01*
X121113629Y-92320385D01*
X121266765Y-92431645D01*
X121266770Y-92431648D01*
X121439692Y-92508639D01*
X121439697Y-92508641D01*
X121624854Y-92547997D01*
X121624855Y-92547997D01*
X121814144Y-92547997D01*
X121814146Y-92547997D01*
X121999303Y-92508641D01*
X122172230Y-92431648D01*
X122270556Y-92360209D01*
X122336359Y-92336731D01*
X122404413Y-92352556D01*
X122450826Y-92398529D01*
X122523967Y-92525213D01*
X122650628Y-92665885D01*
X122650629Y-92665885D01*
X122803765Y-92777145D01*
X122803770Y-92777148D01*
X122976692Y-92854139D01*
X122976697Y-92854141D01*
X123161854Y-92893497D01*
X123161855Y-92893497D01*
X123351144Y-92893497D01*
X123351146Y-92893497D01*
X123536303Y-92854141D01*
X123709230Y-92777148D01*
X123862371Y-92665885D01*
X123989033Y-92525213D01*
X124083679Y-92361281D01*
X124142174Y-92181253D01*
X124161960Y-91992997D01*
X124142174Y-91804741D01*
X124083679Y-91624713D01*
X123989033Y-91460781D01*
X123862371Y-91320109D01*
X123839870Y-91303761D01*
X123709234Y-91208848D01*
X123709229Y-91208845D01*
X123536307Y-91131854D01*
X123536302Y-91131852D01*
X123390501Y-91100862D01*
X123351146Y-91092497D01*
X123161854Y-91092497D01*
X123129397Y-91099395D01*
X122976697Y-91131852D01*
X122976692Y-91131854D01*
X122803770Y-91208845D01*
X122803766Y-91208848D01*
X122705444Y-91280282D01*
X122639638Y-91303761D01*
X122571584Y-91287935D01*
X122525173Y-91241963D01*
X122496623Y-91192514D01*
X122452033Y-91115281D01*
X122325371Y-90974609D01*
X122325370Y-90974608D01*
X122285995Y-90946000D01*
X124707540Y-90946000D01*
X124727326Y-91134256D01*
X124727327Y-91134259D01*
X124785818Y-91314277D01*
X124785821Y-91314284D01*
X124880467Y-91478216D01*
X124977617Y-91586112D01*
X125007129Y-91618888D01*
X125160265Y-91730148D01*
X125160270Y-91730151D01*
X125333192Y-91807142D01*
X125333197Y-91807144D01*
X125518354Y-91846500D01*
X125518355Y-91846500D01*
X125707644Y-91846500D01*
X125707646Y-91846500D01*
X125892803Y-91807144D01*
X126065730Y-91730151D01*
X126218871Y-91618888D01*
X126345533Y-91478216D01*
X126440179Y-91314284D01*
X126498674Y-91134256D01*
X126518460Y-90946000D01*
X126498674Y-90757744D01*
X126440179Y-90577716D01*
X126345533Y-90413784D01*
X126218871Y-90273112D01*
X126218870Y-90273111D01*
X126065734Y-90161851D01*
X126065729Y-90161848D01*
X125892807Y-90084857D01*
X125892802Y-90084855D01*
X125734199Y-90051144D01*
X125707646Y-90045500D01*
X125518354Y-90045500D01*
X125491810Y-90051142D01*
X125333197Y-90084855D01*
X125333192Y-90084857D01*
X125160270Y-90161848D01*
X125160265Y-90161851D01*
X125007129Y-90273111D01*
X124880466Y-90413785D01*
X124785821Y-90577715D01*
X124785818Y-90577722D01*
X124746200Y-90699655D01*
X124727326Y-90757744D01*
X124707540Y-90946000D01*
X122285995Y-90946000D01*
X122172234Y-90863348D01*
X122172229Y-90863345D01*
X121999307Y-90786354D01*
X121999302Y-90786352D01*
X121853500Y-90755362D01*
X121814146Y-90746997D01*
X121624854Y-90746997D01*
X121592397Y-90753895D01*
X121439697Y-90786352D01*
X121439692Y-90786354D01*
X121266770Y-90863345D01*
X121266765Y-90863348D01*
X121113629Y-90974608D01*
X120986966Y-91115282D01*
X120892321Y-91279212D01*
X120892318Y-91279219D01*
X120833827Y-91459237D01*
X120833826Y-91459241D01*
X120814040Y-91647497D01*
X119161147Y-91647497D01*
X119170259Y-91560799D01*
X119150473Y-91372543D01*
X119091978Y-91192515D01*
X118997332Y-91028583D01*
X118870670Y-90887911D01*
X118836862Y-90863348D01*
X118717533Y-90776650D01*
X118717528Y-90776647D01*
X118544606Y-90699656D01*
X118544601Y-90699654D01*
X118398800Y-90668664D01*
X118359445Y-90660299D01*
X118170153Y-90660299D01*
X118137696Y-90667197D01*
X117984996Y-90699654D01*
X117984991Y-90699656D01*
X117812069Y-90776647D01*
X117812064Y-90776650D01*
X117658928Y-90887910D01*
X117532265Y-91028584D01*
X117437620Y-91192514D01*
X117437617Y-91192521D01*
X117380531Y-91368216D01*
X117379125Y-91372543D01*
X117359339Y-91560799D01*
X116388421Y-91560799D01*
X116459871Y-91508888D01*
X116586533Y-91368216D01*
X116681179Y-91204284D01*
X116739674Y-91024256D01*
X116759460Y-90836000D01*
X116739674Y-90647744D01*
X116681179Y-90467716D01*
X116586533Y-90303784D01*
X116459871Y-90163112D01*
X116459870Y-90163111D01*
X116306734Y-90051851D01*
X116306729Y-90051848D01*
X116133807Y-89974857D01*
X116133802Y-89974855D01*
X115988001Y-89943865D01*
X115948646Y-89935500D01*
X115759354Y-89935500D01*
X115726897Y-89942398D01*
X115574197Y-89974855D01*
X115574192Y-89974857D01*
X115401270Y-90051848D01*
X115401265Y-90051851D01*
X115248129Y-90163111D01*
X115121466Y-90303785D01*
X115026821Y-90467715D01*
X115026818Y-90467722D01*
X114968327Y-90647740D01*
X114968326Y-90647744D01*
X114948540Y-90836000D01*
X58260500Y-90836000D01*
X58260500Y-89190000D01*
X109574540Y-89190000D01*
X109594326Y-89378256D01*
X109594327Y-89378259D01*
X109652818Y-89558277D01*
X109652821Y-89558284D01*
X109747467Y-89722216D01*
X109874128Y-89862888D01*
X109874129Y-89862888D01*
X110027265Y-89974148D01*
X110027270Y-89974151D01*
X110200192Y-90051142D01*
X110200197Y-90051144D01*
X110385354Y-90090500D01*
X110385355Y-90090500D01*
X110574644Y-90090500D01*
X110574646Y-90090500D01*
X110759803Y-90051144D01*
X110932730Y-89974151D01*
X111085871Y-89862888D01*
X111212533Y-89722216D01*
X111307179Y-89558284D01*
X111365674Y-89378256D01*
X111385460Y-89190000D01*
X111365674Y-89001744D01*
X111307179Y-88821716D01*
X111212533Y-88657784D01*
X111085871Y-88517112D01*
X111085870Y-88517111D01*
X110932734Y-88405851D01*
X110932729Y-88405848D01*
X110759807Y-88328857D01*
X110759802Y-88328855D01*
X110614001Y-88297865D01*
X110574646Y-88289500D01*
X110385354Y-88289500D01*
X110352897Y-88296398D01*
X110200197Y-88328855D01*
X110200192Y-88328857D01*
X110027270Y-88405848D01*
X110027265Y-88405851D01*
X109874129Y-88517111D01*
X109747466Y-88657785D01*
X109652821Y-88821715D01*
X109652818Y-88821722D01*
X109594327Y-89001740D01*
X109594326Y-89001744D01*
X109574540Y-89190000D01*
X58260500Y-89190000D01*
X58260500Y-78970000D01*
X132066540Y-78970000D01*
X132086326Y-79158256D01*
X132086327Y-79158259D01*
X132144818Y-79338277D01*
X132144821Y-79338284D01*
X132239467Y-79502216D01*
X132366129Y-79642887D01*
X132366129Y-79642888D01*
X132519265Y-79754148D01*
X132519270Y-79754151D01*
X132692192Y-79831142D01*
X132692197Y-79831144D01*
X132877354Y-79870500D01*
X132877355Y-79870500D01*
X133066644Y-79870500D01*
X133066646Y-79870500D01*
X133251803Y-79831144D01*
X133424730Y-79754151D01*
X133577871Y-79642888D01*
X133704533Y-79502216D01*
X133799179Y-79338284D01*
X133857674Y-79158256D01*
X133877460Y-78970000D01*
X133857674Y-78781744D01*
X133799179Y-78601716D01*
X133704533Y-78437784D01*
X133577871Y-78297112D01*
X133577870Y-78297111D01*
X133424734Y-78185851D01*
X133424729Y-78185848D01*
X133251807Y-78108857D01*
X133251802Y-78108855D01*
X133106001Y-78077865D01*
X133066646Y-78069500D01*
X132877354Y-78069500D01*
X132844897Y-78076398D01*
X132692197Y-78108855D01*
X132692192Y-78108857D01*
X132519270Y-78185848D01*
X132519265Y-78185851D01*
X132366129Y-78297111D01*
X132239466Y-78437785D01*
X132144821Y-78601715D01*
X132144818Y-78601722D01*
X132086327Y-78781740D01*
X132086326Y-78781744D01*
X132066540Y-78970000D01*
X58260500Y-78970000D01*
X58260500Y-69920000D01*
X117535040Y-69920000D01*
X117554826Y-70108256D01*
X117554827Y-70108259D01*
X117613318Y-70288277D01*
X117613321Y-70288284D01*
X117707967Y-70452216D01*
X117834628Y-70592887D01*
X117834629Y-70592888D01*
X117987765Y-70704148D01*
X117987770Y-70704151D01*
X118160692Y-70781142D01*
X118160697Y-70781144D01*
X118345854Y-70820500D01*
X118345855Y-70820500D01*
X118535144Y-70820500D01*
X118535146Y-70820500D01*
X118565589Y-70814029D01*
X118635255Y-70819345D01*
X118690988Y-70861482D01*
X118715094Y-70927061D01*
X118714690Y-70948280D01*
X118714325Y-70951744D01*
X118714326Y-70951744D01*
X118694540Y-71140000D01*
X118714326Y-71328256D01*
X118714327Y-71328259D01*
X118772818Y-71508277D01*
X118772821Y-71508284D01*
X118867467Y-71672216D01*
X118994129Y-71812887D01*
X118994129Y-71812888D01*
X119147265Y-71924148D01*
X119147270Y-71924151D01*
X119320192Y-72001142D01*
X119320197Y-72001144D01*
X119505354Y-72040500D01*
X119505355Y-72040500D01*
X119694644Y-72040500D01*
X119694646Y-72040500D01*
X119879803Y-72001144D01*
X120052730Y-71924151D01*
X120205871Y-71812888D01*
X120332533Y-71672216D01*
X120427179Y-71508284D01*
X120485674Y-71328256D01*
X120505460Y-71140000D01*
X120485674Y-70951744D01*
X120427179Y-70771716D01*
X120332533Y-70607784D01*
X120205871Y-70467112D01*
X120185368Y-70452216D01*
X120086566Y-70380432D01*
X120043900Y-70325102D01*
X120037921Y-70255489D01*
X120070527Y-70193694D01*
X120131365Y-70159337D01*
X120133571Y-70158845D01*
X120169803Y-70151144D01*
X120169807Y-70151142D01*
X120169808Y-70151142D01*
X120266130Y-70108256D01*
X120342730Y-70074151D01*
X120495871Y-69962888D01*
X120514462Y-69942240D01*
X120573945Y-69905591D01*
X120643802Y-69906919D01*
X120657045Y-69911931D01*
X120700197Y-69931144D01*
X120885354Y-69970500D01*
X120885355Y-69970500D01*
X121074644Y-69970500D01*
X121074646Y-69970500D01*
X121259803Y-69931144D01*
X121432730Y-69854151D01*
X121585871Y-69742888D01*
X121712533Y-69602216D01*
X121807179Y-69438284D01*
X121865674Y-69258256D01*
X121885460Y-69070000D01*
X121865674Y-68881744D01*
X121807179Y-68701716D01*
X121712533Y-68537784D01*
X121585871Y-68397112D01*
X121575394Y-68389500D01*
X121432734Y-68285851D01*
X121432729Y-68285848D01*
X121259807Y-68208857D01*
X121259802Y-68208855D01*
X121114000Y-68177865D01*
X121074646Y-68169500D01*
X120885354Y-68169500D01*
X120852897Y-68176398D01*
X120700197Y-68208855D01*
X120700192Y-68208857D01*
X120527270Y-68285848D01*
X120527265Y-68285851D01*
X120374135Y-68397106D01*
X120374126Y-68397114D01*
X120355534Y-68417762D01*
X120296047Y-68454409D01*
X120226190Y-68453076D01*
X120212952Y-68448067D01*
X120169802Y-68428855D01*
X120020430Y-68397106D01*
X119984646Y-68389500D01*
X119795354Y-68389500D01*
X119762897Y-68396398D01*
X119610197Y-68428855D01*
X119610192Y-68428857D01*
X119437270Y-68505848D01*
X119437265Y-68505851D01*
X119284129Y-68617111D01*
X119157466Y-68757785D01*
X119062821Y-68921715D01*
X119062818Y-68921722D01*
X119023161Y-69043775D01*
X118983723Y-69101451D01*
X118919365Y-69128649D01*
X118854794Y-69118736D01*
X118720306Y-69058857D01*
X118720302Y-69058855D01*
X118574501Y-69027865D01*
X118535146Y-69019500D01*
X118345854Y-69019500D01*
X118313397Y-69026398D01*
X118160697Y-69058855D01*
X118160692Y-69058857D01*
X117987770Y-69135848D01*
X117987765Y-69135851D01*
X117834629Y-69247111D01*
X117707966Y-69387785D01*
X117613321Y-69551715D01*
X117613318Y-69551722D01*
X117596912Y-69602216D01*
X117554826Y-69731744D01*
X117535040Y-69920000D01*
X58260500Y-69920000D01*
X58260500Y-66230000D01*
X115474540Y-66230000D01*
X115494326Y-66418256D01*
X115494327Y-66418259D01*
X115552818Y-66598277D01*
X115552821Y-66598284D01*
X115647467Y-66762216D01*
X115691876Y-66811537D01*
X115774129Y-66902888D01*
X115927265Y-67014148D01*
X115927270Y-67014151D01*
X116100192Y-67091142D01*
X116100197Y-67091144D01*
X116285354Y-67130500D01*
X116285355Y-67130500D01*
X116474644Y-67130500D01*
X116474646Y-67130500D01*
X116586697Y-67106683D01*
X122109521Y-67106683D01*
X122129307Y-67294939D01*
X122129308Y-67294942D01*
X122187799Y-67474960D01*
X122187802Y-67474967D01*
X122282448Y-67638899D01*
X122309772Y-67669245D01*
X122409110Y-67779571D01*
X122562246Y-67890831D01*
X122562251Y-67890834D01*
X122735173Y-67967825D01*
X122735178Y-67967827D01*
X122920335Y-68007183D01*
X122920336Y-68007183D01*
X123109625Y-68007183D01*
X123109627Y-68007183D01*
X123294784Y-67967827D01*
X123467711Y-67890834D01*
X123620852Y-67779571D01*
X123747514Y-67638899D01*
X123842160Y-67474967D01*
X123900655Y-67294939D01*
X123920441Y-67106683D01*
X123900655Y-66918427D01*
X123842160Y-66738399D01*
X123840376Y-66735309D01*
X123839888Y-66733299D01*
X123839519Y-66732469D01*
X123839670Y-66732401D01*
X123823903Y-66667412D01*
X123840375Y-66611311D01*
X123852679Y-66590000D01*
X155724356Y-66590000D01*
X155744884Y-66811535D01*
X155744885Y-66811537D01*
X155805769Y-67025523D01*
X155805775Y-67025538D01*
X155904938Y-67224683D01*
X155904943Y-67224691D01*
X156039020Y-67402238D01*
X156203437Y-67552123D01*
X156203439Y-67552125D01*
X156392595Y-67669245D01*
X156392596Y-67669245D01*
X156392599Y-67669247D01*
X156600060Y-67749618D01*
X156818757Y-67790500D01*
X156818759Y-67790500D01*
X157041241Y-67790500D01*
X157041243Y-67790500D01*
X157259940Y-67749618D01*
X157467401Y-67669247D01*
X157656562Y-67552124D01*
X157820981Y-67402236D01*
X157831046Y-67388906D01*
X157887153Y-67347271D01*
X157956865Y-67342578D01*
X158018047Y-67376319D01*
X158028948Y-67388900D01*
X158039019Y-67402236D01*
X158039022Y-67402239D01*
X158039025Y-67402242D01*
X158203437Y-67552123D01*
X158203439Y-67552125D01*
X158392595Y-67669245D01*
X158392596Y-67669245D01*
X158392599Y-67669247D01*
X158600060Y-67749618D01*
X158818757Y-67790500D01*
X158818759Y-67790500D01*
X159041241Y-67790500D01*
X159041243Y-67790500D01*
X159259940Y-67749618D01*
X159467401Y-67669247D01*
X159656562Y-67552124D01*
X159796282Y-67424751D01*
X159820979Y-67402238D01*
X159820982Y-67402235D01*
X159955058Y-67224689D01*
X160054229Y-67025528D01*
X160115115Y-66811536D01*
X160135643Y-66590000D01*
X160115115Y-66368464D01*
X160054229Y-66154472D01*
X160054224Y-66154461D01*
X159955061Y-65955316D01*
X159955056Y-65955308D01*
X159820979Y-65777761D01*
X159656562Y-65627876D01*
X159656560Y-65627874D01*
X159467404Y-65510754D01*
X159467398Y-65510752D01*
X159259940Y-65430382D01*
X159041243Y-65389500D01*
X158818757Y-65389500D01*
X158600060Y-65430382D01*
X158468864Y-65481207D01*
X158392601Y-65510752D01*
X158392595Y-65510754D01*
X158203439Y-65627874D01*
X158203437Y-65627876D01*
X158039019Y-65777762D01*
X158028953Y-65791093D01*
X157972844Y-65832728D01*
X157903132Y-65837419D01*
X157841950Y-65803676D01*
X157831047Y-65791093D01*
X157826800Y-65785470D01*
X157820981Y-65777764D01*
X157715531Y-65681633D01*
X157679253Y-65621927D01*
X157681013Y-65552079D01*
X157715531Y-65498366D01*
X157820981Y-65402236D01*
X157955058Y-65224689D01*
X158054229Y-65025528D01*
X158115115Y-64811536D01*
X158135643Y-64590000D01*
X158115115Y-64368464D01*
X158054229Y-64154472D01*
X157955060Y-63955316D01*
X157952503Y-63950179D01*
X157954794Y-63949038D01*
X157939131Y-63892219D01*
X157959927Y-63825515D01*
X158013484Y-63780644D01*
X158082798Y-63771851D01*
X158106449Y-63778098D01*
X158122517Y-63784091D01*
X158122516Y-63784091D01*
X158129444Y-63784835D01*
X158182127Y-63790500D01*
X159677872Y-63790499D01*
X159737483Y-63784091D01*
X159872331Y-63733796D01*
X159987546Y-63647546D01*
X160073796Y-63532331D01*
X160124091Y-63397483D01*
X160130500Y-63337873D01*
X160130499Y-61842128D01*
X160124091Y-61782517D01*
X160122318Y-61777764D01*
X160073797Y-61647671D01*
X160073793Y-61647664D01*
X159987547Y-61532455D01*
X159987544Y-61532452D01*
X159872335Y-61446206D01*
X159872328Y-61446202D01*
X159737482Y-61395908D01*
X159737483Y-61395908D01*
X159677883Y-61389501D01*
X159677881Y-61389500D01*
X159677873Y-61389500D01*
X159677864Y-61389500D01*
X158182129Y-61389500D01*
X158182123Y-61389501D01*
X158122516Y-61395908D01*
X157987671Y-61446202D01*
X157987664Y-61446206D01*
X157872455Y-61532452D01*
X157872452Y-61532455D01*
X157823298Y-61598117D01*
X157767364Y-61639988D01*
X157697673Y-61644972D01*
X157658755Y-61629233D01*
X157467404Y-61510754D01*
X157467398Y-61510752D01*
X157259940Y-61430382D01*
X157041243Y-61389500D01*
X156818757Y-61389500D01*
X156600060Y-61430382D01*
X156559219Y-61446204D01*
X156392601Y-61510752D01*
X156392595Y-61510754D01*
X156203439Y-61627874D01*
X156203437Y-61627876D01*
X156039020Y-61777761D01*
X155904943Y-61955308D01*
X155904938Y-61955316D01*
X155805775Y-62154461D01*
X155805769Y-62154476D01*
X155744885Y-62368462D01*
X155744884Y-62368464D01*
X155724356Y-62589999D01*
X155724356Y-62590000D01*
X155744884Y-62811535D01*
X155744885Y-62811537D01*
X155805769Y-63025523D01*
X155805775Y-63025538D01*
X155904938Y-63224683D01*
X155904943Y-63224691D01*
X156039018Y-63402235D01*
X156144465Y-63498363D01*
X156180746Y-63558075D01*
X156178985Y-63627922D01*
X156144465Y-63681637D01*
X156039018Y-63777764D01*
X155904943Y-63955308D01*
X155904938Y-63955316D01*
X155805775Y-64154461D01*
X155805769Y-64154476D01*
X155744885Y-64368462D01*
X155744884Y-64368464D01*
X155724356Y-64589999D01*
X155724356Y-64590000D01*
X155744884Y-64811535D01*
X155744885Y-64811537D01*
X155805769Y-65025523D01*
X155805775Y-65025538D01*
X155904938Y-65224683D01*
X155904943Y-65224691D01*
X156039018Y-65402235D01*
X156144465Y-65498363D01*
X156180746Y-65558075D01*
X156178985Y-65627922D01*
X156144465Y-65681637D01*
X156039018Y-65777764D01*
X155904943Y-65955308D01*
X155904938Y-65955316D01*
X155805775Y-66154461D01*
X155805769Y-66154476D01*
X155744885Y-66368462D01*
X155744884Y-66368464D01*
X155724356Y-66589999D01*
X155724356Y-66590000D01*
X123852679Y-66590000D01*
X123917179Y-66478284D01*
X123975674Y-66298256D01*
X123995460Y-66110000D01*
X123975674Y-65921744D01*
X123917179Y-65741716D01*
X123822533Y-65577784D01*
X123695871Y-65437112D01*
X123686608Y-65430382D01*
X123542734Y-65325851D01*
X123542729Y-65325848D01*
X123369807Y-65248857D01*
X123369802Y-65248855D01*
X123224000Y-65217865D01*
X123184646Y-65209500D01*
X122995354Y-65209500D01*
X122962897Y-65216398D01*
X122810197Y-65248855D01*
X122810192Y-65248857D01*
X122637270Y-65325848D01*
X122637265Y-65325851D01*
X122484129Y-65437111D01*
X122357466Y-65577785D01*
X122262821Y-65741715D01*
X122262818Y-65741722D01*
X122223830Y-65861716D01*
X122204326Y-65921744D01*
X122184540Y-66110000D01*
X122204326Y-66298256D01*
X122204327Y-66298259D01*
X122262820Y-66478284D01*
X122264603Y-66481371D01*
X122265091Y-66483386D01*
X122265464Y-66484222D01*
X122265311Y-66484290D01*
X122281077Y-66549271D01*
X122264604Y-66605372D01*
X122187804Y-66738393D01*
X122187799Y-66738405D01*
X122134356Y-66902888D01*
X122129307Y-66918427D01*
X122109521Y-67106683D01*
X116586697Y-67106683D01*
X116659803Y-67091144D01*
X116832730Y-67014151D01*
X116985871Y-66902888D01*
X117112533Y-66762216D01*
X117207179Y-66598284D01*
X117265674Y-66418256D01*
X117285460Y-66230000D01*
X117265674Y-66041744D01*
X117207179Y-65861716D01*
X117112533Y-65697784D01*
X116985871Y-65557112D01*
X116978944Y-65552079D01*
X116832734Y-65445851D01*
X116832729Y-65445848D01*
X116659807Y-65368857D01*
X116659802Y-65368855D01*
X116514001Y-65337865D01*
X116474646Y-65329500D01*
X116285354Y-65329500D01*
X116252897Y-65336398D01*
X116100197Y-65368855D01*
X116100192Y-65368857D01*
X115927270Y-65445848D01*
X115927265Y-65445851D01*
X115774129Y-65557111D01*
X115647466Y-65697785D01*
X115552821Y-65861715D01*
X115552818Y-65861722D01*
X115522408Y-65955316D01*
X115494326Y-66041744D01*
X115474540Y-66230000D01*
X58260500Y-66230000D01*
X58260500Y-62780000D01*
X119134540Y-62780000D01*
X119154326Y-62968256D01*
X119154327Y-62968259D01*
X119212818Y-63148277D01*
X119212821Y-63148284D01*
X119307467Y-63312216D01*
X119330561Y-63337864D01*
X119434129Y-63452888D01*
X119587265Y-63564148D01*
X119587270Y-63564151D01*
X119760192Y-63641142D01*
X119760197Y-63641144D01*
X119945354Y-63680500D01*
X119945355Y-63680500D01*
X120134644Y-63680500D01*
X120134646Y-63680500D01*
X120319803Y-63641144D01*
X120408696Y-63601566D01*
X120437807Y-63588605D01*
X120507057Y-63579320D01*
X120561128Y-63601566D01*
X120647265Y-63664148D01*
X120647270Y-63664151D01*
X120820192Y-63741142D01*
X120820197Y-63741144D01*
X121005354Y-63780500D01*
X121005355Y-63780500D01*
X121194644Y-63780500D01*
X121194646Y-63780500D01*
X121379803Y-63741144D01*
X121552730Y-63664151D01*
X121705871Y-63552888D01*
X121832533Y-63412216D01*
X121927179Y-63248284D01*
X121985674Y-63068256D01*
X122005460Y-62880000D01*
X121985674Y-62691744D01*
X121927179Y-62511716D01*
X121832533Y-62347784D01*
X121705871Y-62207112D01*
X121705870Y-62207111D01*
X121552734Y-62095851D01*
X121552729Y-62095848D01*
X121379807Y-62018857D01*
X121379802Y-62018855D01*
X121234001Y-61987865D01*
X121194646Y-61979500D01*
X121005354Y-61979500D01*
X120972897Y-61986398D01*
X120820197Y-62018855D01*
X120820192Y-62018857D01*
X120702193Y-62071395D01*
X120632943Y-62080680D01*
X120578872Y-62058434D01*
X120492734Y-61995851D01*
X120492729Y-61995848D01*
X120319807Y-61918857D01*
X120319802Y-61918855D01*
X120174000Y-61887865D01*
X120134646Y-61879500D01*
X119945354Y-61879500D01*
X119912897Y-61886398D01*
X119760197Y-61918855D01*
X119760192Y-61918857D01*
X119587270Y-61995848D01*
X119587265Y-61995851D01*
X119434129Y-62107111D01*
X119307466Y-62247785D01*
X119212821Y-62411715D01*
X119212818Y-62411722D01*
X119154327Y-62591740D01*
X119154326Y-62591744D01*
X119134540Y-62780000D01*
X58260500Y-62780000D01*
X58260500Y-57460000D01*
X116934540Y-57460000D01*
X116954326Y-57648256D01*
X116954327Y-57648259D01*
X117012818Y-57828277D01*
X117012821Y-57828284D01*
X117107467Y-57992216D01*
X117234128Y-58132887D01*
X117234129Y-58132888D01*
X117387265Y-58244148D01*
X117387270Y-58244151D01*
X117560192Y-58321142D01*
X117560197Y-58321144D01*
X117745354Y-58360500D01*
X117745355Y-58360500D01*
X117934644Y-58360500D01*
X117934646Y-58360500D01*
X118119803Y-58321144D01*
X118292730Y-58244151D01*
X118445871Y-58132888D01*
X118572533Y-57992216D01*
X118667179Y-57828284D01*
X118725674Y-57648256D01*
X118742307Y-57490000D01*
X128314540Y-57490000D01*
X128334326Y-57678256D01*
X128334327Y-57678259D01*
X128392818Y-57858277D01*
X128392821Y-57858284D01*
X128487467Y-58022216D01*
X128587117Y-58132888D01*
X128614129Y-58162888D01*
X128767265Y-58274148D01*
X128767270Y-58274151D01*
X128940192Y-58351142D01*
X128940197Y-58351144D01*
X129125354Y-58390500D01*
X129125355Y-58390500D01*
X129314644Y-58390500D01*
X129314646Y-58390500D01*
X129499803Y-58351144D01*
X129672730Y-58274151D01*
X129825871Y-58162888D01*
X129952533Y-58022216D01*
X130047179Y-57858284D01*
X130105674Y-57678256D01*
X130125460Y-57490000D01*
X130105674Y-57301744D01*
X130047179Y-57121716D01*
X129952533Y-56957784D01*
X129825871Y-56817112D01*
X129825870Y-56817111D01*
X129672734Y-56705851D01*
X129672729Y-56705848D01*
X129499807Y-56628857D01*
X129499802Y-56628855D01*
X129354000Y-56597865D01*
X129314646Y-56589500D01*
X129125354Y-56589500D01*
X129092897Y-56596398D01*
X128940197Y-56628855D01*
X128940192Y-56628857D01*
X128767270Y-56705848D01*
X128767265Y-56705851D01*
X128614129Y-56817111D01*
X128487466Y-56957785D01*
X128392821Y-57121715D01*
X128392818Y-57121722D01*
X128334327Y-57301740D01*
X128334326Y-57301744D01*
X128314540Y-57490000D01*
X118742307Y-57490000D01*
X118745460Y-57460000D01*
X118725674Y-57271744D01*
X118667179Y-57091716D01*
X118572533Y-56927784D01*
X118445871Y-56787112D01*
X118445870Y-56787111D01*
X118292734Y-56675851D01*
X118292729Y-56675848D01*
X118119807Y-56598857D01*
X118119802Y-56598855D01*
X117974001Y-56567865D01*
X117934646Y-56559500D01*
X117745354Y-56559500D01*
X117712897Y-56566398D01*
X117560197Y-56598855D01*
X117560192Y-56598857D01*
X117387270Y-56675848D01*
X117387265Y-56675851D01*
X117234129Y-56787111D01*
X117107466Y-56927785D01*
X117012821Y-57091715D01*
X117012818Y-57091722D01*
X116954327Y-57271740D01*
X116954326Y-57271744D01*
X116934540Y-57460000D01*
X58260500Y-57460000D01*
X58260500Y-56198486D01*
X58260890Y-56191540D01*
X58261285Y-56188029D01*
X58263472Y-56168619D01*
X58273933Y-56089163D01*
X58279830Y-56064399D01*
X58291775Y-56030262D01*
X58293001Y-56027047D01*
X58315474Y-55972794D01*
X58325021Y-55954313D01*
X58346922Y-55919459D01*
X58350197Y-55914752D01*
X58387003Y-55866786D01*
X58392323Y-55860718D01*
X58425718Y-55827323D01*
X58431786Y-55822003D01*
X58479752Y-55785197D01*
X58484459Y-55781922D01*
X58519313Y-55760021D01*
X58537794Y-55750474D01*
X58592047Y-55728001D01*
X58595253Y-55726778D01*
X58629402Y-55714829D01*
X58654163Y-55708933D01*
X58701565Y-55702693D01*
X58733646Y-55698470D01*
X58742632Y-55697456D01*
X58756545Y-55695889D01*
X58763481Y-55695500D01*
X60677062Y-55695500D01*
X60701558Y-55702693D01*
X60752162Y-55696031D01*
X60760263Y-55695500D01*
X60816391Y-55695500D01*
X60816393Y-55695500D01*
X60824060Y-55693750D01*
X60847782Y-55695202D01*
X60875048Y-55683909D01*
X60894904Y-55677580D01*
X60926351Y-55670403D01*
X60947986Y-55659983D01*
X60973890Y-55655717D01*
X60992465Y-55641465D01*
X61014152Y-55628120D01*
X61027967Y-55621467D01*
X61057348Y-55598035D01*
X61083902Y-55587194D01*
X61095116Y-55572580D01*
X61111271Y-55556119D01*
X61111222Y-55556070D01*
X61121070Y-55546222D01*
X61121119Y-55546271D01*
X61137580Y-55530116D01*
X61146242Y-55523469D01*
X61146882Y-55518823D01*
X61163036Y-55492348D01*
X61186465Y-55462969D01*
X61186467Y-55462967D01*
X61193120Y-55449152D01*
X61206465Y-55427465D01*
X61214885Y-55416490D01*
X61214692Y-55414672D01*
X61224984Y-55382986D01*
X61235398Y-55361361D01*
X61235403Y-55361351D01*
X61242580Y-55329904D01*
X61248909Y-55310048D01*
X61256028Y-55292860D01*
X61258750Y-55259059D01*
X61260500Y-55251393D01*
X61260500Y-55195261D01*
X61261031Y-55187160D01*
X61266126Y-55148455D01*
X61260500Y-55112061D01*
X61260500Y-55080000D01*
X94074540Y-55080000D01*
X94094326Y-55268256D01*
X94094327Y-55268259D01*
X94152818Y-55448277D01*
X94152821Y-55448284D01*
X94247467Y-55612216D01*
X94344154Y-55719597D01*
X94374129Y-55752888D01*
X94527265Y-55864148D01*
X94527270Y-55864151D01*
X94700192Y-55941142D01*
X94700197Y-55941144D01*
X94885354Y-55980500D01*
X94885355Y-55980500D01*
X95074644Y-55980500D01*
X95074646Y-55980500D01*
X95259803Y-55941144D01*
X95432730Y-55864151D01*
X95585871Y-55752888D01*
X95712533Y-55612216D01*
X95807179Y-55448284D01*
X95865674Y-55268256D01*
X95885460Y-55080000D01*
X95869695Y-54930000D01*
X102704540Y-54930000D01*
X102724326Y-55118256D01*
X102724327Y-55118259D01*
X102782818Y-55298277D01*
X102782821Y-55298284D01*
X102877467Y-55462216D01*
X102976863Y-55572606D01*
X103004129Y-55602888D01*
X103157265Y-55714148D01*
X103157270Y-55714151D01*
X103330192Y-55791142D01*
X103330197Y-55791144D01*
X103515354Y-55830500D01*
X103515355Y-55830500D01*
X103704644Y-55830500D01*
X103704646Y-55830500D01*
X103889803Y-55791144D01*
X104062730Y-55714151D01*
X104215871Y-55602888D01*
X104342533Y-55462216D01*
X104437179Y-55298284D01*
X104495674Y-55118256D01*
X104515460Y-54930000D01*
X104495674Y-54741744D01*
X104437179Y-54561716D01*
X104342533Y-54397784D01*
X104215871Y-54257112D01*
X104215870Y-54257111D01*
X104062734Y-54145851D01*
X104062729Y-54145848D01*
X103889807Y-54068857D01*
X103889802Y-54068855D01*
X103744000Y-54037865D01*
X103704646Y-54029500D01*
X103515354Y-54029500D01*
X103482897Y-54036398D01*
X103330197Y-54068855D01*
X103330192Y-54068857D01*
X103157270Y-54145848D01*
X103157265Y-54145851D01*
X103004129Y-54257111D01*
X102877466Y-54397785D01*
X102782821Y-54561715D01*
X102782818Y-54561722D01*
X102724327Y-54741740D01*
X102724326Y-54741744D01*
X102704540Y-54930000D01*
X95869695Y-54930000D01*
X95865674Y-54891744D01*
X95807179Y-54711716D01*
X95712533Y-54547784D01*
X95585871Y-54407112D01*
X95585870Y-54407111D01*
X95432734Y-54295851D01*
X95432729Y-54295848D01*
X95259807Y-54218857D01*
X95259802Y-54218855D01*
X95114001Y-54187865D01*
X95074646Y-54179500D01*
X94885354Y-54179500D01*
X94852897Y-54186398D01*
X94700197Y-54218855D01*
X94700192Y-54218857D01*
X94527270Y-54295848D01*
X94527265Y-54295851D01*
X94374129Y-54407111D01*
X94247466Y-54547785D01*
X94152821Y-54711715D01*
X94152818Y-54711722D01*
X94094327Y-54891740D01*
X94094326Y-54891744D01*
X94074540Y-55080000D01*
X61260500Y-55080000D01*
X61260500Y-52540751D01*
X93139929Y-52540751D01*
X93159375Y-52763026D01*
X93159376Y-52763034D01*
X93217125Y-52978555D01*
X93217129Y-52978566D01*
X93311424Y-53180782D01*
X93311426Y-53180786D01*
X93439409Y-53363564D01*
X93597186Y-53521341D01*
X93779964Y-53649324D01*
X93896403Y-53703620D01*
X93982183Y-53743620D01*
X93982185Y-53743620D01*
X93982190Y-53743623D01*
X94197718Y-53801374D01*
X94356490Y-53815264D01*
X94419998Y-53820821D01*
X94420000Y-53820821D01*
X94420002Y-53820821D01*
X94475570Y-53815959D01*
X94642282Y-53801374D01*
X94857810Y-53743623D01*
X95060036Y-53649324D01*
X95242814Y-53521341D01*
X95400591Y-53363564D01*
X95528574Y-53180786D01*
X95577618Y-53075609D01*
X95623790Y-53023170D01*
X95690983Y-53004018D01*
X95757864Y-53024233D01*
X95802381Y-53075609D01*
X95851426Y-53180786D01*
X95979409Y-53363564D01*
X96137186Y-53521341D01*
X96319964Y-53649324D01*
X96436403Y-53703620D01*
X96522183Y-53743620D01*
X96522185Y-53743620D01*
X96522190Y-53743623D01*
X96737718Y-53801374D01*
X96896490Y-53815264D01*
X96959998Y-53820821D01*
X96960000Y-53820821D01*
X96960002Y-53820821D01*
X97015570Y-53815959D01*
X97182282Y-53801374D01*
X97397810Y-53743623D01*
X97600036Y-53649324D01*
X97782814Y-53521341D01*
X97940591Y-53363564D01*
X98068574Y-53180786D01*
X98117618Y-53075609D01*
X98163790Y-53023170D01*
X98230983Y-53004018D01*
X98297864Y-53024233D01*
X98342381Y-53075609D01*
X98391426Y-53180786D01*
X98519409Y-53363564D01*
X98677186Y-53521341D01*
X98859964Y-53649324D01*
X98976403Y-53703620D01*
X99062183Y-53743620D01*
X99062185Y-53743620D01*
X99062190Y-53743623D01*
X99277718Y-53801374D01*
X99436490Y-53815264D01*
X99499998Y-53820821D01*
X99500000Y-53820821D01*
X99500002Y-53820821D01*
X99555570Y-53815959D01*
X99722282Y-53801374D01*
X99937810Y-53743623D01*
X100140036Y-53649324D01*
X100322814Y-53521341D01*
X100480591Y-53363564D01*
X100608574Y-53180786D01*
X100702873Y-52978560D01*
X100760624Y-52763032D01*
X100780071Y-52540751D01*
X104249929Y-52540751D01*
X104269375Y-52763026D01*
X104269376Y-52763034D01*
X104327125Y-52978555D01*
X104327129Y-52978566D01*
X104421424Y-53180782D01*
X104421426Y-53180786D01*
X104549409Y-53363564D01*
X104707186Y-53521341D01*
X104889964Y-53649324D01*
X105006403Y-53703620D01*
X105092183Y-53743620D01*
X105092185Y-53743620D01*
X105092190Y-53743623D01*
X105307718Y-53801374D01*
X105466490Y-53815264D01*
X105529998Y-53820821D01*
X105530000Y-53820821D01*
X105530002Y-53820821D01*
X105585570Y-53815959D01*
X105752282Y-53801374D01*
X105967810Y-53743623D01*
X106170036Y-53649324D01*
X106352814Y-53521341D01*
X106510591Y-53363564D01*
X106638574Y-53180786D01*
X106687618Y-53075609D01*
X106733790Y-53023170D01*
X106800983Y-53004018D01*
X106867864Y-53024233D01*
X106912381Y-53075609D01*
X106961426Y-53180786D01*
X107089409Y-53363564D01*
X107247186Y-53521341D01*
X107429964Y-53649324D01*
X107546403Y-53703620D01*
X107632183Y-53743620D01*
X107632185Y-53743620D01*
X107632190Y-53743623D01*
X107847718Y-53801374D01*
X108006490Y-53815264D01*
X108069998Y-53820821D01*
X108070000Y-53820821D01*
X108070002Y-53820821D01*
X108125570Y-53815959D01*
X108292282Y-53801374D01*
X108507810Y-53743623D01*
X108710036Y-53649324D01*
X108892814Y-53521341D01*
X109050591Y-53363564D01*
X109178574Y-53180786D01*
X109227618Y-53075609D01*
X109273790Y-53023170D01*
X109340983Y-53004018D01*
X109407864Y-53024233D01*
X109452381Y-53075609D01*
X109501426Y-53180786D01*
X109629409Y-53363564D01*
X109787186Y-53521341D01*
X109969964Y-53649324D01*
X110086403Y-53703620D01*
X110172183Y-53743620D01*
X110172185Y-53743620D01*
X110172190Y-53743623D01*
X110387718Y-53801374D01*
X110546490Y-53815264D01*
X110609998Y-53820821D01*
X110610000Y-53820821D01*
X110610002Y-53820821D01*
X110665570Y-53815959D01*
X110832282Y-53801374D01*
X111047810Y-53743623D01*
X111250036Y-53649324D01*
X111432814Y-53521341D01*
X111590591Y-53363564D01*
X111718574Y-53180786D01*
X111812873Y-52978560D01*
X111870624Y-52763032D01*
X111890071Y-52540750D01*
X111887446Y-52510751D01*
X116029929Y-52510751D01*
X116049375Y-52733026D01*
X116049376Y-52733034D01*
X116107125Y-52948555D01*
X116107129Y-52948566D01*
X116152382Y-53045611D01*
X116201426Y-53150786D01*
X116329409Y-53333564D01*
X116487186Y-53491341D01*
X116669964Y-53619324D01*
X116777353Y-53669400D01*
X116872183Y-53713620D01*
X116872185Y-53713620D01*
X116872190Y-53713623D01*
X117087718Y-53771374D01*
X117246490Y-53785264D01*
X117309998Y-53790821D01*
X117310000Y-53790821D01*
X117310002Y-53790821D01*
X117365570Y-53785959D01*
X117532282Y-53771374D01*
X117747810Y-53713623D01*
X117950036Y-53619324D01*
X118132814Y-53491341D01*
X118290591Y-53333564D01*
X118418574Y-53150786D01*
X118467618Y-53045609D01*
X118513790Y-52993170D01*
X118580983Y-52974018D01*
X118647864Y-52994233D01*
X118692381Y-53045609D01*
X118741426Y-53150786D01*
X118741428Y-53150789D01*
X118741430Y-53150792D01*
X118820583Y-53263833D01*
X118842911Y-53330039D01*
X118825901Y-53397806D01*
X118774954Y-53445620D01*
X118752950Y-53453699D01*
X118753023Y-53453922D01*
X118748390Y-53455427D01*
X118508376Y-53554843D01*
X118286859Y-53690588D01*
X118089311Y-53859311D01*
X117920588Y-54056859D01*
X117784843Y-54278376D01*
X117685427Y-54518389D01*
X117624778Y-54771009D01*
X117604396Y-55030000D01*
X117624778Y-55288990D01*
X117685427Y-55541610D01*
X117784843Y-55781623D01*
X117784845Y-55781627D01*
X117784846Y-55781628D01*
X117920588Y-56003140D01*
X118089311Y-56200689D01*
X118286860Y-56369412D01*
X118508372Y-56505154D01*
X118508374Y-56505154D01*
X118508376Y-56505156D01*
X118556656Y-56525154D01*
X118748390Y-56604573D01*
X119001006Y-56665221D01*
X119260000Y-56685604D01*
X119518994Y-56665221D01*
X119771610Y-56604573D01*
X120011628Y-56505154D01*
X120233140Y-56369412D01*
X120430689Y-56200689D01*
X120599412Y-56003140D01*
X120735154Y-55781628D01*
X120834573Y-55541610D01*
X120895221Y-55288994D01*
X120915604Y-55030000D01*
X120895221Y-54771006D01*
X120834573Y-54518390D01*
X120743440Y-54298376D01*
X120735156Y-54278376D01*
X120722125Y-54257112D01*
X120599412Y-54056860D01*
X120430689Y-53859311D01*
X120430687Y-53859309D01*
X120430686Y-53859308D01*
X120416484Y-53847179D01*
X120378290Y-53788673D01*
X120377790Y-53718805D01*
X120415143Y-53659758D01*
X120444606Y-53640508D01*
X120490036Y-53619324D01*
X120672814Y-53491341D01*
X120830591Y-53333564D01*
X120958574Y-53150786D01*
X121007619Y-53045607D01*
X121053788Y-52993171D01*
X121120981Y-52974018D01*
X121187863Y-52994233D01*
X121232381Y-53045609D01*
X121281425Y-53150785D01*
X121302431Y-53180784D01*
X121409409Y-53333564D01*
X121567186Y-53491341D01*
X121749964Y-53619324D01*
X121857353Y-53669400D01*
X121952183Y-53713620D01*
X121952185Y-53713620D01*
X121952190Y-53713623D01*
X122137954Y-53763398D01*
X122197614Y-53799763D01*
X122228143Y-53862610D01*
X122219848Y-53931985D01*
X122200150Y-53963704D01*
X122120590Y-54056856D01*
X121984843Y-54278376D01*
X121885427Y-54518389D01*
X121824778Y-54771009D01*
X121804396Y-55030000D01*
X121824778Y-55288990D01*
X121885427Y-55541610D01*
X121984843Y-55781623D01*
X121984845Y-55781627D01*
X121984846Y-55781628D01*
X122120588Y-56003140D01*
X122289311Y-56200689D01*
X122486860Y-56369412D01*
X122708372Y-56505154D01*
X122708374Y-56505154D01*
X122708376Y-56505156D01*
X122756656Y-56525154D01*
X122948390Y-56604573D01*
X123201006Y-56665221D01*
X123460000Y-56685604D01*
X123718994Y-56665221D01*
X123971610Y-56604573D01*
X124211628Y-56505154D01*
X124433140Y-56369412D01*
X124630689Y-56200689D01*
X124799412Y-56003140D01*
X124935154Y-55781628D01*
X125034573Y-55541610D01*
X125095221Y-55288994D01*
X125115604Y-55030000D01*
X125095221Y-54771006D01*
X125034573Y-54518390D01*
X124943440Y-54298376D01*
X124935156Y-54278376D01*
X124922125Y-54257112D01*
X124799412Y-54056860D01*
X124630689Y-53859311D01*
X124433140Y-53690588D01*
X124211628Y-53554846D01*
X124211627Y-53554845D01*
X124211623Y-53554843D01*
X124019889Y-53475425D01*
X123971610Y-53455427D01*
X123971611Y-53455427D01*
X123810668Y-53416788D01*
X123718994Y-53394779D01*
X123718992Y-53394778D01*
X123718991Y-53394778D01*
X123564449Y-53382616D01*
X123499161Y-53357732D01*
X123457690Y-53301501D01*
X123453203Y-53231776D01*
X123472603Y-53187875D01*
X123498574Y-53150786D01*
X123592873Y-52948560D01*
X123650624Y-52733032D01*
X123670071Y-52510750D01*
X123669196Y-52500751D01*
X128739929Y-52500751D01*
X128759375Y-52723026D01*
X128759376Y-52723034D01*
X128817125Y-52938555D01*
X128817129Y-52938566D01*
X128867044Y-53045609D01*
X128911426Y-53140786D01*
X129039409Y-53323564D01*
X129197186Y-53481341D01*
X129379964Y-53609324D01*
X129465745Y-53649324D01*
X129582183Y-53703620D01*
X129582185Y-53703620D01*
X129582190Y-53703623D01*
X129797718Y-53761374D01*
X129956490Y-53775264D01*
X130019998Y-53780821D01*
X130020000Y-53780821D01*
X130020002Y-53780821D01*
X130075570Y-53775959D01*
X130242282Y-53761374D01*
X130457810Y-53703623D01*
X130660036Y-53609324D01*
X130842814Y-53481341D01*
X131000591Y-53323564D01*
X131128574Y-53140786D01*
X131177618Y-53035609D01*
X131223790Y-52983170D01*
X131290983Y-52964018D01*
X131357864Y-52984233D01*
X131402381Y-53035609D01*
X131451426Y-53140786D01*
X131537585Y-53263833D01*
X131544249Y-53273350D01*
X131566576Y-53339556D01*
X131549566Y-53407324D01*
X131498618Y-53455137D01*
X131471623Y-53465047D01*
X131428394Y-53475425D01*
X131428390Y-53475427D01*
X131188376Y-53574843D01*
X130966859Y-53710588D01*
X130769311Y-53879311D01*
X130600588Y-54076859D01*
X130464843Y-54298376D01*
X130365427Y-54538389D01*
X130304778Y-54791009D01*
X130284396Y-55050000D01*
X130304778Y-55308990D01*
X130365427Y-55561610D01*
X130464843Y-55801623D01*
X130464845Y-55801627D01*
X130464846Y-55801628D01*
X130600588Y-56023140D01*
X130769311Y-56220689D01*
X130966860Y-56389412D01*
X131188372Y-56525154D01*
X131188374Y-56525154D01*
X131188376Y-56525156D01*
X131249693Y-56550554D01*
X131428390Y-56624573D01*
X131681006Y-56685221D01*
X131940000Y-56705604D01*
X132198994Y-56685221D01*
X132451610Y-56624573D01*
X132691628Y-56525154D01*
X132913140Y-56389412D01*
X133110689Y-56220689D01*
X133279412Y-56023140D01*
X133415154Y-55801628D01*
X133514573Y-55561610D01*
X133575221Y-55308994D01*
X133595604Y-55050000D01*
X133575221Y-54791006D01*
X133514573Y-54538390D01*
X133415154Y-54298372D01*
X133279412Y-54076860D01*
X133110689Y-53879311D01*
X133084355Y-53856819D01*
X133046163Y-53798314D01*
X133045664Y-53728447D01*
X133083018Y-53669400D01*
X133112477Y-53650153D01*
X133200036Y-53609324D01*
X133382814Y-53481341D01*
X133540591Y-53323564D01*
X133668574Y-53140786D01*
X133717618Y-53035609D01*
X133763790Y-52983170D01*
X133830983Y-52964018D01*
X133897864Y-52984233D01*
X133942381Y-53035609D01*
X133991426Y-53140786D01*
X134119409Y-53323564D01*
X134277186Y-53481341D01*
X134459964Y-53609324D01*
X134545745Y-53649324D01*
X134662183Y-53703620D01*
X134662185Y-53703620D01*
X134662190Y-53703623D01*
X134844392Y-53752444D01*
X134904051Y-53788808D01*
X134934580Y-53851655D01*
X134926285Y-53921030D01*
X134906588Y-53952749D01*
X134800588Y-54076860D01*
X134664843Y-54298376D01*
X134565427Y-54538389D01*
X134504778Y-54791009D01*
X134484396Y-55049999D01*
X134504778Y-55308990D01*
X134565427Y-55561610D01*
X134664843Y-55801623D01*
X134664845Y-55801627D01*
X134664846Y-55801628D01*
X134800588Y-56023140D01*
X134969311Y-56220689D01*
X135166860Y-56389412D01*
X135388372Y-56525154D01*
X135388374Y-56525154D01*
X135388376Y-56525156D01*
X135449693Y-56550554D01*
X135628390Y-56624573D01*
X135881006Y-56685221D01*
X136140000Y-56705604D01*
X136398994Y-56685221D01*
X136651610Y-56624573D01*
X136891628Y-56525154D01*
X137113140Y-56389412D01*
X137310689Y-56220689D01*
X137479412Y-56023140D01*
X137615154Y-55801628D01*
X137714573Y-55561610D01*
X137775221Y-55308994D01*
X137795604Y-55050000D01*
X137775221Y-54791006D01*
X137714573Y-54538390D01*
X137615154Y-54298372D01*
X137479412Y-54076860D01*
X137310689Y-53879311D01*
X137113140Y-53710588D01*
X136891628Y-53574846D01*
X136891627Y-53574845D01*
X136891623Y-53574843D01*
X136725627Y-53506086D01*
X136651610Y-53475427D01*
X136651611Y-53475427D01*
X136513921Y-53442370D01*
X136398994Y-53414779D01*
X136398992Y-53414778D01*
X136398991Y-53414778D01*
X136252973Y-53403287D01*
X136187685Y-53378403D01*
X136146214Y-53322172D01*
X136141727Y-53252447D01*
X136161126Y-53208548D01*
X136208574Y-53140786D01*
X136302873Y-52938560D01*
X136360624Y-52723032D01*
X136380071Y-52500750D01*
X136360624Y-52278468D01*
X136302873Y-52062940D01*
X136208574Y-51860715D01*
X136208571Y-51860711D01*
X136208571Y-51860710D01*
X136080592Y-51677937D01*
X136045986Y-51643331D01*
X135922814Y-51520159D01*
X135740036Y-51392176D01*
X135732736Y-51388772D01*
X135537816Y-51297879D01*
X135537805Y-51297875D01*
X135322284Y-51240126D01*
X135322276Y-51240125D01*
X135100002Y-51220679D01*
X135099998Y-51220679D01*
X134877723Y-51240125D01*
X134877715Y-51240126D01*
X134662194Y-51297875D01*
X134662188Y-51297878D01*
X134459964Y-51392176D01*
X134459960Y-51392178D01*
X134277184Y-51520159D01*
X134119409Y-51677934D01*
X133991428Y-51860710D01*
X133991428Y-51860711D01*
X133942381Y-51965891D01*
X133896208Y-52018330D01*
X133829014Y-52037481D01*
X133762133Y-52017265D01*
X133717617Y-51965889D01*
X133687227Y-51900718D01*
X133668574Y-51860715D01*
X133668571Y-51860711D01*
X133668571Y-51860710D01*
X133540592Y-51677937D01*
X133505986Y-51643331D01*
X133382814Y-51520159D01*
X133200036Y-51392176D01*
X133192736Y-51388772D01*
X132997816Y-51297879D01*
X132997805Y-51297875D01*
X132782284Y-51240126D01*
X132782276Y-51240125D01*
X132772348Y-51239256D01*
X132770587Y-51239102D01*
X132705519Y-51213651D01*
X132664540Y-51157060D01*
X132660662Y-51087298D01*
X132695116Y-51026514D01*
X132716602Y-51009849D01*
X132913140Y-50889412D01*
X133110689Y-50720689D01*
X133196685Y-50620001D01*
X148257177Y-50620001D01*
X148276443Y-50889382D01*
X148327607Y-51124572D01*
X148333850Y-51153270D01*
X148372899Y-51257963D01*
X148428228Y-51406308D01*
X148428230Y-51406312D01*
X148557652Y-51643331D01*
X148557657Y-51643339D01*
X148719493Y-51859527D01*
X148719509Y-51859545D01*
X148910454Y-52050490D01*
X148910472Y-52050506D01*
X149126660Y-52212342D01*
X149126668Y-52212347D01*
X149363687Y-52341769D01*
X149363691Y-52341771D01*
X149363693Y-52341772D01*
X149616730Y-52436150D01*
X149748676Y-52464853D01*
X149880617Y-52493556D01*
X149880619Y-52493556D01*
X149880623Y-52493557D01*
X150120007Y-52510677D01*
X150149999Y-52512823D01*
X150150000Y-52512823D01*
X150150001Y-52512823D01*
X150179013Y-52510748D01*
X150419377Y-52493557D01*
X150683270Y-52436150D01*
X150936307Y-52341772D01*
X151173337Y-52212344D01*
X151389535Y-52050500D01*
X151580500Y-51859535D01*
X151742344Y-51643337D01*
X151871772Y-51406307D01*
X151966150Y-51153270D01*
X152015309Y-50927288D01*
X152023556Y-50889382D01*
X152023556Y-50889381D01*
X152023557Y-50889377D01*
X152042823Y-50620001D01*
X152457177Y-50620001D01*
X152476443Y-50889382D01*
X152527607Y-51124572D01*
X152533850Y-51153270D01*
X152572899Y-51257963D01*
X152628228Y-51406308D01*
X152628230Y-51406312D01*
X152757652Y-51643331D01*
X152757657Y-51643339D01*
X152919493Y-51859527D01*
X152919509Y-51859545D01*
X153110454Y-52050490D01*
X153110472Y-52050506D01*
X153326660Y-52212342D01*
X153326668Y-52212347D01*
X153563687Y-52341769D01*
X153563691Y-52341771D01*
X153563693Y-52341772D01*
X153816730Y-52436150D01*
X153948676Y-52464853D01*
X154080617Y-52493556D01*
X154080619Y-52493556D01*
X154080623Y-52493557D01*
X154320007Y-52510677D01*
X154349999Y-52512823D01*
X154350000Y-52512823D01*
X154350001Y-52512823D01*
X154379013Y-52510748D01*
X154619377Y-52493557D01*
X154883270Y-52436150D01*
X155136307Y-52341772D01*
X155373337Y-52212344D01*
X155589535Y-52050500D01*
X155780500Y-51859535D01*
X155942344Y-51643337D01*
X156071772Y-51406307D01*
X156166150Y-51153270D01*
X156215309Y-50927288D01*
X156223556Y-50889382D01*
X156223556Y-50889381D01*
X156223557Y-50889377D01*
X156242823Y-50620001D01*
X156657177Y-50620001D01*
X156676443Y-50889382D01*
X156727607Y-51124572D01*
X156733850Y-51153270D01*
X156772899Y-51257963D01*
X156828228Y-51406308D01*
X156828230Y-51406312D01*
X156957652Y-51643331D01*
X156957657Y-51643339D01*
X157119493Y-51859527D01*
X157119509Y-51859545D01*
X157310454Y-52050490D01*
X157310472Y-52050506D01*
X157526660Y-52212342D01*
X157526668Y-52212347D01*
X157763687Y-52341769D01*
X157763691Y-52341771D01*
X157763693Y-52341772D01*
X158016730Y-52436150D01*
X158148676Y-52464853D01*
X158280617Y-52493556D01*
X158280619Y-52493556D01*
X158280623Y-52493557D01*
X158520007Y-52510677D01*
X158549999Y-52512823D01*
X158550000Y-52512823D01*
X158550001Y-52512823D01*
X158579013Y-52510748D01*
X158819377Y-52493557D01*
X159083270Y-52436150D01*
X159336307Y-52341772D01*
X159573337Y-52212344D01*
X159789535Y-52050500D01*
X159980500Y-51859535D01*
X160142344Y-51643337D01*
X160271772Y-51406307D01*
X160366150Y-51153270D01*
X160415309Y-50927288D01*
X160423556Y-50889382D01*
X160423556Y-50889381D01*
X160423557Y-50889377D01*
X160442823Y-50620000D01*
X160423557Y-50350623D01*
X160418925Y-50329332D01*
X160382734Y-50162964D01*
X160366150Y-50086730D01*
X160271772Y-49833693D01*
X160258285Y-49808994D01*
X160142347Y-49596668D01*
X160142342Y-49596660D01*
X159980506Y-49380472D01*
X159980490Y-49380454D01*
X159789545Y-49189509D01*
X159789527Y-49189493D01*
X159573339Y-49027657D01*
X159573331Y-49027652D01*
X159336312Y-48898230D01*
X159336308Y-48898228D01*
X159240377Y-48862448D01*
X159083270Y-48803850D01*
X159083266Y-48803849D01*
X159083263Y-48803848D01*
X158819382Y-48746443D01*
X158550001Y-48727177D01*
X158549999Y-48727177D01*
X158280617Y-48746443D01*
X158016736Y-48803848D01*
X158016731Y-48803849D01*
X158016730Y-48803850D01*
X157955551Y-48826668D01*
X157763691Y-48898228D01*
X157763687Y-48898230D01*
X157526668Y-49027652D01*
X157526660Y-49027657D01*
X157310472Y-49189493D01*
X157310454Y-49189509D01*
X157119509Y-49380454D01*
X157119493Y-49380472D01*
X156957657Y-49596660D01*
X156957652Y-49596668D01*
X156828230Y-49833687D01*
X156828228Y-49833691D01*
X156733848Y-50086736D01*
X156676443Y-50350617D01*
X156657177Y-50619998D01*
X156657177Y-50620001D01*
X156242823Y-50620001D01*
X156242823Y-50620000D01*
X156223557Y-50350623D01*
X156218925Y-50329332D01*
X156182734Y-50162964D01*
X156166150Y-50086730D01*
X156071772Y-49833693D01*
X156058285Y-49808994D01*
X155942347Y-49596668D01*
X155942342Y-49596660D01*
X155780506Y-49380472D01*
X155780490Y-49380454D01*
X155589545Y-49189509D01*
X155589527Y-49189493D01*
X155373339Y-49027657D01*
X155373331Y-49027652D01*
X155136312Y-48898230D01*
X155136308Y-48898228D01*
X155040377Y-48862448D01*
X154883270Y-48803850D01*
X154883266Y-48803849D01*
X154883263Y-48803848D01*
X154619382Y-48746443D01*
X154350001Y-48727177D01*
X154349999Y-48727177D01*
X154080617Y-48746443D01*
X153816736Y-48803848D01*
X153816731Y-48803849D01*
X153816730Y-48803850D01*
X153755551Y-48826668D01*
X153563691Y-48898228D01*
X153563687Y-48898230D01*
X153326668Y-49027652D01*
X153326660Y-49027657D01*
X153110472Y-49189493D01*
X153110454Y-49189509D01*
X152919509Y-49380454D01*
X152919493Y-49380472D01*
X152757657Y-49596660D01*
X152757652Y-49596668D01*
X152628230Y-49833687D01*
X152628228Y-49833691D01*
X152533848Y-50086736D01*
X152476443Y-50350617D01*
X152457177Y-50619998D01*
X152457177Y-50620001D01*
X152042823Y-50620001D01*
X152042823Y-50620000D01*
X152023557Y-50350623D01*
X152018925Y-50329332D01*
X151982734Y-50162964D01*
X151966150Y-50086730D01*
X151871772Y-49833693D01*
X151858285Y-49808994D01*
X151742347Y-49596668D01*
X151742342Y-49596660D01*
X151580506Y-49380472D01*
X151580490Y-49380454D01*
X151389545Y-49189509D01*
X151389527Y-49189493D01*
X151173339Y-49027657D01*
X151173331Y-49027652D01*
X150936312Y-48898230D01*
X150936308Y-48898228D01*
X150840377Y-48862448D01*
X150683270Y-48803850D01*
X150683266Y-48803849D01*
X150683263Y-48803848D01*
X150419382Y-48746443D01*
X150150001Y-48727177D01*
X150149999Y-48727177D01*
X149880617Y-48746443D01*
X149616736Y-48803848D01*
X149616731Y-48803849D01*
X149616730Y-48803850D01*
X149555551Y-48826668D01*
X149363691Y-48898228D01*
X149363687Y-48898230D01*
X149126668Y-49027652D01*
X149126660Y-49027657D01*
X148910472Y-49189493D01*
X148910454Y-49189509D01*
X148719509Y-49380454D01*
X148719493Y-49380472D01*
X148557657Y-49596660D01*
X148557652Y-49596668D01*
X148428230Y-49833687D01*
X148428228Y-49833691D01*
X148333848Y-50086736D01*
X148276443Y-50350617D01*
X148257177Y-50619998D01*
X148257177Y-50620001D01*
X133196685Y-50620001D01*
X133279412Y-50523140D01*
X133415154Y-50301628D01*
X133514573Y-50061610D01*
X133575221Y-49808994D01*
X133595604Y-49550000D01*
X133575221Y-49291006D01*
X133514573Y-49038390D01*
X133443252Y-48866206D01*
X133415156Y-48798376D01*
X133402900Y-48778376D01*
X133279412Y-48576860D01*
X133110689Y-48379311D01*
X132913140Y-48210588D01*
X132691628Y-48074846D01*
X132691627Y-48074845D01*
X132691623Y-48074843D01*
X132525627Y-48006086D01*
X132451610Y-47975427D01*
X132451611Y-47975427D01*
X132313921Y-47942370D01*
X132198994Y-47914779D01*
X132198992Y-47914778D01*
X132198991Y-47914778D01*
X131940000Y-47894396D01*
X131681009Y-47914778D01*
X131428389Y-47975427D01*
X131188376Y-48074843D01*
X130966859Y-48210588D01*
X130769311Y-48379311D01*
X130600588Y-48576859D01*
X130464843Y-48798376D01*
X130365427Y-49038389D01*
X130304778Y-49291009D01*
X130284396Y-49549999D01*
X130304778Y-49808990D01*
X130365427Y-50061610D01*
X130464843Y-50301623D01*
X130464845Y-50301627D01*
X130464846Y-50301628D01*
X130600588Y-50523140D01*
X130769311Y-50720689D01*
X130966860Y-50889412D01*
X131188372Y-51025154D01*
X131188374Y-51025154D01*
X131188376Y-51025156D01*
X131227943Y-51041545D01*
X131428390Y-51124573D01*
X131681006Y-51185221D01*
X131817214Y-51195940D01*
X131882502Y-51220823D01*
X131923973Y-51277054D01*
X131928460Y-51346780D01*
X131894539Y-51407862D01*
X131878609Y-51421133D01*
X131737181Y-51520162D01*
X131579409Y-51677934D01*
X131451428Y-51860710D01*
X131451428Y-51860711D01*
X131402381Y-51965891D01*
X131356208Y-52018330D01*
X131289014Y-52037481D01*
X131222133Y-52017265D01*
X131177617Y-51965889D01*
X131147227Y-51900718D01*
X131128574Y-51860715D01*
X131128571Y-51860711D01*
X131128571Y-51860710D01*
X131000592Y-51677937D01*
X130965986Y-51643331D01*
X130842814Y-51520159D01*
X130660036Y-51392176D01*
X130652736Y-51388772D01*
X130457816Y-51297879D01*
X130457805Y-51297875D01*
X130242284Y-51240126D01*
X130242276Y-51240125D01*
X130020002Y-51220679D01*
X130019998Y-51220679D01*
X129797723Y-51240125D01*
X129797715Y-51240126D01*
X129582194Y-51297875D01*
X129582188Y-51297878D01*
X129379964Y-51392176D01*
X129379960Y-51392178D01*
X129197184Y-51520159D01*
X129039409Y-51677934D01*
X128911428Y-51860710D01*
X128911426Y-51860714D01*
X128817128Y-52062938D01*
X128817125Y-52062944D01*
X128759376Y-52278465D01*
X128759375Y-52278473D01*
X128739929Y-52500748D01*
X128739929Y-52500751D01*
X123669196Y-52500751D01*
X123650624Y-52288468D01*
X123592873Y-52072940D01*
X123498574Y-51870715D01*
X123498572Y-51870712D01*
X123498571Y-51870710D01*
X123370592Y-51687937D01*
X123325986Y-51643331D01*
X123212814Y-51530159D01*
X123030036Y-51402176D01*
X123029749Y-51402042D01*
X122827816Y-51307879D01*
X122827805Y-51307875D01*
X122612284Y-51250126D01*
X122612276Y-51250125D01*
X122390002Y-51230679D01*
X122389998Y-51230679D01*
X122167723Y-51250125D01*
X122167715Y-51250126D01*
X121952194Y-51307875D01*
X121952188Y-51307878D01*
X121749964Y-51402176D01*
X121749960Y-51402178D01*
X121567184Y-51530159D01*
X121409409Y-51687934D01*
X121281428Y-51870710D01*
X121281426Y-51870714D01*
X121232382Y-51975890D01*
X121186209Y-52028329D01*
X121119016Y-52047481D01*
X121052135Y-52027265D01*
X121007618Y-51975890D01*
X120998222Y-51955741D01*
X120958574Y-51870715D01*
X120958572Y-51870712D01*
X120958571Y-51870710D01*
X120830592Y-51687937D01*
X120785986Y-51643331D01*
X120672814Y-51530159D01*
X120490036Y-51402176D01*
X120489749Y-51402042D01*
X120287816Y-51307879D01*
X120287805Y-51307875D01*
X120072284Y-51250126D01*
X120072277Y-51250125D01*
X120038739Y-51247191D01*
X119973670Y-51221737D01*
X119932693Y-51165146D01*
X119928816Y-51095384D01*
X119963270Y-51034600D01*
X120002101Y-51009100D01*
X120011628Y-51005154D01*
X120233140Y-50869412D01*
X120430689Y-50700689D01*
X120599412Y-50503140D01*
X120735154Y-50281628D01*
X120834573Y-50041610D01*
X120895221Y-49788994D01*
X120915604Y-49530000D01*
X120895221Y-49271006D01*
X120834573Y-49018390D01*
X120748078Y-48809573D01*
X120735156Y-48778376D01*
X120703781Y-48727177D01*
X120599412Y-48556860D01*
X120430689Y-48359311D01*
X120233140Y-48190588D01*
X120011628Y-48054846D01*
X120011627Y-48054845D01*
X120011623Y-48054843D01*
X119819894Y-47975427D01*
X119771610Y-47955427D01*
X119771611Y-47955427D01*
X119633921Y-47922370D01*
X119518994Y-47894779D01*
X119518992Y-47894778D01*
X119518991Y-47894778D01*
X119284189Y-47876299D01*
X119260000Y-47874396D01*
X119259999Y-47874396D01*
X119001009Y-47894778D01*
X118748389Y-47955427D01*
X118508376Y-48054843D01*
X118286859Y-48190588D01*
X118089311Y-48359311D01*
X117920588Y-48556859D01*
X117784843Y-48778376D01*
X117685427Y-49018389D01*
X117624778Y-49271009D01*
X117604396Y-49529999D01*
X117624778Y-49788990D01*
X117685427Y-50041610D01*
X117784843Y-50281623D01*
X117784845Y-50281627D01*
X117784846Y-50281628D01*
X117920588Y-50503140D01*
X118089311Y-50700689D01*
X118286860Y-50869412D01*
X118508372Y-51005154D01*
X118508374Y-51005154D01*
X118508376Y-51005156D01*
X118556656Y-51025154D01*
X118748390Y-51104573D01*
X119001006Y-51165221D01*
X119148761Y-51176849D01*
X119214049Y-51201733D01*
X119255520Y-51257963D01*
X119260007Y-51327689D01*
X119226085Y-51388772D01*
X119210156Y-51402042D01*
X119027181Y-51530162D01*
X118869409Y-51687934D01*
X118741428Y-51870710D01*
X118741426Y-51870714D01*
X118692382Y-51975890D01*
X118646209Y-52028329D01*
X118579016Y-52047481D01*
X118512135Y-52027265D01*
X118467618Y-51975890D01*
X118458222Y-51955741D01*
X118418574Y-51870715D01*
X118418572Y-51870712D01*
X118418571Y-51870710D01*
X118290592Y-51687937D01*
X118245986Y-51643331D01*
X118132814Y-51530159D01*
X117950036Y-51402176D01*
X117949749Y-51402042D01*
X117747816Y-51307879D01*
X117747805Y-51307875D01*
X117532284Y-51250126D01*
X117532276Y-51250125D01*
X117310002Y-51230679D01*
X117309998Y-51230679D01*
X117087723Y-51250125D01*
X117087715Y-51250126D01*
X116872194Y-51307875D01*
X116872188Y-51307878D01*
X116669964Y-51402176D01*
X116669960Y-51402178D01*
X116487184Y-51530159D01*
X116329409Y-51687934D01*
X116201428Y-51870710D01*
X116201426Y-51870714D01*
X116107128Y-52072938D01*
X116107125Y-52072944D01*
X116049376Y-52288465D01*
X116049375Y-52288473D01*
X116029929Y-52510748D01*
X116029929Y-52510751D01*
X111887446Y-52510751D01*
X111876500Y-52385637D01*
X111870624Y-52318468D01*
X111812873Y-52102940D01*
X111718574Y-51900715D01*
X111718571Y-51900711D01*
X111718571Y-51900710D01*
X111590592Y-51717937D01*
X111515986Y-51643331D01*
X111432814Y-51560159D01*
X111250036Y-51432176D01*
X111250032Y-51432174D01*
X111047816Y-51337879D01*
X111047805Y-51337875D01*
X110832284Y-51280126D01*
X110832276Y-51280125D01*
X110610002Y-51260679D01*
X110609998Y-51260679D01*
X110387723Y-51280125D01*
X110387715Y-51280126D01*
X110172194Y-51337875D01*
X110172188Y-51337878D01*
X109969964Y-51432176D01*
X109969960Y-51432178D01*
X109787184Y-51560159D01*
X109629409Y-51717934D01*
X109501428Y-51900710D01*
X109501428Y-51900711D01*
X109452381Y-52005891D01*
X109406208Y-52058330D01*
X109339014Y-52077481D01*
X109272133Y-52057265D01*
X109227617Y-52005889D01*
X109213628Y-51975890D01*
X109178574Y-51900715D01*
X109178571Y-51900711D01*
X109178571Y-51900710D01*
X109050592Y-51717937D01*
X108975986Y-51643331D01*
X108892814Y-51560159D01*
X108710036Y-51432176D01*
X108710032Y-51432174D01*
X108507816Y-51337879D01*
X108507805Y-51337875D01*
X108292284Y-51280126D01*
X108292276Y-51280125D01*
X108070002Y-51260679D01*
X108069998Y-51260679D01*
X107847723Y-51280125D01*
X107847715Y-51280126D01*
X107632194Y-51337875D01*
X107632188Y-51337878D01*
X107429964Y-51432176D01*
X107429960Y-51432178D01*
X107247184Y-51560159D01*
X107089409Y-51717934D01*
X106961428Y-51900710D01*
X106961428Y-51900711D01*
X106912381Y-52005891D01*
X106866208Y-52058330D01*
X106799014Y-52077481D01*
X106732133Y-52057265D01*
X106687617Y-52005889D01*
X106673628Y-51975890D01*
X106638574Y-51900715D01*
X106638571Y-51900711D01*
X106638571Y-51900710D01*
X106510592Y-51717937D01*
X106435986Y-51643331D01*
X106352814Y-51560159D01*
X106170036Y-51432176D01*
X106170032Y-51432174D01*
X105967816Y-51337879D01*
X105967805Y-51337875D01*
X105752284Y-51280126D01*
X105752276Y-51280125D01*
X105530002Y-51260679D01*
X105529998Y-51260679D01*
X105307723Y-51280125D01*
X105307715Y-51280126D01*
X105092194Y-51337875D01*
X105092188Y-51337878D01*
X104889964Y-51432176D01*
X104889960Y-51432178D01*
X104707184Y-51560159D01*
X104549409Y-51717934D01*
X104421428Y-51900710D01*
X104421426Y-51900714D01*
X104327128Y-52102938D01*
X104327125Y-52102944D01*
X104269376Y-52318465D01*
X104269375Y-52318473D01*
X104249929Y-52540748D01*
X104249929Y-52540751D01*
X100780071Y-52540751D01*
X100780071Y-52540750D01*
X100777446Y-52510751D01*
X100766500Y-52385637D01*
X100760624Y-52318468D01*
X100702873Y-52102940D01*
X100608574Y-51900715D01*
X100608571Y-51900711D01*
X100608571Y-51900710D01*
X100480592Y-51717937D01*
X100405986Y-51643331D01*
X100322814Y-51560159D01*
X100140036Y-51432176D01*
X100140032Y-51432174D01*
X99937816Y-51337879D01*
X99937805Y-51337875D01*
X99722284Y-51280126D01*
X99722276Y-51280125D01*
X99500002Y-51260679D01*
X99499998Y-51260679D01*
X99277723Y-51280125D01*
X99277715Y-51280126D01*
X99062194Y-51337875D01*
X99062188Y-51337878D01*
X98859964Y-51432176D01*
X98859960Y-51432178D01*
X98677184Y-51560159D01*
X98519409Y-51717934D01*
X98391428Y-51900710D01*
X98391426Y-51900714D01*
X98342382Y-52005890D01*
X98296209Y-52058329D01*
X98229016Y-52077481D01*
X98162135Y-52057265D01*
X98117618Y-52005890D01*
X98068575Y-51900718D01*
X98068574Y-51900715D01*
X98068571Y-51900711D01*
X98068571Y-51900710D01*
X97940592Y-51717937D01*
X97865986Y-51643331D01*
X97782814Y-51560159D01*
X97600036Y-51432176D01*
X97600032Y-51432174D01*
X97397816Y-51337879D01*
X97397805Y-51337875D01*
X97182284Y-51280126D01*
X97182276Y-51280125D01*
X96960002Y-51260679D01*
X96959998Y-51260679D01*
X96737723Y-51280125D01*
X96737715Y-51280126D01*
X96522194Y-51337875D01*
X96522188Y-51337878D01*
X96319964Y-51432176D01*
X96319960Y-51432178D01*
X96137184Y-51560159D01*
X95979409Y-51717934D01*
X95851428Y-51900710D01*
X95851426Y-51900714D01*
X95802382Y-52005890D01*
X95756209Y-52058329D01*
X95689016Y-52077481D01*
X95622135Y-52057265D01*
X95577618Y-52005890D01*
X95528575Y-51900718D01*
X95528574Y-51900715D01*
X95528571Y-51900711D01*
X95528571Y-51900710D01*
X95400592Y-51717937D01*
X95325986Y-51643331D01*
X95242814Y-51560159D01*
X95060036Y-51432176D01*
X95060032Y-51432174D01*
X94857816Y-51337879D01*
X94857805Y-51337875D01*
X94642284Y-51280126D01*
X94642276Y-51280125D01*
X94420002Y-51260679D01*
X94419998Y-51260679D01*
X94197723Y-51280125D01*
X94197715Y-51280126D01*
X93982194Y-51337875D01*
X93982188Y-51337878D01*
X93779964Y-51432176D01*
X93779960Y-51432178D01*
X93597184Y-51560159D01*
X93439409Y-51717934D01*
X93311428Y-51900710D01*
X93311426Y-51900714D01*
X93217128Y-52102938D01*
X93217125Y-52102944D01*
X93159376Y-52318465D01*
X93159375Y-52318473D01*
X93139929Y-52540748D01*
X93139929Y-52540751D01*
X61260500Y-52540751D01*
X61260500Y-51077920D01*
X61267698Y-51053403D01*
X61261032Y-51002836D01*
X61260500Y-50994724D01*
X61260500Y-50970264D01*
X61260495Y-50970241D01*
X61260491Y-50938610D01*
X61258741Y-50930946D01*
X61260190Y-50907229D01*
X61248891Y-50879958D01*
X61242560Y-50860103D01*
X61242556Y-50860085D01*
X61235379Y-50828662D01*
X61224959Y-50807029D01*
X61220691Y-50781127D01*
X61206432Y-50762546D01*
X61193093Y-50740875D01*
X61186437Y-50727055D01*
X61163008Y-50697678D01*
X61152170Y-50671133D01*
X61137553Y-50659916D01*
X61121089Y-50643756D01*
X61121041Y-50643805D01*
X61111195Y-50633959D01*
X61111243Y-50633910D01*
X61095084Y-50617446D01*
X61088434Y-50608781D01*
X61083792Y-50608142D01*
X61057320Y-50591990D01*
X61057292Y-50591968D01*
X61027948Y-50568565D01*
X61027947Y-50568564D01*
X61027883Y-50568533D01*
X61014128Y-50561907D01*
X60992455Y-50548568D01*
X60981471Y-50540139D01*
X60979649Y-50540334D01*
X60947969Y-50530040D01*
X60926343Y-50519623D01*
X60926340Y-50519622D01*
X60926338Y-50519621D01*
X60906804Y-50515159D01*
X60894898Y-50512440D01*
X60875046Y-50506109D01*
X60857854Y-50498986D01*
X60824052Y-50496259D01*
X60816394Y-50494510D01*
X60816395Y-50494510D01*
X60816390Y-50494509D01*
X60816387Y-50494508D01*
X60816382Y-50494508D01*
X60760271Y-50494499D01*
X60752170Y-50493967D01*
X60713504Y-50488869D01*
X60677078Y-50494500D01*
X58763477Y-50494500D01*
X58756546Y-50494111D01*
X58743237Y-50492614D01*
X58733656Y-50491536D01*
X58654158Y-50481083D01*
X58629382Y-50475187D01*
X58595274Y-50463257D01*
X58592022Y-50462016D01*
X58537798Y-50439561D01*
X58519274Y-50429993D01*
X58484465Y-50408124D01*
X58479705Y-50404813D01*
X58431773Y-50368038D01*
X58425674Y-50362690D01*
X58392307Y-50329323D01*
X58386964Y-50323230D01*
X58370386Y-50301623D01*
X58350185Y-50275293D01*
X58346874Y-50270533D01*
X58325005Y-50235724D01*
X58315437Y-50217200D01*
X58301341Y-50183163D01*
X58292977Y-50162964D01*
X58291755Y-50159763D01*
X58279809Y-50125610D01*
X58273916Y-50100845D01*
X58263464Y-50021351D01*
X58260886Y-49998437D01*
X58260500Y-49991539D01*
X58260500Y-47630002D01*
X69444723Y-47630002D01*
X69463793Y-47847975D01*
X69463793Y-47847979D01*
X69520422Y-48059322D01*
X69520424Y-48059326D01*
X69520425Y-48059330D01*
X69566661Y-48158484D01*
X69612897Y-48257638D01*
X69612898Y-48257639D01*
X69738402Y-48436877D01*
X69893123Y-48591598D01*
X70072361Y-48717102D01*
X70270670Y-48809575D01*
X70482023Y-48866207D01*
X70664926Y-48882208D01*
X70699998Y-48885277D01*
X70700000Y-48885277D01*
X70700002Y-48885277D01*
X70728254Y-48882805D01*
X70917977Y-48866207D01*
X71129330Y-48809575D01*
X71327639Y-48717102D01*
X71506877Y-48591598D01*
X71612318Y-48486156D01*
X71673642Y-48452671D01*
X71743334Y-48457655D01*
X71787681Y-48486156D01*
X71893123Y-48591598D01*
X72072361Y-48717102D01*
X72270670Y-48809575D01*
X72482023Y-48866207D01*
X72664926Y-48882208D01*
X72699998Y-48885277D01*
X72700000Y-48885277D01*
X72700002Y-48885277D01*
X72728254Y-48882805D01*
X72917977Y-48866207D01*
X73129330Y-48809575D01*
X73327639Y-48717102D01*
X73506877Y-48591598D01*
X73661598Y-48436877D01*
X73787102Y-48257639D01*
X73879575Y-48059330D01*
X73936207Y-47847977D01*
X73955277Y-47630002D01*
X75444723Y-47630002D01*
X75463793Y-47847975D01*
X75463793Y-47847979D01*
X75520422Y-48059322D01*
X75520424Y-48059326D01*
X75520425Y-48059330D01*
X75566661Y-48158484D01*
X75612897Y-48257638D01*
X75612898Y-48257639D01*
X75738402Y-48436877D01*
X75893123Y-48591598D01*
X76072361Y-48717102D01*
X76270670Y-48809575D01*
X76482023Y-48866207D01*
X76664926Y-48882208D01*
X76699998Y-48885277D01*
X76700000Y-48885277D01*
X76700002Y-48885277D01*
X76728254Y-48882805D01*
X76917977Y-48866207D01*
X77129330Y-48809575D01*
X77327639Y-48717102D01*
X77506877Y-48591598D01*
X77661598Y-48436877D01*
X77787102Y-48257639D01*
X77879575Y-48059330D01*
X77936207Y-47847977D01*
X77955277Y-47630002D01*
X79444723Y-47630002D01*
X79463793Y-47847975D01*
X79463793Y-47847979D01*
X79520422Y-48059322D01*
X79520424Y-48059326D01*
X79520425Y-48059330D01*
X79566661Y-48158484D01*
X79612897Y-48257638D01*
X79612898Y-48257639D01*
X79738402Y-48436877D01*
X79893123Y-48591598D01*
X80072361Y-48717102D01*
X80270670Y-48809575D01*
X80482023Y-48866207D01*
X80664926Y-48882208D01*
X80699998Y-48885277D01*
X80700000Y-48885277D01*
X80700002Y-48885277D01*
X80728254Y-48882805D01*
X80917977Y-48866207D01*
X81129330Y-48809575D01*
X81327639Y-48717102D01*
X81506877Y-48591598D01*
X81612319Y-48486156D01*
X81673642Y-48452671D01*
X81743334Y-48457655D01*
X81787681Y-48486156D01*
X81893123Y-48591598D01*
X82072361Y-48717102D01*
X82270670Y-48809575D01*
X82482023Y-48866207D01*
X82664926Y-48882208D01*
X82699998Y-48885277D01*
X82700000Y-48885277D01*
X82700002Y-48885277D01*
X82728254Y-48882805D01*
X82917977Y-48866207D01*
X83129330Y-48809575D01*
X83327639Y-48717102D01*
X83506877Y-48591598D01*
X83612318Y-48486156D01*
X83673642Y-48452671D01*
X83743334Y-48457655D01*
X83787681Y-48486156D01*
X83893123Y-48591598D01*
X84072361Y-48717102D01*
X84270670Y-48809575D01*
X84482023Y-48866207D01*
X84664926Y-48882208D01*
X84699998Y-48885277D01*
X84700000Y-48885277D01*
X84700002Y-48885277D01*
X84728254Y-48882805D01*
X84917977Y-48866207D01*
X85129330Y-48809575D01*
X85327639Y-48717102D01*
X85506877Y-48591598D01*
X85661598Y-48436877D01*
X85787102Y-48257639D01*
X85879575Y-48059330D01*
X85936207Y-47847977D01*
X85955277Y-47630000D01*
X85936207Y-47412023D01*
X85879575Y-47200670D01*
X85787102Y-47002362D01*
X85787100Y-47002359D01*
X85787099Y-47002357D01*
X85661599Y-46823124D01*
X85661596Y-46823121D01*
X85556154Y-46717679D01*
X85522671Y-46656359D01*
X85527655Y-46586667D01*
X85556156Y-46542319D01*
X85556158Y-46542317D01*
X85661598Y-46436877D01*
X85787102Y-46257639D01*
X85879575Y-46059330D01*
X85936207Y-45847977D01*
X85955277Y-45630000D01*
X85936207Y-45412023D01*
X85879575Y-45200670D01*
X85787102Y-45002362D01*
X85787100Y-45002359D01*
X85787099Y-45002357D01*
X85661599Y-44823124D01*
X85612318Y-44773843D01*
X85506877Y-44668402D01*
X85327639Y-44542898D01*
X85327640Y-44542898D01*
X85327638Y-44542897D01*
X85228484Y-44496661D01*
X85129330Y-44450425D01*
X85129326Y-44450424D01*
X85129322Y-44450422D01*
X84917977Y-44393793D01*
X84700002Y-44374723D01*
X84699998Y-44374723D01*
X84554681Y-44387436D01*
X84482023Y-44393793D01*
X84482020Y-44393793D01*
X84270677Y-44450422D01*
X84270668Y-44450426D01*
X84072361Y-44542898D01*
X84072357Y-44542900D01*
X83893124Y-44668400D01*
X83787680Y-44773844D01*
X83726357Y-44807328D01*
X83656665Y-44802344D01*
X83612318Y-44773843D01*
X83506881Y-44668406D01*
X83506877Y-44668402D01*
X83327639Y-44542898D01*
X83327640Y-44542898D01*
X83327638Y-44542897D01*
X83228484Y-44496661D01*
X83129330Y-44450425D01*
X83129326Y-44450424D01*
X83129322Y-44450422D01*
X82917977Y-44393793D01*
X82700002Y-44374723D01*
X82699998Y-44374723D01*
X82554682Y-44387436D01*
X82482023Y-44393793D01*
X82482020Y-44393793D01*
X82270677Y-44450422D01*
X82270668Y-44450426D01*
X82072361Y-44542898D01*
X82072357Y-44542900D01*
X81893124Y-44668400D01*
X81787680Y-44773844D01*
X81726357Y-44807328D01*
X81656665Y-44802344D01*
X81612318Y-44773843D01*
X81506881Y-44668406D01*
X81506877Y-44668402D01*
X81327639Y-44542898D01*
X81327640Y-44542898D01*
X81327638Y-44542897D01*
X81228484Y-44496661D01*
X81129330Y-44450425D01*
X81129326Y-44450424D01*
X81129322Y-44450422D01*
X80917977Y-44393793D01*
X80700002Y-44374723D01*
X80699998Y-44374723D01*
X80554681Y-44387436D01*
X80482023Y-44393793D01*
X80482020Y-44393793D01*
X80270677Y-44450422D01*
X80270668Y-44450426D01*
X80072361Y-44542898D01*
X80072357Y-44542900D01*
X79893121Y-44668402D01*
X79738402Y-44823121D01*
X79612900Y-45002357D01*
X79612898Y-45002361D01*
X79520426Y-45200668D01*
X79520422Y-45200677D01*
X79463793Y-45412020D01*
X79463793Y-45412024D01*
X79444723Y-45629997D01*
X79444723Y-45630002D01*
X79463793Y-45847975D01*
X79463793Y-45847979D01*
X79520422Y-46059322D01*
X79520424Y-46059326D01*
X79520425Y-46059330D01*
X79566661Y-46158484D01*
X79612897Y-46257638D01*
X79612898Y-46257639D01*
X79738402Y-46436877D01*
X79738406Y-46436881D01*
X79843843Y-46542318D01*
X79877328Y-46603641D01*
X79872344Y-46673333D01*
X79843844Y-46717680D01*
X79738400Y-46823124D01*
X79612900Y-47002357D01*
X79612898Y-47002361D01*
X79520426Y-47200668D01*
X79520422Y-47200677D01*
X79463793Y-47412020D01*
X79463793Y-47412024D01*
X79444723Y-47629997D01*
X79444723Y-47630002D01*
X77955277Y-47630002D01*
X77955277Y-47630000D01*
X77936207Y-47412023D01*
X77879575Y-47200670D01*
X77787102Y-47002362D01*
X77787100Y-47002359D01*
X77787099Y-47002357D01*
X77661597Y-46823121D01*
X77556156Y-46717680D01*
X77522671Y-46656357D01*
X77527655Y-46586665D01*
X77556152Y-46542322D01*
X77661598Y-46436877D01*
X77787102Y-46257639D01*
X77879575Y-46059330D01*
X77936207Y-45847977D01*
X77955277Y-45630000D01*
X77936207Y-45412023D01*
X77879575Y-45200670D01*
X77787102Y-45002362D01*
X77787100Y-45002359D01*
X77787099Y-45002357D01*
X77661599Y-44823124D01*
X77612318Y-44773843D01*
X77506877Y-44668402D01*
X77327639Y-44542898D01*
X77327640Y-44542898D01*
X77327638Y-44542897D01*
X77228484Y-44496661D01*
X77129330Y-44450425D01*
X77129326Y-44450424D01*
X77129322Y-44450422D01*
X76917977Y-44393793D01*
X76700002Y-44374723D01*
X76699998Y-44374723D01*
X76554681Y-44387436D01*
X76482023Y-44393793D01*
X76482020Y-44393793D01*
X76270677Y-44450422D01*
X76270668Y-44450426D01*
X76072361Y-44542898D01*
X76072357Y-44542900D01*
X75893121Y-44668402D01*
X75738402Y-44823121D01*
X75612900Y-45002357D01*
X75612898Y-45002361D01*
X75520426Y-45200668D01*
X75520422Y-45200677D01*
X75463793Y-45412020D01*
X75463793Y-45412024D01*
X75444723Y-45629997D01*
X75444723Y-45630002D01*
X75463793Y-45847975D01*
X75463793Y-45847979D01*
X75520422Y-46059322D01*
X75520424Y-46059326D01*
X75520425Y-46059330D01*
X75566661Y-46158484D01*
X75612897Y-46257638D01*
X75612898Y-46257639D01*
X75738402Y-46436877D01*
X75738406Y-46436881D01*
X75843843Y-46542318D01*
X75877328Y-46603641D01*
X75872344Y-46673333D01*
X75843844Y-46717680D01*
X75738400Y-46823124D01*
X75612900Y-47002357D01*
X75612898Y-47002361D01*
X75520426Y-47200668D01*
X75520422Y-47200677D01*
X75463793Y-47412020D01*
X75463793Y-47412024D01*
X75444723Y-47629997D01*
X75444723Y-47630002D01*
X73955277Y-47630002D01*
X73955277Y-47630000D01*
X73936207Y-47412023D01*
X73879575Y-47200670D01*
X73787102Y-47002362D01*
X73787100Y-47002359D01*
X73787099Y-47002357D01*
X73661597Y-46823121D01*
X73556156Y-46717680D01*
X73522671Y-46656357D01*
X73527655Y-46586665D01*
X73556152Y-46542322D01*
X73661598Y-46436877D01*
X73787102Y-46257639D01*
X73879575Y-46059330D01*
X73936207Y-45847977D01*
X73955277Y-45630000D01*
X73936207Y-45412023D01*
X73879575Y-45200670D01*
X73787102Y-45002362D01*
X73787100Y-45002359D01*
X73787099Y-45002357D01*
X73661599Y-44823124D01*
X73612318Y-44773843D01*
X73506877Y-44668402D01*
X73327639Y-44542898D01*
X73327640Y-44542898D01*
X73327638Y-44542897D01*
X73228484Y-44496661D01*
X73129330Y-44450425D01*
X73129326Y-44450424D01*
X73129322Y-44450422D01*
X72917977Y-44393793D01*
X72700002Y-44374723D01*
X72699998Y-44374723D01*
X72554681Y-44387436D01*
X72482023Y-44393793D01*
X72482020Y-44393793D01*
X72270677Y-44450422D01*
X72270668Y-44450426D01*
X72072361Y-44542898D01*
X72072357Y-44542900D01*
X71893124Y-44668400D01*
X71787680Y-44773844D01*
X71726357Y-44807328D01*
X71656665Y-44802344D01*
X71612318Y-44773843D01*
X71506881Y-44668406D01*
X71506877Y-44668402D01*
X71327639Y-44542898D01*
X71327640Y-44542898D01*
X71327638Y-44542897D01*
X71228484Y-44496661D01*
X71129330Y-44450425D01*
X71129326Y-44450424D01*
X71129322Y-44450422D01*
X70917977Y-44393793D01*
X70700002Y-44374723D01*
X70699998Y-44374723D01*
X70554682Y-44387436D01*
X70482023Y-44393793D01*
X70482020Y-44393793D01*
X70270677Y-44450422D01*
X70270668Y-44450426D01*
X70072361Y-44542898D01*
X70072357Y-44542900D01*
X69893121Y-44668402D01*
X69738402Y-44823121D01*
X69612900Y-45002357D01*
X69612898Y-45002361D01*
X69520426Y-45200668D01*
X69520422Y-45200677D01*
X69463793Y-45412020D01*
X69463793Y-45412024D01*
X69444723Y-45629997D01*
X69444723Y-45630002D01*
X69463793Y-45847975D01*
X69463793Y-45847979D01*
X69520422Y-46059322D01*
X69520424Y-46059326D01*
X69520425Y-46059330D01*
X69566661Y-46158484D01*
X69612897Y-46257638D01*
X69612898Y-46257639D01*
X69738402Y-46436877D01*
X69738406Y-46436881D01*
X69843843Y-46542318D01*
X69877328Y-46603641D01*
X69872344Y-46673333D01*
X69843844Y-46717680D01*
X69738400Y-46823124D01*
X69612900Y-47002357D01*
X69612898Y-47002361D01*
X69520426Y-47200668D01*
X69520422Y-47200677D01*
X69463793Y-47412020D01*
X69463793Y-47412024D01*
X69444723Y-47629997D01*
X69444723Y-47630002D01*
X58260500Y-47630002D01*
X58260500Y-43453062D01*
X148374500Y-43453062D01*
X148414159Y-43716189D01*
X148414161Y-43716195D01*
X148492600Y-43970485D01*
X148608055Y-44210230D01*
X148608057Y-44210233D01*
X148608060Y-44210239D01*
X148757965Y-44430110D01*
X148776812Y-44450422D01*
X148938962Y-44625179D01*
X148938966Y-44625182D01*
X148938967Y-44625183D01*
X149147020Y-44791101D01*
X149377479Y-44924156D01*
X149625195Y-45021377D01*
X149884633Y-45080593D01*
X149884638Y-45080593D01*
X149884641Y-45080594D01*
X150083552Y-45095500D01*
X150083558Y-45095500D01*
X150216448Y-45095500D01*
X150415357Y-45080594D01*
X150415359Y-45080594D01*
X150415361Y-45080593D01*
X150415367Y-45080593D01*
X150674805Y-45021377D01*
X150922521Y-44924156D01*
X151152980Y-44791101D01*
X151361033Y-44625183D01*
X151542035Y-44430110D01*
X151691940Y-44210240D01*
X151807401Y-43970482D01*
X151885839Y-43716194D01*
X151925499Y-43453062D01*
X156774500Y-43453062D01*
X156814159Y-43716189D01*
X156814161Y-43716195D01*
X156892600Y-43970485D01*
X157008055Y-44210230D01*
X157008057Y-44210233D01*
X157008060Y-44210239D01*
X157157965Y-44430110D01*
X157176812Y-44450422D01*
X157338962Y-44625179D01*
X157338966Y-44625182D01*
X157338967Y-44625183D01*
X157547020Y-44791101D01*
X157777479Y-44924156D01*
X158025195Y-45021377D01*
X158284633Y-45080593D01*
X158284638Y-45080593D01*
X158284641Y-45080594D01*
X158483552Y-45095500D01*
X158483558Y-45095500D01*
X158616448Y-45095500D01*
X158815357Y-45080594D01*
X158815359Y-45080594D01*
X158815361Y-45080593D01*
X158815367Y-45080593D01*
X159074805Y-45021377D01*
X159322521Y-44924156D01*
X159552980Y-44791101D01*
X159761033Y-44625183D01*
X159942035Y-44430110D01*
X160091940Y-44210240D01*
X160207401Y-43970482D01*
X160285839Y-43716194D01*
X160325500Y-43453055D01*
X160325500Y-43186945D01*
X160285839Y-42923806D01*
X160207401Y-42669518D01*
X160091940Y-42429761D01*
X159942035Y-42209890D01*
X159867288Y-42129332D01*
X159761037Y-42014820D01*
X159721018Y-41982906D01*
X159552980Y-41848899D01*
X159322521Y-41715844D01*
X159322522Y-41715844D01*
X159074810Y-41618625D01*
X159074805Y-41618623D01*
X159074796Y-41618621D01*
X159074793Y-41618620D01*
X158815358Y-41559405D01*
X158616448Y-41544500D01*
X158616442Y-41544500D01*
X158483558Y-41544500D01*
X158483552Y-41544500D01*
X158284642Y-41559405D01*
X158284640Y-41559405D01*
X158025206Y-41618620D01*
X158025198Y-41618622D01*
X158025195Y-41618623D01*
X158025192Y-41618623D01*
X158025189Y-41618625D01*
X157777478Y-41715844D01*
X157547020Y-41848899D01*
X157338962Y-42014820D01*
X157157965Y-42209889D01*
X157008056Y-42429766D01*
X157008055Y-42429767D01*
X156892600Y-42669514D01*
X156814161Y-42923804D01*
X156814159Y-42923810D01*
X156774500Y-43186937D01*
X156774500Y-43453062D01*
X151925499Y-43453062D01*
X151925500Y-43453055D01*
X151925500Y-43186945D01*
X151885839Y-42923806D01*
X151807401Y-42669518D01*
X151691940Y-42429761D01*
X151542035Y-42209890D01*
X151467288Y-42129332D01*
X151361037Y-42014820D01*
X151321018Y-41982906D01*
X151152980Y-41848899D01*
X150922521Y-41715844D01*
X150922522Y-41715844D01*
X150674810Y-41618625D01*
X150674805Y-41618623D01*
X150674796Y-41618621D01*
X150674793Y-41618620D01*
X150415358Y-41559405D01*
X150216448Y-41544500D01*
X150216442Y-41544500D01*
X150083558Y-41544500D01*
X150083552Y-41544500D01*
X149884642Y-41559405D01*
X149884640Y-41559405D01*
X149625206Y-41618620D01*
X149625198Y-41618622D01*
X149625195Y-41618623D01*
X149625192Y-41618623D01*
X149625189Y-41618625D01*
X149377478Y-41715844D01*
X149147020Y-41848899D01*
X148938962Y-42014820D01*
X148757965Y-42209889D01*
X148608056Y-42429766D01*
X148608055Y-42429767D01*
X148492600Y-42669514D01*
X148414161Y-42923804D01*
X148414159Y-42923810D01*
X148374500Y-43186937D01*
X148374500Y-43453062D01*
X58260500Y-43453062D01*
X58260499Y-34748480D01*
X58260890Y-34741535D01*
X58263470Y-34718645D01*
X58266944Y-34692248D01*
X58273933Y-34639163D01*
X58279830Y-34614399D01*
X58291775Y-34580262D01*
X58293001Y-34577047D01*
X58315474Y-34522794D01*
X58325021Y-34504313D01*
X58346922Y-34469459D01*
X58350197Y-34464752D01*
X58387003Y-34416786D01*
X58392323Y-34410718D01*
X58425718Y-34377323D01*
X58431786Y-34372003D01*
X58479752Y-34335197D01*
X58484459Y-34331922D01*
X58519313Y-34310021D01*
X58537794Y-34300474D01*
X58592047Y-34278001D01*
X58595253Y-34276778D01*
X58629402Y-34264829D01*
X58654163Y-34258933D01*
X58701020Y-34252764D01*
X58733646Y-34248470D01*
X58742632Y-34247456D01*
X58756545Y-34245889D01*
X58763481Y-34245500D01*
X167756511Y-34245500D01*
X167763460Y-34245890D01*
G37*
%TD.AperFunction*%
%TD*%
M02*
