%TF.GenerationSoftware,KiCad,Pcbnew,7.0.6-0*%
%TF.CreationDate,2023-12-09T22:08:44-05:00*%
%TF.ProjectId,bitcrane,62697463-7261-46e6-952e-6b696361645f,rev?*%
%TF.SameCoordinates,Original*%
%TF.FileFunction,Soldermask,Top*%
%TF.FilePolarity,Negative*%
%FSLAX46Y46*%
G04 Gerber Fmt 4.6, Leading zero omitted, Abs format (unit mm)*
G04 Created by KiCad (PCBNEW 7.0.6-0) date 2023-12-09 22:08:44*
%MOMM*%
%LPD*%
G01*
G04 APERTURE LIST*
G04 Aperture macros list*
%AMRoundRect*
0 Rectangle with rounded corners*
0 $1 Rounding radius*
0 $2 $3 $4 $5 $6 $7 $8 $9 X,Y pos of 4 corners*
0 Add a 4 corners polygon primitive as box body*
4,1,4,$2,$3,$4,$5,$6,$7,$8,$9,$2,$3,0*
0 Add four circle primitives for the rounded corners*
1,1,$1+$1,$2,$3*
1,1,$1+$1,$4,$5*
1,1,$1+$1,$6,$7*
1,1,$1+$1,$8,$9*
0 Add four rect primitives between the rounded corners*
20,1,$1+$1,$2,$3,$4,$5,0*
20,1,$1+$1,$4,$5,$6,$7,0*
20,1,$1+$1,$6,$7,$8,$9,0*
20,1,$1+$1,$8,$9,$2,$3,0*%
%AMFreePoly0*
4,1,17,1.395000,0.765000,0.855000,0.765000,0.855000,0.535000,1.395000,0.535000,1.395000,0.115000,0.855000,0.115000,0.855000,-0.115000,1.395000,-0.115000,1.395000,-0.535000,0.855000,-0.535000,0.855000,-0.765000,1.395000,-0.765000,1.395000,-1.185000,-0.855000,-1.185000,-0.855000,1.185000,1.395000,1.185000,1.395000,0.765000,1.395000,0.765000,$1*%
G04 Aperture macros list end*
%ADD10C,0.010000*%
%ADD11C,1.226200*%
%ADD12R,0.700000X0.420000*%
%ADD13FreePoly0,0.000000*%
%ADD14C,1.400000*%
%ADD15C,1.300000*%
%ADD16C,1.549400*%
%ADD17R,0.800000X0.900000*%
%ADD18R,1.473200X0.355600*%
%ADD19RoundRect,0.050000X-0.102500X-0.325000X0.102500X-0.325000X0.102500X0.325000X-0.102500X0.325000X0*%
%ADD20RoundRect,0.050000X-0.325000X0.102500X-0.325000X-0.102500X0.325000X-0.102500X0.325000X0.102500X0*%
%ADD21C,0.500000*%
%ADD22R,2.160000X2.160000*%
%ADD23C,1.500000*%
%ADD24RoundRect,0.250000X-0.450000X0.262500X-0.450000X-0.262500X0.450000X-0.262500X0.450000X0.262500X0*%
%ADD25RoundRect,0.250000X0.262500X0.450000X-0.262500X0.450000X-0.262500X-0.450000X0.262500X-0.450000X0*%
%ADD26RoundRect,0.250000X-0.262500X-0.450000X0.262500X-0.450000X0.262500X0.450000X-0.262500X0.450000X0*%
%ADD27RoundRect,0.250000X0.475000X-0.250000X0.475000X0.250000X-0.475000X0.250000X-0.475000X-0.250000X0*%
%ADD28C,4.000000*%
%ADD29RoundRect,0.250000X-0.475000X0.250000X-0.475000X-0.250000X0.475000X-0.250000X0.475000X0.250000X0*%
%ADD30RoundRect,0.250000X0.250000X0.475000X-0.250000X0.475000X-0.250000X-0.475000X0.250000X-0.475000X0*%
%ADD31R,2.692400X2.692400*%
%ADD32R,0.304800X0.711200*%
%ADD33R,0.711200X0.304800*%
%ADD34RoundRect,0.250000X0.450000X-0.262500X0.450000X0.262500X-0.450000X0.262500X-0.450000X-0.262500X0*%
%ADD35RoundRect,0.250000X-0.250000X-0.475000X0.250000X-0.475000X0.250000X0.475000X-0.250000X0.475000X0*%
%ADD36R,0.952500X0.558800*%
%ADD37C,2.775000*%
%ADD38C,3.050000*%
%ADD39C,0.650000*%
%ADD40R,0.600000X1.150000*%
%ADD41R,0.300000X1.150000*%
%ADD42O,1.000000X2.100000*%
%ADD43O,1.000000X1.800000*%
%ADD44RoundRect,0.250000X-1.050000X-0.550000X1.050000X-0.550000X1.050000X0.550000X-1.050000X0.550000X0*%
%ADD45RoundRect,0.250000X1.050000X0.550000X-1.050000X0.550000X-1.050000X-0.550000X1.050000X-0.550000X0*%
%ADD46RoundRect,0.200000X0.200000X0.275000X-0.200000X0.275000X-0.200000X-0.275000X0.200000X-0.275000X0*%
%ADD47RoundRect,0.102000X-0.600000X-0.900000X0.600000X-0.900000X0.600000X0.900000X-0.600000X0.900000X0*%
%ADD48RoundRect,0.120900X0.116100X-0.391100X0.116100X0.391100X-0.116100X0.391100X-0.116100X-0.391100X0*%
%ADD49RoundRect,0.120900X0.391100X0.116100X-0.391100X0.116100X-0.391100X-0.116100X0.391100X-0.116100X0*%
%ADD50RoundRect,0.120900X-0.116100X0.391100X-0.116100X-0.391100X0.116100X-0.391100X0.116100X0.391100X0*%
%ADD51RoundRect,0.120900X-0.391100X-0.116100X0.391100X-0.116100X0.391100X0.116100X-0.391100X0.116100X0*%
%ADD52RoundRect,0.102000X2.175000X-2.175000X2.175000X2.175000X-2.175000X2.175000X-2.175000X-2.175000X0*%
%ADD53RoundRect,0.200000X-0.200000X-0.275000X0.200000X-0.275000X0.200000X0.275000X-0.200000X0.275000X0*%
G04 APERTURE END LIST*
%TO.C,J14*%
D10*
X143106200Y-50046200D02*
X140653800Y-50046200D01*
X140653800Y-47593800D01*
X143106200Y-47593800D01*
X143106200Y-50046200D01*
G36*
X143106200Y-50046200D02*
G01*
X140653800Y-50046200D01*
X140653800Y-47593800D01*
X143106200Y-47593800D01*
X143106200Y-50046200D01*
G37*
D11*
X142493100Y-54320000D02*
G75*
G03*
X142493100Y-54320000I-613100J0D01*
G01*
X146693100Y-48820000D02*
G75*
G03*
X146693100Y-48820000I-613100J0D01*
G01*
X146693100Y-54320000D02*
G75*
G03*
X146693100Y-54320000I-613100J0D01*
G01*
%TO.C,J15*%
D10*
X132086200Y-50046200D02*
X129633800Y-50046200D01*
X129633800Y-47593800D01*
X132086200Y-47593800D01*
X132086200Y-50046200D01*
G36*
X132086200Y-50046200D02*
G01*
X129633800Y-50046200D01*
X129633800Y-47593800D01*
X132086200Y-47593800D01*
X132086200Y-50046200D01*
G37*
D11*
X131473100Y-54320000D02*
G75*
G03*
X131473100Y-54320000I-613100J0D01*
G01*
X135673100Y-48820000D02*
G75*
G03*
X135673100Y-48820000I-613100J0D01*
G01*
X135673100Y-54320000D02*
G75*
G03*
X135673100Y-54320000I-613100J0D01*
G01*
%TO.C,J17*%
D10*
X121046200Y-50046200D02*
X118593800Y-50046200D01*
X118593800Y-47593800D01*
X121046200Y-47593800D01*
X121046200Y-50046200D01*
G36*
X121046200Y-50046200D02*
G01*
X118593800Y-50046200D01*
X118593800Y-47593800D01*
X121046200Y-47593800D01*
X121046200Y-50046200D01*
G37*
D11*
X120433100Y-54320000D02*
G75*
G03*
X120433100Y-54320000I-613100J0D01*
G01*
X124633100Y-48820000D02*
G75*
G03*
X124633100Y-48820000I-613100J0D01*
G01*
X124633100Y-54320000D02*
G75*
G03*
X124633100Y-54320000I-613100J0D01*
G01*
%TO.C,J16*%
D10*
X109906200Y-50046200D02*
X107453800Y-50046200D01*
X107453800Y-47593800D01*
X109906200Y-47593800D01*
X109906200Y-50046200D01*
G36*
X109906200Y-50046200D02*
G01*
X107453800Y-50046200D01*
X107453800Y-47593800D01*
X109906200Y-47593800D01*
X109906200Y-50046200D01*
G37*
D11*
X109293100Y-54320000D02*
G75*
G03*
X109293100Y-54320000I-613100J0D01*
G01*
X113493100Y-48820000D02*
G75*
G03*
X113493100Y-48820000I-613100J0D01*
G01*
X113493100Y-54320000D02*
G75*
G03*
X113493100Y-54320000I-613100J0D01*
G01*
%TD*%
D12*
%TO.C,Q1*%
X148390000Y-59940000D03*
X148390000Y-60590000D03*
X148390000Y-61240000D03*
X148390000Y-61890000D03*
D13*
X150345000Y-60915000D03*
%TD*%
D14*
%TO.C,J1*%
X160210000Y-78245000D03*
X160210000Y-80245000D03*
X160210000Y-82245000D03*
X158210000Y-78245000D03*
X158210000Y-80245000D03*
X158210000Y-82245000D03*
%TD*%
D15*
%TO.C,J2*%
X80080000Y-42980000D03*
X80080000Y-40980000D03*
X78080000Y-42980000D03*
X78080000Y-40980000D03*
X76080000Y-42980000D03*
X76080000Y-40980000D03*
X74080000Y-42980000D03*
X74080000Y-40980000D03*
X72080000Y-42980000D03*
X72080000Y-40980000D03*
X70080000Y-42980000D03*
X70080000Y-40980000D03*
X68080000Y-42980000D03*
X68080000Y-40980000D03*
X66080000Y-42980000D03*
X66080000Y-40980000D03*
X64080000Y-42980000D03*
X64080000Y-40980000D03*
%TD*%
%TO.C,J10*%
X80080000Y-57010000D03*
X80080000Y-55010000D03*
X78080000Y-57010000D03*
X78080000Y-55010000D03*
X76080000Y-57010000D03*
X76080000Y-55010000D03*
X74080000Y-57010000D03*
X74080000Y-55010000D03*
X72080000Y-57010000D03*
X72080000Y-55010000D03*
X70080000Y-57010000D03*
X70080000Y-55010000D03*
X68080000Y-57010000D03*
X68080000Y-55010000D03*
X66080000Y-57010000D03*
X66080000Y-55010000D03*
X64080000Y-57010000D03*
X64080000Y-55010000D03*
%TD*%
%TO.C,J9*%
X101510000Y-42980000D03*
X101510000Y-40980000D03*
X99510000Y-42980000D03*
X99510000Y-40980000D03*
X97510000Y-42980000D03*
X97510000Y-40980000D03*
X95510000Y-42980000D03*
X95510000Y-40980000D03*
X93510000Y-42980000D03*
X93510000Y-40980000D03*
X91510000Y-42980000D03*
X91510000Y-40980000D03*
X89510000Y-42980000D03*
X89510000Y-40980000D03*
X87510000Y-42980000D03*
X87510000Y-40980000D03*
X85510000Y-42980000D03*
X85510000Y-40980000D03*
%TD*%
D16*
%TO.C,J5*%
X136530000Y-51870750D03*
X133990000Y-51870750D03*
X131450000Y-51870750D03*
X128910000Y-51870750D03*
%TD*%
D17*
%TO.C,D1*%
X143430000Y-63660000D03*
X145330000Y-63660000D03*
X144380000Y-61660000D03*
%TD*%
D18*
%TO.C,U3*%
X98740000Y-100580000D03*
X98740000Y-99930002D03*
X98740000Y-99280000D03*
X98740000Y-98630002D03*
X92847200Y-98630002D03*
X92847200Y-99280000D03*
X92847200Y-99930002D03*
X92847200Y-100580000D03*
%TD*%
D19*
%TO.C,U5*%
X80330000Y-93870000D03*
X79680000Y-93870000D03*
X79030000Y-93870000D03*
X78380000Y-93870000D03*
D20*
X77530000Y-94720000D03*
X77530000Y-95370000D03*
X77530000Y-96020000D03*
X77530000Y-96670000D03*
D19*
X78380000Y-97520000D03*
X79030000Y-97520000D03*
X79680000Y-97520000D03*
X80330000Y-97520000D03*
D20*
X81180000Y-96670000D03*
X81180000Y-96020000D03*
X81180000Y-95370000D03*
X81180000Y-94720000D03*
D21*
X79355000Y-94975000D03*
X80075000Y-95695000D03*
X79355000Y-95695000D03*
D22*
X79355000Y-95695000D03*
D21*
X78635000Y-95695000D03*
X79355000Y-96415000D03*
%TD*%
D23*
%TO.C,TP25*%
X83020000Y-91390000D03*
%TD*%
%TO.C,TP24*%
X103900000Y-95890000D03*
%TD*%
%TO.C,TP23*%
X99530000Y-87340000D03*
%TD*%
%TO.C,TP22*%
X115050000Y-85190000D03*
%TD*%
%TO.C,TP21*%
X114740000Y-82070000D03*
%TD*%
%TO.C,TP13*%
X100010000Y-90880000D03*
%TD*%
%TO.C,TP12*%
X105050000Y-87650000D03*
%TD*%
%TO.C,TP6*%
X128680000Y-95070000D03*
%TD*%
%TO.C,TP5*%
X126010000Y-96710000D03*
%TD*%
D24*
%TO.C,R46*%
X161890000Y-92117500D03*
X161890000Y-93942500D03*
%TD*%
%TO.C,R45*%
X159810000Y-92097500D03*
X159810000Y-93922500D03*
%TD*%
%TO.C,R44*%
X85890000Y-63130000D03*
X85890000Y-64955000D03*
%TD*%
%TO.C,R43*%
X87980000Y-63127500D03*
X87980000Y-64952500D03*
%TD*%
%TO.C,R42*%
X97560000Y-52422500D03*
X97560000Y-54247500D03*
%TD*%
%TO.C,R41*%
X99480000Y-52420000D03*
X99480000Y-54245000D03*
%TD*%
%TO.C,R40*%
X85830000Y-52420000D03*
X85830000Y-54245000D03*
%TD*%
%TO.C,R39*%
X87890000Y-52407500D03*
X87890000Y-54232500D03*
%TD*%
D25*
%TO.C,R38*%
X78682500Y-49650000D03*
X76857500Y-49650000D03*
%TD*%
%TO.C,R37*%
X100252500Y-35500000D03*
X98427500Y-35500000D03*
%TD*%
%TO.C,R36*%
X79195000Y-35500000D03*
X77370000Y-35500000D03*
%TD*%
D26*
%TO.C,R35*%
X65567500Y-35500000D03*
X67392500Y-35500000D03*
%TD*%
%TO.C,R34*%
X86970000Y-35500000D03*
X88795000Y-35500000D03*
%TD*%
%TO.C,R33*%
X65600000Y-49690000D03*
X67425000Y-49690000D03*
%TD*%
%TO.C,R32*%
X71297500Y-61020000D03*
X73122500Y-61020000D03*
%TD*%
D25*
%TO.C,R31*%
X98255000Y-46800000D03*
X96430000Y-46800000D03*
%TD*%
%TO.C,R30*%
X76702500Y-46830000D03*
X74877500Y-46830000D03*
%TD*%
%TO.C,R29*%
X75102500Y-49650000D03*
X73277500Y-49650000D03*
%TD*%
D26*
%TO.C,R28*%
X69090000Y-49650000D03*
X70915000Y-49650000D03*
%TD*%
D25*
%TO.C,R27*%
X76702500Y-61020000D03*
X74877500Y-61020000D03*
%TD*%
%TO.C,R26*%
X96592500Y-35500000D03*
X94767500Y-35500000D03*
%TD*%
D26*
%TO.C,R25*%
X90670000Y-35500000D03*
X92495000Y-35500000D03*
%TD*%
%TO.C,R24*%
X92880000Y-46830000D03*
X94705000Y-46830000D03*
%TD*%
D27*
%TO.C,C21*%
X85120000Y-94610000D03*
X85120000Y-92710000D03*
%TD*%
D28*
%TO.C,H4*%
X63160000Y-127445000D03*
%TD*%
%TO.C,H3*%
X63160000Y-80245000D03*
%TD*%
%TO.C,H2*%
X163360000Y-128245000D03*
%TD*%
%TO.C,H1*%
X163360000Y-67365000D03*
%TD*%
D26*
%TO.C,R16*%
X120752500Y-57170000D03*
X118927500Y-57170000D03*
%TD*%
D29*
%TO.C,C4*%
X141060000Y-63600000D03*
X141060000Y-61700000D03*
%TD*%
%TO.C,C3*%
X153190000Y-64140000D03*
X153190000Y-62240000D03*
%TD*%
D30*
%TO.C,C20*%
X124920000Y-66140000D03*
X126820000Y-66140000D03*
%TD*%
D24*
%TO.C,R10*%
X147130000Y-65492500D03*
X147130000Y-63667500D03*
%TD*%
D26*
%TO.C,R15*%
X107412500Y-57170000D03*
X105587500Y-57170000D03*
%TD*%
%TO.C,R13*%
X142512500Y-57270000D03*
X140687500Y-57270000D03*
%TD*%
%TO.C,R14*%
X132042500Y-57180000D03*
X130217500Y-57180000D03*
%TD*%
D23*
%TO.C,TP1*%
X137930000Y-59300000D03*
%TD*%
D16*
%TO.C,J4*%
X147580000Y-51870750D03*
X145040000Y-51870750D03*
X142500000Y-51870750D03*
X139960000Y-51870750D03*
%TD*%
D29*
%TO.C,C5*%
X138530000Y-61680000D03*
X138530000Y-63580000D03*
%TD*%
D31*
%TO.C,U4*%
X131310000Y-65200000D03*
D32*
X130335001Y-63250799D03*
X130984999Y-63250799D03*
X131635001Y-63250799D03*
X132284999Y-63250799D03*
D33*
X133259201Y-64225001D03*
X133259201Y-64874999D03*
X133259201Y-65525001D03*
X133259201Y-66174999D03*
D32*
X132284999Y-67149201D03*
X131635001Y-67149201D03*
X130984999Y-67149201D03*
X130335001Y-67149201D03*
D33*
X129360799Y-66174999D03*
X129360799Y-65525001D03*
X129360799Y-64874999D03*
X129360799Y-64225001D03*
%TD*%
D16*
%TO.C,J7*%
X117890000Y-51870750D03*
X120430000Y-51870750D03*
X122970000Y-51870750D03*
X125510000Y-51870750D03*
%TD*%
%TO.C,J6*%
X106780000Y-51870750D03*
X109320000Y-51870750D03*
X111860000Y-51870750D03*
X114400000Y-51870750D03*
%TD*%
D24*
%TO.C,R5*%
X118360000Y-127837500D03*
X118360000Y-129662500D03*
%TD*%
D26*
%TO.C,R21*%
X128585000Y-106060000D03*
X126760000Y-106060000D03*
%TD*%
%TO.C,R20*%
X128602500Y-108120000D03*
X126777500Y-108120000D03*
%TD*%
%TO.C,R19*%
X130607500Y-91170000D03*
X132432500Y-91170000D03*
%TD*%
D25*
%TO.C,R18*%
X119957500Y-69500000D03*
X121782500Y-69500000D03*
%TD*%
%TO.C,R17*%
X121782500Y-67310000D03*
X119957500Y-67310000D03*
%TD*%
D34*
%TO.C,R12*%
X114370000Y-106842500D03*
X114370000Y-105017500D03*
%TD*%
%TO.C,R11*%
X120670000Y-106502500D03*
X120670000Y-104677500D03*
%TD*%
%TO.C,R9*%
X101219000Y-96491500D03*
X101219000Y-94666500D03*
%TD*%
%TO.C,R8*%
X98276000Y-96508500D03*
X98276000Y-94683500D03*
%TD*%
%TO.C,R7*%
X95180000Y-96508500D03*
X95180000Y-94683500D03*
%TD*%
D25*
%TO.C,R6*%
X102892500Y-98230000D03*
X101067500Y-98230000D03*
%TD*%
D24*
%TO.C,R4*%
X103570000Y-127817500D03*
X103570000Y-129642500D03*
%TD*%
D25*
%TO.C,R3*%
X75785000Y-35500000D03*
X73960000Y-35500000D03*
%TD*%
D26*
%TO.C,R2*%
X69047500Y-35500000D03*
X70872500Y-35500000D03*
%TD*%
%TO.C,R1*%
X71297500Y-46830000D03*
X73122500Y-46830000D03*
%TD*%
D35*
%TO.C,C17*%
X119240000Y-114670000D03*
X121140000Y-114670000D03*
%TD*%
D30*
%TO.C,C16*%
X111960000Y-114780000D03*
X110060000Y-114780000D03*
%TD*%
D35*
%TO.C,C15*%
X124786000Y-99424000D03*
X126686000Y-99424000D03*
%TD*%
D27*
%TO.C,C14*%
X114080000Y-89730000D03*
X114080000Y-87830000D03*
%TD*%
D30*
%TO.C,C13*%
X109540000Y-98330000D03*
X107640000Y-98330000D03*
%TD*%
%TO.C,C12*%
X105990000Y-93590000D03*
X107890000Y-93590000D03*
%TD*%
D35*
%TO.C,C11*%
X119780000Y-89840000D03*
X121680000Y-89840000D03*
%TD*%
D29*
%TO.C,C10*%
X117640000Y-105780000D03*
X117640000Y-107680000D03*
%TD*%
D30*
%TO.C,C9*%
X108850000Y-101720000D03*
X106950000Y-101720000D03*
%TD*%
D29*
%TO.C,C8*%
X97750000Y-123810000D03*
X97750000Y-125710000D03*
%TD*%
%TO.C,C7*%
X104280000Y-124270000D03*
X104280000Y-126170000D03*
%TD*%
D27*
%TO.C,C2*%
X111000000Y-107840000D03*
X111000000Y-109740000D03*
%TD*%
D29*
%TO.C,C1*%
X104080000Y-109610000D03*
X104080000Y-107710000D03*
%TD*%
D23*
%TO.C,TP7*%
X125540000Y-93470000D03*
%TD*%
%TO.C,TP2*%
X106000000Y-103960000D03*
%TD*%
D36*
%TO.C,U2*%
X102418950Y-123724800D03*
X102418950Y-122785000D03*
X102418950Y-121845200D03*
X99663050Y-121845200D03*
X99663050Y-123724800D03*
%TD*%
D23*
%TO.C,TP9*%
X126570000Y-110480000D03*
%TD*%
D37*
%TO.C,J3*%
X161360000Y-54740000D03*
X157160000Y-54740000D03*
X152960000Y-54740000D03*
X161360000Y-50540000D03*
X157160000Y-50540000D03*
X152960000Y-50540000D03*
D38*
X161360000Y-43240000D03*
X152960000Y-43240000D03*
%TD*%
D23*
%TO.C,TP8*%
X123650000Y-91570000D03*
%TD*%
%TO.C,TP19*%
X97060000Y-92110000D03*
%TD*%
D39*
%TO.C,J8*%
X108210000Y-128230000D03*
X113990000Y-128230000D03*
D40*
X107900000Y-127155000D03*
X108700000Y-127155000D03*
D41*
X109850000Y-127155000D03*
X110850000Y-127155000D03*
X111350000Y-127155000D03*
X112350000Y-127155000D03*
D40*
X113500000Y-127155000D03*
X114300000Y-127155000D03*
X114300000Y-127155000D03*
X113500000Y-127155000D03*
D41*
X112850000Y-127155000D03*
X111850000Y-127155000D03*
X110350000Y-127155000D03*
X109350000Y-127155000D03*
D40*
X108700000Y-127155000D03*
X107900000Y-127155000D03*
D42*
X106780000Y-127730000D03*
D43*
X106780000Y-131910000D03*
D42*
X115420000Y-127730000D03*
D43*
X115420000Y-131910000D03*
%TD*%
D44*
%TO.C,C19*%
X120110000Y-118760000D03*
X123710000Y-118760000D03*
%TD*%
D45*
%TO.C,C18*%
X111398000Y-118784000D03*
X107798000Y-118784000D03*
%TD*%
D23*
%TO.C,TP17*%
X114310000Y-110360000D03*
%TD*%
D30*
%TO.C,C6*%
X108940000Y-91200000D03*
X107040000Y-91200000D03*
%TD*%
D23*
%TO.C,TP14*%
X132090000Y-93940000D03*
%TD*%
D46*
%TO.C,FB1*%
X120945000Y-112730000D03*
X119295000Y-112730000D03*
%TD*%
D47*
%TO.C,Y1*%
X109030000Y-106910000D03*
X109030000Y-110910000D03*
X106630000Y-110910000D03*
X106630000Y-106910000D03*
%TD*%
D23*
%TO.C,TP10*%
X126830000Y-103540000D03*
%TD*%
%TO.C,TP18*%
X102780000Y-101890000D03*
%TD*%
D48*
%TO.C,U1*%
X112385000Y-101615000D03*
X112885000Y-101615000D03*
X113385000Y-101615000D03*
X113885000Y-101615000D03*
X114385000Y-101615000D03*
X114885000Y-101615000D03*
X115385000Y-101615000D03*
X115885000Y-101615000D03*
X116385000Y-101615000D03*
X116885000Y-101615000D03*
X117385000Y-101615000D03*
X117885000Y-101615000D03*
X118385000Y-101615000D03*
X118885000Y-101615000D03*
X119385000Y-101615000D03*
X119885000Y-101615000D03*
D49*
X120580000Y-100920000D03*
X120580000Y-100420000D03*
X120580000Y-99920000D03*
X120580000Y-99420000D03*
X120580000Y-98920000D03*
X120580000Y-98420000D03*
X120580000Y-97920000D03*
X120580000Y-97420000D03*
X120580000Y-96920000D03*
X120580000Y-96420000D03*
X120580000Y-95920000D03*
X120580000Y-95420000D03*
X120580000Y-94920000D03*
X120580000Y-94420000D03*
X120580000Y-93920000D03*
X120580000Y-93420000D03*
D50*
X119885000Y-92725000D03*
X119385000Y-92725000D03*
X118885000Y-92725000D03*
X118385000Y-92725000D03*
X117885000Y-92725000D03*
X117385000Y-92725000D03*
X116885000Y-92725000D03*
X116385000Y-92725000D03*
X115885000Y-92725000D03*
X115385000Y-92725000D03*
X114885000Y-92725000D03*
X114385000Y-92725000D03*
X113885000Y-92725000D03*
X113385000Y-92725000D03*
X112885000Y-92725000D03*
X112385000Y-92725000D03*
D51*
X111690000Y-93420000D03*
X111690000Y-93920000D03*
X111690000Y-94420000D03*
X111690000Y-94920000D03*
X111690000Y-95420000D03*
X111690000Y-95920000D03*
X111690000Y-96420000D03*
X111690000Y-96920000D03*
X111690000Y-97420000D03*
X111690000Y-97920000D03*
X111690000Y-98420000D03*
X111690000Y-98920000D03*
X111690000Y-99420000D03*
X111690000Y-99920000D03*
X111690000Y-100420000D03*
X111690000Y-100920000D03*
D52*
X116135000Y-97170000D03*
%TD*%
D23*
%TO.C,TP15*%
X131860000Y-101300000D03*
%TD*%
%TO.C,TP3*%
X123980000Y-87450000D03*
%TD*%
%TO.C,TP16*%
X116220000Y-124710000D03*
%TD*%
%TO.C,TP20*%
X90710000Y-93670000D03*
%TD*%
%TO.C,TP4*%
X125270000Y-84960000D03*
%TD*%
%TO.C,TP11*%
X139400000Y-88730000D03*
%TD*%
D53*
%TO.C,FB2*%
X110105000Y-112810000D03*
X111755000Y-112810000D03*
%TD*%
G36*
X61243425Y-34264685D02*
G01*
X61289180Y-34317489D01*
X61300386Y-34368977D01*
X61303446Y-50535737D01*
X61283774Y-50602780D01*
X61230979Y-50648545D01*
X61161822Y-50658501D01*
X61103956Y-50634133D01*
X61009981Y-50562018D01*
X61009978Y-50562016D01*
X60889399Y-50512057D01*
X60760006Y-50495000D01*
X58764063Y-50495000D01*
X58755972Y-50494470D01*
X58646770Y-50480112D01*
X58615494Y-50471736D01*
X58525067Y-50434291D01*
X58497025Y-50418103D01*
X58419372Y-50358522D01*
X58396477Y-50335627D01*
X58336896Y-50257974D01*
X58320708Y-50229932D01*
X58283263Y-50139505D01*
X58274887Y-50108228D01*
X58260530Y-49999027D01*
X58260000Y-49990936D01*
X58260000Y-34749066D01*
X58260531Y-34740964D01*
X58274906Y-34631776D01*
X58283284Y-34600508D01*
X58320740Y-34510081D01*
X58336925Y-34482048D01*
X58396508Y-34404398D01*
X58419398Y-34381508D01*
X58497048Y-34321925D01*
X58525081Y-34305740D01*
X58615508Y-34268284D01*
X58646776Y-34259906D01*
X58755966Y-34245531D01*
X58764067Y-34245000D01*
X61176386Y-34245000D01*
X61243425Y-34264685D01*
G37*
G36*
X61238542Y-55544014D02*
G01*
X61288532Y-55592827D01*
X61304415Y-55653523D01*
X61318318Y-129097149D01*
X61298646Y-129164192D01*
X61245851Y-129209957D01*
X61176694Y-129219913D01*
X61118828Y-129195545D01*
X61009982Y-129112018D01*
X61009978Y-129112016D01*
X60889399Y-129062057D01*
X60760006Y-129045000D01*
X58764063Y-129045000D01*
X58755972Y-129044470D01*
X58646770Y-129030112D01*
X58615494Y-129021736D01*
X58525067Y-128984291D01*
X58497025Y-128968103D01*
X58419372Y-128908522D01*
X58396477Y-128885627D01*
X58336896Y-128807974D01*
X58320708Y-128779932D01*
X58283263Y-128689505D01*
X58274887Y-128658228D01*
X58260530Y-128549027D01*
X58260000Y-128540936D01*
X58260000Y-56199066D01*
X58260531Y-56190964D01*
X58274906Y-56081776D01*
X58283284Y-56050508D01*
X58320740Y-55960081D01*
X58336925Y-55932048D01*
X58396508Y-55854398D01*
X58419398Y-55831508D01*
X58497048Y-55771925D01*
X58525081Y-55755740D01*
X58615508Y-55718284D01*
X58646776Y-55709906D01*
X58755966Y-55695531D01*
X58764067Y-55695000D01*
X60759993Y-55695000D01*
X60760009Y-55694998D01*
X60889408Y-55677963D01*
X60889413Y-55677961D01*
X61009995Y-55628015D01*
X61010001Y-55628012D01*
X61104928Y-55555171D01*
X61170097Y-55529976D01*
X61238542Y-55544014D01*
G37*
G36*
X167764041Y-34245532D02*
G01*
X167873215Y-34259923D01*
X167904474Y-34268304D01*
X167994902Y-34305771D01*
X168022928Y-34321954D01*
X168100576Y-34381540D01*
X168123459Y-34404423D01*
X168183045Y-34482071D01*
X168199228Y-34510097D01*
X168236695Y-34600525D01*
X168245075Y-34631783D01*
X168259468Y-34740957D01*
X168260000Y-34749069D01*
X168260000Y-49990934D01*
X168259469Y-49999035D01*
X168245093Y-50108224D01*
X168236715Y-50139491D01*
X168199259Y-50229918D01*
X168183074Y-50257951D01*
X168123491Y-50335601D01*
X168100601Y-50358491D01*
X168022951Y-50418074D01*
X167994918Y-50434259D01*
X167904491Y-50471715D01*
X167873224Y-50480093D01*
X167764035Y-50494469D01*
X167755934Y-50495000D01*
X165760007Y-50495000D01*
X165759990Y-50495001D01*
X165630591Y-50512036D01*
X165630586Y-50512038D01*
X165510004Y-50561984D01*
X165510003Y-50561984D01*
X165406447Y-50641447D01*
X165326985Y-50745003D01*
X165279129Y-50860538D01*
X165235288Y-50914941D01*
X165168994Y-50937006D01*
X165101294Y-50919727D01*
X165053684Y-50868589D01*
X165040568Y-50813273D01*
X165015609Y-34369188D01*
X165035192Y-34302119D01*
X165087926Y-34256284D01*
X165139609Y-34245000D01*
X167755929Y-34245000D01*
X167764041Y-34245532D01*
G37*
G36*
X165252581Y-55299930D02*
G01*
X165286087Y-55346325D01*
X165326956Y-55445019D01*
X165406416Y-55548583D01*
X165509979Y-55628043D01*
X165630581Y-55677983D01*
X165760000Y-55694999D01*
X165760005Y-55695000D01*
X167755929Y-55695000D01*
X167764041Y-55695532D01*
X167873215Y-55709923D01*
X167904474Y-55718304D01*
X167994902Y-55755771D01*
X168022928Y-55771954D01*
X168100576Y-55831540D01*
X168123459Y-55854423D01*
X168183045Y-55932071D01*
X168199228Y-55960097D01*
X168236695Y-56050525D01*
X168245075Y-56081783D01*
X168259468Y-56190957D01*
X168260000Y-56199069D01*
X168260000Y-128540934D01*
X168259469Y-128549035D01*
X168245093Y-128658224D01*
X168236715Y-128689491D01*
X168199259Y-128779918D01*
X168183074Y-128807951D01*
X168123491Y-128885601D01*
X168100601Y-128908491D01*
X168022951Y-128968074D01*
X167994918Y-128984259D01*
X167904491Y-129021715D01*
X167873224Y-129030093D01*
X167764035Y-129044469D01*
X167755934Y-129045000D01*
X165760007Y-129045000D01*
X165759990Y-129045001D01*
X165630591Y-129062036D01*
X165630586Y-129062038D01*
X165510004Y-129111984D01*
X165510003Y-129111984D01*
X165406445Y-129191448D01*
X165381845Y-129223507D01*
X165325416Y-129264708D01*
X165255670Y-129268861D01*
X165194751Y-129234648D01*
X165161999Y-129172930D01*
X165159471Y-129148206D01*
X165047521Y-55393954D01*
X165067104Y-55326885D01*
X165119838Y-55281050D01*
X165188982Y-55271001D01*
X165252581Y-55299930D01*
G37*
M02*
