%TF.GenerationSoftware,KiCad,Pcbnew,7.0.6-0*%
%TF.CreationDate,2023-12-09T22:08:43-05:00*%
%TF.ProjectId,bitcrane,62697463-7261-46e6-952e-6b696361645f,rev?*%
%TF.SameCoordinates,Original*%
%TF.FileFunction,Copper,L4,Bot*%
%TF.FilePolarity,Positive*%
%FSLAX46Y46*%
G04 Gerber Fmt 4.6, Leading zero omitted, Abs format (unit mm)*
G04 Created by KiCad (PCBNEW 7.0.6-0) date 2023-12-09 22:08:43*
%MOMM*%
%LPD*%
G01*
G04 APERTURE LIST*
%TA.AperFunction,ComponentPad*%
%ADD10C,1.400000*%
%TD*%
%TA.AperFunction,ComponentPad*%
%ADD11C,1.300000*%
%TD*%
%TA.AperFunction,ComponentPad*%
%ADD12C,2.300000*%
%TD*%
%TA.AperFunction,ComponentPad*%
%ADD13C,1.549400*%
%TD*%
%TA.AperFunction,ComponentPad*%
%ADD14C,0.500000*%
%TD*%
%TA.AperFunction,ComponentPad*%
%ADD15C,4.000000*%
%TD*%
%TA.AperFunction,ComponentPad*%
%ADD16C,2.775000*%
%TD*%
%TA.AperFunction,ComponentPad*%
%ADD17O,1.000000X2.100000*%
%TD*%
%TA.AperFunction,ComponentPad*%
%ADD18O,1.000000X1.800000*%
%TD*%
%TA.AperFunction,ViaPad*%
%ADD19C,0.800000*%
%TD*%
%TA.AperFunction,Conductor*%
%ADD20C,0.250000*%
%TD*%
%TA.AperFunction,Conductor*%
%ADD21C,0.500000*%
%TD*%
G04 APERTURE END LIST*
D10*
%TO.P,J1,1,Pin_1*%
%TO.N,unconnected-(J1-Pin_1-Pad1)*%
X160210000Y-78245000D03*
%TO.P,J1,2,Pin_2*%
%TO.N,GND*%
X160210000Y-80245000D03*
%TO.P,J1,3,Pin_3*%
%TO.N,/SDA3*%
X160210000Y-82245000D03*
%TO.P,J1,4,Pin_4*%
%TO.N,unconnected-(J1-Pin_4-Pad4)*%
X158210000Y-78245000D03*
%TO.P,J1,5,Pin_5*%
%TO.N,/PSU_EN*%
X158210000Y-80245000D03*
%TO.P,J1,6,Pin_6*%
%TO.N,/SCL3*%
X158210000Y-82245000D03*
%TD*%
D11*
%TO.P,J2,1,Pin_1*%
%TO.N,GND*%
X80080000Y-42980000D03*
%TO.P,J2,2,Pin_2*%
X80080000Y-40980000D03*
%TO.P,J2,3,Pin_3*%
%TO.N,/SDA0*%
X78080000Y-42980000D03*
%TO.P,J2,4,Pin_4*%
%TO.N,/SCL0*%
X78080000Y-40980000D03*
%TO.P,J2,5,Pin_5*%
%TO.N,/PLUG0*%
X76080000Y-42980000D03*
%TO.P,J2,6,Pin_6*%
%TO.N,/A20*%
X76080000Y-40980000D03*
%TO.P,J2,7,Pin_7*%
%TO.N,/A10*%
X74080000Y-42980000D03*
%TO.P,J2,8,Pin_8*%
%TO.N,/A00*%
X74080000Y-40980000D03*
%TO.P,J2,9,Pin_9*%
%TO.N,GND*%
X72080000Y-42980000D03*
%TO.P,J2,10,Pin_10*%
X72080000Y-40980000D03*
%TO.P,J2,11,Pin_11*%
%TO.N,/TXD0*%
X70080000Y-42980000D03*
%TO.P,J2,12,Pin_12*%
%TO.N,/RXD0*%
X70080000Y-40980000D03*
%TO.P,J2,13,Pin_13*%
%TO.N,GND*%
X68080000Y-42980000D03*
%TO.P,J2,14,Pin_14*%
X68080000Y-40980000D03*
%TO.P,J2,15,Pin_15*%
%TO.N,/RST0*%
X66080000Y-42980000D03*
%TO.P,J2,16,Pin_16*%
%TO.N,VCCIO*%
X66080000Y-40980000D03*
%TO.P,J2,17,Pin_17*%
%TO.N,unconnected-(J2-Pin_17-Pad17)*%
X64080000Y-42980000D03*
%TO.P,J2,18,Pin_18*%
%TO.N,unconnected-(J2-Pin_18-Pad18)*%
X64080000Y-40980000D03*
%TD*%
%TO.P,J10,1,Pin_1*%
%TO.N,GND*%
X80080000Y-57010000D03*
%TO.P,J10,2,Pin_2*%
X80080000Y-55010000D03*
%TO.P,J10,3,Pin_3*%
%TO.N,/SDA2*%
X78080000Y-57010000D03*
%TO.P,J10,4,Pin_4*%
%TO.N,/SCL2*%
X78080000Y-55010000D03*
%TO.P,J10,5,Pin_5*%
%TO.N,/PLUG2*%
X76080000Y-57010000D03*
%TO.P,J10,6,Pin_6*%
%TO.N,/A22*%
X76080000Y-55010000D03*
%TO.P,J10,7,Pin_7*%
%TO.N,/A12*%
X74080000Y-57010000D03*
%TO.P,J10,8,Pin_8*%
%TO.N,/A02*%
X74080000Y-55010000D03*
%TO.P,J10,9,Pin_9*%
%TO.N,GND*%
X72080000Y-57010000D03*
%TO.P,J10,10,Pin_10*%
X72080000Y-55010000D03*
%TO.P,J10,11,Pin_11*%
%TO.N,/TXD2*%
X70080000Y-57010000D03*
%TO.P,J10,12,Pin_12*%
%TO.N,/RXD2*%
X70080000Y-55010000D03*
%TO.P,J10,13,Pin_13*%
%TO.N,GND*%
X68080000Y-57010000D03*
%TO.P,J10,14,Pin_14*%
X68080000Y-55010000D03*
%TO.P,J10,15,Pin_15*%
%TO.N,/RST2*%
X66080000Y-57010000D03*
%TO.P,J10,16,Pin_16*%
%TO.N,VCCIO*%
X66080000Y-55010000D03*
%TO.P,J10,17,Pin_17*%
%TO.N,unconnected-(J10-Pin_17-Pad17)*%
X64080000Y-57010000D03*
%TO.P,J10,18,Pin_18*%
%TO.N,unconnected-(J10-Pin_18-Pad18)*%
X64080000Y-55010000D03*
%TD*%
%TO.P,J9,1,Pin_1*%
%TO.N,GND*%
X101510000Y-42980000D03*
%TO.P,J9,2,Pin_2*%
X101510000Y-40980000D03*
%TO.P,J9,3,Pin_3*%
%TO.N,/SDA1*%
X99510000Y-42980000D03*
%TO.P,J9,4,Pin_4*%
%TO.N,/SCL1*%
X99510000Y-40980000D03*
%TO.P,J9,5,Pin_5*%
%TO.N,/PLUG1*%
X97510000Y-42980000D03*
%TO.P,J9,6,Pin_6*%
%TO.N,/A21*%
X97510000Y-40980000D03*
%TO.P,J9,7,Pin_7*%
%TO.N,/A11*%
X95510000Y-42980000D03*
%TO.P,J9,8,Pin_8*%
%TO.N,/A01*%
X95510000Y-40980000D03*
%TO.P,J9,9,Pin_9*%
%TO.N,GND*%
X93510000Y-42980000D03*
%TO.P,J9,10,Pin_10*%
X93510000Y-40980000D03*
%TO.P,J9,11,Pin_11*%
%TO.N,/TXD1*%
X91510000Y-42980000D03*
%TO.P,J9,12,Pin_12*%
%TO.N,/RXD1*%
X91510000Y-40980000D03*
%TO.P,J9,13,Pin_13*%
%TO.N,GND*%
X89510000Y-42980000D03*
%TO.P,J9,14,Pin_14*%
X89510000Y-40980000D03*
%TO.P,J9,15,Pin_15*%
%TO.N,/RST1*%
X87510000Y-42980000D03*
%TO.P,J9,16,Pin_16*%
%TO.N,VCCIO*%
X87510000Y-40980000D03*
%TO.P,J9,17,Pin_17*%
%TO.N,unconnected-(J9-Pin_17-Pad17)*%
X85510000Y-42980000D03*
%TO.P,J9,18,Pin_18*%
%TO.N,unconnected-(J9-Pin_18-Pad18)*%
X85510000Y-40980000D03*
%TD*%
D12*
%TO.P,J14,4,Pin_4*%
%TO.N,Net-(J14-Pin_4)*%
X141880000Y-48820000D03*
%TO.P,J14,3,Pin_3*%
%TO.N,Net-(J14-Pin_3)*%
X141880000Y-54320000D03*
%TO.P,J14,2,Pin_2*%
%TO.N,/12V*%
X146080000Y-54320000D03*
%TO.P,J14,1,Pin_1*%
%TO.N,GND*%
X146080000Y-48820000D03*
%TD*%
%TO.P,J15,4,Pin_4*%
%TO.N,Net-(J15-Pin_4)*%
X130860000Y-48820000D03*
%TO.P,J15,3,Pin_3*%
%TO.N,Net-(J15-Pin_3)*%
X130860000Y-54320000D03*
%TO.P,J15,2,Pin_2*%
%TO.N,/12V*%
X135060000Y-54320000D03*
%TO.P,J15,1,Pin_1*%
%TO.N,GND*%
X135060000Y-48820000D03*
%TD*%
%TO.P,J17,4,Pin_4*%
%TO.N,Net-(J17-Pin_4)*%
X119820000Y-48820000D03*
%TO.P,J17,3,Pin_3*%
%TO.N,Net-(J17-Pin_3)*%
X119820000Y-54320000D03*
%TO.P,J17,2,Pin_2*%
%TO.N,/12V*%
X124020000Y-54320000D03*
%TO.P,J17,1,Pin_1*%
%TO.N,GND*%
X124020000Y-48820000D03*
%TD*%
%TO.P,J16,4,Pin_4*%
%TO.N,Net-(J16-Pin_4)*%
X108680000Y-48820000D03*
%TO.P,J16,3,Pin_3*%
%TO.N,Net-(J16-Pin_3)*%
X108680000Y-54320000D03*
%TO.P,J16,2,Pin_2*%
%TO.N,/12V*%
X112880000Y-54320000D03*
%TO.P,J16,1,Pin_1*%
%TO.N,GND*%
X112880000Y-48820000D03*
%TD*%
D13*
%TO.P,J5,1,Pin_1*%
%TO.N,GND*%
X136530000Y-51870750D03*
%TO.P,J5,2,Pin_2*%
%TO.N,/12V*%
X133990000Y-51870750D03*
%TO.P,J5,3,Pin_3*%
%TO.N,Net-(J15-Pin_3)*%
X131450000Y-51870750D03*
%TO.P,J5,4,Pin_4*%
%TO.N,Net-(J15-Pin_4)*%
X128910000Y-51870750D03*
%TD*%
D14*
%TO.P,U5,17,EPAD*%
%TO.N,GND*%
X79355000Y-94975000D03*
X80075000Y-95695000D03*
X79355000Y-95695000D03*
X78635000Y-95695000D03*
X79355000Y-96415000D03*
%TD*%
D15*
%TO.P,H4,1,1*%
%TO.N,GND*%
X63160000Y-127445000D03*
%TD*%
%TO.P,H3,1,1*%
%TO.N,GND*%
X63160000Y-80245000D03*
%TD*%
%TO.P,H2,1,1*%
%TO.N,GND*%
X163360000Y-128245000D03*
%TD*%
%TO.P,H1,1,1*%
%TO.N,GND*%
X163360000Y-67365000D03*
%TD*%
D13*
%TO.P,J4,1,Pin_1*%
%TO.N,GND*%
X147580000Y-51870750D03*
%TO.P,J4,2,Pin_2*%
%TO.N,/12V*%
X145040000Y-51870750D03*
%TO.P,J4,3,Pin_3*%
%TO.N,Net-(J14-Pin_3)*%
X142500000Y-51870750D03*
%TO.P,J4,4,Pin_4*%
%TO.N,Net-(J14-Pin_4)*%
X139960000Y-51870750D03*
%TD*%
%TO.P,J7,4,Pin_4*%
%TO.N,Net-(J17-Pin_4)*%
X117890000Y-51870750D03*
%TO.P,J7,3,Pin_3*%
%TO.N,Net-(J17-Pin_3)*%
X120430000Y-51870750D03*
%TO.P,J7,2,Pin_2*%
%TO.N,/12V*%
X122970000Y-51870750D03*
%TO.P,J7,1,Pin_1*%
%TO.N,GND*%
X125510000Y-51870750D03*
%TD*%
%TO.P,J6,4,Pin_4*%
%TO.N,Net-(J16-Pin_4)*%
X106780000Y-51870750D03*
%TO.P,J6,3,Pin_3*%
%TO.N,Net-(J16-Pin_3)*%
X109320000Y-51870750D03*
%TO.P,J6,2,Pin_2*%
%TO.N,/12V*%
X111860000Y-51870750D03*
%TO.P,J6,1,Pin_1*%
%TO.N,GND*%
X114400000Y-51870750D03*
%TD*%
D16*
%TO.P,J3,6,6*%
%TO.N,GND*%
X161360000Y-54740000D03*
%TO.P,J3,5,5*%
X157160000Y-54740000D03*
%TO.P,J3,4,4*%
X152960000Y-54740000D03*
%TO.P,J3,3,3*%
%TO.N,Net-(Q1-D)*%
X161360000Y-50540000D03*
%TO.P,J3,2,2*%
X157160000Y-50540000D03*
%TO.P,J3,1,1*%
X152960000Y-50540000D03*
%TD*%
D17*
%TO.P,J8,S1,SHIELD*%
%TO.N,GND*%
X106780000Y-127730000D03*
D18*
X106780000Y-131910000D03*
D17*
X115420000Y-127730000D03*
D18*
X115420000Y-131910000D03*
%TD*%
D19*
%TO.N,VCCIO*%
X157690000Y-93900000D03*
X95800000Y-54150000D03*
X89780000Y-54270000D03*
X89750000Y-64890000D03*
%TO.N,/SCL2*%
X85595047Y-60212616D03*
%TO.N,/SDA2*%
X85530000Y-61210000D03*
%TO.N,/SCL0*%
X82640000Y-46440000D03*
%TO.N,/SDA1*%
X100360000Y-48290000D03*
%TO.N,/SCL1*%
X100430000Y-49420000D03*
%TO.N,VCCIO*%
X130060000Y-101270000D03*
%TO.N,/SDA3*%
X111603198Y-69233198D03*
%TO.N,/SCL3*%
X111660000Y-67890000D03*
%TO.N,VCCIO*%
X65600000Y-37050000D03*
X79160000Y-37150000D03*
X87010000Y-37180000D03*
X100250000Y-37020000D03*
%TO.N,GND*%
X85420000Y-91050000D03*
%TO.N,/PLUG2*%
X101250000Y-88310000D03*
%TO.N,Net-(U1-EEDATA)*%
X92150000Y-95060000D03*
X104060000Y-98780000D03*
%TO.N,/RXD2*%
X101290000Y-91720000D03*
%TO.N,/SCL1*%
X85210000Y-86370000D03*
X81950000Y-86980000D03*
%TO.N,/SDA1*%
X85620000Y-87340000D03*
X82151850Y-87961851D03*
%TO.N,/RST2*%
X106210000Y-96240000D03*
%TO.N,VCCIO*%
X107780000Y-97005500D03*
%TO.N,/PLUG2*%
X109170000Y-95708541D03*
%TO.N,/TXD2*%
X102370000Y-89060000D03*
%TO.N,/RST1*%
X116016246Y-86716246D03*
%TO.N,/PLUG1*%
X118480000Y-85210000D03*
%TO.N,/RST0*%
X123570000Y-93680000D03*
%TO.N,/PLUG0*%
X122583623Y-95145346D03*
%TO.N,/RXD0*%
X123393538Y-95869846D03*
%TO.N,/TXD0*%
X124390000Y-96710000D03*
%TO.N,VCCIO*%
X71290000Y-62730000D03*
%TO.N,GND*%
X76760000Y-62760000D03*
X71900000Y-48360000D03*
%TO.N,VCCIO*%
X65580000Y-47980000D03*
X78250000Y-48190000D03*
X98260000Y-48510000D03*
%TO.N,GND*%
X92930000Y-48510000D03*
X72340000Y-36420000D03*
X93690000Y-36620000D03*
X80310000Y-98950000D03*
X76020000Y-94790000D03*
%TO.N,VCCIO*%
X84060000Y-95830000D03*
X128650000Y-110410000D03*
%TO.N,/RESET*%
X80710000Y-92090000D03*
X121947684Y-98195500D03*
%TO.N,/SCL*%
X85752701Y-98137299D03*
X122021610Y-102478636D03*
%TO.N,/SDA*%
X85810000Y-96950000D03*
X121980000Y-101480000D03*
%TO.N,/RXD2*%
X107340000Y-94924125D03*
%TO.N,/FAN_ALERT*%
X127040000Y-101720000D03*
X127175500Y-92409860D03*
%TO.N,VCCIO*%
X118490000Y-68930000D03*
X122190000Y-93100000D03*
X134220000Y-91190000D03*
%TO.N,GND*%
X120170000Y-103220000D03*
%TO.N,Net-(J14-Pin_4)*%
X129950000Y-69130000D03*
%TO.N,VCCIO*%
X116990000Y-55590000D03*
X104090000Y-56380000D03*
X127980000Y-65540000D03*
X128760000Y-55900000D03*
X139160000Y-56860000D03*
%TO.N,GND*%
X130720000Y-64570000D03*
X138560000Y-65110000D03*
X123680000Y-66160000D03*
X153200000Y-65340000D03*
X147110000Y-67290000D03*
X131880000Y-65700000D03*
%TO.N,Net-(J14-Pin_3)*%
X131200000Y-70450000D03*
%TO.N,Net-(J15-Pin_3)*%
X132580000Y-68380000D03*
%TO.N,Net-(J15-Pin_4)*%
X131490000Y-68600000D03*
%TO.N,Net-(J16-Pin_3)*%
X134690000Y-65420000D03*
%TO.N,Net-(J16-Pin_4)*%
X134614981Y-66416683D03*
%TO.N,Net-(J17-Pin_3)*%
X131640000Y-62090000D03*
%TO.N,Net-(J17-Pin_4)*%
X132700000Y-62190000D03*
%TO.N,/TXD1*%
X117884423Y-87922572D03*
%TO.N,/RXD1*%
X116885000Y-87910000D03*
%TO.N,/5V*%
X113454000Y-123936000D03*
X107543800Y-123724800D03*
%TO.N,VCORE*%
X117862354Y-104176740D03*
X110810000Y-102190000D03*
X110547000Y-92259000D03*
X118264799Y-91560799D03*
%TO.N,VCCIO*%
X109090000Y-92670000D03*
X108750000Y-112800000D03*
X91007000Y-98936000D03*
X123400000Y-99420000D03*
X98310000Y-93120000D03*
X95160000Y-93080000D03*
X120660000Y-107890000D03*
X101220000Y-93110000D03*
X91064000Y-100921000D03*
X122090000Y-112720000D03*
X96100000Y-123710000D03*
X114900000Y-90800000D03*
%TO.N,GND*%
X117750000Y-109160000D03*
X59820000Y-82940904D03*
X166670000Y-101257274D03*
X59820000Y-122543623D03*
X166670000Y-104303637D03*
X122700000Y-97320000D03*
X59820000Y-67709089D03*
X96150000Y-125690000D03*
X166670000Y-82979096D03*
X59710000Y-48120000D03*
X117420000Y-98410000D03*
X59820000Y-119497260D03*
X59820000Y-116450897D03*
X105420000Y-118710000D03*
X166670000Y-76886370D03*
X166670000Y-98210911D03*
X166670000Y-67747281D03*
X104390000Y-93680000D03*
X117430000Y-95900000D03*
X111410000Y-106310000D03*
X59820000Y-58570000D03*
X105730000Y-102310000D03*
X166770000Y-42860000D03*
X166670000Y-116489089D03*
X59820000Y-73801815D03*
X59820000Y-110358171D03*
X166670000Y-58608192D03*
X166670000Y-86025459D03*
X102720000Y-126130000D03*
X166670000Y-79932733D03*
X89750000Y-99920000D03*
X112340000Y-87800000D03*
X126360000Y-118740000D03*
X117160500Y-103190000D03*
X122370000Y-114580000D03*
X91125000Y-97515000D03*
X59820000Y-76848178D03*
X166670000Y-122581815D03*
X59820000Y-113404534D03*
X166670000Y-113442726D03*
X59820000Y-85987267D03*
X104328000Y-110913000D03*
X166670000Y-107350000D03*
X59710000Y-39015000D03*
X119700000Y-91536000D03*
X105250000Y-91160000D03*
X59820000Y-125590000D03*
X166670000Y-70793644D03*
X59820000Y-98172719D03*
X128340000Y-99450000D03*
X114160500Y-103302000D03*
X109255765Y-94259041D03*
X114380000Y-108310000D03*
X59820000Y-79894541D03*
X166670000Y-125628192D03*
X166770000Y-39825000D03*
X59820000Y-101219082D03*
X59820000Y-64662726D03*
X59820000Y-104265445D03*
X114820000Y-95860000D03*
X166670000Y-110396363D03*
X59710000Y-42050000D03*
X108720000Y-114790000D03*
X166770000Y-36790000D03*
X110390000Y-103550000D03*
X166770000Y-45895000D03*
X166670000Y-95164548D03*
X59820000Y-89033630D03*
X116135000Y-97170000D03*
X59820000Y-107311808D03*
X166670000Y-64700918D03*
X114740000Y-98510000D03*
X113040000Y-91493000D03*
X166770000Y-48930000D03*
X59820000Y-61616363D03*
X59820000Y-95126356D03*
X59710000Y-35980000D03*
X166670000Y-61654555D03*
X166670000Y-73840007D03*
X103872000Y-122806000D03*
X59820000Y-92079993D03*
X59710000Y-45085000D03*
X166670000Y-119535452D03*
X166670000Y-92118185D03*
X166670000Y-89071822D03*
X59820000Y-70755452D03*
X106250000Y-98350000D03*
%TD*%
D20*
%TO.N,/PLUG0*%
X121350000Y-92160695D02*
X119648454Y-90459149D01*
X121350000Y-93911723D02*
X121350000Y-92160695D01*
X119648454Y-90459149D02*
X117660850Y-90459149D01*
X122583623Y-95145346D02*
X121350000Y-93911723D01*
X117660850Y-90459149D02*
X114720000Y-87518299D01*
X114720000Y-87518299D02*
X114720000Y-81072792D01*
X76627208Y-42980000D02*
X76080000Y-42980000D01*
X114720000Y-81072792D02*
X76627208Y-42980000D01*
%TO.N,/RST0*%
X75055000Y-41333859D02*
X75055000Y-40576141D01*
X123570000Y-93000000D02*
X120579149Y-90009149D01*
X75055000Y-40576141D02*
X74483859Y-40005000D01*
X120579149Y-90009149D02*
X117847246Y-90009149D01*
X67055000Y-40576141D02*
X67055000Y-42005000D01*
X115170000Y-80886396D02*
X79055000Y-44771396D01*
X123570000Y-93680000D02*
X123570000Y-93000000D01*
X117847246Y-90009149D02*
X115170000Y-87331903D01*
X115170000Y-87331903D02*
X115170000Y-80886396D01*
X79055000Y-42576141D02*
X78433859Y-41955000D01*
X67055000Y-42005000D02*
X66080000Y-42980000D01*
X79055000Y-44771396D02*
X79055000Y-42576141D01*
X78433859Y-41955000D02*
X75676141Y-41955000D01*
X75676141Y-41955000D02*
X75055000Y-41333859D01*
X74483859Y-40005000D02*
X67626141Y-40005000D01*
X67626141Y-40005000D02*
X67055000Y-40576141D01*
%TO.N,/TXD0*%
X117089799Y-92047500D02*
X117089799Y-91160890D01*
X123208387Y-96710000D02*
X122928387Y-96430000D01*
X122928387Y-96430000D02*
X121472299Y-96430000D01*
X117089799Y-91160890D02*
X113820000Y-87891091D01*
X71055000Y-43955000D02*
X70080000Y-42980000D01*
X113820000Y-87891091D02*
X113820000Y-81445584D01*
X121472299Y-96430000D02*
X117089799Y-92047500D01*
X113820000Y-81445584D02*
X79334416Y-46960000D01*
X75994745Y-46960000D02*
X72989745Y-43955000D01*
X79334416Y-46960000D02*
X75994745Y-46960000D01*
X124390000Y-96710000D02*
X123208387Y-96710000D01*
X72989745Y-43955000D02*
X71055000Y-43955000D01*
%TO.N,/TXD1*%
X117884423Y-87922572D02*
X117540000Y-87578149D01*
X117540000Y-87578149D02*
X117540000Y-81240000D01*
X117540000Y-81240000D02*
X91510000Y-55210000D01*
X91510000Y-55210000D02*
X91510000Y-42980000D01*
%TO.N,/PLUG1*%
X118480000Y-85210000D02*
X118440000Y-85170000D01*
X118440000Y-85170000D02*
X118440000Y-81503604D01*
X118440000Y-81503604D02*
X97510000Y-60573604D01*
X97510000Y-60573604D02*
X97510000Y-42980000D01*
%TO.N,/RXD1*%
X116885000Y-87910000D02*
X116885000Y-81328604D01*
X90955000Y-44285000D02*
X90535000Y-43865000D01*
X90535000Y-41955000D02*
X91510000Y-40980000D01*
X90955000Y-55398604D02*
X90955000Y-44285000D01*
X116885000Y-81328604D02*
X90955000Y-55398604D01*
X90535000Y-43865000D02*
X90535000Y-41955000D01*
%TO.N,/RXD0*%
X123393538Y-95869846D02*
X121548541Y-95869846D01*
X121548541Y-95869846D02*
X117539799Y-91861104D01*
X76181141Y-46510000D02*
X73055000Y-43383859D01*
X114270000Y-87704695D02*
X114270000Y-81259188D01*
X73055000Y-43383859D02*
X73055000Y-42576141D01*
X73055000Y-42576141D02*
X72433859Y-41955000D01*
X117539799Y-91861104D02*
X117539799Y-90974494D01*
X117539799Y-90974494D02*
X114270000Y-87704695D01*
X114270000Y-81259188D02*
X79520812Y-46510000D01*
X72433859Y-41955000D02*
X71055000Y-41955000D01*
X79520812Y-46510000D02*
X76181141Y-46510000D01*
X71055000Y-41955000D02*
X70080000Y-40980000D01*
%TO.N,/RST1*%
X116016246Y-86716246D02*
X116016246Y-81096246D01*
X90505000Y-55585000D02*
X90505000Y-46015000D01*
X116016246Y-81096246D02*
X90505000Y-55585000D01*
X87510000Y-43020000D02*
X87510000Y-42980000D01*
X90505000Y-46015000D02*
X87510000Y-43020000D01*
%TO.N,/SCL2*%
X84661475Y-60212616D02*
X80433859Y-55985000D01*
X79055000Y-55985000D02*
X78080000Y-55010000D01*
X85595047Y-60212616D02*
X84661475Y-60212616D01*
X80433859Y-55985000D02*
X79055000Y-55985000D01*
%TO.N,/SDA2*%
X85530000Y-61210000D02*
X82280000Y-61210000D01*
X82280000Y-61210000D02*
X78080000Y-57010000D01*
%TO.N,/SCL0*%
X82640000Y-46440000D02*
X82640000Y-44161141D01*
X82640000Y-44161141D02*
X80471231Y-41992372D01*
X80471231Y-41992372D02*
X79107627Y-41992372D01*
X79107627Y-41992372D02*
X78095255Y-40980000D01*
X78095255Y-40980000D02*
X78080000Y-40980000D01*
%TO.N,/SDA1*%
X100360000Y-48290000D02*
X99510000Y-47440000D01*
X99510000Y-47440000D02*
X99510000Y-42980000D01*
%TO.N,/SCL1*%
X100430000Y-49420000D02*
X98485000Y-47475000D01*
X98485000Y-47475000D02*
X98485000Y-42005000D01*
X98485000Y-42005000D02*
X99510000Y-40980000D01*
%TO.N,/SCL3*%
X158210000Y-82245000D02*
X157155000Y-83300000D01*
X111680000Y-67890000D02*
X111660000Y-67890000D01*
X126306396Y-83300000D02*
X112328198Y-69321802D01*
X112328198Y-69321802D02*
X112328198Y-68538198D01*
X157155000Y-83300000D02*
X126306396Y-83300000D01*
X112328198Y-68538198D02*
X111680000Y-67890000D01*
%TO.N,/SDA3*%
X160210000Y-82245000D02*
X158705000Y-83750000D01*
X158705000Y-83750000D02*
X126120000Y-83750000D01*
X126120000Y-83750000D02*
X111603198Y-69233198D01*
%TO.N,/PLUG2*%
X101250000Y-88310000D02*
X101000000Y-88310000D01*
X103470000Y-88310000D02*
X101250000Y-88310000D01*
%TO.N,Net-(U1-EEDATA)*%
X95870000Y-98780000D02*
X92150000Y-95060000D01*
X104060000Y-98780000D02*
X95870000Y-98780000D01*
%TO.N,/RXD2*%
X104494125Y-94924125D02*
X101290000Y-91720000D01*
X101290000Y-91720000D02*
X99080000Y-89510000D01*
%TO.N,/SCL1*%
X81950000Y-86980000D02*
X82560000Y-86370000D01*
X82560000Y-86370000D02*
X85210000Y-86370000D01*
%TO.N,/SDA1*%
X82151850Y-87961851D02*
X84998149Y-87961851D01*
X84998149Y-87961851D02*
X85620000Y-87340000D01*
%TO.N,/RST2*%
X97044695Y-89960000D02*
X94250000Y-89960000D01*
X66080000Y-61790000D02*
X66080000Y-57010000D01*
X106210000Y-96240000D02*
X103324695Y-96240000D01*
X103324695Y-96240000D02*
X97044695Y-89960000D01*
X94250000Y-89960000D02*
X66080000Y-61790000D01*
%TO.N,/PLUG2*%
X109170000Y-95708541D02*
X108530765Y-95069306D01*
X108530765Y-93370765D02*
X103470000Y-88310000D01*
X108530765Y-95069306D02*
X108530765Y-93370765D01*
X94846396Y-88610000D02*
X75883198Y-69646802D01*
X75883198Y-69646802D02*
X75883198Y-57206802D01*
X75883198Y-57206802D02*
X76080000Y-57010000D01*
X101000000Y-88310000D02*
X100700000Y-88610000D01*
X100700000Y-88610000D02*
X94846396Y-88610000D01*
%TO.N,/TXD2*%
X102370000Y-89060000D02*
X94660000Y-89060000D01*
X94660000Y-89060000D02*
X70080000Y-64480000D01*
X70080000Y-64480000D02*
X70080000Y-57010000D01*
%TO.N,/RXD2*%
X107340000Y-94924125D02*
X104494125Y-94924125D01*
X94473604Y-89510000D02*
X69105000Y-64141396D01*
X99080000Y-89510000D02*
X94473604Y-89510000D01*
X69105000Y-64141396D02*
X69105000Y-55985000D01*
X69105000Y-55985000D02*
X70080000Y-55010000D01*
%TO.N,/FAN_ALERT*%
X127175500Y-92409860D02*
X127090000Y-92495360D01*
X127090000Y-92495360D02*
X127090000Y-101670000D01*
X127090000Y-101670000D02*
X127040000Y-101720000D01*
%TO.N,/SCL*%
X122021610Y-102478636D02*
X121048636Y-102478636D01*
X120000000Y-101430000D02*
X95766396Y-101430000D01*
X95100396Y-102096000D02*
X89711402Y-102096000D01*
X121048636Y-102478636D02*
X120000000Y-101430000D01*
X89711402Y-102096000D02*
X85752701Y-98137299D01*
X95766396Y-101430000D02*
X95100396Y-102096000D01*
%TO.N,/SDA*%
X85810000Y-96950000D02*
X85810000Y-97170000D01*
X94914000Y-101646000D02*
X95580000Y-100980000D01*
X90286000Y-101646000D02*
X94914000Y-101646000D01*
X120580000Y-100980000D02*
X121080000Y-101480000D01*
X95580000Y-100980000D02*
X120580000Y-100980000D01*
X85810000Y-97170000D02*
X90286000Y-101646000D01*
X121080000Y-101480000D02*
X121980000Y-101480000D01*
%TO.N,/RESET*%
X121947684Y-98195500D02*
X121947684Y-99202316D01*
X121947684Y-99202316D02*
X120620000Y-100530000D01*
X87010000Y-92000000D02*
X80800000Y-92000000D01*
X120620000Y-100530000D02*
X95540000Y-100530000D01*
X95540000Y-100530000D02*
X87010000Y-92000000D01*
X80800000Y-92000000D02*
X80710000Y-92090000D01*
%TO.N,VCORE*%
X110810000Y-102190000D02*
X114920000Y-102190000D01*
X114920000Y-102190000D02*
X116906740Y-104176740D01*
X116906740Y-104176740D02*
X117862354Y-104176740D01*
%TO.N,Net-(J16-Pin_4)*%
X132188622Y-66416683D02*
X132180305Y-66425000D01*
X131579695Y-66425000D02*
X131571378Y-66416683D01*
X131571378Y-66416683D02*
X130683317Y-66416683D01*
X132180305Y-66425000D02*
X131579695Y-66425000D01*
X134614981Y-66416683D02*
X132188622Y-66416683D01*
X130683317Y-66416683D02*
X130200000Y-66900000D01*
X130200000Y-66900000D02*
X114270000Y-66900000D01*
X114270000Y-66900000D02*
X106780000Y-59410000D01*
X106780000Y-59410000D02*
X106780000Y-51830750D01*
%TO.N,Net-(J14-Pin_4)*%
X139960000Y-51870750D02*
X139960000Y-49790000D01*
X139960000Y-49790000D02*
X140830000Y-48920000D01*
X140830000Y-48920000D02*
X141880000Y-48920000D01*
X130145000Y-69325000D02*
X134101396Y-69325000D01*
X129950000Y-69130000D02*
X130145000Y-69325000D01*
X134101396Y-69325000D02*
X137835000Y-65591396D01*
X137835000Y-65591396D02*
X137835000Y-53995750D01*
X137835000Y-53995750D02*
X139960000Y-51870750D01*
%TO.N,Net-(J17-Pin_4)*%
X132700000Y-62190000D02*
X132075000Y-62815000D01*
X132075000Y-62815000D02*
X123395000Y-62815000D01*
X123395000Y-62815000D02*
X117890000Y-57310000D01*
X117890000Y-57310000D02*
X117890000Y-51830750D01*
%TO.N,Net-(J16-Pin_3)*%
X134690000Y-65420000D02*
X132740000Y-63470000D01*
X110270000Y-61400000D02*
X110270000Y-52780750D01*
X132740000Y-63470000D02*
X112340000Y-63470000D01*
X110270000Y-52780750D02*
X109320000Y-51830750D01*
X112340000Y-63470000D02*
X110270000Y-61400000D01*
%TO.N,Net-(J17-Pin_3)*%
X131640000Y-62090000D02*
X131610000Y-62060000D01*
X131610000Y-62060000D02*
X125680000Y-62060000D01*
X125680000Y-62060000D02*
X121530000Y-57910000D01*
X121530000Y-57910000D02*
X121530000Y-52930750D01*
X121530000Y-52930750D02*
X120430000Y-51830750D01*
%TO.N,Net-(J15-Pin_4)*%
X127550000Y-55980000D02*
X127550000Y-53180750D01*
%TO.N,Net-(J14-Pin_3)*%
X131200000Y-70450000D02*
X134310000Y-70450000D01*
X134310000Y-70450000D02*
X141880000Y-62880000D01*
X141880000Y-62880000D02*
X141880000Y-54420000D01*
%TO.N,Net-(J15-Pin_4)*%
X135470000Y-66586969D02*
X135470000Y-63900000D01*
X131490000Y-68050000D02*
X132398317Y-67141683D01*
X127550000Y-53180750D02*
X128910000Y-51820750D01*
X131490000Y-68600000D02*
X131490000Y-68050000D01*
X134915286Y-67141683D02*
X135470000Y-66586969D01*
X132398317Y-67141683D02*
X134915286Y-67141683D01*
X135470000Y-63900000D02*
X127550000Y-55980000D01*
%TO.N,Net-(J14-Pin_3)*%
X141880000Y-54420000D02*
X141880000Y-52490750D01*
X141880000Y-52490750D02*
X142500000Y-51870750D01*
%TO.N,Net-(J15-Pin_3)*%
X130860000Y-55250000D02*
X130860000Y-54340000D01*
X134410000Y-68380000D02*
X136260000Y-66530000D01*
X136260000Y-66530000D02*
X136260000Y-60650000D01*
X130860000Y-52410750D02*
X131450000Y-51820750D01*
X130860000Y-54340000D02*
X130860000Y-52410750D01*
X136260000Y-60650000D02*
X130860000Y-55250000D01*
X132580000Y-68380000D02*
X134410000Y-68380000D01*
%TO.N,Net-(J15-Pin_4)*%
X128910000Y-51820750D02*
X128910000Y-50790000D01*
X128910000Y-50790000D02*
X130860000Y-48840000D01*
D21*
%TO.N,/5V*%
X113454000Y-123936000D02*
X113219000Y-123701000D01*
X107567600Y-123701000D02*
X107543800Y-123724800D01*
X113219000Y-123701000D02*
X107567600Y-123701000D01*
%TD*%
%TA.AperFunction,Conductor*%
%TO.N,GND*%
G36*
X61094125Y-55654825D02*
G01*
X61144116Y-55703638D01*
X61160000Y-55764358D01*
X61160000Y-128975680D01*
X61140315Y-129042719D01*
X61087511Y-129088474D01*
X61018353Y-129098418D01*
X60995221Y-129088674D01*
X60979649Y-129090334D01*
X60947969Y-129080040D01*
X60926343Y-129069623D01*
X60926340Y-129069622D01*
X60926338Y-129069621D01*
X60906804Y-129065159D01*
X60894898Y-129062440D01*
X60875046Y-129056109D01*
X60857854Y-129048986D01*
X60824052Y-129046259D01*
X60816394Y-129044510D01*
X60816395Y-129044510D01*
X60816390Y-129044509D01*
X60816387Y-129044508D01*
X60816382Y-129044508D01*
X60760271Y-129044499D01*
X60752170Y-129043967D01*
X60713504Y-129038869D01*
X60677078Y-129044500D01*
X58763477Y-129044500D01*
X58756546Y-129044111D01*
X58743237Y-129042614D01*
X58733656Y-129041536D01*
X58654158Y-129031083D01*
X58629382Y-129025187D01*
X58595274Y-129013257D01*
X58592022Y-129012016D01*
X58537798Y-128989561D01*
X58519274Y-128979993D01*
X58484465Y-128958124D01*
X58479705Y-128954813D01*
X58431773Y-128918038D01*
X58425674Y-128912690D01*
X58392307Y-128879323D01*
X58386964Y-128873230D01*
X58375148Y-128857829D01*
X58350185Y-128825293D01*
X58346874Y-128820533D01*
X58325005Y-128785724D01*
X58315437Y-128767200D01*
X58292982Y-128712976D01*
X58291755Y-128709762D01*
X58279809Y-128675610D01*
X58273916Y-128650845D01*
X58263468Y-128571387D01*
X58260889Y-128548455D01*
X58260500Y-128541520D01*
X58260500Y-56198486D01*
X58260890Y-56191540D01*
X58261285Y-56188029D01*
X58263472Y-56168619D01*
X58273933Y-56089163D01*
X58279830Y-56064399D01*
X58291775Y-56030262D01*
X58293001Y-56027047D01*
X58315474Y-55972794D01*
X58325021Y-55954313D01*
X58346922Y-55919459D01*
X58350197Y-55914752D01*
X58387003Y-55866786D01*
X58392323Y-55860718D01*
X58425718Y-55827323D01*
X58431786Y-55822003D01*
X58479752Y-55785197D01*
X58484459Y-55781922D01*
X58519313Y-55760021D01*
X58537794Y-55750474D01*
X58592047Y-55728001D01*
X58595253Y-55726778D01*
X58629402Y-55714829D01*
X58654163Y-55708933D01*
X58701565Y-55702693D01*
X58733646Y-55698470D01*
X58742632Y-55697456D01*
X58756545Y-55695889D01*
X58763481Y-55695500D01*
X60677062Y-55695500D01*
X60701558Y-55702693D01*
X60752162Y-55696031D01*
X60760263Y-55695500D01*
X60816391Y-55695500D01*
X60816393Y-55695500D01*
X60824060Y-55693750D01*
X60847782Y-55695202D01*
X60875048Y-55683909D01*
X60894904Y-55677580D01*
X60926351Y-55670403D01*
X60947986Y-55659983D01*
X60996841Y-55651937D01*
X61025680Y-55640788D01*
X61094125Y-55654825D01*
G37*
%TD.AperFunction*%
%TA.AperFunction,Conductor*%
G36*
X61103039Y-34265185D02*
G01*
X61148794Y-34317989D01*
X61160000Y-34369500D01*
X61160000Y-50425680D01*
X61140315Y-50492719D01*
X61087511Y-50538474D01*
X61018353Y-50548418D01*
X60995221Y-50538674D01*
X60979649Y-50540334D01*
X60947969Y-50530040D01*
X60926343Y-50519623D01*
X60926340Y-50519622D01*
X60926338Y-50519621D01*
X60906804Y-50515159D01*
X60894898Y-50512440D01*
X60875046Y-50506109D01*
X60857854Y-50498986D01*
X60824052Y-50496259D01*
X60816394Y-50494510D01*
X60816395Y-50494510D01*
X60816390Y-50494509D01*
X60816387Y-50494508D01*
X60816382Y-50494508D01*
X60760271Y-50494499D01*
X60752170Y-50493967D01*
X60713504Y-50488869D01*
X60677078Y-50494500D01*
X58763477Y-50494500D01*
X58756546Y-50494111D01*
X58743237Y-50492614D01*
X58733656Y-50491536D01*
X58654158Y-50481083D01*
X58629382Y-50475187D01*
X58595274Y-50463257D01*
X58592022Y-50462016D01*
X58537798Y-50439561D01*
X58519274Y-50429993D01*
X58484465Y-50408124D01*
X58479705Y-50404813D01*
X58431773Y-50368038D01*
X58425674Y-50362690D01*
X58392307Y-50329323D01*
X58386964Y-50323230D01*
X58375148Y-50307829D01*
X58350185Y-50275293D01*
X58346874Y-50270533D01*
X58325005Y-50235724D01*
X58315437Y-50217200D01*
X58292982Y-50162976D01*
X58291755Y-50159762D01*
X58279809Y-50125610D01*
X58273916Y-50100845D01*
X58263466Y-50021367D01*
X58260886Y-49998437D01*
X58260500Y-49991539D01*
X58260499Y-34748480D01*
X58260889Y-34741546D01*
X58263470Y-34718645D01*
X58266944Y-34692248D01*
X58273933Y-34639163D01*
X58279830Y-34614399D01*
X58291775Y-34580262D01*
X58293001Y-34577047D01*
X58315474Y-34522794D01*
X58325021Y-34504313D01*
X58346922Y-34469459D01*
X58350197Y-34464752D01*
X58387003Y-34416786D01*
X58392323Y-34410718D01*
X58425718Y-34377323D01*
X58431786Y-34372003D01*
X58479752Y-34335197D01*
X58484459Y-34331922D01*
X58519313Y-34310021D01*
X58537794Y-34300474D01*
X58592047Y-34278001D01*
X58595253Y-34276778D01*
X58629402Y-34264829D01*
X58654163Y-34258933D01*
X58701020Y-34252764D01*
X58733646Y-34248470D01*
X58742632Y-34247456D01*
X58756545Y-34245889D01*
X58763481Y-34245500D01*
X61036000Y-34245500D01*
X61103039Y-34265185D01*
G37*
%TD.AperFunction*%
%TD*%
%TA.AperFunction,Conductor*%
%TO.N,GND*%
G36*
X165348567Y-55504198D02*
G01*
X165382392Y-55530150D01*
X165398848Y-55546300D01*
X165398899Y-55546250D01*
X165408750Y-55556101D01*
X165408699Y-55556151D01*
X165424848Y-55572606D01*
X165431490Y-55581263D01*
X165436141Y-55581904D01*
X165462613Y-55598054D01*
X165492011Y-55621497D01*
X165505816Y-55628143D01*
X165527502Y-55641487D01*
X165538478Y-55649908D01*
X165540301Y-55649714D01*
X165571986Y-55660002D01*
X165593637Y-55670427D01*
X165614497Y-55675184D01*
X165625050Y-55677592D01*
X165644918Y-55683921D01*
X165662108Y-55691039D01*
X165695922Y-55693756D01*
X165703604Y-55695509D01*
X165759748Y-55695500D01*
X165767835Y-55696029D01*
X165806602Y-55701126D01*
X165842969Y-55695500D01*
X167756511Y-55695500D01*
X167763460Y-55695890D01*
X167786358Y-55698474D01*
X167865841Y-55708952D01*
X167890582Y-55714847D01*
X167924739Y-55726803D01*
X167927919Y-55728017D01*
X167982169Y-55750494D01*
X168000667Y-55760051D01*
X168035493Y-55781937D01*
X168040240Y-55785239D01*
X168088175Y-55822024D01*
X168094268Y-55827367D01*
X168127630Y-55860729D01*
X168132974Y-55866823D01*
X168169759Y-55914758D01*
X168173070Y-55919518D01*
X168194942Y-55954323D01*
X168204506Y-55972834D01*
X168226963Y-56027033D01*
X168228203Y-56030282D01*
X168240149Y-56064409D01*
X168246048Y-56089170D01*
X168256526Y-56168651D01*
X168259109Y-56191535D01*
X168259500Y-56198494D01*
X168259500Y-128541514D01*
X168259110Y-128548462D01*
X168256530Y-128571351D01*
X168246066Y-128650829D01*
X168240169Y-128675597D01*
X168228223Y-128709735D01*
X168226983Y-128712984D01*
X168204536Y-128767180D01*
X168194967Y-128785702D01*
X168173097Y-128820508D01*
X168169786Y-128825267D01*
X168133005Y-128873200D01*
X168127653Y-128879304D01*
X168094304Y-128912653D01*
X168088200Y-128918005D01*
X168040267Y-128954786D01*
X168035508Y-128958097D01*
X168000702Y-128979967D01*
X167982180Y-128989536D01*
X167927984Y-129011983D01*
X167924735Y-129013223D01*
X167890597Y-129025169D01*
X167865829Y-129031066D01*
X167786351Y-129041530D01*
X167765688Y-129043859D01*
X167763460Y-129044110D01*
X167756514Y-129044500D01*
X165842936Y-129044500D01*
X165818437Y-129037306D01*
X165767830Y-129043969D01*
X165759728Y-129044500D01*
X165703604Y-129044500D01*
X165695930Y-129046252D01*
X165672208Y-129044797D01*
X165644941Y-129056092D01*
X165625085Y-129062420D01*
X165593650Y-129069595D01*
X165593647Y-129069596D01*
X165572006Y-129080018D01*
X165546104Y-129084282D01*
X165527526Y-129098538D01*
X165505844Y-129111881D01*
X165492034Y-129118531D01*
X165492027Y-129118536D01*
X165462644Y-129141968D01*
X165436094Y-129152806D01*
X165424878Y-129167424D01*
X165408728Y-129183880D01*
X165408778Y-129183930D01*
X165398930Y-129193778D01*
X165398880Y-129193728D01*
X165382424Y-129209878D01*
X165373757Y-129216527D01*
X165373118Y-129221173D01*
X165356967Y-129247646D01*
X165335490Y-129274577D01*
X165278301Y-129314717D01*
X165208489Y-129317567D01*
X165148220Y-129282221D01*
X165116627Y-129219902D01*
X165114543Y-129197216D01*
X165149051Y-55677984D01*
X165149086Y-55602518D01*
X165168802Y-55535490D01*
X165221627Y-55489759D01*
X165290791Y-55479848D01*
X165348567Y-55504198D01*
G37*
%TD.AperFunction*%
%TA.AperFunction,Conductor*%
G36*
X167763460Y-34245890D02*
G01*
X167786358Y-34248474D01*
X167865841Y-34258952D01*
X167890582Y-34264847D01*
X167924739Y-34276803D01*
X167927919Y-34278017D01*
X167982169Y-34300494D01*
X168000667Y-34310051D01*
X168035493Y-34331937D01*
X168040240Y-34335239D01*
X168088175Y-34372024D01*
X168094268Y-34377367D01*
X168127630Y-34410729D01*
X168132974Y-34416823D01*
X168169759Y-34464758D01*
X168173070Y-34469518D01*
X168194942Y-34504323D01*
X168204506Y-34522834D01*
X168226963Y-34577033D01*
X168228203Y-34580282D01*
X168240149Y-34614409D01*
X168246048Y-34639170D01*
X168256526Y-34718651D01*
X168259109Y-34741535D01*
X168259500Y-34748494D01*
X168259500Y-49991514D01*
X168259110Y-49998462D01*
X168256530Y-50021351D01*
X168246066Y-50100829D01*
X168240169Y-50125597D01*
X168228223Y-50159735D01*
X168226983Y-50162984D01*
X168204536Y-50217180D01*
X168194967Y-50235702D01*
X168173097Y-50270508D01*
X168169786Y-50275267D01*
X168133005Y-50323200D01*
X168127653Y-50329304D01*
X168094304Y-50362653D01*
X168088200Y-50368005D01*
X168040267Y-50404786D01*
X168035508Y-50408097D01*
X168000702Y-50429967D01*
X167982180Y-50439536D01*
X167927984Y-50461983D01*
X167924735Y-50463223D01*
X167890597Y-50475169D01*
X167865829Y-50481066D01*
X167786351Y-50491530D01*
X167765688Y-50493859D01*
X167763460Y-50494110D01*
X167756514Y-50494500D01*
X165842936Y-50494500D01*
X165818437Y-50487306D01*
X165767830Y-50493969D01*
X165759728Y-50494500D01*
X165703604Y-50494500D01*
X165695930Y-50496252D01*
X165672208Y-50494797D01*
X165644941Y-50506092D01*
X165625085Y-50512420D01*
X165593650Y-50519595D01*
X165593647Y-50519596D01*
X165572006Y-50530018D01*
X165546104Y-50534282D01*
X165527526Y-50548538D01*
X165505844Y-50561881D01*
X165492034Y-50568531D01*
X165492027Y-50568536D01*
X165462644Y-50591968D01*
X165436094Y-50602806D01*
X165424878Y-50617424D01*
X165408728Y-50633880D01*
X165408778Y-50633930D01*
X165398930Y-50643778D01*
X165398880Y-50643728D01*
X165382424Y-50659878D01*
X165350928Y-50684046D01*
X165285759Y-50709241D01*
X165217314Y-50695203D01*
X165167324Y-50646389D01*
X165151441Y-50585613D01*
X165151459Y-50548538D01*
X165158875Y-34748494D01*
X165159053Y-34369442D01*
X165178769Y-34302412D01*
X165231594Y-34256681D01*
X165283053Y-34245500D01*
X167756511Y-34245500D01*
X167763460Y-34245890D01*
G37*
%TD.AperFunction*%
%TD*%
M02*
