%TF.GenerationSoftware,KiCad,Pcbnew,7.0.6-0*%
%TF.CreationDate,2023-11-06T16:45:33-05:00*%
%TF.ProjectId,bitcrane,62697463-7261-46e6-952e-6b696361645f,rev?*%
%TF.SameCoordinates,Original*%
%TF.FileFunction,Paste,Top*%
%TF.FilePolarity,Positive*%
%FSLAX46Y46*%
G04 Gerber Fmt 4.6, Leading zero omitted, Abs format (unit mm)*
G04 Created by KiCad (PCBNEW 7.0.6-0) date 2023-11-06 16:45:33*
%MOMM*%
%LPD*%
G01*
G04 APERTURE LIST*
G04 Aperture macros list*
%AMRoundRect*
0 Rectangle with rounded corners*
0 $1 Rounding radius*
0 $2 $3 $4 $5 $6 $7 $8 $9 X,Y pos of 4 corners*
0 Add a 4 corners polygon primitive as box body*
4,1,4,$2,$3,$4,$5,$6,$7,$8,$9,$2,$3,0*
0 Add four circle primitives for the rounded corners*
1,1,$1+$1,$2,$3*
1,1,$1+$1,$4,$5*
1,1,$1+$1,$6,$7*
1,1,$1+$1,$8,$9*
0 Add four rect primitives between the rounded corners*
20,1,$1+$1,$2,$3,$4,$5,0*
20,1,$1+$1,$4,$5,$6,$7,0*
20,1,$1+$1,$6,$7,$8,$9,0*
20,1,$1+$1,$8,$9,$2,$3,0*%
G04 Aperture macros list end*
%ADD10C,0.010000*%
%ADD11R,0.711200X0.304800*%
%ADD12R,0.304800X0.711200*%
%ADD13RoundRect,0.200000X-0.200000X-0.275000X0.200000X-0.275000X0.200000X0.275000X-0.200000X0.275000X0*%
%ADD14RoundRect,0.200000X0.200000X0.275000X-0.200000X0.275000X-0.200000X-0.275000X0.200000X-0.275000X0*%
%ADD15RoundRect,0.250000X0.250000X0.475000X-0.250000X0.475000X-0.250000X-0.475000X0.250000X-0.475000X0*%
%ADD16RoundRect,0.135000X-0.135000X-0.185000X0.135000X-0.185000X0.135000X0.185000X-0.135000X0.185000X0*%
%ADD17RoundRect,0.140000X-0.170000X0.140000X-0.170000X-0.140000X0.170000X-0.140000X0.170000X0.140000X0*%
%ADD18R,0.952500X0.558800*%
%ADD19RoundRect,0.140000X-0.140000X-0.170000X0.140000X-0.170000X0.140000X0.170000X-0.140000X0.170000X0*%
%ADD20R,1.500000X1.700000*%
%ADD21C,1.500000*%
%ADD22RoundRect,0.140000X0.140000X0.170000X-0.140000X0.170000X-0.140000X-0.170000X0.140000X-0.170000X0*%
%ADD23RoundRect,0.135000X0.185000X-0.135000X0.185000X0.135000X-0.185000X0.135000X-0.185000X-0.135000X0*%
%ADD24RoundRect,0.140000X0.170000X-0.140000X0.170000X0.140000X-0.170000X0.140000X-0.170000X-0.140000X0*%
%ADD25R,0.600000X1.000000*%
%ADD26R,0.700000X0.420000*%
%ADD27R,0.800000X0.900000*%
%ADD28R,0.600000X1.150000*%
%ADD29R,0.300000X1.150000*%
%ADD30O,1.000000X2.100000*%
%ADD31O,1.000000X1.800000*%
%ADD32RoundRect,0.250000X-1.050000X-0.550000X1.050000X-0.550000X1.050000X0.550000X-1.050000X0.550000X0*%
%ADD33RoundRect,0.135000X0.135000X0.185000X-0.135000X0.185000X-0.135000X-0.185000X0.135000X-0.185000X0*%
%ADD34RoundRect,0.250000X1.050000X0.550000X-1.050000X0.550000X-1.050000X-0.550000X1.050000X-0.550000X0*%
%ADD35RoundRect,0.135000X-0.185000X0.135000X-0.185000X-0.135000X0.185000X-0.135000X0.185000X0.135000X0*%
%ADD36R,1.200000X1.800000*%
%ADD37R,1.473200X0.355600*%
%ADD38R,1.400000X1.400000*%
%ADD39C,1.400000*%
%ADD40RoundRect,0.018900X0.116100X-0.391100X0.116100X0.391100X-0.116100X0.391100X-0.116100X-0.391100X0*%
%ADD41RoundRect,0.018900X0.391100X0.116100X-0.391100X0.116100X-0.391100X-0.116100X0.391100X-0.116100X0*%
%ADD42RoundRect,0.018900X-0.116100X0.391100X-0.116100X-0.391100X0.116100X-0.391100X0.116100X0.391100X0*%
%ADD43RoundRect,0.018900X-0.391100X-0.116100X0.391100X-0.116100X0.391100X0.116100X-0.391100X0.116100X0*%
%ADD44RoundRect,0.250000X-0.475000X0.250000X-0.475000X-0.250000X0.475000X-0.250000X0.475000X0.250000X0*%
G04 APERTURE END LIST*
%TO.C,U4*%
G36*
X119610000Y-65790000D02*
G01*
X118463800Y-65790000D01*
X118463800Y-64643800D01*
X119610000Y-64643800D01*
X119610000Y-65790000D01*
G37*
G36*
X119610000Y-67136200D02*
G01*
X118463800Y-67136200D01*
X118463800Y-65990000D01*
X119610000Y-65990000D01*
X119610000Y-67136200D01*
G37*
G36*
X120956200Y-65790000D02*
G01*
X119810000Y-65790000D01*
X119810000Y-64643800D01*
X120956200Y-64643800D01*
X120956200Y-65790000D01*
G37*
G36*
X120956200Y-67136200D02*
G01*
X119810000Y-67136200D01*
X119810000Y-65990000D01*
X120956200Y-65990000D01*
X120956200Y-67136200D01*
G37*
%TO.C,U1*%
D10*
X115815000Y-99030000D02*
X114275000Y-99030000D01*
X114275000Y-97490000D01*
X115815000Y-97490000D01*
X115815000Y-99030000D01*
G36*
X115815000Y-99030000D02*
G01*
X114275000Y-99030000D01*
X114275000Y-97490000D01*
X115815000Y-97490000D01*
X115815000Y-99030000D01*
G37*
X117995000Y-99030000D02*
X116455000Y-99030000D01*
X116455000Y-97490000D01*
X117995000Y-97490000D01*
X117995000Y-99030000D01*
G36*
X117995000Y-99030000D02*
G01*
X116455000Y-99030000D01*
X116455000Y-97490000D01*
X117995000Y-97490000D01*
X117995000Y-99030000D01*
G37*
X115815000Y-96850000D02*
X114275000Y-96850000D01*
X114275000Y-95310000D01*
X115815000Y-95310000D01*
X115815000Y-96850000D01*
G36*
X115815000Y-96850000D02*
G01*
X114275000Y-96850000D01*
X114275000Y-95310000D01*
X115815000Y-95310000D01*
X115815000Y-96850000D01*
G37*
X117995000Y-96850000D02*
X116455000Y-96850000D01*
X116455000Y-95310000D01*
X117995000Y-95310000D01*
X117995000Y-96850000D01*
G36*
X117995000Y-96850000D02*
G01*
X116455000Y-96850000D01*
X116455000Y-95310000D01*
X117995000Y-95310000D01*
X117995000Y-96850000D01*
G37*
%TD*%
D11*
%TO.C,U4*%
X117760799Y-64915001D03*
X117760799Y-65564999D03*
X117760799Y-66215001D03*
X117760799Y-66864999D03*
D12*
X118735001Y-67839201D03*
X119384999Y-67839201D03*
X120035001Y-67839201D03*
X120684999Y-67839201D03*
D11*
X121659201Y-66864999D03*
X121659201Y-66215001D03*
X121659201Y-65564999D03*
X121659201Y-64915001D03*
D12*
X120684999Y-63940799D03*
X120035001Y-63940799D03*
X119384999Y-63940799D03*
X118735001Y-63940799D03*
%TD*%
D13*
%TO.C,FB2*%
X110105000Y-112810000D03*
X111755000Y-112810000D03*
%TD*%
D14*
%TO.C,FB1*%
X120945000Y-112730000D03*
X119295000Y-112730000D03*
%TD*%
D15*
%TO.C,C6*%
X109430000Y-92390000D03*
X107530000Y-92390000D03*
%TD*%
D16*
%TO.C,R1*%
X79330000Y-52160000D03*
X80350000Y-52160000D03*
%TD*%
%TO.C,R16*%
X104820000Y-54970000D03*
X105840000Y-54970000D03*
%TD*%
D17*
%TO.C,C10*%
X117480000Y-104970000D03*
X117480000Y-105930000D03*
%TD*%
D18*
%TO.C,U2*%
X102418950Y-123724800D03*
X102418950Y-122785000D03*
X102418950Y-121845200D03*
X99663050Y-121845200D03*
X99663050Y-123724800D03*
%TD*%
D19*
%TO.C,C11*%
X119593000Y-90397000D03*
X120553000Y-90397000D03*
%TD*%
D20*
%TO.C,J2*%
X86700000Y-47630000D03*
D21*
X86700000Y-45630000D03*
X84700000Y-47630000D03*
X84700000Y-45630000D03*
X82700000Y-47630000D03*
X82700000Y-45630000D03*
X80700000Y-47630000D03*
X80700000Y-45630000D03*
X78700000Y-47630000D03*
X78700000Y-45630000D03*
X76700000Y-47630000D03*
X76700000Y-45630000D03*
X74700000Y-47630000D03*
X74700000Y-45630000D03*
X72700000Y-47630000D03*
X72700000Y-45630000D03*
X70700000Y-47630000D03*
X70700000Y-45630000D03*
%TD*%
D22*
%TO.C,C13*%
X108452000Y-96946000D03*
X107492000Y-96946000D03*
%TD*%
D23*
%TO.C,R11*%
X119074000Y-104440000D03*
X119074000Y-103420000D03*
%TD*%
D24*
%TO.C,C2*%
X112040000Y-109080000D03*
X112040000Y-108120000D03*
%TD*%
D23*
%TO.C,R8*%
X98276000Y-96106000D03*
X98276000Y-95086000D03*
%TD*%
D25*
%TO.C,Q1*%
X143120000Y-60720000D03*
X143120000Y-61850000D03*
X143830000Y-60720000D03*
X143830000Y-61850000D03*
D26*
X144600000Y-60310000D03*
X144600000Y-60960000D03*
X144600000Y-61610000D03*
X144600000Y-62260000D03*
X141600000Y-60310000D03*
X141600000Y-60960000D03*
X141600000Y-61610000D03*
X141600000Y-62260000D03*
%TD*%
D22*
%TO.C,C9*%
X109521000Y-101417000D03*
X108561000Y-101417000D03*
%TD*%
D27*
%TO.C,D1*%
X136640000Y-64030000D03*
X138540000Y-64030000D03*
X137590000Y-62030000D03*
%TD*%
D17*
%TO.C,C8*%
X98328000Y-124085000D03*
X98328000Y-125045000D03*
%TD*%
D28*
%TO.C,J6*%
X107900000Y-127155000D03*
X108700000Y-127155000D03*
D29*
X109850000Y-127155000D03*
X110850000Y-127155000D03*
X111350000Y-127155000D03*
X112350000Y-127155000D03*
D28*
X113500000Y-127155000D03*
X114300000Y-127155000D03*
X114300000Y-127155000D03*
X113500000Y-127155000D03*
D29*
X112850000Y-127155000D03*
X111850000Y-127155000D03*
X110350000Y-127155000D03*
X109350000Y-127155000D03*
D28*
X108700000Y-127155000D03*
X107900000Y-127155000D03*
D30*
X106780000Y-127730000D03*
D31*
X106780000Y-131910000D03*
D30*
X115420000Y-127730000D03*
D31*
X115420000Y-131910000D03*
%TD*%
D32*
%TO.C,C19*%
X120070000Y-117360000D03*
X123670000Y-117360000D03*
%TD*%
D33*
%TO.C,R2*%
X80230000Y-41660000D03*
X79210000Y-41660000D03*
%TD*%
D34*
%TO.C,C18*%
X111328000Y-117254000D03*
X107728000Y-117254000D03*
%TD*%
D23*
%TO.C,R12*%
X114628000Y-105286000D03*
X114628000Y-104266000D03*
%TD*%
D19*
%TO.C,C17*%
X119110000Y-114060000D03*
X120070000Y-114060000D03*
%TD*%
D35*
%TO.C,R10*%
X140300000Y-63860000D03*
X140300000Y-64880000D03*
%TD*%
D22*
%TO.C,C16*%
X111906000Y-114078000D03*
X110946000Y-114078000D03*
%TD*%
D19*
%TO.C,C14*%
X116440000Y-89792000D03*
X117400000Y-89792000D03*
%TD*%
D16*
%TO.C,R15*%
X96040000Y-55070000D03*
X97060000Y-55070000D03*
%TD*%
D17*
%TO.C,C7*%
X104531000Y-123992000D03*
X104531000Y-124952000D03*
%TD*%
D36*
%TO.C,Y1*%
X107520000Y-106800000D03*
X107520000Y-110800000D03*
X109920000Y-110800000D03*
X109920000Y-106800000D03*
%TD*%
D17*
%TO.C,C1*%
X104970000Y-108070000D03*
X104970000Y-109030000D03*
%TD*%
D35*
%TO.C,R5*%
X117634000Y-128431000D03*
X117634000Y-129451000D03*
%TD*%
D37*
%TO.C,U3*%
X98740000Y-100580000D03*
X98740000Y-99930002D03*
X98740000Y-99280000D03*
X98740000Y-98630002D03*
X92847200Y-98630002D03*
X92847200Y-99280000D03*
X92847200Y-99930002D03*
X92847200Y-100580000D03*
%TD*%
D23*
%TO.C,R9*%
X101219000Y-96089000D03*
X101219000Y-95069000D03*
%TD*%
D33*
%TO.C,R6*%
X102160000Y-98510000D03*
X101140000Y-98510000D03*
%TD*%
D16*
%TO.C,R14*%
X119030000Y-57490000D03*
X120050000Y-57490000D03*
%TD*%
D17*
%TO.C,C3*%
X145930000Y-62540000D03*
X145930000Y-63500000D03*
%TD*%
D38*
%TO.C,J1*%
X158930000Y-62590000D03*
D39*
X158930000Y-64590000D03*
X158930000Y-66590000D03*
X156930000Y-62590000D03*
X156930000Y-64590000D03*
X156930000Y-66590000D03*
%TD*%
D40*
%TO.C,U1*%
X112385000Y-101615000D03*
X112885000Y-101615000D03*
X113385000Y-101615000D03*
X113885000Y-101615000D03*
X114385000Y-101615000D03*
X114885000Y-101615000D03*
X115385000Y-101615000D03*
X115885000Y-101615000D03*
X116385000Y-101615000D03*
X116885000Y-101615000D03*
X117385000Y-101615000D03*
X117885000Y-101615000D03*
X118385000Y-101615000D03*
X118885000Y-101615000D03*
X119385000Y-101615000D03*
X119885000Y-101615000D03*
D41*
X120580000Y-100920000D03*
X120580000Y-100420000D03*
X120580000Y-99920000D03*
X120580000Y-99420000D03*
X120580000Y-98920000D03*
X120580000Y-98420000D03*
X120580000Y-97920000D03*
X120580000Y-97420000D03*
X120580000Y-96920000D03*
X120580000Y-96420000D03*
X120580000Y-95920000D03*
X120580000Y-95420000D03*
X120580000Y-94920000D03*
X120580000Y-94420000D03*
X120580000Y-93920000D03*
X120580000Y-93420000D03*
D42*
X119885000Y-92725000D03*
X119385000Y-92725000D03*
X118885000Y-92725000D03*
X118385000Y-92725000D03*
X117885000Y-92725000D03*
X117385000Y-92725000D03*
X116885000Y-92725000D03*
X116385000Y-92725000D03*
X115885000Y-92725000D03*
X115385000Y-92725000D03*
X114885000Y-92725000D03*
X114385000Y-92725000D03*
X113885000Y-92725000D03*
X113385000Y-92725000D03*
X112885000Y-92725000D03*
X112385000Y-92725000D03*
D43*
X111690000Y-93420000D03*
X111690000Y-93920000D03*
X111690000Y-94420000D03*
X111690000Y-94920000D03*
X111690000Y-95420000D03*
X111690000Y-95920000D03*
X111690000Y-96420000D03*
X111690000Y-96920000D03*
X111690000Y-97420000D03*
X111690000Y-97920000D03*
X111690000Y-98420000D03*
X111690000Y-98920000D03*
X111690000Y-99420000D03*
X111690000Y-99920000D03*
X111690000Y-100420000D03*
X111690000Y-100920000D03*
%TD*%
D17*
%TO.C,C4*%
X135080000Y-61970000D03*
X135080000Y-62930000D03*
%TD*%
D23*
%TO.C,R7*%
X95180000Y-96106000D03*
X95180000Y-95086000D03*
%TD*%
D22*
%TO.C,C20*%
X114760000Y-66210000D03*
X113800000Y-66210000D03*
%TD*%
D35*
%TO.C,R4*%
X104849000Y-128442000D03*
X104849000Y-129462000D03*
%TD*%
D16*
%TO.C,R3*%
X84250000Y-41660000D03*
X85270000Y-41660000D03*
%TD*%
%TO.C,R13*%
X130890000Y-57450000D03*
X131910000Y-57450000D03*
%TD*%
D44*
%TO.C,C5*%
X133210000Y-61930000D03*
X133210000Y-63830000D03*
%TD*%
D22*
%TO.C,C12*%
X108451000Y-93946000D03*
X107491000Y-93946000D03*
%TD*%
D19*
%TO.C,C15*%
X125256000Y-99424000D03*
X126216000Y-99424000D03*
%TD*%
M02*
